<svg xmlns="http://www.w3.org/2000/svg" width="800.332" height="327.759" viewBox="0 0 800.332 327.759">
  <g id="logo-w-w" transform="translate(-4213.464 -2964.583)">
    <path id="Path_22" data-name="Path 22" d="M404.85,1071.48a48.459,48.459,0,0,0,24.48,6.9c14,0,22.14-7.37,22.14-18.05,0-9.89-5.65-15.54-19.94-21-17.26-6.12-27.94-15.07-27.94-30,0-16.48,13.66-28.73,34.22-28.73,10.83,0,18.68,2.51,23.39,5.18l-3.77,11.15a42,42,0,0,0-20.09-5c-14.44,0-19.93,8.64-19.93,15.86,0,9.89,6.43,14.75,21,20.4,17.89,6.91,27,15.54,27,31.08,0,16.33-12.09,30.46-37.05,30.46-10.2,0-21.34-3-27-6.75Z" transform="translate(4134.726 2122.11)" fill="#fff"/>
    <path id="Path_23" data-name="Path 23" d="M533.78,981.38V1044c0,23.7,10.51,33.75,24.64,33.75,15.7,0,25.74-10.36,25.74-33.75V981.38H598v61.69c0,32.49-17.11,45.83-40,45.83-21.66,0-38-12.4-38-45.21V981.38Z" transform="translate(4134.726 2122.11)" fill="#fff"/>
    <path id="Path_24" data-name="Path 24" d="M643.8,1071.48a48.458,48.458,0,0,0,24.48,6.9c14,0,22.14-7.37,22.14-18.05,0-9.89-5.66-15.54-19.94-21-17.27-6.12-27.94-15.07-27.94-30,0-16.48,13.66-28.73,34.22-28.73,10.83,0,18.68,2.51,23.39,5.18l-3.77,11.15a42,42,0,0,0-20.09-5c-14.44,0-19.94,8.64-19.94,15.86,0,9.89,6.44,14.75,21,20.4,17.89,6.91,27,15.54,27,31.08,0,16.33-12.08,30.46-37,30.46-10.2,0-21.35-3-27-6.75Z" transform="translate(4134.726 2122.11)" fill="#fff"/>
    <path id="Path_25" data-name="Path 25" d="M758.72,984.62v42.27h51.17V984.62h13.82v101H809.89v-47.37H758.72v47.37H745.07v-101Z" transform="translate(4134.726 2122.11)" fill="#fff"/>
    <path id="Path_26" data-name="Path 26" d="M879.07,984.26V1086H865.41V984.26Z" transform="translate(4134.726 2122.11)" fill="#fff"/>
    <path id="Path_27" data-name="Path 27" d="M519.5,910.89c.69.35,5.89,3.13,7,9,1,5.33-1.77,11-7,14l-430,92c-4.28,1.08-8.11,0-9-2-1-2.28,1.32-6.93,7-9Z" transform="translate(4134.726 2122.11)"/>
    <path id="Path_28" data-name="Path 28" d="M518.5,911.89c.69.35,5.89,3.13,7,9,1,5.33-1.77,11-7,14l-430,92c-4.28,1.08-8.11,0-9-2-1-2.28,1.32-6.93,7-9Z" transform="translate(4134.726 2122.11)" fill="#8c6239" stroke="#000" stroke-miterlimit="10" stroke-width="1"/>
    <path id="Path_29" data-name="Path 29" d="M552.5,926.86l-85.62,18.32a13.15,13.15,0,0,0,4.62-12.29,13,13,0,0,0-5.6-8.15l86.6-20.85c.69.35,5.89,3.13,7,9C560.51,918.23,557.73,923.91,552.5,926.86Z" transform="translate(4134.726 2122.11)" fill="#fff" stroke="#000" stroke-miterlimit="10" stroke-width="1"/>
    <path id="Path_30" data-name="Path 30" d="M323.17,1085.89c-9.07,6.76-40,27-93,28-50.18.95-81.9-31.29-90-39l3-81a169.29,169.29,0,0,1,90-26c47,0,76.43,18,89,26Z" transform="translate(4134.726 2122.11)"/>
    <ellipse id="Ellipse_5" data-name="Ellipse 5" cx="78.57" cy="32.08" rx="78.57" ry="32.08" transform="translate(4287.826 3096.84)" fill="#fff"/>
    <path id="Path_31" data-name="Path 31" d="M519.5,842.89a17.19,17.19,0,0,1,15,18l-321,305c-3.7,4.59-9.7,4.53-12,2-2.1-2.31-1.86-7.52,2-11Z" transform="translate(4134.726 2122.11)"/>
    <ellipse id="Ellipse_6" data-name="Ellipse 6" cx="60" cy="24.5" rx="60" ry="24.5" transform="translate(4306.396 3104)" fill="red"/>
    <path id="Path_32" data-name="Path 32" d="M527.38,851.15" transform="translate(4134.726 2122.11)" fill="none" stroke="#28ff17" stroke-miterlimit="10" stroke-width="3"/>
    <path id="Path_33" data-name="Path 33" d="M519.48,843a17.19,17.19,0,0,1,15,18l-321,305c-3.69,4.59-9.7,4.53-12,2-2.09-2.31-1.85-7.52,2-11Z" transform="translate(4134.726 2122.11)" fill="#8c6239" stroke="#000" stroke-miterlimit="10" stroke-width="1"/>
    <path id="Path_34" data-name="Path 34" d="M534.48,861l-48,45.6a17.17,17.17,0,0,0-14.4-16.51L519.48,843A17.19,17.19,0,0,1,534.48,861Z" transform="translate(4134.726 2122.11)" fill="#fff" stroke="#000" stroke-miterlimit="10" stroke-width="1"/>
  </g>
</svg>
