<svg xmlns="http://www.w3.org/2000/svg" width="470.517" height="420.628" viewBox="0 0 470.517 420.628">
  <g id="s1" transform="translate(-7166.574 -3821.465)">
    <path id="Path_383" data-name="Path 383" d="M-1134,379c6.51-1.27,13-2.3,19.73-1.94,5.38.29,10,1.94,13.13,6.52a3.52,3.52,0,0,0,1.63,3.16c.43,1.46.86,2.92,2.67,3.25a6.269,6.269,0,0,0,1.06,4.32c2.54,4.63,5.15,9.23,7.73,13.84a6.861,6.861,0,0,1-1.76,3.9c-2.7,2.24-6.12,3.67-7.9,7l.08-.07a15.27,15.27,0,0,0-7.85,6.28l.1-.07c-2.86.82-4.78,3-6.91,4.82-8.34,6.22-17,12-23,21a8.929,8.929,0,0,0,3.35-1.44q15-10.35,29.94-20.76,8-5.55,15.74-11.31c1.37-1,2.35-.17,3.47.26,3.1,5.65,6,11.45,9.36,16.92,6,9.61,4.72,18.52-1.61,27.36-5.2,7.28-11.85,12.9-19.3,17.67-2.6,1.67-5.31,3.16-8,4.74-1.67-.13-2.81,1.08-4.17,1.71-16,7.35-32.56,10.48-50,5.89-6-3-9.7-7.9-12.79-13.8-8.68-16.58-17.84-32.92-26.8-49.33l2.65-.85c2.37,1.78,5.2,2.19,8,2.58,6,.82,11.83-.24,17.62-1.51a133,133,0,0,0,43.12-18.24,79.4,79.4,0,0,0,14.4-11.61,32,32,0,0,0,5.83-8.12c2.47-5,.71-9-4.54-11.08a22.471,22.471,0,0,0-6.77-1.37c-5.22-.34-10.24.86-15.33,1.6Z" transform="translate(8365.291 3729.758)" fill="#060a02"/>
    <path id="Path_384" data-name="Path 384" d="M-1082.8,417.69c-1.12-.43-2.1-1.27-3.47-.26q-7.8,5.74-15.74,11.31-14.92,10.44-29.94,20.76a8.929,8.929,0,0,1-3.35,1.44c6-9,14.66-14.79,23-21a7.84,7.84,0,0,0,6.91-4.82l-.1.07a10.6,10.6,0,0,0,7.85-6.28l-.08.07c4-.71,6.78-2.91,7.9-7a6.86,6.86,0,0,0,1.76-3.9,2.26,2.26,0,0,1,1.27.28c.69,2.4,1.36,2.94,2.64,2,4.56-3.38,9.11-6.78,13.62-10.24q32.87-25.25,65.72-50.53c16.6-12.72,33.28-25.35,49.89-38.07q47.38-36.27,94.75-72.57a19,19,0,0,1,3.41-1.69l5.07,4.8c-12.75,9.68-25.43,19.44-38.26,29q-83.47,62.37-167,124.65c-7.66,5.71-15.42,11.29-23.14,16.92C-1081.83,413.93-1083.45,415.19-1082.8,417.69Z" transform="translate(8365.291 3729.758)" fill="#b5713e"/>
    <path id="Path_385" data-name="Path 385" d="M-1096.85,390c-1.81-.33-2.24-1.79-2.67-3.25,4.88-4.19,9.9-8.22,14.6-12.59q28.89-26.88,57.62-53.94c5.62-5.29,11.12-10.7,16.67-16.06v.05c1.4-1.12,2.88-2.15,4.2-3.36q10.22-9.45,20.37-19,28.76-27,57.48-54c4.32-4,8.81-7.92,13.09-12,5.58-5.34,11-10.82,16.54-16.24l.91,1.46a6,6,0,0,1,4,4c-.36,2.29-2.33,3.27-3.82,4.64-22,20.27-44,40.61-66.13,60.77q-63.24,57.61-126.65,115C-1092.55,387.23-1094.09,389.45-1096.85,390Z" transform="translate(8365.291 3729.758)" fill="#b5713e"/>
    <path id="Path_386" data-name="Path 386" d="M-851.69,242.09l-5.07-4.8c.93-1.95,2.73-3,4.34-4.26,3.65-2.85,7.36-5.61,11-8.48.9-.72,2.57-1.44,1.69-2.88s-2.28-.34-3.21.36c-4.11,3.08-8.16,6.25-12.22,9.4-1.41,1.09-2.7,2.4-4.72,2.17l.36-.37-.23-.47c9.09-7.16,18.11-14.44,27.3-21.48q45.09-34.56,90.3-69a49.592,49.592,0,0,1,4.45-3,1.34,1.34,0,0,1,1.16.44c.07.42-.26.91-.43,1.36a24.124,24.124,0,0,0-3.32,1.81q-48.45,37.2-96.84,74.46a16.7,16.7,0,0,0-2.66,2.72c-.19.24,0,.92.22,1.34a.84.84,0,0,0,.56.52.84.84,0,0,0,.75-.15,21,21,0,0,0,2.63-1.57q11.08-8.44,22.11-16.94l74.92-57.43c1.81-1.38,3.3-3.37,6-3.23l4.4,5.25c-1,2.15-2.94,3-4.52,4.24q-58.44,44.43-116.93,88.79a20.758,20.758,0,0,1-2.04,1.2Z" transform="translate(8365.291 3729.758)" fill="#060a02"/>
    <path id="Path_387" data-name="Path 387" d="M-1156.5,492c17.44,4.59,34,1.46,50-5.89,1.36-.63,2.5-1.84,4.17-1.71,2.34,2.4,5.45,2.73,8.49,2.93,4.47.28,8.51,2,12.67,3.31a12.28,12.28,0,0,1,5.58,4,4.87,4.87,0,0,1,1.394,3.538,4.87,4.87,0,0,1-1.574,3.462,12.4,12.4,0,0,1-3.62,2.81,61.152,61.152,0,0,1-10,4.07c-8.22,2.15-16.52,4-25.13,3.8-7.48-.15-15,0-22.44-.11-6.25-.07-12.26-1.59-18.14-3.49a22.862,22.862,0,0,1-6.78-3.62c-2.89-2.23-3-5.52-.41-8.06C-1160.48,495.21-1158.44,493.64-1156.5,492Z" transform="translate(8365.291 3729.758)" fill="#b8b5aa"/>
    <path id="Path_388" data-name="Path 388" d="M-894.06,205.07a6,6,0,0,0-4-4c.28-3.24,3.1-4.63,5.07-6.48q45.07-42.37,90.32-84.56c5.63-5.25,10.87-11,17.2-15.46l5.92,5.57c-6.37,6-12.54,11.74-18.74,17.49L-889,201.71C-890.54,203.1-891.79,204.84-894.06,205.07Z" transform="translate(8365.291 3729.758)" fill="#060a02"/>
    <path id="Path_389" data-name="Path 389" d="M-859.89,233.6c2,.23,3.31-1.08,4.72-2.17,4.06-3.15,8.11-6.32,12.22-9.4.93-.7,2.27-1.9,3.21-.36s-.79,2.16-1.69,2.88c-3.63,2.87-7.34,5.63-11,8.48-1.61,1.24-3.41,2.31-4.34,4.26a19,19,0,0,0-3.41,1.69q-47.4,36.25-94.75,72.57c-16.61,12.72-33.29,25.35-49.89,38.07q-32.89,25.23-65.72,50.53c-4.51,3.46-9.06,6.86-13.62,10.24-1.28.95-1.95.41-2.64-2q27-21.33,54.11-42.64,33.18-26.07,66.43-52.07c1.81-1.41,3.53-3,6-3.35a6.82,6.82,0,0,0,4.2-1.56c5.48-4.86,12.29-8.13,16.89-14.06l-.12.09a11,11,0,0,0,2.8-1.12q14-10.68,27.9-21.48c1.4-1.08,3-2.07,3.58-3.88l-.11.08c3.59-.41,5.71-3.31,8.21-5.3,4.13-3.28,9.17-5.58,12.08-10.3l-.1.08c3.59-.42,5.71-3.3,8.21-5.3,4.12-3.3,9.17-5.58,12.08-10.31l-.1.08a5.62,5.62,0,0,0,4.85-3.75Z" transform="translate(8365.291 3729.758)" fill="#e6be8b"/>
    <path id="Path_390" data-name="Path 390" d="M-1010.63,304.12c-5.55,5.36-11,10.77-16.67,16.06q-28.77,27-57.62,53.94c-4.7,4.37-9.72,8.4-14.6,12.59a3.52,3.52,0,0,1-1.63-3.16c2-.71,3.34-2.36,4.82-3.79q27.52-26.6,55.09-53.16c6.69-6.43,13.49-12.74,20.25-19.1.92-.87,1.76-1.92,3.24-1.8l2.47-1.66-.15.09C-1013.83,304-1012.23,302.75-1010.63,304.12Z" transform="translate(8365.291 3729.758)" fill="#e6be8b"/>
    <path id="Path_391" data-name="Path 391" d="M-902,196.59c5.13-6.2,11.39-11.24,17.22-16.7q45.82-43,91.79-85.8c1.1-1,2-2.54,3.78-2.37.59.06.73.69.49,1.27a18.679,18.679,0,0,0-2.54,1.69l-83,78c-9,8.47-18.19,16.8-27.29,25.2l-.33-.17.29-.58Z" transform="translate(8365.291 3729.758)" fill="#060a02"/>
    <path id="Path_392" data-name="Path 392" d="M-901.52,197.84c9.1-8.4,18.26-16.73,27.29-25.2q41.54-39,83-78A18.686,18.686,0,0,1-788.7,93c1.26.16,2.49.36,3.21,1.61-6.33,4.49-11.57,10.21-17.2,15.46Q-848,152.24-893,194.62c-2,1.85-4.79,3.24-5.07,6.48-.31-.49-.61-1-.91-1.47Z" transform="translate(8365.291 3729.758)" fill="#b8b5aa"/>
    <path id="Path_393" data-name="Path 393" d="M-732.66,142.62c-2.65-.14-4.14,1.85-6,3.23l-74.92,57.43q-11,8.47-22.11,16.94a21,21,0,0,1-2.63,1.57.84.84,0,0,1-.749.15.84.84,0,0,1-.56-.52c-.18-.42-.41-1.1-.22-1.34a16.7,16.7,0,0,1,2.66-2.72q48.39-37.26,96.84-74.46a24.124,24.124,0,0,1,3.32-1.81C-735.26,140.83-733.59,140.67-732.66,142.62Z" transform="translate(8365.291 3729.758)" fill="#b8b5aa"/>
    <path id="Path_394" data-name="Path 394" d="M-992.27,282.11c.23-1.68,1.52-2.63,2.62-3.67q38.13-36,76.29-71.95a22.4,22.4,0,0,1,3.16-2.13l.45.39c-1.72,3.28-4.73,5.38-7.32,7.82q-31,29.43-62.2,58.72c-4.11,3.88-8.05,7.93-12.77,11.09Z" transform="translate(8365.291 3729.758)" fill="#b5713e"/>
    <path id="Path_395" data-name="Path 395" d="M-1193.44,428l-2.65.85c-3.38-3.1-3.08-6.76-1.44-10.48A32.33,32.33,0,0,1-1191,409c9.8-10.14,21.7-17.1,34.44-22.73,7.22-3.2,14.52-6.35,22.52-7.27l2.91,1.28a15.361,15.361,0,0,1-5,1.82,132.431,132.431,0,0,0-44.73,21.68,57.77,57.77,0,0,0-10.56,10.1C-1194.81,418.09-1196.52,422.75-1193.44,428Z" transform="translate(8365.291 3729.758)" fill="#b5713e"/>
    <path id="Path_396" data-name="Path 396" d="M-905,268.33c-.63,1.81-2.18,2.8-3.58,3.88q-13.9,10.8-27.9,21.48a11,11,0,0,1-2.8,1.12c.33-.66.48-1.53,1-1.93q15.2-11.86,30.48-23.58a9.52,9.52,0,0,1,2.8-.97Z" transform="translate(8365.291 3729.758)" fill="#b5713e"/>
    <path id="Path_397" data-name="Path 397" d="M-1010.63,304.12c-1.6-1.37-3.2-.16-4.8,0a6.083,6.083,0,0,1,.91-2q10-9.62,20.17-19.11a6.712,6.712,0,0,1,2.08-.87l.23.26c-2.09,2.21-4.12,4.48-6.28,6.62-3.8,3.77-7.71,7.42-11.51,11.19-1.08,1.07-2,2.34-.84,4Z" transform="translate(8365.291 3729.758)" fill="#b5713e"/>
    <path id="Path_398" data-name="Path 398" d="M-864.68,237.28c-2.91,4.73-8,7-12.08,10.31-2.5,2-4.62,4.88-8.21,5.3a1.86,1.86,0,0,1,.09-.76,115.6,115.6,0,0,1,19.44-14.87C-865.26,237.15-864.94,237.27-864.68,237.28Z" transform="translate(8365.291 3729.758)" fill="#b5713e"/>
    <path id="Path_399" data-name="Path 399" d="M-884.87,252.81c-2.91,4.72-8,7-12.08,10.3-2.5,2-4.62,4.89-8.21,5.3.15-.47.15-1.13.47-1.38q8.78-6.93,17.64-13.74C-886.51,252.88-885.6,253-884.87,252.81Z" transform="translate(8365.291 3729.758)" fill="#b5713e"/>
    <path id="Path_400" data-name="Path 400" d="M-939.21,294.72c-4.6,5.93-11.41,9.2-16.89,14.06a6.82,6.82,0,0,1-4.2,1.56c5.88-5.57,12.54-10.17,19-15a6.491,6.491,0,0,1,2.09-.62Z" transform="translate(8365.291 3729.758)" fill="#b5713e"/>
    <path id="Path_401" data-name="Path 401" d="M-902,196.59l.42.5-.29.59c-2,3-4.21,5.88-7.9,7.07l-.45-.39a24.35,24.35,0,0,1,8.22-7.77Z" transform="translate(8365.291 3729.758)" fill="#b5713e"/>
    <path id="Path_402" data-name="Path 402" d="M-859.89,233.6a5.62,5.62,0,0,1-4.89,3.76c.52-2.78,2.94-3.5,5-4.59l.23.46Z" transform="translate(8365.291 3729.758)" fill="#b5713e"/>
    <path id="Path_403" data-name="Path 403" d="M-1015.28,304l-2.47,1.66A3,3,0,0,1-1015.28,304Z" transform="translate(8365.291 3729.758)" fill="#b5713e"/>
    <path id="Path_404" data-name="Path 404" d="M-1193.44,428c-3.08-5.25-1.37-9.91,2-14.15a57.767,57.767,0,0,1,10.56-10.1,132.43,132.43,0,0,1,44.73-21.68,15.359,15.359,0,0,0,5-1.82c5.09-.74,10.11-1.94,15.33-1.6A22.47,22.47,0,0,1-1109,380c5.25,2.05,7,6.06,4.54,11.08a32,32,0,0,1-5.83,8.12,79.408,79.408,0,0,1-14.4,11.61,133,133,0,0,1-43.12,18.24c-5.79,1.27-11.64,2.33-17.62,1.51C-1188.24,430.19-1191.07,429.78-1193.44,428Zm28-11.25a54.614,54.614,0,0,0,5.89-1.28c6.34-2.1,12.64-4.33,18.95-6.52a6.67,6.67,0,0,0,3.73-2.57,46.77,46.77,0,0,0,5.51-11c.76-2.39-.63-4.25-3.08-4-4.34.42-8.71.84-13,1.65a60.641,60.641,0,0,0-9.62,2.86,9.9,9.9,0,0,0-4.49,2.87c-3,4.13-5.66,8.54-8.41,12.86a3.47,3.47,0,0,0-.41,1.47,2.59,2.59,0,0,0,1.73,3.05,24.42,24.42,0,0,0,3.15.61Z" transform="translate(8365.291 3729.758)" fill="#fff"/>
    <path id="Path_405" data-name="Path 405" d="M-1097.64,418.9a10.6,10.6,0,0,1-7.85,6.28,15.269,15.269,0,0,1,7.85-6.28Z" transform="translate(8365.291 3729.758)" fill="#b8b5aa"/>
    <path id="Path_406" data-name="Path 406" d="M-1089.82,412c-1.12,4-3.86,6.24-7.9,7C-1095.94,415.69-1092.52,414.26-1089.82,412Z" transform="translate(8365.291 3729.758)" fill="#b8b5aa"/>
    <path id="Path_407" data-name="Path 407" d="M-1105.39,425.11a7.84,7.84,0,0,1-6.91,4.82C-1110.17,428.07-1108.25,425.93-1105.39,425.11Z" transform="translate(8365.291 3729.758)" fill="#b8b5aa"/>
    <path id="Path_408" data-name="Path 408" d="M-909.75,204.75c3.69-1.19,5.86-4.06,7.9-7.07l.33.16,2.53,1.79c-5.51,5.42-11,10.9-16.54,16.24-4.28,4.09-8.77,8-13.09,12q-28.77,27-57.48,54-10.14,9.52-20.37,19c-1.32,1.21-2.8,2.24-4.2,3.36-1.21-1.64-.24-2.91.84-4,3.8-3.77,7.71-7.42,11.51-11.19,2.16-2.14,4.19-4.41,6.28-6.62,4.72-3.16,8.66-7.21,12.77-11.09q31.08-29.37,62.2-58.72C-914.48,210.13-911.47,208-909.75,204.75Z" transform="translate(8365.291 3729.758)" fill="#e6be8b"/>
    <path id="Path_409" data-name="Path 409" d="M-1165.49,416.75a24.433,24.433,0,0,1-3.2-.64,2.59,2.59,0,0,1-1.73-3.05,3.469,3.469,0,0,1,.41-1.47c2.75-4.32,5.4-8.73,8.41-12.86a9.9,9.9,0,0,1,4.49-2.87,60.642,60.642,0,0,1,9.62-2.86c4.29-.81,8.66-1.23,13-1.65,2.45-.24,3.84,1.62,3.08,4a46.769,46.769,0,0,1-5.51,11,6.669,6.669,0,0,1-3.73,2.57c-6.31,2.19-12.61,4.42-18.95,6.52a54.622,54.622,0,0,1-5.89,1.31Z" transform="translate(8365.291 3729.758)" fill="#fe7649"/>
  </g>
</svg>
