<svg xmlns="http://www.w3.org/2000/svg" width="382.048" height="281.251" viewBox="0 0 382.048 281.251">
  <g id="s10" transform="translate(-7563 -5607.795)">
    <path id="Path_68" data-name="Path 68" d="M-685.14,2110.36c1.55-3,3.15-5.93,4.63-9,1.29-2.62,1.06-3.42-1.55-4.95a248.446,248.446,0,0,1-24.56-16.25c-22.63-17.16-41.87-37.61-58.74-60.36a274.721,274.721,0,0,1-23.46-37.38c-2.85-5.49-5.73-11-7.64-16.92-.39-1.2-.9-2.44-.15-3.71,2,.12,3,1.79,4.3,3A104.131,104.131,0,0,0-764.88,1983a2.14,2.14,0,0,0,2.75-.55,19.729,19.729,0,0,1,7.25,3.11c2,3.44,5.13,4,8.72,3.43l9.87,2.9c.77,2,2,2.85,4.12,1.68l14.49,3.08c1.28,2.45,1.53,2.54,3.62,1.27l2.62.19c1.87,2.88,2.26,3,5.14,1.34l2.75.15a3,3,0,0,0,2.64,2.45c1.8.21,3.64.17,5.4.51,11.65,2.23,23.32,4.19,35.21,4.43a12.179,12.179,0,0,1,3.84.35c3.78,1.35,7.67,1,11.53,1.11,4.66.12,9.42-.4,13.94.42a80,80,0,0,0,15.42,1c8.77-.12,17.5.08,26.29-1.07s18-.7,27-1.73c12.29-1.4,24.57-2.8,36.78-4.81,22.48-3.7,44.42-9.2,65.43-18.28a129.082,129.082,0,0,0,25.35-14.76c3.29-2.42,5.57-6.15,9.69-7.45.72,3.31-1,6.05-2.26,8.8a248.207,248.207,0,0,1-20.63,37.08,315.267,315.267,0,0,1-48.57,56.9,243.544,243.544,0,0,1-37.51,28.5c-1.72,1.06-3.83,1.65-4.76,3.72-1.78.09-3.16.85-2.88,2.79a21.486,21.486,0,0,0,1.59,4.3,54.334,54.334,0,0,1,2.75,7.2c1.12,4.81.24,9-3.68,12.67-4.48,4.18-9.75,6.78-15.34,8.82a137.571,137.571,0,0,1-41.69,7.81c-7.49.31-15,.1-22.51.1-12.47,0-24.67-2.19-36.7-5.22a63.772,63.772,0,0,1-17.92-7.23c-6-3.68-10.8-8.14-9.7-16.14A4.821,4.821,0,0,0-685.14,2110.36Zm-57-101.65a3.07,3.07,0,0,0-2.68,2.52c-.52,2.12.3,4.09,1.12,6a59.331,59.331,0,0,0,15.27,21,24,24,0,0,0,5.17,3.28c2.44,1.2,4.67-.48,4.42-3.25a28.367,28.367,0,0,0-.78-3.75c-.91-3.84-3.2-7-5.26-10.22a47.9,47.9,0,0,0-12.47-13.49,9.211,9.211,0,0,0-4.76-2.09Zm39,52.08c1.73-.09,2.87-2.35,2-4a16.241,16.241,0,0,0-4.56-5.12,12,12,0,0,0-6.91-3c-1.08-.06-2.27.14-2.69,1.06a4.24,4.24,0,0,0,0,2.92c1.21,3.36,4.14,5.14,7,6.78a8.249,8.249,0,0,0,5.2,1.36Zm30,56.21a12.471,12.471,0,0,0-2.42.34,1.68,1.68,0,0,0-1.136.956,1.68,1.68,0,0,0,.066,1.484c2.5,5.07,6.9,7.3,12.28,7.9a2.2,2.2,0,0,0,1.946-.99,2.2,2.2,0,0,0,.134-2.179c-2.27-4.46-6.25-6.51-10.8-7.51Z" transform="translate(8365.291 3729.758)" fill="#b5713e"/>
    <path id="Path_71" data-name="Path 71" d="M-762.13,1982.5a2.14,2.14,0,0,1-2.75.55,104.134,104.134,0,0,1-27.43-18.21c-1.28-1.21-2.26-2.88-4.3-3l.13.06c-.09-2.45-.09-2.45-1.84-1.51-7.1-15-4.1-26.23,4.41-35.71,5.94-6.6,13.24-11.49,21-15.71,15.54-8.44,32.24-13.82,49.28-18.15a328.408,328.408,0,0,1,41-7.87c13.81-1.69,27.68-2.89,41.6-3.82a377.947,377.947,0,0,1,47.22-.64c10.78.63,21.65.38,32.4,2.18,5.82,1,11.79,1.11,17.69,1.83,28.56,3.49,56.41,9.71,83,20.76a114.913,114.913,0,0,1,25.47,14.63,53.5,53.5,0,0,1,11.47,12.48,14,14,0,0,1,2.51,5.59c1.23,7.66,2,15.36-1.58,22.71-1.89.26-2.57,1.41-2.38,3.21l.16-.05c-4.12,1.3-6.4,5-9.69,7.45A129.085,129.085,0,0,1-460.08,1984c-21,9.08-42.95,14.58-65.43,18.28-12.21,2-24.49,3.41-36.78,4.81-9,1-18.09.56-27,1.73s-17.52,1-26.29,1.07a80.021,80.021,0,0,1-15.42-1c-4.52-.82-9.28-.3-13.94-.42-3.86-.1-7.75.24-11.53-1.11a12.186,12.186,0,0,0-3.84-.35c-11.89-.24-23.56-2.2-35.21-4.43-1.76-.34-3.6-.3-5.4-.51a3,3,0,0,1-2.64-2.46c2.51-1,5.12-.38,7.68-.45,2.84-.08,5.68-.13,8.52-.24a2.07,2.07,0,0,0,2.18-1.78,2.44,2.44,0,0,0-1.72-2.34,49.517,49.517,0,0,0-5.84-2c-9.28-2.15-18.61-4.11-27.87-6.31a243.033,243.033,0,0,1-29.36-9.21c1.52-.26,3-.52,4-2a60.508,60.508,0,0,1,4.21-5.49c5.64-6.5,12.67-11.24,20.11-15.4a169.679,169.679,0,0,1,40.86-15.9,296.5,296.5,0,0,1,33.94-6.75c5.32-.72,10.73-1.44,16-1.82,4.43-.32,9.1-2,13.61-.07l-.3.71c-2.13,5-2.08,4.85,2.57,6.28a21.922,21.922,0,0,0,10.66.81,50.8,50.8,0,0,1,20,.21,18.17,18.17,0,0,0,12.76-1.64c3.86-2.06,7.89-3.8,11.85-5.68h.77c4.32,0,8,3.4,12.62,2.26.6-.16,1.24,1,1,1.76-.83,2.16-1.63,4.39-3.43,6a1.211,1.211,0,0,1-1.059.28,1.21,1.21,0,0,1-.851-.69c-.61-1,.16-2.64-1.87-3.32v4.76a2.87,2.87,0,0,0,1.17,2.69,3,3,0,0,0,3.58-.41,19.9,19.9,0,0,0,6-8,3.18,3.18,0,0,1,3.85-1.82c4.78,1,9.54,2.08,14.3,3.13,1.53.33,1.92,1.54,2.21,2.83l-.09.07a7.729,7.729,0,0,0-5.83,1.33c-1.43,1-1.68,2.84-.31,3.84a11.543,11.543,0,0,0,3.28,1.9c5.27,1.55,10.62,1.2,15.94.33a4.4,4.4,0,0,0,2.71-1.35c2.33-3.36,5-2.7,8-1.16,2.49,1.28,5.14,2.25,7.72,3.35-5.79,5.68-12.55,10.13-19,15-1.78,1.33-3.25,3.29-5.76,3.43a7.79,7.79,0,0,0-3.56-5.71c-.64-.48-1.39-.81-2-.14-.21.23-.09.93.1,1.32.43.88,1.53,1.64,1,2.72-.78,1.49-2.17.93-3.37.56-2.2-.69-4.36-1.56-6.59-2.15a17.233,17.233,0,0,1-5.38-3c-1-.75-2.32-1.49-1.82-3,.57-1.79,1.95-1.08,3.16-.73,1.46.42,2.93,1,4.57-.3a13.33,13.33,0,0,0-9.23-2.29c-3.4.49-4.8,3.59-2.75,6.22a18.65,18.65,0,0,0,5.82,5,54.417,54.417,0,0,0,13.74,5c-3.09,3.33-7.43,4.35-11.3,6.27-1.68.83-4,1-4.87,3.6,1.33.1,2.32.2,3.3.26,6.56.41,12.73-1.71,18.8-3.51,11.43-3.4,21.91-8.75,30.06-17.85,1.62-1.8,2.9-3.67,2.31-6.19s-1.84-4.8-4.76-5.45c2.14-2.12,4.1-1.35,5.85.49a26.7,26.7,0,0,1,4.71,7.68c-.24,2-.47,4-.71,5.94-4.16,3.75-7.91,8-12.92,10.75-.6.32-.89,1.2-1.33,1.82a10.426,10.426,0,0,0-2.2.68c-10.69,6-22.51,8.31-34.41,10.25a25.611,25.611,0,0,1-7.67,0c-2.49-.36-5.15-1-5.8-4.17-.1-.77-.28-1.57-1.12-1.8a18.139,18.139,0,0,0-7.62-.17,3.87,3.87,0,0,0-3.176,2.5,3.87,3.87,0,0,0,.776,3.964c1.74,2.2,3.78,4.16,5.7,6.23.11,1,.18,2.28,1.44,2.38a24.782,24.782,0,0,0,6.88,0c6.26-1.33,12.67-1.82,18.89-3.16,15.26-3.29,30.59-6.49,45.17-12.26,6.38-2.53,13.15-4.36,18.64-8.82,6.52-2.24,11.45-6.84,16.58-11.13,3.91-3.25,5.78-7.86,7.75-12.37a9.78,9.78,0,0,0,.49-6.1c-.83-3.79-2-7.57-4.62-10.53-3.81-4.22-7.69-8.36-12.5-11.54-11.32-7.49-23.76-12.57-36.65-16.42a359.5,359.5,0,0,0-36.06-8.78c-11.92-2.25-23.91-4.07-35.92-5.27-11.26-1.12-22.58-2.34-34-2.1-16,.34-32.08,0-48.11.29-8.51.16-17,.8-25.48,1.76-9.71,1.11-19.37,2.8-29,4.27a275.339,275.339,0,0,0-51,12.79,126.2,126.2,0,0,0-31.69,16.1,38.061,38.061,0,0,0-11.7,14.17,14.79,14.79,0,0,0-.15,13.43,36.331,36.331,0,0,0,12.7,15.29c3.58,2.49,7.67,4.27,10.68,7.56a10.914,10.914,0,0,0-1.51.07c-2,.27-5.11-1.56-5.81,1.45-.53,2.29,2.22,3.67,4,5a36.279,36.279,0,0,0,4.56,2.67A3.531,3.531,0,0,1-762.13,1982.5Zm178.4,4c-1,.17-2,.26-2.57,1.25a2.2,2.2,0,0,0-.4,1.764,2.2,2.2,0,0,0,1.058,1.466c1.53,1,4.26.53,4.7-.66a1.3,1.3,0,0,0-.44-1.17c-1.28-.41-2.23-1-2.2-2.5l.63-.79Zm-22.15-26.93c-6.13-3-12.35-3.21-18.31-3.72-9.49-.8-19-.77-28.57-1.43q-12.36-.86-24.58-2.47c-6.7-.9-11.77,2.66-17.15,5.47-.77.4-.53,1.47,0,2a6.939,6.939,0,0,0,2,1.13c7,3.53,14.81,4.17,22.26,6.06,6.47,1.63,13.13,1.89,19.64,3.79,6.31,1.84,13.31,1.08,20,.6a7.733,7.733,0,0,0,2.87-1.1,87.377,87.377,0,0,1,12.9-5.2c3.04-1.01,6.24-2.12,8.94-5.11Zm6.24,5.74c-5.41,2-9.54,4.7-12.61,8.85-2.58,3.48-.85,7.47,3.45,7.86a43.707,43.707,0,0,0,9.22-.07,36.632,36.632,0,0,0,7.38-2,2.5,2.5,0,0,0,1.32-1.7,2,2,0,0,0-1.66-2.22,10.642,10.642,0,0,0-3.77-.23c-1.76.25-3.46,1.06-5.23,1.2-2.18.17-4.69,1.06-6.38-1.18-1.08-1.44.38-3.57,3.68-6,1.51-1.1,3.88-1.26,4.6-4.49Zm42.48-4.6c-.09-3.37-2.35-5.69-5.36-5-4,.9-7.84,2.46-10.6,5.8-.15.18-.28.65-.2.71a3.806,3.806,0,0,0,1.18.62,1.19,1.19,0,0,0,.73-.17c1.88-.8,3.56-2.36,5.7-2.14,3,.3,1.48,3.5,2.86,4.84a6.368,6.368,0,0,0,2.57,1.48c1.28.39,1.72-.8,2.22-1.65a7.88,7.88,0,0,0,.9-4.47Zm-29.27-11.32c7.48.2,12.79-1.42,17.31-5.33a2.3,2.3,0,0,0,.751-1.7,2.3,2.3,0,0,0-.751-1.7,2,2,0,0,0-2.77,0c-.56.5-.85,1.31-1.4,1.82a13.05,13.05,0,0,1-14.85,2.38c-1-.52-1.75-1.09-2.55-.09a3.54,3.54,0,0,0-.68,2.07,2.23,2.23,0,0,0,1.86,2.18,16.266,16.266,0,0,0,3.08.39ZM-671.26,1939c-.45.61-.75.83-.73,1,.07.73,0,1.68.4,2.15,4.79,5.43,10.76,8.46,18.1,8.43a3.47,3.47,0,0,0,2.08-.8,2.1,2.1,0,0,0,.51-2.76c-.47-.76-1.2-2.09-2.26-.89-1.45,1.63-3,1.54-4.83,1a25,25,0,0,1-13.27-8.13Zm-15.78,42.8c-.94.26-2.06.25-2.3.71-.54,1,.34,1.82,1.15,2.43a16.159,16.159,0,0,0,6.14,3,6.631,6.631,0,0,0,4.48-.43c1.55-.76,2-2.47,1-4.62-.84-1.88-1.66-1-2.7,0s-2.34.7-3.61.26c-1.39-.52-2.84-.92-4.12-1.32Zm68.57,11c2,0,4.14.1,5.66-1.63a2,2,0,0,0,.45-1.36c-.11-.8-.68-1.49-1.54-1.14-4.31,1.72-8.3,1.66-12-1.62-.26-.24-1.58.19-1.9.66a2.07,2.07,0,0,0,.18,2c2.55,2.46,5.73,3.17,9.15,3.08Zm-81.45-35.55a12.881,12.881,0,0,0-7.71-1.23,1.29,1.29,0,0,0-.881.691,1.29,1.29,0,0,0-.009,1.119,13.631,13.631,0,0,0,7.37,6.46,1.6,1.6,0,0,0,1.38-.33,1.26,1.26,0,0,0-.13-1.22c-1.2-1-2.52-1.76-3.77-2.66a1.66,1.66,0,0,1-.77-2c.44-1.14,1.58-1.01,4.52-.84Z" transform="translate(8365.291 3729.758)" fill="#e6be8b"/>
    <path id="Path_81" data-name="Path 81" d="M-685.14,2110.36a4.818,4.818,0,0,1,.27,1.51c-1.1,8,3.72,12.46,9.7,16.14a63.787,63.787,0,0,0,17.92,7.23c12,3,24.23,5.21,36.7,5.22,7.51,0,15,.21,22.51-.1a137.571,137.571,0,0,0,41.69-7.81,43.174,43.174,0,0,0,15.34-8.82c3.92-3.65,4.8-7.86,3.68-12.67a54.322,54.322,0,0,0-2.75-7.2,21.485,21.485,0,0,1-1.59-4.3c-.28-1.94,1.1-2.7,2.88-2.79a82.518,82.518,0,0,1,28.21,14.07,26.452,26.452,0,0,1,7.68,9.57,14.09,14.09,0,0,1-1.76,16,41.52,41.52,0,0,1-18.2,12.76,154.065,154.065,0,0,1-35.24,8.52,227.332,227.332,0,0,1-44.08.95c-23.25-1.56-46.11-5.53-67.05-16.75a53.529,53.529,0,0,1-13.75-9.94,20.76,20.76,0,0,1-5.28-8.48C-689.67,2118.6-690.26,2113.74-685.14,2110.36Z" transform="translate(8365.291 3729.758)" fill="#b8b5aa"/>
    <path id="Path_113" data-name="Path 113" d="M-798.32,1960.39c1.75-.94,1.75-.94,1.84,1.51C-797.82,1962.28-797.9,1961.12-798.32,1960.39Z" transform="translate(8365.291 3729.758)" fill="#b5713e"/>
    <path id="Path_115" data-name="Path 115" d="M-425.2,1961.88c-.19-1.8.49-3,2.38-3.21C-423.36,1959.92-423.39,1961.57-425.2,1961.88Z" transform="translate(8365.291 3729.758)" fill="#b5713e"/>
    <path id="Path_132" data-name="Path 132" d="M-750,1977.34a243.033,243.033,0,0,0,29.36,9.21c9.26,2.2,18.59,4.16,27.87,6.31a49.465,49.465,0,0,1,5.84,2,2.44,2.44,0,0,1,1.72,2.34,2.07,2.07,0,0,1-2.18,1.78c-2.84.11-5.68.16-8.52.24-2.56.07-5.17-.53-7.68.45l-2.75-.14c-1.21-2.36-3.14-2-5.14-1.34l-2.62-.2c-.75-1.73-2.05-1.9-3.62-1.26l-14.49-3.08c-.87-1.8-2.18-2.49-4.12-1.68l-9.88-2.9c-2.17-3-5.23-3.75-8.71-3.43a19.731,19.731,0,0,0-7.25-3.11,3.53,3.53,0,0,0-1.9-2.19,36.258,36.258,0,0,1-4.56-2.67c-1.78-1.31-4.53-2.69-4-5,.7-3,3.77-1.18,5.81-1.45.5-.06,1,0,1.5-.07Z" transform="translate(8365.291 3729.758)" fill="#fff"/>
    <path id="Path_133" data-name="Path 133" d="M-742.11,2008.71a9.209,9.209,0,0,1,4.79,2,47.9,47.9,0,0,1,12.47,13.49c2.06,3.23,4.35,6.38,5.26,10.22a28.37,28.37,0,0,1,.78,3.75c.25,2.77-2,4.45-4.42,3.25a24,24,0,0,1-5.17-3.28,59.33,59.33,0,0,1-15.27-21c-.82-1.86-1.64-3.83-1.12-6a3.07,3.07,0,0,1,2.68-2.43Z" transform="translate(8365.291 3729.758)" fill="#fff"/>
    <path id="Path_134" data-name="Path 134" d="M-703.1,2060.79a8.25,8.25,0,0,1-5.18-1.41c-2.88-1.64-5.81-3.42-7-6.78a4.24,4.24,0,0,1,0-2.92c.42-.92,1.61-1.12,2.69-1.06a12,12,0,0,1,6.91,3,16.241,16.241,0,0,1,4.56,5.12C-700.23,2058.44-701.37,2060.7-703.1,2060.79Z" transform="translate(8365.291 3729.758)" fill="#fff"/>
    <path id="Path_135" data-name="Path 135" d="M-673.07,2117c4.55,1,8.53,3.05,10.87,7.51a2.2,2.2,0,0,1-.134,2.179,2.2,2.2,0,0,1-1.946.99c-5.38-.6-9.78-2.83-12.28-7.9a1.68,1.68,0,0,1-.066-1.484,1.68,1.68,0,0,1,1.136-.956,12.472,12.472,0,0,1,2.42-.34Z" transform="translate(8365.291 3729.758)" fill="#fff"/>
    <path id="Path_136" data-name="Path 136" d="M-754.88,1985.61c3.48-.32,6.54.42,8.71,3.43C-749.75,1989.61-752.89,1989.05-754.88,1985.61Z" transform="translate(8365.291 3729.758)" fill="#e6be8b"/>
    <path id="Path_137" data-name="Path 137" d="M-711.44,1998.15c2-.64,3.93-1,5.14,1.35C-709.18,2001.14-709.57,2001-711.44,1998.15Z" transform="translate(8365.291 3729.758)" fill="#e6be8b"/>
    <path id="Path_138" data-name="Path 138" d="M-736.29,1991.94c1.94-.81,3.25-.12,4.12,1.68C-734.24,1994.79-735.52,1994-736.29,1991.94Z" transform="translate(8365.291 3729.758)" fill="#e6be8b"/>
    <path id="Path_139" data-name="Path 139" d="M-717.68,1996.7c1.57-.64,2.87-.47,3.62,1.26C-716.15,1999.24-716.4,1999.15-717.68,1996.7Z" transform="translate(8365.291 3729.758)" fill="#e6be8b"/>
    <path id="Path_193" data-name="Path 193" d="M-750,1977.34l-15.32-6.2c-3-3.29-7.09-5.07-10.67-7.56a36.328,36.328,0,0,1-12.7-15.29,14.79,14.79,0,0,1,.15-13.43,38.06,38.06,0,0,1,11.7-14.17,126.2,126.2,0,0,1,31.69-16.1,275.343,275.343,0,0,1,51-12.79c9.67-1.47,19.33-3.16,29-4.27,8.45-1,17-1.6,25.48-1.76,16-.31,32.08,0,48.11-.29,11.42-.24,22.74,1,34,2.1,12,1.2,24,3,35.92,5.27a359.572,359.572,0,0,1,36.06,8.78c12.89,3.85,25.33,8.93,36.65,16.42,4.81,3.18,8.69,7.32,12.5,11.54,2.67,3,3.79,6.74,4.62,10.53a9.779,9.779,0,0,1-.49,6.1c-2,4.51-3.84,9.12-7.75,12.37-5.13,4.29-10.06,8.89-16.57,11.13-2.24-2.12-4.39-4.36-6.76-6.32-4.12-3.42-8.06-7.24-13.79-7.85a26.7,26.7,0,0,0-4.71-7.68c-1.75-1.84-3.71-2.61-5.85-.49l-2.4,1c-2.58-1.1-5.23-2.07-7.72-3.35-3-1.54-5.68-2.2-8,1.16a4.4,4.4,0,0,1-2.71,1.35c-5.32.87-10.67,1.22-15.94-.33a11.54,11.54,0,0,1-3.28-1.9c-1.37-1-1.12-2.8.31-3.84a7.73,7.73,0,0,1,5.83-1.33c-.29,1.24-2.37,1.66-1.82,3,.49,1.2,2,1.39,3.33,1.4,3.3,0,6.64.45,9.88-.44a2.27,2.27,0,0,0,1.39-1.57,2.25,2.25,0,0,0-1.34-1.61c-3.69-1.27-7.57-.45-11.35-.89-.29-1.29-.68-2.5-2.21-2.83-4.76-1-9.52-2.16-14.3-3.13a3.18,3.18,0,0,0-3.85,1.82,19.9,19.9,0,0,1-6,8,3,3,0,0,1-3.58.41,2.871,2.871,0,0,1-1.17-2.69v-4.76c2,.68,1.26,2.32,1.87,3.32a1.21,1.21,0,0,0,.851.69,1.21,1.21,0,0,0,1.059-.28c1.8-1.58,2.6-3.81,3.43-6,.27-.71-.37-1.92-1-1.76-4.59,1.14-8.3-2.23-12.62-2.26h-.78c-1.69-1.77-3.89-2.39-6.2-2.86-7.08-1.46-14.15-2.84-21.33-3.77a33.521,33.521,0,0,0-18.87,2.65,39.251,39.251,0,0,1-11.09,3.29c-4.51-2-9.18-.25-13.61.07-5.28.38-10.69,1.1-16,1.82a296.526,296.526,0,0,0-33.94,6.75,169.691,169.691,0,0,0-40.86,15.9c-7.44,4.16-14.47,8.9-20.11,15.4a60.476,60.476,0,0,0-4.21,5.49C-747,1976.82-748.44,1977.08-750,1977.34Z" transform="translate(8365.291 3729.758)" fill="#b5713e"/>
    <path id="Path_194" data-name="Path 194" d="M-605.88,1959.59c-2.7,3-5.9,4.1-9,5.14a87.394,87.394,0,0,0-12.9,5.2,7.733,7.733,0,0,1-2.87,1.1c-6.7.48-13.7,1.24-20-.6-6.51-1.9-13.17-2.16-19.64-3.79-7.45-1.89-15.25-2.53-22.26-6.06a6.938,6.938,0,0,1-2-1.13c-.53-.54-.77-1.61,0-2,5.38-2.81,10.45-6.37,17.15-5.47q12.24,1.63,24.58,2.47c9.53.66,19.08.63,28.57,1.43C-618.23,1956.38-612,1956.59-605.88,1959.59Z" transform="translate(8365.291 3729.758)" fill="#fff"/>
    <path id="Path_195" data-name="Path 195" d="M-477.13,1955.55c5.73.61,9.67,4.43,13.79,7.85,2.37,2,4.52,4.2,6.76,6.32-5.5,4.46-12.27,6.29-18.65,8.82-14.58,5.77-29.91,9-45.17,12.26-6.22,1.34-12.63,1.83-18.89,3.16a24.782,24.782,0,0,1-6.88,0c-1.26-.1-1.33-1.35-1.45-2.38,1.28-.08,2.56-.1,3.83-.27.46-.06,1.2-.44,1.24-.74.09-.67.06-1.69-.36-2-2-1.6-4.14-3-5.6-5.22-.55-.82,0-2.36,1-2.43,1.78-.11,3.57,0,5.36,0,.65,3.15,3.31,3.81,5.8,4.17a25.615,25.615,0,0,0,7.67,0c11.9-1.94,23.72-4.22,34.41-10.25a10.418,10.418,0,0,1,2.2-.68c4.8.91,9-1.26,13.35-2.61,2.52-.79,4.27-2.78,5.87-4.8,1.22-1.54.75-3.46-1.26-4.38a16.1,16.1,0,0,0-3.71-.78C-477.6,1959.51-477.37,1957.53-477.13,1955.55Z" transform="translate(8365.291 3729.758)" fill="#fe7649"/>
    <path id="Path_196" data-name="Path 196" d="M-617.24,1929.92a39.25,39.25,0,0,0,11.09-3.29,33.521,33.521,0,0,1,18.87-2.65c7.18.93,14.25,2.31,21.33,3.77,2.31.47,4.51,1.09,6.2,2.86-4,1.88-8,3.62-11.84,5.68a18.17,18.17,0,0,1-12.76,1.64,50.8,50.8,0,0,0-20-.21,21.922,21.922,0,0,1-10.66-.81c-4.65-1.43-4.7-1.28-2.57-6.28Z" transform="translate(8365.291 3729.758)" fill="#fff"/>
    <path id="Path_197" data-name="Path 197" d="M-490.09,1948.34l2.4-1c2.92.65,4.16,2.82,4.76,5.45s-.69,4.39-2.31,6.19c-8.15,9.1-18.63,14.45-30.06,17.85-6.07,1.8-12.24,3.92-18.8,3.51-1-.06-2-.16-3.3-.26.88-2.58,3.19-2.77,4.87-3.6,3.87-1.92,8.21-2.94,11.3-6.27a12.279,12.279,0,0,0,6.38-3.51c2.51-.14,4-2.1,5.76-3.43C-502.64,1958.47-495.88,1954-490.09,1948.34Z" transform="translate(8365.291 3729.758)" fill="#fff"/>
    <path id="Path_198" data-name="Path 198" d="M-514.85,1966.74a12.28,12.28,0,0,1-6.38,3.51,54.407,54.407,0,0,1-13.74-5,18.65,18.65,0,0,1-5.82-5c-2.05-2.63-.65-5.73,2.75-6.22a13.331,13.331,0,0,1,9.23,2.29c-1.64,1.34-3.11.72-4.57.3-1.21-.35-2.59-1.06-3.16.73-.5,1.52.77,2.26,1.82,3a17.234,17.234,0,0,0,5.38,3c2.23.59,4.39,1.46,6.59,2.15,1.2.37,2.59.93,3.37-.56.57-1.08-.53-1.84-1-2.72-.19-.39-.31-1.09-.1-1.32.64-.67,1.39-.34,2,.14a7.79,7.79,0,0,1,3.63,5.7Z" transform="translate(8365.291 3729.758)" fill="#b5713e"/>
    <path id="Path_199" data-name="Path 199" d="M-599.64,1965.33c-.72,3.23-3.09,3.39-4.6,4.49-3.3,2.41-4.76,4.54-3.68,6,1.69,2.24,4.2,1.35,6.38,1.18,1.77-.14,3.47-1,5.23-1.2a10.639,10.639,0,0,1,3.77.23,2,2,0,0,1,1.66,2.22,2.5,2.5,0,0,1-1.32,1.7,36.641,36.641,0,0,1-7.38,2,43.7,43.7,0,0,1-9.22.07c-4.3-.39-6-4.38-3.45-7.86C-609.18,1970-605,1967.34-599.64,1965.33Z" transform="translate(8365.291 3729.758)" fill="#b5713e"/>
    <path id="Path_200" data-name="Path 200" d="M-477.84,1961.49a16.092,16.092,0,0,1,3.71.78c2,.92,2.48,2.84,1.26,4.38-1.6,2-3.35,4-5.87,4.8-4.34,1.35-8.55,3.52-13.35,2.61.44-.62.73-1.5,1.33-1.82C-485.75,1969.49-482,1965.24-477.84,1961.49Z" transform="translate(8365.291 3729.758)" fill="#b5713e"/>
    <path id="Path_201" data-name="Path 201" d="M-557.16,1960.73a7.88,7.88,0,0,1-.9,4.47c-.5.85-.94,2-2.22,1.65a6.371,6.371,0,0,1-2.57-1.48c-1.38-1.34.09-4.54-2.86-4.84-2.14-.22-3.82,1.34-5.7,2.14a1.191,1.191,0,0,1-.73.17,3.816,3.816,0,0,1-1.18-.62c-.08-.06.05-.53.2-.71,2.76-3.34,6.56-4.9,10.6-5.8C-559.51,1955-557.25,1957.36-557.16,1960.73Z" transform="translate(8365.291 3729.758)" fill="#b5713e"/>
    <path id="Path_202" data-name="Path 202" d="M-586.43,1949.41a16.25,16.25,0,0,1-3-.35,2.23,2.23,0,0,1-1.86-2.18,3.54,3.54,0,0,1,.68-2.07c.8-1,1.54-.43,2.55.09a13.05,13.05,0,0,0,14.85-2.38c.55-.51.84-1.32,1.4-1.82a2,2,0,0,1,2.77,0,2.3,2.3,0,0,1,.751,1.7,2.3,2.3,0,0,1-.751,1.7C-573.64,1948-578.95,1949.61-586.43,1949.41Z" transform="translate(8365.291 3729.758)" fill="#b5713e"/>
    <path id="Path_203" data-name="Path 203" d="M-671.26,1939a25,25,0,0,0,13.27,8.18c1.86.51,3.38.6,4.83-1,1.06-1.2,1.79.13,2.26.89a2.1,2.1,0,0,1-.51,2.76,3.469,3.469,0,0,1-2.08.8c-7.34,0-13.31-3-18.1-8.43-.42-.47-.33-1.42-.4-2.15C-672,1939.86-671.71,1939.64-671.26,1939Z" transform="translate(8365.291 3729.758)" fill="#b5713e"/>
    <path id="Path_204" data-name="Path 204" d="M-542.17,1980.84c-1.79,0-3.58-.08-5.36,0-1,.07-1.53,1.61-1,2.43,1.46,2.19,3.59,3.62,5.6,5.22.42.34.45,1.36.36,2,0,.3-.78.68-1.24.74-1.27.17-2.55.19-3.83.27-1.91-2.07-4-4-5.69-6.23a3.87,3.87,0,0,1-.776-3.964,3.87,3.87,0,0,1,3.176-2.5,18.139,18.139,0,0,1,7.62.17C-542.45,1979.27-542.27,1980.07-542.17,1980.84Z" transform="translate(8365.291 3729.758)" fill="#b5713e"/>
    <path id="Path_205" data-name="Path 205" d="M-687,1981.83c1.32.4,2.77.8,4.2,1.29,1.27.44,2.59.66,3.61-.26s1.86-1.85,2.7,0c1,2.15.51,3.86-1,4.62a6.63,6.63,0,0,1-4.48.43,16.16,16.16,0,0,1-6.14-3c-.81-.61-1.69-1.4-1.15-2.43C-689.1,1982.08-688,1982.09-687,1981.83Z" transform="translate(8365.291 3729.758)" fill="#b5713e"/>
    <path id="Path_206" data-name="Path 206" d="M-618.47,1992.79c-3.42.09-6.6-.62-9.11-3.09a2.07,2.07,0,0,1-.18-2c.32-.47,1.64-.9,1.9-.66,3.66,3.28,7.65,3.34,12,1.62.86-.35,1.43.34,1.54,1.14a2,2,0,0,1-.45,1.36C-614.33,1992.89-616.43,1992.76-618.47,1992.79Z" transform="translate(8365.291 3729.758)" fill="#b5713e"/>
    <path id="Path_207" data-name="Path 207" d="M-699.92,1957.24c-2.94-.17-4.05-.3-4.52.86a1.66,1.66,0,0,0,.77,2c1.25.9,2.57,1.71,3.77,2.66a1.261,1.261,0,0,1,.13,1.22,1.6,1.6,0,0,1-1.38.33,13.629,13.629,0,0,1-7.37-6.46,1.29,1.29,0,0,1,.009-1.119,1.29,1.29,0,0,1,.881-.691A12.879,12.879,0,0,1-699.92,1957.24Z" transform="translate(8365.291 3729.758)" fill="#b5713e"/>
    <path id="Path_208" data-name="Path 208" d="M-583.58,1986.67c0,1.51.92,2.09,2.2,2.5a1.3,1.3,0,0,1,.44,1.17c-.44,1.19-3.17,1.64-4.7.66a2.2,2.2,0,0,1-1.058-1.466,2.2,2.2,0,0,1,.4-1.764c.58-1,1.59-1.08,2.57-1.25Z" transform="translate(8365.291 3729.758)" fill="#b5713e"/>
    <path id="Path_209" data-name="Path 209" d="M-583.73,1986.52l.78-.64-.63.79Z" transform="translate(8365.291 3729.758)" fill="#b5713e"/>
    <path id="Path_329" data-name="Path 329" d="M-521.52,1940c3.78.44,7.66-.38,11.35.89a2.251,2.251,0,0,1,1.34,1.61,2.27,2.27,0,0,1-1.39,1.57c-3.24.89-6.58.46-9.88.44-1.3,0-2.84-.2-3.33-1.4-.55-1.38,1.53-1.8,1.82-3Z" transform="translate(8365.291 3729.758)" fill="#e6be8b"/>
  </g>
</svg>
