<svg xmlns="http://www.w3.org/2000/svg" width="382.618" height="252.204" viewBox="0 0 382.618 252.204">
  <g id="s11" transform="translate(-6679.331 -5636.658)">
    <path id="Path_69" data-name="Path 69" d="M-1463.17,1940.32a5,5,0,0,0,3.41,1.75,14.479,14.479,0,0,0,4.57,5.9c2,2.84,4.46,5.36,5.66,8.71.62,2.17,1.2,4.36,1.87,6.51a4,4,0,0,0,2.39,2.74c3.56,1.26,6.75.21,9.09-3,1-1.41,2-2.86,3-4.29a71.529,71.529,0,0,1,17.62-15A53.817,53.817,0,0,1-1402,1938a32.2,32.2,0,0,1,22.65,2.22c2.09,1,4.23,1.89,6.34,2.83a2.53,2.53,0,0,0,1.89,1.75l1.68,1.45a12.608,12.608,0,0,0,5.86,3.43,14.475,14.475,0,0,0,1,2.81,26.873,26.873,0,0,0,2,2.3c4.68,6,7.13,12.39,3.27,19.8-2.84,2-5,5.25-9.18,4.5a16.469,16.469,0,0,0-6.9-3.81c-1.48,3-3,5.88-4.43,8.84a15.92,15.92,0,0,1-4.75,6c-3,2.21-6.19,2.22-9.43.75-1-.47-1-1.63-.74-2.68,1.19-.15,2.54.88,3.56-.43a2.82,2.82,0,0,0,0-3.56,2.72,2.72,0,0,0-1.74-1.23,2.169,2.169,0,0,0-1.54,1.38,21.776,21.776,0,0,0-.34,3.81c-2,0-2-1.94-2.85-3.09-.54-.78-.71-2-2.1-1.59a2.9,2.9,0,0,0-1.29.78c-1.18,1.35-.16,2.31.71,3.22,2.09,2.22,4.33,4.28,6,7,1.15,1.92,1.71,4.31,3.87,5.54l.78,6.85a25.232,25.232,0,0,0,12.79-4.77c5.79-4.16,12-7.78,16-14,.13-.2.42-.28.64-.42a23,23,0,0,1,3,.82,109.592,109.592,0,0,1,27.84,17.87,31.579,31.579,0,0,1,9,12.42c3.52,9.12,3.6,18.34-2.21,26.54a71.286,71.286,0,0,1-17,16.79,102.274,102.274,0,0,1-22.48,11.91c-9.62,3.71-19.24,7.43-29.25,9.89-6.2,1.52-12.2,4.2-18.79,3.87a7.754,7.754,0,0,1-.09-2.29c2.81-10.53.29-20.11-4.92-29.31-1.35-2.38-3.31-4.67-2.74-7.78a113.8,113.8,0,0,1,9.26-6.74,38.378,38.378,0,0,0,9.79-8.62,21.389,21.389,0,0,0,4.94-18.34c-2.61,3.62-5.83,3.26-8.86,3.6-2.7-1.38-5-3.54-8-4-1.8,3.73-3.51,7.2-5.14,10.71a13.31,13.31,0,0,1-5,5.83c-3.11,1.91-6.48,3.46-10.12,1a2.36,2.36,0,0,1-1.211-1.429,2.36,2.36,0,0,1,.211-1.861c1.19,0,2.4,1.17,3.53.16,1.29-1.14,1-2.67.61-4.13a1.22,1.22,0,0,0-.33-.66c-.57-.42-1.21-1.09-1.79-1.06a2.1,2.1,0,0,0-1.6,1.24,32,32,0,0,0-.45,4.41c-2.75.16-2.85-2.34-4-3.87a7.649,7.649,0,0,0-1.64-1.32l-5.88,3c4.58,5,9.57,9.39,12.09,15.62.76,3.15,1.56,6.29.87,9.57-3.34.45-2.69,3.19-3.06,5.35-1.76,4.38-5.65,4.65-9.53,4.93-3-.68-5-3.63-8.65-4.13-1.22,2.88-2.53,5.87-3.78,8.9a23.182,23.182,0,0,1-5.74,8c-3.42,3.24-7.37,3.12-11.42,1.91-1.31-.39-1.78-1.7-1.07-3.11,3.88-1.08,4.69-2.57,2.86-5.38a1.471,1.471,0,0,0-1.24-.51,2,2,0,0,0-1.09,1c-.87,1.58,1.2,3.46-.47,5-1.15.47-1.85-.13-2.55-1-1.32-1.58-.88-4.07-3.1-5.48-1.37.67-2.84,1.86-4.46,2.12-5,.78-10.14,1.42-15.24,1.72-5.65.34-6.78-.45-9-6.1a7.51,7.51,0,0,0-7.69-5.16c-2.56,0-5.11.28-7.67.44a3.27,3.27,0,0,1-1.91-2.22,10.68,10.68,0,0,1,0-5.27c1.84.82,3.31.4,4.25-1.39s.24-3.21-1.61-4c1.87-3.16,4.87-5.31,7.26-8,1.91-2.14,1.67-4.15-.21-6.14,4.74-7.56,12.52-11.11,20-15,.38-.2,1,.06,1.51.1-.12,1.25-.23,2.49-.35,3.73-3.54,2-7.16,3.87-10.61,6-2.59,1.62-5.22,3.28-7,5.91-.18.26.1.88.26,1.29a.69.69,0,0,0,.63.19,11.916,11.916,0,0,0,2.73-1.33,74.481,74.481,0,0,1,30.89-14.71,8.2,8.2,0,0,0,4.55-2.65,6.231,6.231,0,0,1,4.5.08c1.43.57,2.76,1.36,4.18,2,1,.41,2.08.49,2.7-.58s-.35-2-1.15-2.35a22,22,0,0,0-8.87-2.21c-2.05,0-4.11-.06-6.15-.24-2.21-.18-3-1.65-2.92-3.71,1.85.7,3.31.33,4.28-1.51s-.26-2.66-1.42-3.58c.62-2,2.26-3.28,3.56-4.8,1.79-2.1,3.48-4.27,5.21-6.41a7.21,7.21,0,0,0,5-1.84,72.552,72.552,0,0,1,28.37-13.6,25.9,25.9,0,0,0,2.94-1c.06,0,0-.47,0-.69a.65.65,0,0,0-.41-.52,13.7,13.7,0,0,0-3,.06,73.861,73.861,0,0,0-32.86,16.26l-2.84-.14a3.74,3.74,0,0,1,1.66-3.28c4.6-3.62,8.75-7.84,14-10.65.83-.45,1.9-.78,1.59-2.89-5.63,4-8.45-2.86-13.48-3.18-1.38,2-2.83,4.11-4.21,6.24a24.489,24.489,0,0,1-5.78,6.1c-2.23,1.72-4.82,1.61-7.31.69-1.94-.72-2.52-2.39-2.27-4.37,1.26.31,2.34,2.39,3.8.71a2.91,2.91,0,0,0-.15-4c-.77-.88-1.95-.14-3,1.91-.23.44-.39.91-.58,1.36-1.49-.41-1.57-1.82-2.16-2.9a1.56,1.56,0,0,0-1.151-.9,1.56,1.56,0,0,0-1.389.447,2.13,2.13,0,0,0-.9,2.65,7.121,7.121,0,0,0,1.28,1.88,32.831,32.831,0,0,1,7.17,14.21c.69,3.17,2.77,3.2,4.89,3.84-1,1.5-1.87,3.06-3,4.48s-2.17,1.11-3.44-.77a5.706,5.706,0,0,1-.25-.73c-.35-.73-1-1.42-1.68-.92-.5.34-.57,1.32-.77,2a12.677,12.677,0,0,0-.25,1.52,10.23,10.23,0,0,1-9.48,3.58c-2-1.64-3.81-4.19-6.29-4.14-2.9.07-2.83,3.91-4.67,5.66-.91.86-1.33,2.22-2.17,3.18a32.3,32.3,0,0,1-4.37,4.38c-5,3.84-10.82,2.27-13.17-3.46-.49-1.18-.75-2.47-1.26-3.64a1.429,1.429,0,0,0-.726-.861,1.43,1.43,0,0,0-1.124-.069c-1.57.79-3.59.21-5.19,2a81.49,81.49,0,0,1,9.85,16.35c0,1-.11,2-.09,3,.08,4.08.09,4.08,4.41,5.48-1.74,2.19-3.9,1.53-6.07.94-1.41-.38-1.54.71-1.76,1.64-.16.72-.3,1.44-.46,2.15-2.78,3-5.87,5.28-10.31,4.35-1.73-2.74-4.74-3.68-7.47-5.8a71.643,71.643,0,0,1-8.16,12.68c-2.92,3.51-6.66,4.69-11.07,4.17a5.15,5.15,0,0,1-4.69-3.48c-.61-1.7-1.22-3.4-1.88-5.09a2,2,0,0,0-2.38-1.49c-5.6,1.72-11.32.34-17,.8a9.171,9.171,0,0,1-6.56-1.86c-1.66-1.28-1.42-3.2-1.83-4.92-.91-3.79-3.6-5.55-7.28-5.87-2-.18-4.13,0-6.2,0-1-1-2-1.63-3.37-.79a2.43,2.43,0,0,0-.94,2.72c1.15,5,1.93,10,5.33,14.2,1.51,1.88,3.6,3.77,3.65,6.59a110.238,110.238,0,0,0-15.5,14c-1.62,1.7-3.12,2.38-5.42,1.24-7.18-3.56-14.6-6.7-21.11-11.46-6.89-5-13.45-10.38-17.69-18.13-5.37-9.81-5.15-19.15,1-28.47a57,57,0,0,1,14-14.32c13.08-9.65,27.93-15.71,43.18-20.66a325.466,325.466,0,0,1,52.72-12.1c5.33-.79,10.83-.62,16-2.36a96.876,96.876,0,0,1,12.7-3.44c3.08-.58,3.7-2.32,3.68-4.89,5.81-6.94,12.25-13.13,20.34-17.42a53.29,53.29,0,0,1,17.33-6.08,30.929,30.929,0,0,1,20.11,3.36,33.49,33.49,0,0,0,4.25,1.67Zm-138.54,71.92c2.27,1,3.67-.51,5.18-1.3a93.475,93.475,0,0,1,13.3-6.2,75.823,75.823,0,0,1,14.33-3.17c1.76-.24,3.75-.29,5.34-2.21-9.15-.42-17.31,1.35-28.16,6.19-3.65,1.63-7.63,2.9-9.99,6.69Zm47-34.79c.7.74,1.48.35,2.1,0a78.057,78.057,0,0,1,31.07-10.68c.64-.08,2.23.21,1.77-1.5-12.13-.51-29.07,5.41-34.93,12.18Zm161.8-36.91c-6.53-.15-12.51,1.62-21.49,6.54-3.91,2.15-8.28,3.88-11.36,9.38,4.93-1.59,7.59-4.46,10.75-6.38a79.582,79.582,0,0,1,11.11-5.39c3.46-1.43,7.59-1.18,11-4.15Zm-118.45,6.66c1.75,1,3-.39,4.24-1.1a59.293,59.293,0,0,1,24-7.9,8.7,8.7,0,0,0,2.17-.69c.16-.06.25-.39.3-.61s.09-.65,0-.68a3.613,3.613,0,0,0-1.47-.36,69.25,69.25,0,0,0-27.66,9.06,2.891,2.891,0,0,0-1.57,2.28Zm12.78,115.27c.14-1.34-1.84-4.92-2.92-4.74-2.4.38.2,2.47-.93,3.54a2.9,2.9,0,0,0-.79,2.73,2,2,0,0,0,2.37,1.23,3.93,3.93,0,0,0,2.28-2.76Zm-98.39-26.89a29.02,29.02,0,0,0-1.45,4.27c-.1.48.69,1.25,1.24,1.68a1.62,1.62,0,0,0,1.38-.09,3.381,3.381,0,0,0,2-3c-.05-1.76-1.63-2.32-3.2-2.86Zm29.22,11.45c-.44.17-1.1.2-1.29.52a3.48,3.48,0,0,0,.11,4.23,1.4,1.4,0,0,0,1.32.28c1.34-.72,1.23-2.06,1.12-3.32a1.74,1.74,0,0,0-1.25-1.74Zm-44-22.16a5.8,5.8,0,0,0-.88-1c-.13-.1-.49,0-.71.1-1.28.55-2,1.48-1.55,2.9a1.309,1.309,0,0,0,1.13.66,2.45,2.45,0,0,0,2.05-2.66Zm90-12.29a6,6,0,0,0-.12-.74c-.22-.71-.46-1.47-1.42-1.34a1.46,1.46,0,0,0-1.26,1.54,7.748,7.748,0,0,0,.17,2.21,1.6,1.6,0,0,0,.92,1c1,.31,1.28-.48,1.51-1.17a7.135,7.135,0,0,0,.24-1.5Zm-44-24.42a2.48,2.48,0,0,0-2.17,2.37,1.26,1.26,0,0,0,.223,1.079,1.261,1.261,0,0,0,.987.491c1.52,0,2.2-1,2.53-2.33.27-1.01-.5-1.28-1.55-1.61Zm27.66,49c-.44.22-1.13.34-1.25.67-.49,1.26.45,1.89,1.4,2.28a1.38,1.38,0,0,0,1.22-.62c.47-1.25-.4-1.86-1.35-2.36Zm106-68.7c-.11-1.1-.59-1.71-1.43-1.56a2.45,2.45,0,0,0-2.12,2.57,1.18,1.18,0,0,0,.38,1,1.18,1.18,0,0,0,1.03.282,2.47,2.47,0,0,0,2.15-2.32Zm-61.67,34.06c-.22-.76-.58-1.46-1.5-1.2a1.37,1.37,0,0,0-.65,1.12,1.291,1.291,0,0,0,.461.964,1.29,1.29,0,0,0,1.029.286c.28-.07.42-.79.67-1.2Zm-28.33-42.32a1.81,1.81,0,0,0,1.69-1.36c.15-.62,0-1.14-.57-1.21a1.58,1.58,0,0,0-1.4.34,1.58,1.58,0,0,0-.543,1.33c0,.28.57.6.83.87Zm82.38,93.57c-.33.26-.87.48-.92.78a1.12,1.12,0,0,0,.225,1.018,1.121,1.121,0,0,0,.965.392,1.26,1.26,0,0,0,1-.71c.12-.89-.48-1.32-1.26-1.51Zm-17-83.75c-.12-.79-.53-1.27-1.36-1.19a.74.74,0,0,0-.51.45,1.06,1.06,0,0,0,.13.97,1.06,1.06,0,0,0,.87.45c.23,0,.58-.47.84-.7Zm92.9,3.15c-.22-.41-.34-1-.68-1.19a1.158,1.158,0,0,0-1.17.12,1,1,0,0,0-.085.966,1,1,0,0,0,.775.584c.3.06.74-.34,1.13-.51Zm-34.3,38.57a1.48,1.48,0,0,0-1.55-1.35c-.17,0-.45.34-.49.56-.14.82.15,1.5,1,1.56.34-.01.68-.51,1.01-.8Z" transform="translate(8365.291 3729.758)" fill="#b5713e"/>
    <path id="Path_76" data-name="Path 76" d="M-1408.09,2087.69c6.59.33,12.59-2.35,18.79-3.87,10-2.46,19.63-6.18,29.25-9.89a102.288,102.288,0,0,0,22.48-11.91,71.291,71.291,0,0,0,17-16.79c5.81-8.2,5.73-17.42,2.21-26.54a31.582,31.582,0,0,0-9-12.42,109.589,109.589,0,0,0-27.84-17.87,22.981,22.981,0,0,0-3-.82c-.82-2.84,0-5.3,1.71-7.58a58.918,58.918,0,0,1,5.86,1.86A103.449,103.449,0,0,1-1314,2007.1a38.89,38.89,0,0,1,10.64,24.28,28.365,28.365,0,0,1-2.21,12c-3.7,9.4-10,16.8-17.75,23a98.43,98.43,0,0,1-16.73,11.08,62,62,0,0,0-7.79,5,23.2,23.2,0,0,1-6,3.51c-2.39-1.94-4.43.08-6.31.87a214.881,214.881,0,0,1-30.19,9.72c-18.47,4.74-37.17,8.43-56.26,9.71-9.33,2.51-19.1.42-28.45,2.75-20.68.77-41.3-.41-61.93-1.56l-.77-.07c-10.71-1.49-21.45-2.79-32.12-4.53-7.36-1.2-14.63-3-21.94-4.54-1.35-.27-2.43-.8-2.79-2.26.73-.2,1.58-.76,2.15-.56,4.69,1.7,9.74,1,14.49,2.3,2.89.78,5.6-.36,8.24-1.43a2.181,2.181,0,0,0,.85-1.18,1.52,1.52,0,0,0-.8-1.94,13.47,13.47,0,0,0-3.54-1.4c-4.53-.94-9.06-2-13.65-2.58a139.072,139.072,0,0,1-51.7-17.27c-4-2.3-8.22-4.34-12.38-6.42a17.506,17.506,0,0,0-3.61-1.24c-1.19-.3-2.41,1.32-2.13,2.5a6.129,6.129,0,0,0,2.67,3.66c3.19,2.18,6.4,4.37,9.77,6.24,11.33,6.28,23.39,10.81,35.7,14.72,1.86.6,4.26.49,5.15,2.9-2.67,1.24-5-.38-7.3-1.13-7.47-2.45-14.84-5.21-22.22-7.92-1.24-.45-2.35-.95-3.41.25-9.59-6.48-20.1-11.59-29.14-18.9a66.277,66.277,0,0,1-15.11-16.48,37,37,0,0,1-5.36-17.59c-.33-6.5,2-12.64,5.44-18.27,5.08-8.29,12-14.74,19.89-20.27,11.27-7.92,23.66-13.71,36.56-18.39a307,307,0,0,1,55.32-14.18c14-2.29,28-4.55,42.22-4.56,0,2.57-.6,4.31-3.68,4.89a96.867,96.867,0,0,0-12.7,3.44c-5.22,1.74-10.72,1.57-16,2.36a325.437,325.437,0,0,0-52.72,12.1c-15.25,5-30.1,11-43.18,20.66a57,57,0,0,0-14,14.32c-6.19,9.32-6.41,18.66-1,28.47,4.24,7.75,10.8,13.1,17.69,18.13,6.51,4.76,13.93,7.9,21.11,11.46,2.3,1.14,3.8.46,5.42-1.24a109.554,109.554,0,0,1,15.5-14c2.09,1.25,1.56,3.11,1.16,4.94L-1625,2074c1,2,2.88,2.36,4.47,3,11.93,4.73,24.36,7.79,36.85,10.63a14.2,14.2,0,0,0,3.06,0c11.16,2.9,22.59,4.35,34,5.72a207.992,207.992,0,0,0,22.18,1.94,7.18,7.18,0,0,0,6-2.48c2-2.3,4.2-4.45,6.32-6.67,3.22-.34,4.42,2,5.75,4.25-1,.84-1.93,1.67-2.88,2.53-.78.7-1.51,1.55-1.25,2.62s1.36,1.41,2.43,1.4l14.64-.17a40.618,40.618,0,0,1,6.84.67,25.23,25.23,0,0,0,12.09.05c4.71-1,9.53-1.59,14.3-2.35,5.92-.58,11.85-1,17.74-1.76A292.15,292.15,0,0,0-1408.09,2087.69Z" transform="translate(8365.291 3729.758)" fill="#e6be8b"/>
    <path id="Path_79" data-name="Path 79" d="M-1594.54,2096.08a3.054,3.054,0,0,0,2.79,2.26c7.31,1.52,14.58,3.34,21.94,4.54,10.67,1.74,21.41,3,32.12,4.53l.77.07c20.63,1.15,41.25,2.33,61.93,1.56,9.35-2.33,19.12-.24,28.45-2.75,19.09-1.28,37.79-5,56.26-9.71a214.888,214.888,0,0,0,30.19-9.72c1.88-.79,3.92-2.81,6.31-.87a250.157,250.157,0,0,1-40.33,21.86c-7.42,2.87-14.83,5.79-22.27,8.6-1.94.73-3.78,1.3-5,3.24-4.46,6.83-11.38,10.21-18.72,12.95-12.65,4.73-25.9,6.9-39.24,7.55-13.86.68-27.77,1-41.64-1.12-9.44-1.44-18.75-3.18-27.74-6.4-7.37-2.63-14.18-6.15-18.87-12.78a6.14,6.14,0,0,0-5.12-3c-4.54-1.78-9.09-3.55-13.62-5.35a281.651,281.651,0,0,1-49.89-26c1.06-1.21,2.17-.71,3.41-.26,7.38,2.71,14.75,5.47,22.22,7.92,2.29.75,4.63,2.37,7.3,1.13l2.5.21c.64,2,2,2.17,3.72,1.46Z" transform="translate(8365.291 3729.758)" fill="#b5713e"/>
    <path id="Path_83" data-name="Path 83" d="M-1572.75,2116.9a6.141,6.141,0,0,1,5.12,3c4.69,6.63,11.5,10.15,18.87,12.78,9,3.22,18.3,5,27.74,6.4,13.87,2.13,27.78,1.8,41.64,1.12,13.34-.65,26.59-2.82,39.24-7.55,7.34-2.74,14.26-6.12,18.72-12.95,1.26-1.94,3.1-2.51,5-3.24,7.44-2.81,14.85-5.73,22.27-8.6a4,4,0,0,0,.91,3.58,80.228,80.228,0,0,1,5.71,7.31c3.66,5.54,3.42,11-.31,16.61-4.37,6.54-10.73,10.41-17.68,13.34a129.434,129.434,0,0,1-23.7,7.11c-16.06,3.36-32.32,3.52-48.6,3.16a198.118,198.118,0,0,1-60.73-10.68,118.5,118.5,0,0,1-20.26-9.69c-4.3-2.48-7.67-6.16-10.75-10C-1572.21,2125.26-1572.9,2121.14-1572.75,2116.9Z" transform="translate(8365.291 3729.758)" fill="#b8b5aa"/>
    <path id="Path_94" data-name="Path 94" d="M-1356.48,1980c-1.67,2.28-2.53,4.74-1.71,7.58-.22.14-.51.22-.64.42-4,6.24-10.22,9.86-16,14a25.23,25.23,0,0,1-12.79,4.77c-.26-2.28-.52-4.57-.77-6.84,3.93-2.39,7.79-4.89,11.81-7.13a20.44,20.44,0,0,0,10.17-13.73c4.17.75,6.34-2.55,9.18-4.5C-1357,1976.4-1356.73,1978.2-1356.48,1980Z" transform="translate(8365.291 3729.758)" fill="#fe7649"/>
    <path id="Path_95" data-name="Path 95" d="M-1363.56,1949.68a12.608,12.608,0,0,1-5.86-3.43c1.52-.93,3.28-1.62,4.53-2.83,8.1-7.87,16.1-15.84,24.1-23.81a15.9,15.9,0,0,0,2.29-3c.37-.62.58-1.54-.27-2a1.5,1.5,0,0,0-1.35.12c-1.21.95-2.35,2-3.47,3a8.67,8.67,0,0,1-3.83,2.47l-.75-.78c1.5-3.52,4.64-5.36,7.54-7.5,2.37-1.75,4.36-1.42,6.9-.13,3.2,1.62,3.87,2.19,2.46,4.81a19.692,19.692,0,0,1-3,4.5q-13.58,13.82-27.31,27.47a9.275,9.275,0,0,1-1.98,1.11Z" transform="translate(8365.291 3729.758)" fill="#e6be8b"/>
    <path id="Path_96" data-name="Path 96" d="M-1455.19,1948a14.48,14.48,0,0,1-4.57-5.9c5.3-5.68,11.78-10,17.56-15.09,6.38-5.64,12.94-11.07,19.44-16.58,1.18-1,2.39-2.1,4.12-1.25,1.31.64,1.34,3-.16,4.79a128.065,128.065,0,0,1-15.63,15c-6.18,5.08-12.43,10.06-18.67,15.06A5.251,5.251,0,0,0-1455.19,1948Z" transform="translate(8365.291 3729.758)" fill="#e6be8b"/>
    <path id="Path_101" data-name="Path 101" d="M-1433.15,1958.66c-1,1.43-2,2.88-3,4.29-2.34,3.19-5.53,4.24-9.09,3a4,4,0,0,1-2.39-2.74c-.67-2.15-1.25-4.34-1.87-6.51a41.351,41.351,0,0,0,16.35,1.96Z" transform="translate(8365.291 3729.758)" fill="#e6be8b"/>
    <path id="Path_102" data-name="Path 102" d="M-1450.72,1926.92c1-2.81,3.53-4.28,5.66-6,5.35-4.36,9-6,8.64-4.66-.88,3.56-4.38,4.67-6.81,6.77-2.1,1.82-3.88,4.07-6.7,4.91C-1450.2,1927.6-1450.47,1927.27-1450.72,1926.92Z" transform="translate(8365.291 3729.758)" fill="#e6be8b"/>
    <path id="Path_104" data-name="Path 104" d="M-1449.93,1927.92c-2.81,2.94-5.34,6.23-9.37,7.7-.25-.29-.49-.59-.71-.9a15.65,15.65,0,0,1,9.29-7.79C-1450.47,1927.27-1450.2,1927.6-1449.93,1927.92Z" transform="translate(8365.291 3729.758)" fill="#e6be8b"/>
    <path id="Path_105" data-name="Path 105" d="M-1433.39,1914.69c-.22-.09-.57-.13-.62-.27-.14-.41-.38-1-.19-1.26a10.6,10.6,0,0,1,2.19-1.93,1.4,1.4,0,0,1,1.31.13,1.29,1.29,0,0,1,.21,1.23A4,4,0,0,1-1433.39,1914.69Z" transform="translate(8365.291 3729.758)" fill="#e6be8b"/>
    <path id="Path_106" data-name="Path 106" d="M-1463.17,1940.32l-1.24-1.85c.38-2.52,2.4-3.12,4.4-3.74.22.3.46.6.71.89Z" transform="translate(8365.291 3729.758)" fill="#e6be8b"/>
    <path id="Path_107" data-name="Path 107" d="M-1423.81,1907.44c-.93.83-1.83,1.7-2.84,2.44a1.28,1.28,0,0,1-1.14-.43,1.43,1.43,0,0,1,.41-1.23c1-.94,2.37-.7,3.63-.72Z" transform="translate(8365.291 3729.758)" fill="#e6be8b"/>
    <path id="Path_108" data-name="Path 108" d="M-1371.1,1944.8a2.53,2.53,0,0,1-1.89-1.75,8.142,8.142,0,0,1,3.31-3.27l.78.83Z" transform="translate(8365.291 3729.758)" fill="#e6be8b"/>
    <path id="Path_109" data-name="Path 109" d="M-1353.65,1926.3c-.92,1.42-1.8,2.92-3.82,2.84a.706.706,0,0,1-.47-.52c.29-2,1.78-2.68,3.5-3.08Z" transform="translate(8365.291 3729.758)" fill="#e6be8b"/>
    <path id="Path_116" data-name="Path 116" d="M-1349,1921.69a8.731,8.731,0,0,1-1.58,1.3c-.25.13-.77-.25-1.14-.45a.76.76,0,0,1,.16-.59c.57-.37,1.18-.68,1.79-1Z" transform="translate(8365.291 3729.758)" fill="#e6be8b"/>
    <path id="Path_117" data-name="Path 117" d="M-1366.65,1936.63l1.61-1.52.84.9-1.5,1.53Z" transform="translate(8365.291 3729.758)" fill="#e6be8b"/>
    <path id="Path_119" data-name="Path 119" d="M-1365.7,1937.54l-1.61,1.5-.86-.82,1.52-1.58C-1366.33,1936.93-1366,1937.24-1365.7,1937.54Z" transform="translate(8365.291 3729.758)" fill="#e6be8b"/>
    <path id="Path_122" data-name="Path 122" d="M-1367.31,1939l-1.59,1.57-.78-.83,1.51-1.55Z" transform="translate(8365.291 3729.758)" fill="#e6be8b"/>
    <path id="Path_123" data-name="Path 123" d="M-1423.75,1907.5l.25-.6-.31.54Z" transform="translate(8365.291 3729.758)" fill="#e6be8b"/>
    <path id="Path_125" data-name="Path 125" d="M-1362.66,1934.43l-1.55,1.57c-.27-.3-.55-.59-.83-.89l1.54-1.56Z" transform="translate(8365.291 3729.758)" fill="#e6be8b"/>
    <path id="Path_128" data-name="Path 128" d="M-1347.42,1920.15l-1.54,1.53-.77-.73,1.57-1.57Z" transform="translate(8365.291 3729.758)" fill="#e6be8b"/>
    <path id="Path_129" data-name="Path 129" d="M-1354.44,1925.54c.47-.54.89-1.45,1.63-.35.08.13-.55.73-.84,1.11Z" transform="translate(8365.291 3729.758)" fill="#e6be8b"/>
    <path id="Path_130" data-name="Path 130" d="M-1362,1932c.39-.56,1-1.18,1.56-.58s-.08,1.12-.63,1.49A8.873,8.873,0,0,0-1362,1932Z" transform="translate(8365.291 3729.758)" fill="#e6be8b"/>
    <path id="Path_131" data-name="Path 131" d="M-1361.06,1932.89l-1.6,1.54-.84-.88c.5-.53,1-1,1.51-1.57C-1361.67,1932.28-1361.36,1932.58-1361.06,1932.89Z" transform="translate(8365.291 3729.758)" fill="#e6be8b"/>
    <path id="Path_140" data-name="Path 140" d="M-1512.12,2086.19c-2.12,2.22-4.3,4.37-6.32,6.67a7.18,7.18,0,0,1-6,2.48,208.056,208.056,0,0,1-22.18-1.94c-11.41-1.37-22.84-2.82-34-5.72q-.6-6.1-1.19-12.2c14,1.56,26.42-3.06,38.14-10.23a30.807,30.807,0,0,0,10.85-10.85c2.28-4,4.7-8.11,2.93-13.08.16-.71.3-1.43.46-2.15.22-.93.35-2,1.76-1.64,2.17.59,4.33,1.25,6.07-.94a11.621,11.621,0,0,0,8.05-3.66c1.87,2,2.11,4,.2,6.14-2.39,2.68-5.39,4.83-7.25,8-1.94,1.29-3.15,2.93-2.65,5.42a10.681,10.681,0,0,0,0,5.27,2.45,2.45,0,0,0-2,2,14.232,14.232,0,0,0,1.2,8.15c1.78,3.66,3.63,7.25,6.66,10.1C-1515,2080.31-1512.78,2082.75-1512.12,2086.19Z" transform="translate(8365.291 3729.758)" fill="#060a02"/>
    <path id="Path_141" data-name="Path 141" d="M-1521.4,2060c2.56-.16,5.11-.43,7.67-.44a7.51,7.51,0,0,1,7.69,5.16c2.24,5.65,3.37,6.44,9,6.1,5.1-.3,10.19-.94,15.24-1.72,1.62-.26,3.09-1.45,4.46-2.12,2.22,1.41,1.78,3.9,3.1,5.48.7.84,1.4,1.44,2.55,1l-.06-.07c-.71,1.41-.24,2.72,1.07,3.11,4.05,1.21,8,1.33,11.42-1.91a23.185,23.185,0,0,0,5.74-8c1.25-3,2.56-6,3.78-8.9,3.68.5,5.6,3.45,8.65,4.13a8,8,0,0,1-1.13,4.38c-4.48,7.92-11.6,13-19.11,17.48-7.75,4.68-16.32,5.72-25.25,5.44-9.91-.31-18-4.21-24-11.86-2.24-2.82-4.42-5.65-6.9-8.28S-1521.55,2063.58-1521.4,2060Z" transform="translate(8365.291 3729.758)" fill="#e6be8b"/>
    <path id="Path_142" data-name="Path 142" d="M-1408.09,2087.69c-11.32,2.75-22.84,4.29-34.37,5.74-5.89.74-11.82,1.18-17.74,1.76,5.64-3.56,11.38-7,16.88-10.74a29.093,29.093,0,0,0,6.8-6.24c4.29-5.63,7.16-11.91,6.71-19.26a2,2,0,0,0-1.73-2.14c.37-2.16-.28-4.9,3.07-5.35,3,1,5.38-.76,8-1.49.87.45,1.33.09,1.52-.79l3.1-.87c-.57,3.11,1.39,5.4,2.74,7.78,5.21,9.2,7.73,18.78,4.92,29.31a7.755,7.755,0,0,0,.1,2.29Z" transform="translate(8365.291 3729.758)" fill="#060a02"/>
    <path id="Path_143" data-name="Path 143" d="M-1614.74,2034.79c2.07,0,4.15-.16,6.2,0,3.68.32,6.37,2.08,7.28,5.87.41,1.72.17,3.64,1.83,4.92a9.171,9.171,0,0,0,6.56,1.86c5.65-.46,11.37.92,17-.8a2,2,0,0,1,2.38,1.49c.66,1.69,1.27,3.39,1.88,5.09a5.15,5.15,0,0,0,4.69,3.48c4.41.52,8.15-.66,11.07-4.17a71.659,71.659,0,0,0,8.16-12.68c2.73,2.12,5.74,3.06,7.47,5.8a25.2,25.2,0,0,1-9.36,11.07c-5.6,3.63-11.58,6.81-18.13,8.45-3.71.93-7.66,2-11.35,1.63-5.81-.63-11.71-1.54-17.1-4.27-4-2-7.44-4.53-9.68-8.53C-1609.35,2047.85-1615.13,2042.75-1614.74,2034.79Z" transform="translate(8365.291 3729.758)" fill="#e6be8b"/>
    <path id="Path_144" data-name="Path 144" d="M-1431.54,2056.81a2,2,0,0,1,1.73,2.14c.45,7.35-2.42,13.63-6.71,19.26a29.1,29.1,0,0,1-6.8,6.24c-5.5,3.76-11.24,7.18-16.88,10.74-4.77.76-9.59,1.31-14.3,2.35a25.23,25.23,0,0,1-12.09-.05,40.616,40.616,0,0,0-6.84-.67l-12.94-6.38c-1.33-2.21-2.53-4.59-5.75-4.25-.66-3.44-2.89-5.88-5.3-8.16-3-2.85-4.88-6.44-6.66-10.1a14.231,14.231,0,0,1-1.2-8.15,2.45,2.45,0,0,1,2-2,3.269,3.269,0,0,0,1.91,2.22c-.15,3.61,1.55,6.44,3.9,8.93s4.66,5.46,6.9,8.28c6.09,7.65,14.13,11.55,24,11.86,8.93.28,17.5-.76,25.25-5.44,7.51-4.53,14.63-9.56,19.11-17.48a8,8,0,0,0,1.13-4.38C-1437.19,2061.46-1433.3,2061.19-1431.54,2056.81Z" transform="translate(8365.291 3729.758)" fill="#fe7649"/>
    <path id="Path_145" data-name="Path 145" d="M-1614.74,2034.79c-.39,8,5.39,13.06,8.87,19.23,2.24,4,5.68,6.5,9.68,8.53,5.39,2.73,11.29,3.64,17.1,4.27,3.69.4,7.64-.7,11.35-1.63,6.55-1.64,12.53-4.82,18.13-8.45a25.2,25.2,0,0,0,9.36-11.07c4.44.93,7.53-1.34,10.31-4.35,1.77,5-.65,9.13-2.93,13.08a30.809,30.809,0,0,1-10.85,10.85c-11.72,7.17-24.09,11.79-38.14,10.23a28.035,28.035,0,0,0-3.58-1.32c-7.35-1.62-14-4.5-19.31-10.06a5.93,5.93,0,0,0-4.16-1.64c.4-1.83.93-3.69-1.16-4.94,0-2.83-2.14-4.72-3.65-6.6-3.4-4.23-4.18-9.25-5.33-14.2a2.43,2.43,0,0,1,.94-2.72C-1616.78,2033.16-1615.7,2033.82-1614.74,2034.79Z" transform="translate(8365.291 3729.758)" fill="#fe7649"/>
    <path id="Path_146" data-name="Path 146" d="M-1420.46,2050c-2.63.73-5.06,2.5-8,1.49.68-3.28-.12-6.42-.88-9.57a5.53,5.53,0,0,0,2.28.2c9.07-3.47,17.07-8.57,23.31-16.13,1.82-2.19,3.27-4.68,3-7.75,3-.34,6.25,0,8.86-3.6a21.391,21.391,0,0,1-4.94,18.34,38.383,38.383,0,0,1-9.79,8.62,113.853,113.853,0,0,0-9.26,6.74l-3.1.87C-1419.75,2048.84-1420.27,2049.08-1420.46,2050Z" transform="translate(8365.291 3729.758)" fill="#fe7649"/>
    <path id="Path_147" data-name="Path 147" d="M-1400.71,2018.21c.22,3.07-1.23,5.56-3,7.75-6.24,7.56-14.24,12.66-23.31,16.13a5.529,5.529,0,0,1-2.28-.2c-2.52-6.23-7.51-10.61-12.09-15.62l5.88-3a7.653,7.653,0,0,1,1.64,1.32c1.1,1.53,1.2,4,4,3.87h0a2.36,2.36,0,0,0-.211,1.861,2.36,2.36,0,0,0,1.211,1.429c3.64,2.44,7,.89,10.12-1a13.311,13.311,0,0,0,5-5.83c1.63-3.51,3.34-7,5.14-10.71C-1405.76,2014.67-1403.41,2016.83-1400.71,2018.21Z" transform="translate(8365.291 3729.758)" fill="#e6be8b"/>
    <path id="Path_148" data-name="Path 148" d="M-1478,1999.49c-2.11-.64-4.19-.67-4.88-3.84a32.83,32.83,0,0,0-7.17-14.21,7.126,7.126,0,0,1-1.28-1.88,2.13,2.13,0,0,1,.9-2.65,1.56,1.56,0,0,1,1.389-.447,1.56,1.56,0,0,1,1.151.9c.59,1.08.67,2.49,2.16,2.9h0c-.25,2,.33,3.66,2.27,4.38,2.49.92,5.08,1,7.31-.69a24.49,24.49,0,0,0,5.78-6.1c1.38-2.13,2.83-4.2,4.21-6.24,5,.32,7.85,7.21,13.48,3.18.31,2.11-.76,2.44-1.59,2.89-5.23,2.81-9.38,7-14,10.65a3.741,3.741,0,0,0-1.66,3.28C-1472.84,1994.07-1474.18,1998.06-1478,1999.49Z" transform="translate(8365.291 3729.758)" fill="#fe7649"/>
    <path id="Path_149" data-name="Path 149" d="M-1526,2028.09a81.483,81.483,0,0,0-9.85-16.35c1.6-1.81,3.62-1.23,5.19-2a1.43,1.43,0,0,1,1.124.069,1.43,1.43,0,0,1,.726.861c.51,1.17.77,2.46,1.26,3.64,2.35,5.73,8.18,7.3,13.17,3.46a32.289,32.289,0,0,0,4.37-4.38c.84-1,1.26-2.32,2.17-3.18,1.84-1.75,1.77-5.59,4.67-5.66,2.48,0,4.33,2.5,6.29,4.14-1.49,3.85-3.42,7.54-7,9.81-6,3.85-12.14,7.55-19.12,9.48a13.315,13.315,0,0,1-3,.11Z" transform="translate(8365.291 3729.758)" fill="#e6be8b"/>
    <path id="Path_150" data-name="Path 150" d="M-1526,2028.09a13.31,13.31,0,0,0,3-.13c7-1.93,13.11-5.63,19.12-9.48,3.54-2.27,5.47-6,7-9.81a10.23,10.23,0,0,0,9.48-3.58c.35.34,1,.71,1,1-.47,4.65-1.18,9.22-5.75,11.9-.51,0-1.13-.3-1.51-.1-7.48,3.93-15.26,7.48-20,15a11.58,11.58,0,0,1-8,3.66c-4.32-1.4-4.33-1.4-4.41-5.48C-1526.08,2030.11-1526,2029.1-1526,2028.09Z" transform="translate(8365.291 3729.758)" fill="#fe7649"/>
    <path id="Path_151" data-name="Path 151" d="M-1492.1,2018c4.57-2.68,5.28-7.25,5.75-11.9,0-.29-.67-.66-1-1a12.669,12.669,0,0,1,.25-1.52c.2-.7.27-1.68.77-2,.7-.5,1.33.19,1.68.92a5.687,5.687,0,0,0,.25.73c1.27,1.88,2.37,2.17,3.44.77s2-3,3-4.48c3.84-1.43,5.18-5.42,8.06-7.85l2.84.13a5.162,5.162,0,0,0,.07,1.3c-1.73,2.14-3.42,4.31-5.21,6.41-1.3,1.52-2.94,2.77-3.55,4.8a4.109,4.109,0,0,0-2.5,1.946,4.11,4.11,0,0,0-.373,3.144c-.07,2.06.71,3.53,2.92,3.71,2,.18,4.1.22,6.15.24a22,22,0,0,1,8.87,2.21c.8.37,1.85,1.14,1.15,2.35s-1.72,1-2.7.58c-1.42-.59-2.75-1.38-4.18-2a6.23,6.23,0,0,0-4.5-.08,14.539,14.539,0,0,0-9.55.74c-3.94,1.62-8,3-11.93,4.55C-1492.33,2020.48-1492.22,2019.24-1492.1,2018Z" transform="translate(8365.291 3729.758)" fill="#060a02"/>
    <path id="Path_152" data-name="Path 152" d="M-1366.42,1979.09a20.44,20.44,0,0,1-10.17,13.73c-4,2.24-7.88,4.74-11.81,7.13-2.17-1.24-2.73-3.63-3.88-5.55-1.62-2.67-3.86-4.73-6-7-.87-.91-1.89-1.87-.71-3.22a2.9,2.9,0,0,1,1.29-.78c1.39-.43,1.56.81,2.1,1.59.8,1.15.8,3.08,2.85,3.09h0c-.27,1-.31,2.21.74,2.68,3.24,1.47,6.45,1.46,9.43-.75a15.92,15.92,0,0,0,4.75-6c1.44-3,3-5.89,4.43-8.84a16.473,16.473,0,0,1,6.98,3.92Z" transform="translate(8365.291 3729.758)" fill="#e6be8b"/>
    <path id="Path_153" data-name="Path 153" d="M-1492.45,2021.72c4-1.51,8-2.93,11.93-4.55a14.54,14.54,0,0,1,9.55-.74,8.2,8.2,0,0,1-4.55,2.65,74.479,74.479,0,0,0-30.89,14.71,11.925,11.925,0,0,1-2.73,1.33.69.69,0,0,1-.63-.19c-.16-.41-.44-1-.26-1.29,1.75-2.63,4.38-4.29,7-5.91C-1499.61,2025.59-1496,2023.71-1492.45,2021.72Z" transform="translate(8365.291 3729.758)" fill="#fff"/>
    <path id="Path_154" data-name="Path 154" d="M-1467,1993.07a5.163,5.163,0,0,1-.07-1.3,74,74,0,0,1,32.86-16.25,13.7,13.7,0,0,1,3-.06c.14,0,.33.32.41.52s.11.67,0,.69a25.881,25.881,0,0,1-2.94,1,72.551,72.551,0,0,0-28.37,13.6,7.209,7.209,0,0,1-4.89,1.8Z" transform="translate(8365.291 3729.758)" fill="#fff"/>
    <path id="Path_155" data-name="Path 155" d="M-1601.71,2012.24c2.36-3.79,6.34-5.06,10-6.69,10.85-4.84,19-6.61,28.16-6.19-1.59,1.92-3.58,2-5.34,2.21a75.83,75.83,0,0,0-14.33,3.17,93.484,93.484,0,0,0-13.3,6.2C-1598,2011.73-1599.44,2013.28-1601.71,2012.24Z" transform="translate(8365.291 3729.758)" fill="#fff"/>
    <path id="Path_156" data-name="Path 156" d="M-1554.7,1977.45c5.86-6.77,22.8-12.69,34.94-12.2.46,1.71-1.13,1.42-1.77,1.5a78.056,78.056,0,0,0-31.07,10.68C-1553.22,1977.8-1554,1978.19-1554.7,1977.45Z" transform="translate(8365.291 3729.758)" fill="#fff"/>
    <path id="Path_157" data-name="Path 157" d="M-1392.9,1940.54c-3.41,3-7.54,2.72-11,4.15a79.571,79.571,0,0,0-11.11,5.39c-3.16,1.92-5.82,4.79-10.75,6.38,3.08-5.5,7.45-7.23,11.36-9.38C-1405.41,1942.16-1399.43,1940.39-1392.9,1940.54Z" transform="translate(8365.291 3729.758)" fill="#fff"/>
    <path id="Path_158" data-name="Path 158" d="M-1511.35,1947.2a2.89,2.89,0,0,1,1.6-2.28,69.251,69.251,0,0,1,27.66-9.06,3.608,3.608,0,0,1,1.47.36c.08,0,0,.45,0,.68a.74.74,0,0,1-.3.61,8.687,8.687,0,0,1-2.17.69,59.288,59.288,0,0,0-24,7.9C-1508.34,1946.81-1509.6,1948.16-1511.35,1947.2Z" transform="translate(8365.291 3729.758)" fill="#fff"/>
    <path id="Path_159" data-name="Path 159" d="M-1498.57,2062.47a3.931,3.931,0,0,1-2.27,2.76,2,2,0,0,1-2.37-1.23,2.9,2.9,0,0,1,.79-2.73c1.13-1.07-1.47-3.16.93-3.54C-1500.41,2057.55-1498.43,2061.13-1498.57,2062.47Z" transform="translate(8365.291 3729.758)" fill="#b8b5aa"/>
    <path id="Path_160" data-name="Path 160" d="M-1471.67,2073.4c1.67-1.54-.4-3.42.47-5a2,2,0,0,1,1.09-1,1.471,1.471,0,0,1,1.24.51c1.83,2.81,1,4.3-2.86,5.38Z" transform="translate(8365.291 3729.758)" fill="#fff"/>
    <path id="Path_161" data-name="Path 161" d="M-1430,2028.49a32,32,0,0,1,.45-4.41,2.1,2.1,0,0,1,1.6-1.24c.58,0,1.22.64,1.79,1.06a1.22,1.22,0,0,1,.33.66c.38,1.46.68,3-.61,4.13-1.13,1-2.34-.19-3.53-.16Z" transform="translate(8365.291 3729.758)" fill="#b8b5aa"/>
    <path id="Path_162" data-name="Path 162" d="M-1597,2035.58c1.53.54,3.11,1.1,3.15,2.87a3.38,3.38,0,0,1-2,3,1.62,1.62,0,0,1-1.38.09c-.55-.43-1.34-1.2-1.24-1.68a28.993,28.993,0,0,1,1.47-4.28Z" transform="translate(8365.291 3729.758)" fill="#b8b5aa"/>
    <path id="Path_163" data-name="Path 163" d="M-1567.74,2047a1.74,1.74,0,0,1,1.26,1.71c.11,1.26.22,2.6-1.12,3.32a1.4,1.4,0,0,1-1.32-.28,3.48,3.48,0,0,1-.11-4.23C-1568.84,2047.23-1568.18,2047.2-1567.74,2047Z" transform="translate(8365.291 3729.758)" fill="#fff"/>
    <path id="Path_164" data-name="Path 164" d="M-1392.7,1988.13a21.765,21.765,0,0,1,.34-3.81,2.17,2.17,0,0,1,1.54-1.38,2.72,2.72,0,0,1,1.74,1.23,2.82,2.82,0,0,1,0,3.56c-1,1.31-2.37.28-3.56.43Z" transform="translate(8365.291 3729.758)" fill="#b8b5aa"/>
    <path id="Path_165" data-name="Path 165" d="M-1485.76,1980.26c.19-.45.35-.92.58-1.36,1.1-2.05,2.28-2.79,3-1.91a2.91,2.91,0,0,1,.15,4c-1.46,1.68-2.54-.4-3.8-.71Z" transform="translate(8365.291 3729.758)" fill="#b8b5aa"/>
    <path id="Path_166" data-name="Path 166" d="M-1523.3,2052.48c-.5-2.49.71-4.13,2.65-5.42,1.84.82,2.61,2.11,1.6,4S-1521.46,2053.3-1523.3,2052.48Z" transform="translate(8365.291 3729.758)" fill="#b8b5aa"/>
    <path id="Path_167" data-name="Path 167" d="M-1611.71,2024.87a2.45,2.45,0,0,1-2,2.69,1.309,1.309,0,0,1-1.13-.66c-.46-1.42.27-2.35,1.55-2.9.22-.09.58-.2.71-.1a5.786,5.786,0,0,1,.87.97Z" transform="translate(8365.291 3729.758)" fill="#fff"/>
    <path id="Path_168" data-name="Path 168" d="M-1521.71,2012.58a7.136,7.136,0,0,1-.2,1.47c-.23.69-.56,1.48-1.51,1.17a1.6,1.6,0,0,1-.92-1,7.753,7.753,0,0,1-.17-2.21,1.46,1.46,0,0,1,1.26-1.54c1-.13,1.2.63,1.42,1.34a6.007,6.007,0,0,1,.12.77Z" transform="translate(8365.291 3729.758)" fill="#fff"/>
    <path id="Path_169" data-name="Path 169" d="M-1565.73,1988.16c1,.33,1.82.6,1.57,1.61-.33,1.3-1,2.37-2.53,2.33a1.26,1.26,0,0,1-.987-.491,1.26,1.26,0,0,1-.223-1.079,2.48,2.48,0,0,1,2.17-2.37Z" transform="translate(8365.291 3729.758)" fill="#b8b5aa"/>
    <path id="Path_170" data-name="Path 170" d="M-1478.68,2009.37a4.11,4.11,0,0,1,.373-3.144,4.109,4.109,0,0,1,2.5-1.946c1.15.92,2.33,1.82,1.41,3.58A3.1,3.1,0,0,1-1478.68,2009.37Z" transform="translate(8365.291 3729.758)" fill="#b8b5aa"/>
    <path id="Path_171" data-name="Path 171" d="M-1538.07,2037.13c1,.5,1.82,1.11,1.37,2.33a1.38,1.38,0,0,1-1.22.62c-.95-.39-1.89-1-1.4-2.28C-1539.2,2037.47-1538.51,2037.35-1538.07,2037.13Z" transform="translate(8365.291 3729.758)" fill="#e6be8b"/>
    <path id="Path_172" data-name="Path 172" d="M-1432.08,1968.43a2.47,2.47,0,0,1-2.14,2.29,1.18,1.18,0,0,1-1.03-.282,1.18,1.18,0,0,1-.38-1,2.45,2.45,0,0,1,2.12-2.57C-1432.67,1966.72-1432.19,1967.33-1432.08,1968.43Z" transform="translate(8365.291 3729.758)" fill="#b8b5aa"/>
    <path id="Path_173" data-name="Path 173" d="M-1493.75,2002.49c-.22.41-.39,1.13-.66,1.17a1.29,1.29,0,0,1-1.029-.286,1.29,1.29,0,0,1-.461-.964,1.37,1.37,0,0,1,.65-1.12C-1494.33,2001-1494,2001.73-1493.75,2002.49Z" transform="translate(8365.291 3729.758)" fill="#b8b5aa"/>
    <path id="Path_174" data-name="Path 174" d="M-1522.08,1960.17c-.26-.27-.83-.59-.82-.9a1.58,1.58,0,0,1,.544-1.33,1.58,1.58,0,0,1,1.4-.34c.58.07.72.59.57,1.21A1.809,1.809,0,0,1-1522.08,1960.17Z" transform="translate(8365.291 3729.758)" fill="#fff"/>
    <path id="Path_175" data-name="Path 175" d="M-1439.71,2053.74c.79.19,1.39.62,1.25,1.48a1.26,1.26,0,0,1-1,.71,1.12,1.12,0,0,1-.965-.392,1.12,1.12,0,0,1-.224-1.018C-1440.57,2054.22-1440,2054-1439.71,2053.74Z" transform="translate(8365.291 3729.758)" fill="#b8b5aa"/>
    <path id="Path_176" data-name="Path 176" d="M-1456.73,1970c-.3.25-.62.72-.89.69a1.06,1.06,0,0,1-.87-.45,1.06,1.06,0,0,1-.13-.97.74.74,0,0,1,.51-.45C-1457.27,1968.72-1456.86,1969.2-1456.73,1970Z" transform="translate(8365.291 3729.758)" fill="#b8b5aa"/>
    <path id="Path_177" data-name="Path 177" d="M-1363.84,1973.14c-.39.17-.83.57-1.16.48a1,1,0,0,1-.775-.584,1,1,0,0,1,.085-.966c.12-.22.9-.3,1.17-.12S-1364.06,1972.73-1363.84,1973.14Z" transform="translate(8365.291 3729.758)" fill="#b8b5aa"/>
    <path id="Path_178" data-name="Path 178" d="M-1398.14,2011.71c-.33.27-.67.79-1,.77-.9-.06-1.19-.74-1-1.56a.726.726,0,0,1,.49-.56,1.48,1.48,0,0,1,1.51,1.35Z" transform="translate(8365.291 3729.758)" fill="#b8b5aa"/>
    <path id="Path_277" data-name="Path 277" d="M-1594.54,2096.08h-2.58c-.71-1.8-1.75-2.78-3.71-1.46l-2.5-.21c-.89-2.41-3.29-2.3-5.15-2.9-12.31-3.91-24.37-8.44-35.7-14.72-3.37-1.87-6.58-4.06-9.77-6.24a6.131,6.131,0,0,1-2.67-3.66c-.28-1.18.94-2.8,2.13-2.5a17.5,17.5,0,0,1,3.61,1.24c4.16,2.08,8.35,4.12,12.38,6.42a139.064,139.064,0,0,0,51.7,17.27c4.59.59,9.12,1.64,13.65,2.58a13.468,13.468,0,0,1,3.54,1.4,1.52,1.52,0,0,1,.8,1.94,2.181,2.181,0,0,1-.85,1.18c-2.64,1.07-5.35,2.21-8.24,1.43-4.75-1.26-9.8-.6-14.49-2.3C-1593,2095.32-1593.81,2095.88-1594.54,2096.08Z" transform="translate(8365.291 3729.758)" fill="#fff"/>
    <path id="Path_278" data-name="Path 278" d="M-1608.91,2062.46a5.93,5.93,0,0,1,4.16,1.64c5.29,5.56,12,8.44,19.31,10.06a27.992,27.992,0,0,1,3.58,1.32q.6,6.11,1.19,12.2a14.2,14.2,0,0,1-3.06,0c-12.49-2.84-24.92-5.9-36.85-10.63-1.59-.63-3.42-1-4.47-3Z" transform="translate(8365.291 3729.758)" fill="#b5713e"/>
    <path id="Path_279" data-name="Path 279" d="M-1506.37,2090.44l12.94,6.38-14.64.17c-1.07,0-2.16-.26-2.43-1.4s.47-1.92,1.25-2.62C-1508.3,2092.11-1507.33,2091.28-1506.37,2090.44Z" transform="translate(8365.291 3729.758)" fill="#b5713e"/>
    <path id="Path_299" data-name="Path 299" d="M-1600.83,2094.59c2-1.32,3-.34,3.71,1.46C-1598.82,2096.76-1600.19,2096.6-1600.83,2094.59Z" transform="translate(8365.291 3729.758)" fill="#e6be8b"/>
    <path id="Path_317" data-name="Path 317" d="M-1420.46,2050c.19-.89.71-1.13,1.52-.79C-1419.13,2050.06-1419.59,2050.42-1420.46,2050Z" transform="translate(8365.291 3729.758)" fill="#b5713e"/>
  </g>
</svg>
