<svg xmlns="http://www.w3.org/2000/svg" width="180.016" height="223.468" viewBox="0 0 180.016 223.468">
  <g id="s12" transform="translate(-6376.506 -5665.297)">
    <path id="Path_70" data-name="Path 70" d="M-1957.12,2119.69c2-3.87,3.95-7.79,6.08-11.61,1.06-1.91.68-3.32-.72-4.82-13.45-14.51-21.31-31.92-26.58-50.76a254.4,254.4,0,0,1-9.36-61.65q-.25-8.88-.54-17.75c.69.26,1.7.32,2,.82,3.13,4.75,7.9,7.32,12.72,9.86a96.051,96.051,0,0,0,15,6.22c14.07,4.58,28.67,6.37,43.28,7.4a270.261,270.261,0,0,0,36.44-.19c2.09.08,4.28.8,6-1.07a151.992,151.992,0,0,0,36.26-7c6.59-2.09,13.17-4.62,18.73-9,3-2.37,5.87-5,8.79-7.45a287.356,287.356,0,0,1-6.59,67.53c-3.73,17.16-9.27,33.75-18.83,48.74a103.765,103.765,0,0,1-10.8,14.07c-2.3,2.52-2.25,2.57.67,6.14-.13,1.64.72,3,1.34,4.37.92,2.12,1.8,4.26,2.6,6.43a10.81,10.81,0,0,1-2.24,11.49,31.99,31.99,0,0,1-6.91,6.11c-15.73,10.14-33.37,13.31-51.56,13.27a93.8,93.8,0,0,1-28-4.72,73,73,0,0,1-16.15-7.29C-1952.55,2134.49-1958.21,2129.09-1957.12,2119.69Zm-3.72-98c0-6.71-1.06-12.76-4.4-18.24a13.746,13.746,0,0,0-1.94-2.38,2.48,2.48,0,0,0-3.42.54,11.525,11.525,0,0,0-1.29,3.6,39.92,39.92,0,0,0,2.1,18.33,17.142,17.142,0,0,0,3.85,6.66,2.5,2.5,0,0,0,2.111.677,2.5,2.5,0,0,0,1.819-1.267c1.53-2.61,1.01-5.49,1.17-7.89Zm12.17,103.85a8.62,8.62,0,0,0-1.73,1.19,1.45,1.45,0,0,0-.14,1.38c2.28,3.67,5.38,6,9.93,5.79a1.58,1.58,0,0,0,1.2-.813,1.581,1.581,0,0,0,.033-1.447c-1.87-3.78-5.25-5.27-9.29-6.07Zm-7.36-78.42a9.8,9.8,0,0,0-5.16-8.76,2.32,2.32,0,0,0-2.206.1,2.32,2.32,0,0,0-1.124,1.9c-.11,3.66,1.69,6.4,4.26,8.75a2.67,2.67,0,0,0,2.83.75c1.13-.44,1.24-1.51,1.43-2.71Z" transform="translate(8365.291 3729.758)" fill="#b5713e"/>
    <path id="Path_80" data-name="Path 80" d="M-1809,1972.69c-2.92,2.49-5.77,5.08-8.79,7.45-5.56,4.37-12.14,6.9-18.73,9a152,152,0,0,1-36.26,7c-2.07,0-4.24-.6-6,1.07a270.261,270.261,0,0,1-36.44.19c-14.61-1-29.21-2.82-43.28-7.4a96.068,96.068,0,0,1-15-6.22c-4.82-2.54-9.59-5.11-12.72-9.86-.33-.5-1.34-.56-2-.82-1.74-7,.63-12.62,5.83-17.31a47.994,47.994,0,0,1,15.93-9.38,154.664,154.664,0,0,1,33.77-8.15c13.6-1.72,27.2-3.21,40.9-2.57,18.32.85,36.51,2.89,54.18,8.19a84.915,84.915,0,0,1,19,8.66,35.6,35.6,0,0,1,5.37,4.4,13,13,0,0,1,4.46,10.34C-1808.85,1969.08-1808.91,1970.88-1809,1972.69Zm-86.86,6.14c.93-.42,1.85-.88,2.8-1.27,1.6-.64,3.06-.89,3.18,1.52,0,.63.27,1,.91,1,4.5.54,8.72,0,12.25-3.14a4.65,4.65,0,0,0,1.5-5.49c-2.08-6.17-5.22-8.81-11.65-9.34-2.55-.21-5.1-.34-7.65-.5-1.06-1.49-2.65-1.34-4.19-1.42-5.7-.31-11.26.83-16.89,1.39a101.8,101.8,0,0,0-29,7.57c-5.74,2.38-11.14,5.51-14.78,10.84-1.16,1.68-2.38,1.41-4,.85-2.17-.75-4.43-1.24-6.67-1.81a.759.759,0,0,0-.64.33c-.11.41-.26,1-.06,1.28,1.62,2.18,4.08,3.17,6.47,4.06a139.651,139.651,0,0,0,14,4.6c3.72.93,7.44,2.37,11.38,2,2.47-.24,5.94,1.8,6.87-2.69.07-.33,1.36-.6,2.07-.57,3.86.16,7.8,0,11.55.75,4.39.9,8.74.58,13.1.72,1.92.06,3.64-.53,4.53-2.38,1.1-2.28,3.59-3.85,3.45-6.76Zm-1.62-37.19a186.276,186.276,0,0,0-41.56,3,142.984,142.984,0,0,0-23.83,6.49,44.2,44.2,0,0,0-12.07,6.88,10,10,0,0,0-3.633,7,10,10,0,0,0,2.563,7.454c1.8,2,3.44,2.23,5.21.32,5.27-5.73,12-8.84,19.24-11a143.649,143.649,0,0,1,37.23-6.34c9.81-.3,19.64-.09,29.46-.11,9.34,0,18.48,1.58,27.57,3.43a102.619,102.619,0,0,1,10.45,2.82c7.67,2.42,15.16,5.18,20.73,11.46,1.41,1.58,3.31,1.35,4.74-.09,3.14-3.18,5-9.16,0-13.73a39.006,39.006,0,0,0-11-7.1c-15.88-6.8-32.68-9.1-49.68-10.43-5.01-.39-10.21-.05-15.38-.05Z" transform="translate(8365.291 3729.758)" fill="#e6be8b"/>
    <path id="Path_84" data-name="Path 84" d="M-1957.12,2119.69c-1.09,9.4,4.57,14.8,11.65,19.14a73,73,0,0,0,16.15,7.29,93.79,93.79,0,0,0,28,4.72c18.19,0,35.83-3.13,51.56-13.27a32.009,32.009,0,0,0,6.91-6.11,10.81,10.81,0,0,0,2.24-11.49c-.8-2.17-1.68-4.31-2.6-6.43-.62-1.41-1.47-2.73-1.34-4.37,4.92-.38,9,2.22,13.19,4.06,5.16,2.29,10.21,5,14.29,9.13,7.59,7.64,7,16.76-1.61,23.24a37.54,37.54,0,0,1-9.38,5.4c-12.92,4.82-26.18,7.89-40,7.95-6.47,0-12.94.13-19.4,0a142.42,142.42,0,0,1-53.44-11.28c-7.17-3.09-13.66-7.35-18-14.17a10.8,10.8,0,0,1-1.95-7.34C-1960.48,2123.52-1959.64,2121.1-1957.12,2119.69Z" transform="translate(8365.291 3729.758)" fill="#b8b5aa"/>
    <path id="Path_179" data-name="Path 179" d="M-1960.84,2021.72c-.15,2.4.36,5.29-1.17,7.92a2.5,2.5,0,0,1-1.819,1.267,2.5,2.5,0,0,1-2.111-.677,17.14,17.14,0,0,1-3.85-6.66,39.918,39.918,0,0,1-2.1-18.33,11.526,11.526,0,0,1,1.29-3.6,2.48,2.48,0,0,1,3.42-.54,13.743,13.743,0,0,1,1.94,2.38C-1961.9,2009-1960.86,2015-1960.84,2021.72Z" transform="translate(8365.291 3729.758)" fill="#fff"/>
    <path id="Path_180" data-name="Path 180" d="M-1948.67,2125.57c4,.8,7.42,2.29,9.29,6.1a1.58,1.58,0,0,1-.033,1.447,1.579,1.579,0,0,1-1.2.813c-4.55.2-7.65-2.12-9.93-5.79a1.451,1.451,0,0,1,.14-1.38,8.6,8.6,0,0,1,1.73-1.19Z" transform="translate(8365.291 3729.758)" fill="#fff"/>
    <path id="Path_181" data-name="Path 181" d="M-1956,2047.15c-.16,1.2-.27,2.27-1.4,2.7a2.67,2.67,0,0,1-2.83-.75c-2.57-2.35-4.37-5.09-4.26-8.75a2.32,2.32,0,0,1,1.124-1.9,2.32,2.32,0,0,1,2.206-.1,9.8,9.8,0,0,1,5.16,8.8Z" transform="translate(8365.291 3729.758)" fill="#fff"/>
    <path id="Path_182" data-name="Path 182" d="M-1878.76,1997.21c1.78-1.67,4-1.1,6-1.07C-1874.48,1998-1876.67,1997.29-1878.76,1997.21Z" transform="translate(8365.291 3729.758)" fill="#fe7649"/>
    <path id="Path_313" data-name="Path 313" d="M-1897.44,1941.64c5.17,0,10.37-.34,15.5.06,17,1.33,33.8,3.63,49.68,10.43a39,39,0,0,1,11,7.1c5,4.57,3.11,10.55,0,13.73-1.43,1.44-3.33,1.67-4.74.09-5.57-6.28-13.06-9-20.73-11.46a102.693,102.693,0,0,0-10.45-2.82c-9.09-1.85-18.23-3.45-27.57-3.43-9.82,0-19.65-.19-29.46.11a143.643,143.643,0,0,0-37.23,6.34c-7.25,2.18-14,5.29-19.24,11-1.77,1.91-3.41,1.66-5.21-.32a10,10,0,0,1-2.563-7.454,10,10,0,0,1,3.633-7,44.2,44.2,0,0,1,12.07-6.88,143.012,143.012,0,0,1,23.83-6.49,186.283,186.283,0,0,1,41.48-3.01Z" transform="translate(8365.291 3729.758)" fill="#b5713e"/>
    <path id="Path_314" data-name="Path 314" d="M-1897.32,1980.4c.14,2.91-2.35,4.48-3.45,6.76-.89,1.85-2.61,2.44-4.53,2.38-4.36-.14-8.71.18-13.1-.72-3.75-.76-7.69-.59-11.55-.75-.71,0-2,.24-2.07.57-.93,4.49-4.4,2.45-6.87,2.69-3.94.38-7.66-1.06-11.38-2a139.609,139.609,0,0,1-14-4.6c-2.39-.89-4.85-1.88-6.47-4.06-.2-.27,0-.87.06-1.28a.76.76,0,0,1,.64-.33c2.24.57,4.5,1.06,6.67,1.81,1.6.56,2.82.83,4-.85,3.64-5.33,9-8.46,14.78-10.84a101.8,101.8,0,0,1,29-7.57c5.63-.56,11.19-1.7,16.89-1.39,1.54.08,3.13-.07,4.19,1.42-5.09,1.5-10.19,3-15.25,4.54a12.889,12.889,0,0,0-3.41,1.68c-3.61,2.45-3.9,6.14-.65,8.9a25.127,25.127,0,0,0,4,2.29,4.881,4.881,0,0,0,4.12,1.61C-1902.92,1980.64-1900.12,1980.5-1897.32,1980.4Z" transform="translate(8365.291 3729.758)" fill="#fff"/>
    <path id="Path_315" data-name="Path 315" d="M-1909.84,1979.06a25.138,25.138,0,0,1-4-2.29c-3.25-2.76-3-6.45.65-8.9a12.891,12.891,0,0,1,3.41-1.68c5.06-1.57,10.16-3,15.25-4.54,2.55.16,5.1.29,7.65.5,6.43.53,9.57,3.17,11.65,9.34a4.65,4.65,0,0,1-1.5,5.49c-3.53,3.09-7.75,3.68-12.25,3.14a.922.922,0,0,1-.91-1c-.12-2.41-1.58-2.16-3.18-1.52-1,.39-1.87.85-2.8,1.27Z" transform="translate(8365.291 3729.758)" fill="#b5713e"/>
    <path id="Path_316" data-name="Path 316" d="M-1909.84,1979.06l14-.23-1.5,1.57c-2.8.1-5.6.24-8.4.27a4.88,4.88,0,0,1-4.1-1.61Z" transform="translate(8365.291 3729.758)" fill="#b8b5aa"/>
  </g>
</svg>
