<svg xmlns="http://www.w3.org/2000/svg" width="255.681" height="179.278" viewBox="0 0 255.681 179.278">
  <g id="s13" transform="translate(-7375.463 -4258.191)">
    <path id="Path_300" data-name="Path 300" d="M-875.91,531.4c7.54-3.56,15.31-3.35,23.43-2.28,13.3,1.74,26.67,3,39.89,5.32,4.56.8,9,2.06,13.55,3.11.47,2.59-1.37,2.92-3.2,3.25-11.61,2.11-21.92,7.22-31.6,13.76-9,6.08-16.87,13.42-24.6,21-5.63,5.53-8.57,12.13-9.87,19.6-.79,4.54-1,9.18-1.44,13.78a10.511,10.511,0,0,0-.27,6.13c-.77,5.63-.49,11.29-.38,16.93a206.826,206.826,0,0,0,2.59,31.43c0,7,2.16,13.66,3.33,20.47a13.349,13.349,0,0,0,1.93,5.81c-.16,1.2.07,2.72-1.75,2.81a19.005,19.005,0,0,1-3.85-.16,199.429,199.429,0,0,1-44.3-12.83,14,14,0,0,1-7.58-7.18q-3.26-10.74-6.5-21.49a17.283,17.283,0,0,0-.21-3.07,121.349,121.349,0,0,1-2.92-24.54c-.21-6.69-.66-13.37-1-20,.41-7.19,1.07-14.38,1.15-21.58a15.88,15.88,0,0,1,4.24-11.17c.7-.76,1.27-1.62,2-2.38a173.512,173.512,0,0,1,38.73-31.71C-881.72,534.66-878.8,533.05-875.91,531.4Zm20,1.21c-1,0-2.07-.06-3.1,0-3,.22-6.22-.29-9,1.39a1.54,1.54,0,0,0-.62,1.23c0,.3.59.68,1,.8a3.928,3.928,0,0,0,1.53,0c7.9-1,15.31.69,22.5,3.93a26.92,26.92,0,0,0,9.65,2.56c3.18.18,5.19-.6,5.1-2.17-.12-2.25-2-2.72-3.65-3.39a63.588,63.588,0,0,0-23.37-4.35Z" transform="translate(8365.291 3729.758)" fill="#060a02"/>
    <path id="Path_301" data-name="Path 301" d="M-926.53,650.87q3.24,10.74,6.5,21.49c-2.55,3.31-6,4-9.7,2.84-3.35-1.1-4.36-4.08-4.41-7.45,0-1.82-1.19-2.77-3-2.83s-3.62,0-5.43-.11c-4.39-.16-7.54-2.14-8.28-6.61-.45-2.7-1.41-3.92-4.24-4.45-4.5-.85-8.34-3.34-9.64-8A6.35,6.35,0,0,0-968.9,641c-7-3-7.47-4.22-6.4-11.85a4.469,4.469,0,0,0-.3-1.44c-.88-2.09-3.28-2.39-4.65-4-1.71-1.95-2.74-4.52-1-6.32,4.18-4.45.47-8.76.38-13.09,0-1.11-1.3-1.56-2.36-1.57-2.66,0-3.42-1.53-3.74-3.92-.78-5.87-1.86-11.7-2.69-17.57A15.629,15.629,0,0,1-987.65,571c4.79-8.57,11.84-15,19.08-21.2,8.29-7.1,17.86-12.26,27.83-16.67a19.73,19.73,0,0,1,8.22-1.91c18.86.11,37.73.14,56.61.19-2.89,1.65-5.81,3.26-8.67,5a173.51,173.51,0,0,0-38.73,31.71c-.7.76-1.27,1.62-2,2.38a15.88,15.88,0,0,0-4.24,11.17c-.08,7.2-.74,14.39-1.15,21.58-5.09-.63-10.22-.75-15.33-1.39-6.34-.8-12.84-.47-19.27-.41-3.24,0-5,2.31-4.05,5,1.09,3.15,2.18,6.52,4.85,8.64,3.43,2.73,4.37,6.07,4,10.18a8.11,8.11,0,0,0,2.6,7c4.28,3.54,7.94,8.2,13.85,9.25a5.79,5.79,0,0,1,4.37,2.6C-936.58,648.82-932,650.69-926.53,650.87ZM-946.75,583a3.74,3.74,0,0,0-1.506-2.534,3.74,3.74,0,0,0-2.874-.656,3.69,3.69,0,0,0-2.89,3.9,3.681,3.681,0,0,0,1.486,2.541,3.68,3.68,0,0,0,2.874.639,3.73,3.73,0,0,0,2.91-3.89Zm-26.7,2.67c0-1.32-1.62-2.76-3.18-2.79a3.66,3.66,0,0,0-2.748,1.132,3.66,3.66,0,0,0-1,2.8c.13,1.56,1.71,3.13,3,3,1.89-.33,3.9-2.42,3.93-4.19Z" transform="translate(8365.291 3729.758)" fill="#e6be8b"/>
    <path id="Path_302" data-name="Path 302" d="M-862.55,689.72a13.351,13.351,0,0,1-1.93-5.81c-1.17-6.81-3.34-13.46-3.33-20.47,3.77,1.88,7.54,1.39,11.21-.18,2.73-1.18,4.94-1.27,6.46,1.76,1.16,2.33,3.49,2.8,5.69,3.6,2,.72,3.43.15,5-1.06,2.52-2,3.48-4.82,4-8a51,51,0,0,0,5.89,3.13c3.33,1.22,6.63,1.47,9-2a4.17,4.17,0,0,1,3.09-2c5-.62,8.51-3.48,10.88-7.78a8.88,8.88,0,0,1,5.83-4.65,15.61,15.61,0,0,0,9.11-6.78,40.506,40.506,0,0,1,4.14-4.52c3.47-3.81,5.4-8.17,3-13.41-.75-1.63-1.37-3.32-2-5,1.92-2.61,5-3.61,7.61-5.12,10.77-6.21,22.15-10.9,34.65-12.37,2.43,3.59,3.43,7.41,1.77,11.61-1,2.63-.84,5.08,1.24,7.08,2.64,2.57,3.09,5.75,3,9.18a15.461,15.461,0,0,0,.77,6c1.46,3.92-.22,7.05-3.21,9.45a39.7,39.7,0,0,1-5.88,3.57c-3.14,1.72-3.35,1.81-1.67,5.24a15.81,15.81,0,0,1,1.72,8.88c-3.83.33-7.41,2.21-11.36,1.87-3.08,2.59-3.35,6.77-5.58,9.83a9.478,9.478,0,0,1-.92,1.24c-2.63,2.67-5.69,5-9.53,3.87-2.8-.84-4.17-.36-5.73,2-2.28,3.41-5.53,5.37-9.9,4.65a9.891,9.891,0,0,0-1.54,0,5.06,5.06,0,0,0-5.2,2.56c-2,3.26-5.19,4-8.75,3.67-3.25-.33-6,.31-8.39,2.86s-5,2-7.82.62a11.331,11.331,0,0,1-4-3.53c-2.47-3.28-2.59-3.21-6.27-1.48-.94.43-1.84.94-2.77,1.39-4.16,2-8.3,2.84-12.37-.25a2.79,2.79,0,0,0-3.55-.06c-1.27.86-2.6,1.66-3.92,2.46a4.78,4.78,0,0,1-6.34-.75A11,11,0,0,0-862.55,689.72Z" transform="translate(8365.291 3729.758)" fill="#e6be8b"/>
    <path id="Path_303" data-name="Path 303" d="M-869.75,609c.46-4.6.65-9.24,1.44-13.78,1.3-7.47,4.24-14.07,9.87-19.6,7.73-7.59,15.61-14.93,24.6-21,9.68-6.54,20-11.65,31.6-13.76,1.83-.33,3.67-.66,3.2-3.25,2.51.33.84,3.43,2.67,4.1,2.16.79,4.37,1.42,6.59,2.05,12.6,3.56,25,7.64,36.64,13.8,5,2.64,9.71,5.74,14.49,8.72a10.188,10.188,0,0,1,2,2.28c-7.48.08-15,.28-22.24,2.27-18.42,5.05-34.86,14-49.78,25.86-2.3,1.83-2.91,4-1.58,6.81,2.43,5.2,2.07,11.08,3.54,16.54a10.15,10.15,0,0,1-.14,3.83,2.37,2.37,0,0,1-.92,1.657,2.37,2.37,0,0,1-1.84.453,23.311,23.311,0,0,1-4.45-1.09c-8.87-2.71-17.7-5.56-26.6-8.17C-850.3,613.84-859.88,610.83-869.75,609Zm48.07,9.26c3.23.09,5.6-1.66,5.41-4s-2.79-4.94-5-5-5.22,2.74-5,4.85a4.8,4.8,0,0,0,4.59,4.1ZM-840.37,604c2.71.18,5.45-1.86,5.58-4.16a4.3,4.3,0,0,0-.994-3.216,4.3,4.3,0,0,0-3.006-1.514,4.36,4.36,0,0,0-3.565,1.075,4.36,4.36,0,0,0-1.435,3.435A4.04,4.04,0,0,0-840.37,604Z" transform="translate(8365.291 3729.758)" fill="#e6be8b"/>
    <path id="Path_304" data-name="Path 304" d="M-862.55,689.72a11,11,0,0,1,1.94,1.23,4.78,4.78,0,0,0,6.34.75c1.32-.8,2.65-1.6,3.92-2.46a2.79,2.79,0,0,1,3.55.06c4.07,3.09,8.21,2.26,12.37.25.93-.45,1.83-1,2.77-1.39,3.68-1.73,3.8-1.8,6.27,1.48a11.331,11.331,0,0,0,4,3.53c2.77,1.42,5.56,1.82,7.82-.62a9.456,9.456,0,0,1,8.39-2.86c3.56.35,6.73-.41,8.75-3.67a5.06,5.06,0,0,1,5.2-2.56c.51,0,1-.05,1.54,0,4.37.72,7.62-1.24,9.9-4.65,1.56-2.33,2.93-2.81,5.73-2,3.84,1.15,6.9-1.2,9.53-3.87a9.482,9.482,0,0,0,.92-1.24c2.23-3.06,2.5-7.24,5.58-9.83,3.95.34,7.53-1.54,11.36-1.87.21.73.76,1.58.56,2.18-.75,2.34-1,4.35,1.22,6.18,1.91,1.58,1.6,3.68.38,5.6-1.1,1.73-1.22,3.23.35,4.79,3.37,3.31,1.6,7.23,1,10.91-.27,1.65-1.89,2.47-3.45,2.72-2.28.36-4.63.35-6.92.69-1.11.17-1.43,1-1.32,2.28.36,3.88-.38,4.83-3.51,5a14.65,14.65,0,0,1-6.13-.63,2.65,2.65,0,0,0-3.4.89c-3.81,5.13-9.28,5.21-14.74,4.34-2.41-.39-4.44-.5-6.65.58a13.3,13.3,0,0,1-10.56.49,8.35,8.35,0,0,0-6.67.33,12.69,12.69,0,0,1-10.5.25c-1.39-.61-2.83-1.21-4.43-.3-5.2,3-9.65.81-13.25-2.78-2.15-2.14-3.8-2.41-6.65-1.94-4.8.8-9.81,1.11-14.32-1.63a5.54,5.54,0,0,0-5.19-.41c-1.47.58-3.14,1.1-4.53.46-4.51-2.07-9.35-2.48-14.11-3.42a9.919,9.919,0,0,1-5.56-2.56c-1.78-1.89-3.66-2.08-6.24-1.61-5,.92-9.1-1.57-12.35-5.09a7.9,7.9,0,0,0-5.2-2.72c-4.85-.69-9.74-1.51-14-4.25-2.58-1.68-5.41-1.53-8.24-1.49-3.84.05-7.21-.66-8.92-4.69-.94-2.22-3.12-2.66-5.11-3a22.672,22.672,0,0,1-8-2.82c-1.15-.66-2.2-1.44-2.07-3a1.84,1.84,0,0,0-.258-1.444,1.84,1.84,0,0,0-1.232-.8,57.682,57.682,0,0,1-6.55-2.29c-1.13-.5-2.79-1.37-2.93-2.28-.62-3.91-3.72-4.52-6.54-5.72s-5.83-2.69-4.22-6.86c.32-.81-.36-1.35-1-1.82a29.271,29.271,0,0,1-3-2.42,2.13,2.13,0,0,1-.833-1.69,2.13,2.13,0,0,1,.834-1.69c1.62-1.37,2.93-2.39,2.15-5.08-.68-2.32,1-4.38,3.12-5.68a4.47,4.47,0,0,1,.3,1.44c-1.07,7.63-.61,8.83,6.4,11.85a6.35,6.35,0,0,1,4.16,4.79c1.3,4.61,5.14,7.1,9.64,8,2.83.53,3.79,1.75,4.24,4.45.74,4.47,3.89,6.45,8.28,6.61,1.81.07,3.62.05,5.43.11s3,1,3,2.83c0,3.37,1.06,6.35,4.41,7.45,3.66,1.19,7.15.47,9.7-2.84a14,14,0,0,0,7.58,7.18,199.426,199.426,0,0,0,44.3,12.83,19,19,0,0,0,3.85.16C-862.48,692.44-862.71,690.92-862.55,689.72Z" transform="translate(8365.291 3729.758)" fill="#b8b5aa"/>
    <path id="Path_305" data-name="Path 305" d="M-869.75,609c9.87,1.88,19.45,4.89,29.06,7.71,8.9,2.61,17.73,5.46,26.6,8.17a23.3,23.3,0,0,0,4.45,1.09,2.37,2.37,0,0,0,1.84-.453,2.37,2.37,0,0,0,.92-1.657,10.151,10.151,0,0,0,.14-3.83c-1.47-5.46-1.11-11.34-3.54-16.54-1.33-2.86-.72-5,1.58-6.81,14.92-11.84,31.36-20.81,49.78-25.86,7.24-2,14.76-2.19,22.24-2.27,2,1.44,1.37,3.66,1.73,5.59a69.2,69.2,0,0,1,.37,18.24c-.2,2.42-1.29,4.26-4,4.83A55.59,55.59,0,0,0-744.4,599c-12.51,1.47-23.89,6.16-34.66,12.37-2.61,1.51-5.69,2.51-7.61,5.12-.44.26-.9.49-1.32.78a87.406,87.406,0,0,0-16,14.53,4.29,4.29,0,0,1-5.46,1.26c-3.1-1.24-6.29-2.26-9.47-3.29-16.88-5.48-33.86-10.59-51.14-14.7a10.51,10.51,0,0,1,.31-6.07Z" transform="translate(8365.291 3729.758)" fill="#fe7649"/>
    <path id="Path_306" data-name="Path 306" d="M-870,615.08c17.28,4.11,34.26,9.22,51.14,14.7,3.18,1,6.37,2.05,9.47,3.29a4.29,4.29,0,0,0,5.46-1.26,87.407,87.407,0,0,1,16-14.53c.42-.29.88-.52,1.32-.78.68,1.66,1.3,3.35,2,5,2.39,5.24.46,9.6-3,13.41a40.512,40.512,0,0,0-4.14,4.52,15.61,15.61,0,0,1-9.11,6.78,8.88,8.88,0,0,0-5.83,4.65c-2.37,4.3-5.85,7.16-10.88,7.78a4.17,4.17,0,0,0-3.09,2c-2.33,3.47-5.63,3.22-9,2a50.976,50.976,0,0,1-5.89-3.13c-.48,3.22-1.44,6-4,8-1.53,1.21-3,1.78-5,1.06-2.2-.8-4.53-1.27-5.69-3.6-1.52-3-3.73-2.94-6.46-1.76-3.67,1.57-7.44,2.06-11.21.18A206.823,206.823,0,0,1-870.4,632C-870.51,626.37-870.79,620.71-870,615.08Z" transform="translate(8365.291 3729.758)" fill="#fff"/>
    <path id="Path_307" data-name="Path 307" d="M-926.53,650.87c-5.44-.18-10.05-2-13.11-6.74a5.79,5.79,0,0,0-4.37-2.6c-5.91-1-9.57-5.71-13.85-9.25a8.11,8.11,0,0,1-2.6-7c.36-4.11-.58-7.45-4-10.18-2.67-2.12-3.76-5.49-4.85-8.64-.94-2.72.81-5,4.05-5,6.43-.06,12.93-.39,19.27.41,5.11.64,10.24.76,15.33,1.39.35,6.68.8,13.36,1,20a121.349,121.349,0,0,0,2.92,24.54,17.291,17.291,0,0,1,.21,3.07Z" transform="translate(8365.291 3729.758)" fill="#fff"/>
    <path id="Path_308" data-name="Path 308" d="M-855.87,532.61A63.588,63.588,0,0,1-832.5,537c1.61.67,3.53,1.14,3.65,3.39.09,1.57-1.92,2.35-5.1,2.17A26.92,26.92,0,0,1-843.6,540c-7.19-3.24-14.6-4.89-22.5-3.93a3.93,3.93,0,0,1-1.53,0c-.4-.12-1-.5-1-.8A1.54,1.54,0,0,1-868,534c2.81-1.68,6-1.17,9-1.39C-857.94,532.55-856.9,532.61-855.87,532.61Z" transform="translate(8365.291 3729.758)" fill="#fff"/>
    <path id="Path_309" data-name="Path 309" d="M-946.75,583a3.73,3.73,0,0,1-2.91,3.89,3.68,3.68,0,0,1-2.874-.639,3.68,3.68,0,0,1-1.486-2.541,3.69,3.69,0,0,1,2.89-3.9,3.74,3.74,0,0,1,2.874.656A3.74,3.74,0,0,1-946.75,583Z" transform="translate(8365.291 3729.758)" fill="#fe7649"/>
    <path id="Path_310" data-name="Path 310" d="M-973.45,585.62c0,1.77-2,3.86-3.95,4.11-1.27.16-2.85-1.41-3-3a3.661,3.661,0,0,1,1-2.8,3.66,3.66,0,0,1,2.748-1.132C-975.07,582.86-973.43,584.3-973.45,585.62Z" transform="translate(8365.291 3729.758)" fill="#fe7649"/>
    <path id="Path_311" data-name="Path 311" d="M-821.68,618.21a4.8,4.8,0,0,1-4.64-4.19c-.2-2.11,2.73-4.94,5-4.85s4.84,2.68,5,5S-818.45,618.3-821.68,618.21Z" transform="translate(8365.291 3729.758)" fill="#fe7649"/>
    <path id="Path_312" data-name="Path 312" d="M-840.37,604c-2-.13-3.5-2.06-3.49-4.38a4.36,4.36,0,0,1,1.435-3.435,4.36,4.36,0,0,1,3.565-1.075,4.3,4.3,0,0,1,3.006,1.514,4.3,4.3,0,0,1,.994,3.216C-834.92,602.13-837.66,604.17-840.37,604Z" transform="translate(8365.291 3729.758)" fill="#fe7649"/>
  </g>
</svg>
