<svg xmlns="http://www.w3.org/2000/svg" width="285.09" height="306.355" viewBox="0 0 285.09 306.355">
  <g id="s14" transform="translate(-6752.89 -5206.806)">
    <path id="Path_73" data-name="Path 73" d="M-1546.46,1572.31a92.455,92.455,0,0,1,23.47-3.6,82.326,82.326,0,0,1,28.61,5.07c3.86,1.38,7.63,3,11.44,4.52,1.16,1.83,3.15,2.57,4.85,3.7,3.2,2.12,6.44,4.2,9.57,6.44,10.48,7.51,19.55,16.63,28.88,25.45a23.631,23.631,0,0,1,6.42,9.41c-2,.78-4.44-.46-6.51,1.37.91.77,1.47,1.27,2,1.74,8.89,7.19,16.7,15.27,20.91,26.17,1.42,3.67,3.85,4.87,7.7,4.87,12.22,0,23.13,4.1,33,11.21,1,.7,1.71,2,3.35,1,0-.94.1-2,.17-3,.63-8.41-.55-16.43-5-23.75a10.91,10.91,0,0,1-1.56-5.12c.24-.28.48-.55.74-.81l2.94.07h0c.22,1.44,1.38,2.08,2.39,2.86,3.46,2.69,7.17,5.13,10.3,8.16,13.48,13,19.73,29.39,21.2,47.73,1.16,14.48-.6,28.9-1.67,43.31a17.773,17.773,0,0,1-1.36,5.24c-2.07,5-4.16,10-6.51,14.89s-5,9.58-7.55,14.36c-1.71,1.56-3.31,3.27-5.15,4.65a4.66,4.66,0,0,1-3.659.92,4.66,4.66,0,0,1-3.141-2.09,10,10,0,0,1-1.59-2.63c-2.52-7.49-2.65-15.2-1.89-23a7.75,7.75,0,0,1,3.16-5.16c1.6-1.3,3.29-2.49,4.89-3.78,5.7-4.59,8.25-10.3,6.76-17.72a63.137,63.137,0,0,0-6.25-17.4,102.374,102.374,0,0,0-15.15-21.43c-3.74-4-7.89-7.42-13.47-8.57a10,10,0,0,0-1.95-1.17,56.639,56.639,0,0,0-29.67-.86c-9.59,2.13-16.41,8.13-18.64,18.3-.27,1.24-.74,2.45-1.09,3.68-1.47,5.22-5,8.27-10.21,9.32a68,68,0,0,1-6.87.68,65,65,0,0,1-32.74-14.75,24.941,24.941,0,0,0-14.6-6c-2.31-.14-4.63-.32-6.92-.69a3.07,3.07,0,0,1-2.37-3.49,11.617,11.617,0,0,1,1.52-4.33c5.09-10.31,12.17-19.13,20.17-27.29a97.141,97.141,0,0,1,41.84-25.55c1-.29,1.89-.62,3.07-1-2-4.16-5.46-6.35-9.06-8.35a50.281,50.281,0,0,0-16.11-5.33,10.44,10.44,0,0,0-2-1.1c-10.54-2.93-21.32-3.48-32.18-3.08a12.756,12.756,0,0,0-3,.57c-11.31,3.15-20.62,9.08-27.14,19.12s-6.33,20.56.58,30.11c.76,1,1.52,2.1,2.37,3.06,1.65,1.85,2,4,2.17,6.42.27,5.2-2.47,8.85-6.11,11.88a53.45,53.45,0,0,1-31.76,12.6c-6.5.37-12,2.41-16.38,7.29-6.1,5.74-8.21,5.4-11.71-2.08a99,99,0,0,1-8.41-56.44c1.59-11.52,5.7-22.37,13.54-31.41a26.189,26.189,0,0,0,4.61-.13,73.36,73.36,0,0,1,37.23,2.13c2.91.92,4.82.71,6.78-1.49,5.24-5.88,11.8-9.89,18.93-13a35.1,35.1,0,0,1,9.55-2.86c2.11-.28,5.39,1.24,6-1.7.46-2.21-2.45-3.69-4.14-5.2a24.012,24.012,0,0,0-4.46-3c-6.34-3.49-12.89-6.39-20.23-7a2.771,2.771,0,0,1-2.107-.822A2.77,2.77,0,0,1-1546.46,1572.31Zm77.67,26.18c.24.75.47.88.57.38,0-.06-.4-.21-.62-.32-2.16-3.53-5.36-6-8.54-8.52a2.85,2.85,0,0,0-2.13-.23c-1.18.29-1.31,1.4-1.39,2.42a3.73,3.73,0,0,0,2.54,4.2c3.1,1.05,6.16,2.41,9.57,2.07Zm-.77,55.62c6.09-10.1,15.33-15.6,26.56-18.24a31.773,31.773,0,0,0,4.38-1.38c.91-.35,2-.74,1.79-2.1-.23-1.14-1.28-1.5-2.19-1.92-2.47-1.12-5-.79-7.56-.25a71.915,71.915,0,0,0-14.64,4.74,122.234,122.234,0,0,0-21.28,12.4c-1.79-.49-3.59-.8-5.16.55-6.52,5.62-11.55,12.47-16.13,19.68a1.919,1.919,0,0,0-.162,1.514,1.92,1.92,0,0,0,.992,1.156,5.453,5.453,0,0,0,2.09.93c5.6.88,10,3.79,14,7.69,7.28,7.11,16.45,10.47,26.22,12.36a7,7,0,0,0,8.13-4.48c1.4-3.6,2.51-7.32,3.61-11a4.72,4.72,0,0,0-1.42-5c-2.61-2.5-5.16-5-8-7.28-3.82-3.02-8.59-4.96-11.23-9.37Zm-120.57-5.62c-4.4-11-3.89-21.57,2.09-31.87a14.731,14.731,0,0,0,1.5-4.33,2.37,2.37,0,0,0-.8-2,2.43,2.43,0,0,0-2.11-.1,15.53,15.53,0,0,0-6.75,7.17,56.18,56.18,0,0,0-6.12,17.39q-1.5,9.915-3,19.84c-1.35.08-2.68.29-2.49,2.08.21,2,.58,4,.9,6.07a74.245,74.245,0,0,0,5.79,19.48c2.12-1.06,3.95-1.91,5.72-2.84a29.908,29.908,0,0,1,13.22-3.55,47.24,47.24,0,0,0,25.07-8.8,24.107,24.107,0,0,0,3.9-3.73c2.25-2.48,2.41-3.92.52-6.9-1.65-2.6-3.63-5-5.31-7.55a7.85,7.85,0,0,0-7.09-3.76,94.294,94.294,0,0,0-25.04,3.4Zm240.84,59.89v-5.36a54.711,54.711,0,0,0-.23-6.12,1.81,1.81,0,0,0-.7-1.316,1.81,1.81,0,0,0-1.45-.344,2.16,2.16,0,0,0-2,2,5.449,5.449,0,0,0-.06,2.27c.79,3.14,1.45,6.36,4.44,8.87Z" transform="translate(8365.291 3729.758)" fill="#fe7649"/>
    <path id="Path_78" data-name="Path 78" d="M-1549.21,1541a15,15,0,0,0-2.32-.07c-6.14.72-7-3.23-5-7.83a91.55,91.55,0,0,1,4.84-9.65c7.89-13.55,18-25.13,31.23-33.69,9.16-5.92,19-10.33,30-11.39a4.6,4.6,0,0,0,2.42,2.64c1.53,1,2.56,2.32,2.09,4.32a26.748,26.748,0,0,0-16.54,2.58c-2.53,1.27-5.14,2.39-7.65,3.7-6.44,3.35-12,8-17.73,12.36-.62-.34-1.49-1.14-1.81-1-3.38,1.9-6.51,4.07-5.56,8.76l-.12.19a3.59,3.59,0,0,0-4,1.63c-1.66,2.6-3.23,5.25-4.76,7.92-1.08,1.88-.51,3.38,1.81,4,5.84,1.51,10.82,4.52,15.66,8a49.318,49.318,0,0,0,14.62,6.81c3.78,1.14,7.64.79,11.48.56a3.66,3.66,0,0,0,3.42-2.7c1.1-3.68,2.09-7.39,3.07-11.11.45-1.7-.53-2.92-1.58-4.11-2.93-3.33-6.76-5.5-10.29-8.06-2.87-2.08-6.54-3.17-8.38-6.56,5-9.35,12.8-15,22.81-18a31.751,31.751,0,0,0,4.25-1.72c1.47-.67,1.19-2.07,1.24-3.32a5.68,5.68,0,0,1,5.68,1.56c5.3,5.25,11.26,10,14.12,17.22,1.19,3,3.22,4.49,6.54,4.24,1.8-.13,3.62,0,5.42,0a40,40,0,0,1,24.79,7.24,14.8,14.8,0,0,0,2,1.08,2.32,2.32,0,0,0,2.185-.174,2.32,2.32,0,0,0,1.065-1.916,7.473,7.473,0,0,0,0-2.31c-1.64-7-3.27-14.08-7.62-20.07a15.939,15.939,0,0,1-3.11-6.17c7.68,3.08,14.35,7.79,20.77,12.91a1.46,1.46,0,0,0,1.48,1.42l.15.16a1.177,1.177,0,0,0,1.43,1.32l.21.2q-.08,1.43,1.35,1.38l.15.21a1.31,1.31,0,0,0,.289,1.1,1.31,1.31,0,0,0,1.041.459v.07a1.43,1.43,0,0,0,.3,1.151,1.43,1.43,0,0,0,1.064.53h0a6.993,6.993,0,0,0,.52,2.2c8.42,12.85,12.07,27.07,12.29,42.3,0,1.79.35,3.57.48,5.36.65,9-.62,17.91-.89,26.87a10.581,10.581,0,0,1-.85,2.94c-3.65,10.14-7.13,20.34-13.5,29.21-1.75.24-3.45,1.16-5.27.24a7.5,7.5,0,0,1-3.41-4.07,46.8,46.8,0,0,1-3.33-19.61,8.61,8.61,0,0,1,3-6.1c1.15-1,2.29-2.07,3.49-3.05,5.66-4.66,6.71-10.61,5-17.41a46.646,46.646,0,0,0-5.21-12c-5.27-9.21-11.62-17.57-20.35-23.86a3.071,3.071,0,0,0-3-1.43h0c-.75-.69-1.37-1.67-2.26-2-11.15-4.66-22.48-5.4-33.85-.94-8.51,3.33-14.15,9.21-15.35,18.67-.15,1.26-.59,2.49-.84,3.75-.67,3.34-2.85,5.3-5.75,6.81-4.62,2.41-9.49,2.29-14.33,1.4a58.082,58.082,0,0,0-8.38-1.28h0a3.43,3.43,0,0,0-3.07-1.44l-14.14-7.85C-1539,1540.79-1544.08,1540.74-1549.21,1541Zm147.36,10.76h1.16v-11.32c0-1.26.07-2.83-1.48-3.05-.78-.12-1.8.77-2.56,1.38a3,3,0,0,0-1,4c1.34,2.94,2.58,5.97,3.88,8.97Z" transform="translate(8365.291 3729.758)" fill="#fe7649"/>
    <path id="Path_85" data-name="Path 85" d="M-1358.65,1773.63c2.53-4.78,5.2-9.49,7.55-14.36s4.44-9.88,6.51-14.89a17.777,17.777,0,0,0,1.36-5.24c1.07-14.41,2.83-28.83,1.67-43.31-1.47-18.34-7.72-34.71-21.2-47.73-3.13-3-6.84-5.47-10.3-8.16-1-.78-2.17-1.42-2.39-2.86a12.321,12.321,0,0,1,6.68,1.55c17.24,8.7,30,21.4,36.76,39.88a74.612,74.612,0,0,1,4.69,27.21c-.1,7.22,0,14.45-.29,21.67-.27,6.16-1,12.3-1.56,18.45a7.15,7.15,0,0,1-.55,2.24c-4.19,9.4-7.61,19.18-13.49,27.77a28.424,28.424,0,0,1-5.7,6.27,4.69,4.69,0,0,1-4.331,1.15,4.69,4.69,0,0,1-3.319-3.01,62.262,62.262,0,0,1-2.09-6.63Z" transform="translate(8365.291 3729.758)" fill="#b8b5aa"/>
    <path id="Path_86" data-name="Path 86" d="M-1591.26,1697.47c4.37-4.88,9.88-6.92,16.38-7.29a53.45,53.45,0,0,0,31.76-12.6c3.64-3,6.38-6.68,6.11-11.88-.13-2.4-.52-4.57-2.17-6.42-.85-1-1.61-2-2.37-3.06-6.91-9.55-7-20.18-.58-30.11s15.83-16,27.14-19.12a12.75,12.75,0,0,1,3-.57c10.86-.4,21.64.15,32.18,3.08a10.432,10.432,0,0,1,2,1.1c-4.39.07-8.78.37-13.15.15a36.69,36.69,0,0,0-22.06,6c-7,4.49-13,10.15-16.81,17.79-4.58,9.23-3.84,17.77,2.67,26,7.16,9,7.62,12.79-2.25,22.37-3.21,3.12-7.34,4.82-11.33,6.6-6.62,3-13.38,5.52-20.83,5.29-4.94-.15-9,2-12.64,5.05-1.57,1.34-2.89,3-4.47,4.3-3,2.49-5.69,2-7.77-1.2a42.793,42.793,0,0,0-2.27-4C-1589.25,1698.23-1590.38,1698-1591.26,1697.47Z" transform="translate(8365.291 3729.758)" fill="#b8b5aa"/>
    <path id="Path_87" data-name="Path 87" d="M-1546.46,1572.31a2.771,2.771,0,0,0,.79,2.1,2.77,2.77,0,0,0,2.09.826c7.34.62,13.89,3.52,20.23,7a24.009,24.009,0,0,1,4.46,3c1.69,1.51,4.6,3,4.14,5.2-.6,2.94-3.88,1.42-6,1.7a35.115,35.115,0,0,0-9.55,2.86c-7.13,3.15-13.69,7.16-18.93,13-2,2.2-3.87,2.41-6.78,1.49a73.359,73.359,0,0,0-37.23-2.13,26.177,26.177,0,0,1-4.61.13c2.61-5.79,7.37-9.84,12-13.71C-1574.11,1584.15-1561.24,1576.43-1546.46,1572.31Z" transform="translate(8365.291 3729.758)" fill="#e6be8b"/>
    <path id="Path_88" data-name="Path 88" d="M-1379.17,1637.83a10.909,10.909,0,0,0,1.56,5.12c4.48,7.32,5.66,15.34,5,23.75-.07,1-.12,2-.17,3-1.64,1-2.39-.32-3.35-1-9.84-7.11-20.75-11.22-33-11.21-3.85,0-6.28-1.2-7.7-4.87-4.21-10.9-12-19-20.91-26.17-.58-.47-1.14-1-2-1.74,2.07-1.83,4.55-.59,6.5-1.36l11.65-.46a119.844,119.844,0,0,1,38.25,10.62C-1383,1636-1381.41,1637.19-1379.17,1637.83Z" transform="translate(8365.291 3729.758)" fill="#e6be8b"/>
    <path id="Path_89" data-name="Path 89" d="M-1434.86,1485.93a15.94,15.94,0,0,0,3.11,6.17c4.35,6,6,13,7.62,20.07a7.464,7.464,0,0,1,0,2.31,2.32,2.32,0,0,1-1.065,1.916,2.32,2.32,0,0,1-2.185.174,14.8,14.8,0,0,1-2-1.08,40,40,0,0,0-24.79-7.24c-1.8.06-3.62-.11-5.42,0-3.32.25-5.35-1.21-6.54-4.24-2.86-7.24-8.82-12-14.12-17.22a5.68,5.68,0,0,0-5.68-1.56l.06.06c.47-2-.56-3.3-2.09-4.32-1-.69-2.09-1.32-2.42-2.64.45-.24.88-.66,1.35-.71,18.52-1.72,36.5.31,53.69,7.77A3.706,3.706,0,0,1-1434.86,1485.93Z" transform="translate(8365.291 3729.758)" fill="#e6be8b"/>
    <path id="Path_90" data-name="Path 90" d="M-1408.53,1615.69c6.37-8.87,9.85-19.07,13.5-29.21a10.576,10.576,0,0,0,.85-2.94c.27-9,1.54-17.89.89-26.87-.13-1.79-.45-3.57-.48-5.36-.22-15.23-3.87-29.45-12.29-42.3a7,7,0,0,1-.52-2.2,3.29,3.29,0,0,1,2.84.87,39.608,39.608,0,0,1,5,5.84,75.191,75.191,0,0,1,12,29.88,95.254,95.254,0,0,1,1.73,19.2,82.063,82.063,0,0,0,0,9.28c1.31,14.22-3.91,26.83-9.55,39.31a36.146,36.146,0,0,1-4.94,7.83c-3.08,3.77-6.56,3-8.77-1.81a6.2,6.2,0,0,1-.26-1.52Z" transform="translate(8365.291 3729.758)" fill="#b8b5aa"/>
    <path id="Path_91" data-name="Path 91" d="M-1462.57,1707.42a68.026,68.026,0,0,0,6.87-.68,12.355,12.355,0,0,0,10.21-9.32c.35-1.23.82-2.44,1.09-3.68,2.23-10.17,9.05-16.17,18.64-18.3a56.64,56.64,0,0,1,29.67.86,10.008,10.008,0,0,1,1.95,1.17c-5.41.21-10.84.45-16.09,1.88-6.92,1.88-12.82,5.34-16.79,11.57a26.449,26.449,0,0,0-2.94,7.93c-2.34,9.28-7,13.08-16.45,12.9C-1452.12,1711.65-1457.7,1710.79-1462.57,1707.42Z" transform="translate(8365.291 3729.758)" fill="#b8b5aa"/>
    <path id="Path_92" data-name="Path 92" d="M-1518.33,1554.8a58.1,58.1,0,0,1,8.38,1.28c4.84.89,9.71,1,14.33-1.4,2.9-1.51,5.08-3.47,5.75-6.81.25-1.26.69-2.49.84-3.75,1.2-9.46,6.84-15.34,15.35-18.67,11.37-4.46,22.7-3.72,33.85.94.89.36,1.51,1.34,2.26,2h-18.5c-6.16,0-11.53,2.63-16.33,6.13-4,2.92-7,6.78-7.59,12.06-.16,1.52-.83,3-1,4.49a10.71,10.71,0,0,1-8.89,9.52C-1500,1562.57-1509.78,1561.16-1518.33,1554.8Z" transform="translate(8365.291 3729.758)" fill="#b8b5aa"/>
    <path id="Path_93" data-name="Path 93" d="M-1421.58,1622.85l-11.65.46a23.471,23.471,0,0,0-6.41-9.42c-9.33-8.82-18.4-17.94-28.88-25.45-3.13-2.24-6.37-4.32-9.57-6.44-1.7-1.13-3.69-1.87-4.85-3.7,2.7-.18,5,1.11,7.3,2.16a126.083,126.083,0,0,1,34.36,23c4.86,4.55,9.82,9,14.71,13.54C-1424.69,1618.79-1422.73,1620.47-1421.58,1622.85Z" transform="translate(8365.291 3729.758)" fill="#b8b5aa"/>
    <path id="Path_103" data-name="Path 103" d="M-1549.21,1541c5.13-.24,10.17-.19,13.67,4.53-3.32.06-6.64.26-9.94.15C-1548.36,1545.57-1549.42,1543.7-1549.21,1541Z" transform="translate(8365.291 3729.758)" fill="#b8b5aa"/>
    <path id="Path_110" data-name="Path 110" d="M-1379.17,1637.83c-2.24-.64-3.88-1.85-4.16-4.36l2.7.87a2.06,2.06,0,0,0,2.09,1.17h.1a3.168,3.168,0,0,0,0,1.53C-1378.69,1637.28-1378.93,1637.55-1379.17,1637.83Z" transform="translate(8365.291 3729.758)" fill="#fe7649"/>
    <path id="Path_111" data-name="Path 111" d="M-1521.4,1553.36a3.43,3.43,0,0,1,3.07,1.44A2.61,2.61,0,0,1-1521.4,1553.36Z" transform="translate(8365.291 3729.758)" fill="#b8b5aa"/>
    <path id="Path_112" data-name="Path 112" d="M-1437.6,1528.4a3.07,3.07,0,0,1,3,1.43,2.51,2.51,0,0,1-3-1.43Z" transform="translate(8365.291 3729.758)" fill="#b8b5aa"/>
    <path id="Path_114" data-name="Path 114" d="M-1378.43,1637a3.169,3.169,0,0,1,0-1.53,2.889,2.889,0,0,1,3,1.6Z" transform="translate(8365.291 3729.758)" fill="#b8b5aa"/>
    <path id="Path_118" data-name="Path 118" d="M-1412.61,1500.26a1.46,1.46,0,0,1-1.48-1.42Z" transform="translate(8365.291 3729.758)" fill="#b8b5aa"/>
    <path id="Path_120" data-name="Path 120" d="M-1406.59,1506.84a1.43,1.43,0,0,1-1.064-.529,1.43,1.43,0,0,1-.3-1.151,1.45,1.45,0,0,1,1.056.536,1.451,1.451,0,0,1,.3,1.144Z" transform="translate(8365.291 3729.758)" fill="#b8b5aa"/>
    <path id="Path_121" data-name="Path 121" d="M-1411,1501.74c-1,.07-1.4-.4-1.43-1.32Z" transform="translate(8365.291 3729.758)" fill="#b8b5aa"/>
    <path id="Path_124" data-name="Path 124" d="M-1409.47,1503.32q-1.42,0-1.35-1.38A1.54,1.54,0,0,1-1409.47,1503.32Z" transform="translate(8365.291 3729.758)" fill="#b8b5aa"/>
    <path id="Path_126" data-name="Path 126" d="M-1408,1505.09a1.31,1.31,0,0,1-1.041-.459,1.31,1.31,0,0,1-.289-1.1A1.5,1.5,0,0,1-1408,1505.09Z" transform="translate(8365.291 3729.758)" fill="#b8b5aa"/>
    <path id="Path_127" data-name="Path 127" d="M-1378.54,1635.51a2.06,2.06,0,0,1-2.09-1.17,2.1,2.1,0,0,1,2.09,1.17Z" transform="translate(8365.291 3729.758)" fill="#b8b5aa"/>
    <path id="Path_260" data-name="Path 260" d="M-1590.13,1648.49a94.3,94.3,0,0,1,25.07-3.39,7.85,7.85,0,0,1,7.09,3.76c1.68,2.58,3.66,5,5.31,7.55,1.89,3,1.73,4.42-.52,6.9a24.1,24.1,0,0,1-3.9,3.73,47.238,47.238,0,0,1-25.07,8.8,29.912,29.912,0,0,0-13.22,3.55c-1.77.93-3.6,1.78-5.72,2.84a74.242,74.242,0,0,1-5.79-19.48c-.32-2-.69-4-.9-6.07-.19-1.79,1.14-2,2.49-2.08,1.36,2,1.37,4.33,1.56,6.61a16.082,16.082,0,0,0,2.4,7.16,5.75,5.75,0,0,0,5.76,3,5.46,5.46,0,0,0,5.07-4c.8-2.89,1.61-5.8,1.07-9A95.3,95.3,0,0,1-1590.13,1648.49Z" transform="translate(8365.291 3729.758)" fill="#e6be8b"/>
    <path id="Path_261" data-name="Path 261" d="M-1469.56,1654.11c2.64,4.41,7.41,6.35,11.2,9.39,2.85,2.27,5.4,4.78,8,7.28a4.72,4.72,0,0,1,1.42,5c-1.1,3.7-2.21,7.42-3.61,11a7,7,0,0,1-8.13,4.48c-9.77-1.89-18.94-5.25-26.22-12.36-4-3.9-8.38-6.81-14-7.69a5.452,5.452,0,0,1-2.09-.93,1.92,1.92,0,0,1-.992-1.156,1.919,1.919,0,0,1,.162-1.514c4.58-7.21,9.61-14.06,16.13-19.68,1.57-1.35,3.37-1,5.16-.55-2.4,2.31-4.9,4.54-7.16,7a34.282,34.282,0,0,0-4.14,5.52c-2.11,3.49-.48,6.37,3.26,7.92a6.65,6.65,0,0,0,5.94-.6,33.187,33.187,0,0,0,7.48-5.39C-1474.58,1659.25-1472.08,1656.67-1469.56,1654.11Z" transform="translate(8365.291 3729.758)" fill="#e6be8b"/>
    <path id="Path_262" data-name="Path 262" d="M-1469.56,1654.11c-2.52,2.56-5,5.14-7.56,7.68a33.185,33.185,0,0,1-7.48,5.39,6.65,6.65,0,0,1-5.94.6c-3.74-1.55-5.37-4.43-3.26-7.92a34.288,34.288,0,0,1,4.14-5.52c2.26-2.44,4.76-4.67,7.16-7a122.226,122.226,0,0,1,21.28-12.4,71.923,71.923,0,0,1,14.64-4.74c2.54-.54,5.09-.87,7.56.25.91.42,2,.78,2.19,1.92.26,1.36-.88,1.75-1.79,2.1a31.791,31.791,0,0,1-4.38,1.38C-1454.23,1638.51-1463.47,1644-1469.56,1654.11Z" transform="translate(8365.291 3729.758)" fill="#fff"/>
    <path id="Path_263" data-name="Path 263" d="M-1590.13,1648.49a95.3,95.3,0,0,0,.7,9.88c.54,3.17-.27,6.08-1.07,9a5.46,5.46,0,0,1-5.07,4,5.75,5.75,0,0,1-5.76-3,16.081,16.081,0,0,1-2.4-7.16c-.19-2.28-.2-4.61-1.56-6.61q1.5-9.915,3-19.84a56.18,56.18,0,0,1,6.12-17.39,15.531,15.531,0,0,1,6.75-7.17,2.43,2.43,0,0,1,2.11.1,2.37,2.37,0,0,1,.8,2,14.725,14.725,0,0,1-1.5,4.33C-1594,1626.92-1594.53,1637.53-1590.13,1648.49Z" transform="translate(8365.291 3729.758)" fill="#fff"/>
    <path id="Path_264" data-name="Path 264" d="M-1468.79,1598.49c-3.41.34-6.47-1-9.57-2.07a3.73,3.73,0,0,1-2.54-4.2c.08-1,.21-2.13,1.39-2.42a2.849,2.849,0,0,1,2.13.23c3.18,2.49,6.38,5,8.54,8.52Z" transform="translate(8365.291 3729.758)" fill="#e6be8b"/>
    <path id="Path_265" data-name="Path 265" d="M-1349.29,1708.38c-3-2.51-3.65-5.73-4.44-8.89a5.449,5.449,0,0,1,.06-2.27,2.16,2.16,0,0,1,2-2,1.81,1.81,0,0,1,1.45.344,1.81,1.81,0,0,1,.7,1.316c.19,2,.19,4.08.23,6.12C-1349.27,1704.81-1349.29,1706.6-1349.29,1708.38Z" transform="translate(8365.291 3729.758)" fill="#e6be8b"/>
    <path id="Path_266" data-name="Path 266" d="M-1468.84,1598.55c.22.11.64.26.62.32-.1.5-.33.37-.57-.38Z" transform="translate(8365.291 3729.758)" fill="#e6be8b"/>
    <path id="Path_283" data-name="Path 283" d="M-1514.31,1508.3c1.84,3.39,5.51,4.48,8.38,6.56,3.53,2.56,7.36,4.73,10.29,8.06,1.05,1.19,2,2.41,1.58,4.11-1,3.72-2,7.43-3.07,11.11a3.66,3.66,0,0,1-3.42,2.7c-3.84.23-7.7.58-11.48-.56a49.318,49.318,0,0,1-14.62-6.81c-4.84-3.48-9.82-6.49-15.66-8-2.32-.6-2.89-2.1-1.81-4,1.53-2.67,3.1-5.32,4.76-7.92a3.59,3.59,0,0,1,4-1.63,17.467,17.467,0,0,1-.75,3,4.63,4.63,0,0,0,1,5.63,5.67,5.67,0,0,0,6.39,1.37,14.348,14.348,0,0,0,5.76-3.79C-1520,1514.91-1517.18,1511.58-1514.31,1508.3Z" transform="translate(8365.291 3729.758)" fill="#e6be8b"/>
    <path id="Path_284" data-name="Path 284" d="M-1514.31,1508.3c-2.87,3.28-5.67,6.61-8.62,9.82a14.353,14.353,0,0,1-5.76,3.79,5.67,5.67,0,0,1-6.39-1.37,4.63,4.63,0,0,1-1-5.63,17.447,17.447,0,0,0,.75-3l.12-.19a28.819,28.819,0,0,0,7.37-7.8c5.72-4.39,11.29-9,17.73-12.36,2.51-1.31,5.12-2.43,7.65-3.7a26.749,26.749,0,0,1,16.54-2.58l-.06-.06c0,1.25.23,2.65-1.24,3.32a31.752,31.752,0,0,1-4.25,1.72C-1501.51,1493.26-1509.35,1499-1514.31,1508.3Z" transform="translate(8365.291 3729.758)" fill="#fff"/>
    <path id="Path_285" data-name="Path 285" d="M-1401.85,1551.74c-1.3-3-2.54-6-3.91-9a3,3,0,0,1,1-4c.76-.61,1.78-1.5,2.56-1.38,1.55.22,1.48,1.79,1.48,3.05v11.32Z" transform="translate(8365.291 3729.758)" fill="#e6be8b"/>
    <path id="Path_286" data-name="Path 286" d="M-1527.87,1504a28.822,28.822,0,0,1-7.37,7.8c-1-4.69,2.18-6.86,5.56-8.76C-1529.36,1502.81-1528.49,1503.61-1527.87,1504Z" transform="translate(8365.291 3729.758)" fill="#e6be8b"/>
  </g>
</svg>
