<svg xmlns="http://www.w3.org/2000/svg" width="276.638" height="188.775" viewBox="0 0 276.638 188.775">
  <g id="s15" transform="translate(-6684.442 -3994.557)">
    <path id="Path_232" data-name="Path 232" d="M-1473.15,291.51c7.26,2.66,13.32,7.26,19.33,11.92-1.19,2.05-3.48,2.09-5.35,2.74-8.73,3-17.45,6-26,9.61-11.73,5-22.2,11.77-32.28,19.33-1.17.87-2.57,1.8-2.56,3.59.82.82,1.85.65,2.84.7,2.58.13,4.27-1.59,6.15-2.9,11.9-8.25,24.88-14.43,38.27-19.78,3-1.22,6.16-2.73,9.67-2.05a2.6,2.6,0,0,0-.741,2.1,2.6,2.6,0,0,0,1.151,1.9c3,2.39,6.71,3.71,9.15,6.81-6.1,2.05-12.25,3.94-18.28,6.19a93.7,93.7,0,0,0-20,10.05c-1.56,1.07-4.58,1.52-3.72,4.13.64,2,3.42,1.91,5.28,2.54,2.38.81,4.53-.44,6.59-1.54a152.394,152.394,0,0,1,31.38-12.8c1.67-.46,3.53-1.07,4.08-3.16a9.92,9.92,0,0,1,4.51,5.77q1.83,5.29,3.62,10.6c-2.66,1-5.28,2-8,2.85-4.71,1.44-8.94,3.91-13.31,6.09-.68.34-1.44.87-1.13,1.64a2.91,2.91,0,0,0,1.67,1.4c5.5,1.59,11,2.23,16.62.3,3.1-1.05,6.36-2.16,9.8-1.67a13.821,13.821,0,0,0,6.26,5.3,5.59,5.59,0,0,0,5.06-.32,5.59,5.59,0,0,0,2.72-4.28,40.735,40.735,0,0,0-.18-5.29c1.72-.14,3.11-.79,2.37-2.77a14.269,14.269,0,0,1-.49-7.38c6.92,10.57,10.31,22.44,12.17,34.71,1.19,7.87,2.71,15.78,2.18,23.84a36.692,36.692,0,0,1-.7,6.89c-1.69,6.54-5.12,8.32-11.53,6.19-2-.65-3.83-1.52-5.72-2.33-1.41-.62-2.79-1.31-4.18-2a18.677,18.677,0,0,0-6-3.14c-2.87-3.21-7.26-4.16-10.33-7.06a15.073,15.073,0,0,0,2.25-.54c1.19-.5,2.36-1.13,2.37-2.68,0-1.25-1-1.69-1.92-2.14-5.28-2.68-10.52-5.43-15.88-7.94-3.65-1.71-4.8-.89-6.17,3.81a5.49,5.49,0,0,1-3.43-1.75c3.68-5.37,3.66-5.32-2.25-7.68-2.83-1.13-5.57-2.49-8.35-3.76a42.28,42.28,0,0,0-4.16-1.94c-2.88-1-5.1.53-6.66,4.23-1.43.05-2.36-1-3.45-1.64.18-.74.35-1.49.54-2.24.92-3.51.69-4.14-2.16-5.31-4.5-1.84-9.06-3.52-13.5-5.49-2.5-1.11-4.48-.74-6.19,1.24a20.992,20.992,0,0,0-1.63,2.56l-27-10.06a25.456,25.456,0,0,0,1.3-2.81c.83-2.52.51-3.37-1.77-4.19-4.13-1.49-8.26-3-12.47-4.23-4-1.19-5.26-.23-6.9,4.74l-26.49-7.07.72-5.52a32.52,32.52,0,0,0-13.27-3.43c-3.94-.23-4.45.4-6,5.3l-6.25-.83c.19-.75.38-1.5.56-2.25.78-3.13.72-3.06-1.71-3.86-5.5-1.83-11.17-1.68-16.83-1.49-3.83.12-4.4,1-4.94,6.08h-5c.18-.73.35-1.47.54-2.21.83-3.19.46-3.86-2.31-3.87a12.47,12.47,0,0,0-4.51.34c-3.44,1.35-7,1.06-10.5,1.12a36.822,36.822,0,0,0-3.79.12c-2.68.33-4,1.91-3.92,4.63a32.5,32.5,0,0,1-10.65-1.2,13.9,13.9,0,0,1-4.81-2.3,3.5,3.5,0,0,1-.91-4.77,6.994,6.994,0,0,1,.87-1.26c11.14-11.7,22-23.65,34.91-33.57,1.22-.94,2.54-1.73,3.82-2.59.14,2.61-1.44,4.29-3.12,6-6.61,6.58-11.64,14.4-17.13,21.86-1,1.41-2.3,2.78-1.81,4.92,3.3,1,5.69.19,8-2.75,5.49-7.13,11-14.28,17.17-20.83,8.1-8.66,16.23-17.34,25.4-24.94.51-.43.62-1.35.92-2.05,13.93-7.42,28.63-11.43,44.57-11.18a140.752,140.752,0,0,1,30,3.54c.09.66.18,1.32.28,2-10-.91-20-1.26-30.07-1.35a33.07,33.07,0,0,0-12.85,2.15c-2.74,1.1-3,2.05-2.26,6.17-3,.2-5.21,2-7.48,3.73-8.45,6.46-15.71,14.18-23.17,21.68a25.534,25.534,0,0,0-2.87,3.59c-.16.23.21.89.44,1.31a.68.68,0,0,0,.67.11,11.2,11.2,0,0,0,2.51-1.67,284.69,284.69,0,0,1,28.51-26.16c.7-.55.89-1.76,1.33-2.67l26.47,1.73c-1.19,2.73-3.57,4.34-5.84,6-14,10.24-26,22.56-36.89,35.95-.91,1.12-2.65,2.26-1.21,3.84,1.11,1.21,2.91.72,4.43.48,1.92-.3,3.13-1.73,4.32-3.07,2.55-2.88,4.85-6,7.53-8.75a234.611,234.611,0,0,1,27.34-23.71c2.46-1.86,5-3.65,7.47-5.44a4.2,4.2,0,0,0,2-3.93c8.07-.59,15.72,1.78,23.49,3.32a3.46,3.46,0,0,1-1.79,3.17c-1.79,1-3.54,2.09-5.31,3.15a213.128,213.128,0,0,0-29,21.55c-5.06,4.34-9.48,9.44-14.14,14.24a1.48,1.48,0,0,0,0,2.06,2.41,2.41,0,0,0,1.37.58c2.66.44,4.31-1.24,5.94-2.92a210.983,210.983,0,0,1,19.68-17.28,152.528,152.528,0,0,1,28.52-18.28c1.65-.8,3.25-1.6,3.85-3.53,2.52.38,5,.79,7.57,1.12a41.3,41.3,0,0,0,5.32.52c2.49,0,3.36-1.58,2.31-4.21a9.415,9.415,0,0,0-1.33-1.87l.18-2.67c5.57,1.05,10.47,3.8,15.58,6-.11,1.79-1.15,2.53-2.81,3.15-10.36,3.88-20.56,8-30.13,13.78a182.384,182.384,0,0,0-22,15.64c-4.36,3.58-8.1,7.93-12,12a2.74,2.74,0,0,0-.48,2.06c.12.84,1,1.05,1.78,1.13,4,.42,7.45-.05,10.58-3.21,8-8.14,17.87-13.92,27.7-19.49,11.2-6.33,22.81-12,35.14-15.9C-1474.56,294-1473.31,293.36-1473.15,291.51Zm-152.12,27.73c4.31-.57,6-4.34,8.48-7.06.2-.22,0-1-.22-1.32a1.281,1.281,0,0,0-1.3-.29c-2.82,2.47-6.16,4.56-7,8.66a23.367,23.367,0,0,0-2.37,1.92c-.84.87-2,1.69-1.29,3.2a.779.779,0,0,0,.63.34,3.13,3.13,0,0,0,2.68-2.41,14.456,14.456,0,0,0,.39-3.04Z" transform="translate(8365.291 3729.758)" fill="#fe7649"/>
    <path id="Path_233" data-name="Path 233" d="M-1442.71,400.28c3.07,2.9,7.46,3.85,10.33,7.06-5.56-.29-9.52,1.49-10.3,7.67a6.279,6.279,0,0,1-1.38,2.75c-2.81,3.71-6.25,6.36-11.2,4.92-2.16-.63-3.31-.2-4.48,1.6-2.6,4-6.31,6-11.18,5.19-3.51-.57-5.95,1.14-8.07,3.6s-4.72,3-7.7,2.46c-1.25-.22-2.47-.61-3.85-.95-.85,1-1.59,2.09-2.48,3-4,4-8.6,3.77-11.86-.58-.46-.62-.75-1.35-1.16-2-2.5-4-2.53-4-6.08-1.42s-7.87,4.58-12.25,3.23c-3.81-1.17-7-1.12-10.29.9-1.36.83-3.19,1.56-4.36.46-2.76-2.6-5.59-1.59-8.62-1a10,10,0,0,1-8.58-2.56c-2.62-2.18-5.41-3.46-9-1.15-2.36,1.54-5,.68-7-1.37-1.82-1.82-3.83-3.49-5-5.85-1.42-2.8-4-3.68-6.51-2.5-3.89,1.8-7.28.22-10.32-1.35-3.83-2-7-2.88-11.33-1-4.1,1.75-7.75-.83-8.87-5-.45-1.67.41-4-1.59-4.85-1.58-.66-3.52-.42-5.3-.62a26.545,26.545,0,0,1-5.31-.75c-2.81-.94-5.19-2.53-5-6,.17-3-1.51-4-4.21-4.29-1.25-.12-2.42-.9-3.68-1.14-2.9-.54-4.42-2.51-5.35-5-.43-1.2-.5-2.53-.91-3.74-.23-.67-.73-1.66-1.26-1.77-4.16-.87-7-4.48-11.05-5.4-2.62-3.52-1.29-6.7,1.11-9.71-.8-.66-1.38-1.12-1.94-1.61-4.34-3.82-4.74-5.43-2.12-10.43.74-1.4,1.47-2.55.9-4.23a23.61,23.61,0,0,1-.15-13.53,3.22,3.22,0,0,0-1-3.4l8.17.16c-.86,1-1.72,2.17-.39,3.3a8.64,8.64,0,0,1,3.3,8.17c-.29,2.44,1,4.52,2.27,6.45a13.66,13.66,0,0,0,3.06,3.48c3.31,2.41,4.34,5.57,3.81,9.48-.61,4.37,1.51,7.44,4.92,9.8a12.711,12.711,0,0,1,3.44,3,9.35,9.35,0,0,0,7.28,3.88,6.65,6.65,0,0,1,5.67,3.21,13.45,13.45,0,0,0,11,6.23,7.8,7.8,0,0,1,4.93,1.91,14,14,0,0,0,10.18,2.89,8.62,8.62,0,0,1,7.06,2.34,11.57,11.57,0,0,0,12.13,3c1.77-.56,2.7.06,3.86,1.43,3.74,4.39,7.16,5.1,12.21,2.84a14.689,14.689,0,0,0,3.33-1.93c1.6-1.33,3.08-1.24,5-.61,2.65.87,5.38,2.65,8.2,1.67,5.1-1.76,9.1-1.25,13.39,2.61,3.43,3.08,8.63.86,10.88-3.37.69-1.3.41-3.07,1.9-4a51.345,51.345,0,0,0,6.19,3.13c2.21.78,5,1.23,6.56-.71,2.11-2.7,4.8-3.48,7.78-4.36a10.94,10.94,0,0,0,6.78-6c.78-1.58,1.29-3.69,3.22-4.15,4.87-1.18,8.34-5.12,13.14-6.36,2.37-.38,4.13,1.53,6.36,1.69a5.54,5.54,0,0,0,3.44,1.75Z" transform="translate(8365.291 3729.758)" fill="#e6be8b"/>
    <path id="Path_234" data-name="Path 234" d="M-1657.92,382.67c4.1.92,6.89,4.53,11.05,5.4.53.11,1,1.1,1.26,1.77.41,1.21.48,2.54.91,3.74.93,2.53,2.45,4.5,5.35,5,1.26.24,2.43,1,3.68,1.14,2.7.27,4.38,1.27,4.21,4.29-.19,3.51,2.19,5.1,5,6a26.549,26.549,0,0,0,5.31.75c1.78.2,3.72,0,5.3.62,2,.84,1.14,3.18,1.59,4.85,1.12,4.17,4.77,6.75,8.87,5,4.33-1.84,7.5-.94,11.33,1,3,1.57,6.43,3.15,10.32,1.35,2.56-1.18,5.09-.3,6.51,2.5,1.19,2.36,3.2,4,5,5.85,2,2.05,4.67,2.91,7,1.37,3.55-2.31,6.34-1,9,1.15a10,10,0,0,0,8.58,2.56c3-.57,5.86-1.58,8.62,1,1.17,1.1,3,.37,4.36-.46,3.3-2,6.48-2.07,10.29-.9,4.38,1.35,8.56-.56,12.25-3.23s3.58-2.53,6.08,1.42c.41.66.7,1.39,1.16,2,3.26,4.35,7.9,4.59,11.86.58.89-.9,1.63-1.95,2.48-3,1.38.34,2.6.73,3.85.95,3,.53,5.63,0,7.7-2.46s4.56-4.17,8.07-3.6c4.87.79,8.58-1.16,11.18-5.19,1.17-1.8,2.32-2.23,4.48-1.6,5,1.44,8.39-1.21,11.2-4.92a6.279,6.279,0,0,0,1.38-2.75c.78-6.18,4.74-8,10.3-7.67a18.679,18.679,0,0,1,6,3.14,1.47,1.47,0,0,0-.65,1.94c.59,1.13,1.41,2.13,2,3.25,1.64,2.91-2.55,5.87.06,8.8,2.13,2.38,1.72,5.28,1.6,8.11-.17,3.77-1.21,5.15-4.69,5.92a23.477,23.477,0,0,1-3.85.37c-1.28.07-2.56,0-3.56,0-1.08,1.37-.28,2.13.07,3.05.82,2.16.13,3.71-1.7,4.16a14.3,14.3,0,0,1-7.65-.23c-1.29-.39-2.53-.65-3.5.6-4.3,5.55-10.15,5.6-16.17,4.22a6.09,6.09,0,0,0-5.07.61,12.15,12.15,0,0,1-10.49,1c-3.36-1.17-6.07-.31-9,.65a9.31,9.31,0,0,1-6.77.18,11.54,11.54,0,0,0-8.86.08,9,9,0,0,1-10.4-3.22c-2.12-2.74-4.06-2.91-7.24-2.34-4.81.87-9.81,1-14.31-1.79a4.74,4.74,0,0,0-4.45-.39c-3.15,1.33-6.11.71-8.93-.82a9,9,0,0,0-5.16-1.27,14.56,14.56,0,0,1-11.36-4,4.05,4.05,0,0,0-4.2-1.14c-5.36,1.52-9.79-.65-13.18-4.47a10.261,10.261,0,0,0-6.54-3.42c-5.08-.89-10.14-1.86-14.63-4.7-2.08-1.33-4.53-.74-6.83-.76-3.85,0-7.25-.72-8.72-4.91-.7-2-2.37-2.7-4.25-2.79a19,19,0,0,1-8.78-2.75c-1.13-.66-2.24-1.38-2.11-2.93.09-1.14-.15-1.91-1.41-2.28-2.22-.66-4.43-1.38-6.57-2.25-1.42-.58-3-1.3-3.33-3-.49-2.74-2.27-3.77-4.7-4.44a17.209,17.209,0,0,1-4.15-2c-1.12-.68-2.41-1.89-1.94-3.08,1.36-3.38-1.07-4.4-3-6-2.13-1.75-1.87-2.82.79-4.69A20.154,20.154,0,0,1-1657.92,382.67Z" transform="translate(8365.291 3729.758)" fill="#b8b5aa"/>
    <path id="Path_235" data-name="Path 235" d="M-1473.15,291.51c-.16,1.85-1.41,2.45-3,3-12.33,3.93-23.94,9.57-35.14,15.9-9.83,5.57-19.67,11.35-27.7,19.49-3.13,3.16-6.6,3.63-10.58,3.21-.78-.08-1.66-.29-1.78-1.13a2.74,2.74,0,0,1,.48-2.06c3.94-4.08,7.68-8.43,12-12a182.4,182.4,0,0,1,22-15.64c9.57-5.75,19.77-9.9,30.13-13.78,1.66-.62,2.7-1.36,2.81-3.15C-1480.16,287.05-1476,288.18-1473.15,291.51Z" transform="translate(8365.291 3729.758)" fill="#e6be8b"/>
    <path id="Path_236" data-name="Path 236" d="M-1611.33,276c-.3.7-.41,1.62-.92,2.05-9.17,7.6-17.3,16.28-25.4,24.94-6.14,6.55-11.68,13.7-17.17,20.83-2.26,2.94-4.65,3.71-8,2.75-.49-2.14.78-3.51,1.81-4.92,5.49-7.46,10.52-15.28,17.13-21.86,1.68-1.67,3.26-3.35,3.12-6a8.583,8.583,0,0,1,1.46-1.74,231.268,231.268,0,0,1,23.58-14.73C-1614.32,276.63-1613,275.72-1611.33,276Z" transform="translate(8365.291 3729.758)" fill="#e6be8b"/>
    <path id="Path_237" data-name="Path 237" d="M-1463.07,314.67c-3.51-.68-6.62.83-9.67,2.05-13.39,5.35-26.37,11.53-38.27,19.78-1.88,1.31-3.57,3-6.15,2.9-1,0-2,.12-2.84-.7,0-1.79,1.39-2.72,2.56-3.59,10.08-7.56,20.55-14.37,32.28-19.33,8.54-3.62,17.26-6.58,26-9.61,1.87-.65,4.16-.69,5.35-2.74a9.66,9.66,0,0,1,5.57,4.75,32.331,32.331,0,0,1-10.07,3.32,4.91,4.91,0,0,0-4,3.08.47.47,0,0,1-.357.241.47.47,0,0,1-.4-.151Z" transform="translate(8365.291 3729.758)" fill="#e6be8b"/>
    <path id="Path_238" data-name="Path 238" d="M-1462.37,314.58a4.93,4.93,0,0,1,4-3.08,32.331,32.331,0,0,0,10.07-3.32,47.492,47.492,0,0,1,14.63,14.15c-1.78.05-3.56.08-5.34.17a3.12,3.12,0,0,0-3,1.95c-2.34-1.59-4.62-3.26-7-4.73C-1453.09,317.17-1457.14,314.3-1462.37,314.58Z" transform="translate(8365.291 3729.758)" fill="#fe7649"/>
    <path id="Path_239" data-name="Path 239" d="M-1653,339.92l-8.17-.16-2.78-.25c-.08-2.72,1.24-4.3,3.92-4.63a36.821,36.821,0,0,1,3.79-.12c3.53-.06,7.06.23,10.5-1.12a12.47,12.47,0,0,1,4.51-.34c2.77,0,3.14.68,2.31,3.87-.19.74-.36,1.48-.54,2.21Z" transform="translate(8365.291 3729.758)" fill="#b5713e"/>
    <path id="Path_240" data-name="Path 240" d="M-1429.14,327.65c4.08,3.72,6.71,8.47,9.4,13.19-1.78,2.28-4.34,1.7-6.7,1.85l-9.89-12.45C-1434.46,327.92-1431.4,328.9-1429.14,327.65Z" transform="translate(8365.291 3729.758)" fill="#fe7649"/>
    <path id="Path_241" data-name="Path 241" d="M-1536.52,270.33c-.1-.66-.19-1.32-.28-2,5.52-.35,10.63,1.71,15.81,3,6.71,1.69,13.22,4.18,19.78,6.41.66.22,1.14,1,1.7,1.5-.07.89-.13,1.78-.19,2.68-6.76-3.64-14.12-5.55-21.43-7.66C-1526.22,272.82-1531.62,272.52-1536.52,270.33Z" transform="translate(8365.291 3729.758)" fill="#e6be8b"/>
    <path id="Path_242" data-name="Path 242" d="M-1429.14,327.65c-2.26,1.25-5.32.27-7.19,2.59a22,22,0,0,1-5.61-5.78,3.11,3.11,0,0,1,3-2c1.78-.09,3.56-.12,5.34-.17C-1431,323.18-1430.1,325.43-1429.14,327.65Z" transform="translate(8365.291 3729.758)" fill="#e6be8b"/>
    <path id="Path_243" data-name="Path 243" d="M-1426.44,342.69c2.36-.15,4.92.43,6.7-1.85a2,2,0,0,1,1.13,2.31,14.271,14.271,0,0,0,.49,7.38c.74,2-.65,2.63-2.37,2.77C-1423.21,350.18-1424.32,346.15-1426.44,342.69Z" transform="translate(8365.291 3729.758)" fill="#e6be8b"/>
    <path id="Path_244" data-name="Path 244" d="M-1653,339.92l13.54-.54h5l22.92,1.52,6.25.83,18.57,3.65,26.49,7.07,19.84,6.49,27,10.06,22.94,9.24c1.09.67,2,1.69,3.45,1.64,4.85,2.83,10.48,4.07,15.05,7.46-4.8,1.24-8.27,5.18-13.14,6.36-1.93.46-2.44,2.57-3.22,4.15a10.94,10.94,0,0,1-6.78,6c-3,.88-5.67,1.66-7.78,4.36-1.52,1.94-4.35,1.49-6.56.71a51.341,51.341,0,0,1-6.19-3.13c-1.49.9-1.21,2.67-1.9,4-2.25,4.23-7.45,6.45-10.88,3.37-4.29-3.86-8.29-4.37-13.39-2.61-2.82,1-5.55-.8-8.2-1.67-1.91-.63-3.39-.72-5,.61a14.688,14.688,0,0,1-3.33,1.93c-5,2.26-8.47,1.55-12.21-2.84-1.16-1.37-2.09-2-3.86-1.43a11.57,11.57,0,0,1-12.13-3,8.62,8.62,0,0,0-7.06-2.34,14,14,0,0,1-10.18-2.89,7.8,7.8,0,0,0-4.93-1.91,13.45,13.45,0,0,1-11-6.23,6.65,6.65,0,0,0-5.67-3.21,9.35,9.35,0,0,1-7.28-3.88,12.713,12.713,0,0,0-3.44-3c-3.41-2.36-5.53-5.43-4.92-9.8.53-3.91-.5-7.07-3.81-9.48a13.66,13.66,0,0,1-3.06-3.48c-1.29-1.93-2.56-4-2.27-6.45a8.64,8.64,0,0,0-3.3-8.17C-1654.71,342.09-1653.85,340.94-1653,339.92Z" transform="translate(8365.291 3729.758)" fill="#fff"/>
    <path id="Path_245" data-name="Path 245" d="M-1536.52,270.33c4.9,2.19,10.3,2.49,15.39,4,7.31,2.11,14.67,4,21.43,7.66a9.068,9.068,0,0,1,1.33,1.86c1,2.63.18,4.24-2.31,4.21a41.3,41.3,0,0,1-5.32-.52c-2.53-.33-5-.74-7.57-1.12-2.74-1.89-5.94-2.27-9.11-2.74-7.77-1.54-15.42-3.91-23.49-3.32-2.74-2.42-6-1.23-9.12-1.37l-26.47-1.73.07.08c-.79-4.12-.49-5.07,2.25-6.17a33.069,33.069,0,0,1,12.85-2.15C-1556.55,269.07-1546.52,269.42-1536.52,270.33Z" transform="translate(8365.291 3729.758)" fill="#fff"/>
    <path id="Path_246" data-name="Path 246" d="M-1426.44,342.69c2.12,3.46,3.23,7.49,6,10.61a40.757,40.757,0,0,1,.18,5.29,5.59,5.59,0,0,1-2.719,4.279,5.59,5.59,0,0,1-5.06.32,13.86,13.86,0,0,1-6.26-5.29l-5.67-10.62q-1.8-5.29-3.62-10.6a9.87,9.87,0,0,0-4.51-5.76c-.39-3.18-3.15-4-5.36-5.42-2.44-3.1-6.19-4.42-9.15-6.81a2.6,2.6,0,0,1-1.151-1.9,2.6,2.6,0,0,1,.741-2.1.47.47,0,0,0,.376.119.47.47,0,0,0,.334-.209c5.22-.28,9.27,2.59,13.41,5.14,2.39,1.47,4.67,3.14,7,4.73a21.917,21.917,0,0,0,5.61,5.79Z" transform="translate(8365.291 3729.758)" fill="#fff"/>
    <path id="Path_247" data-name="Path 247" d="M-1555.29,279c3.09.14,6.38-1.05,9.12,1.37a4.2,4.2,0,0,1-2,3.93c-2.5,1.79-5,3.58-7.47,5.44a234.608,234.608,0,0,0-27.34,23.71c-2.68,2.76-5,5.87-7.53,8.75-1.19,1.34-2.4,2.77-4.32,3.07-1.52.24-3.32.73-4.43-.48-1.44-1.58.3-2.72,1.21-3.84,10.92-13.39,22.89-25.71,36.89-35.95C-1558.86,283.29-1556.48,281.68-1555.29,279Z" transform="translate(8365.291 3729.758)" fill="#e6be8b"/>
    <path id="Path_248" data-name="Path 248" d="M-1522.68,283.64c3.17.47,6.37.85,9.11,2.74-.6,1.93-2.2,2.73-3.85,3.53a152.517,152.517,0,0,0-28.52,18.28,211,211,0,0,0-19.68,17.28c-1.63,1.68-3.28,3.36-5.94,2.92a2.41,2.41,0,0,1-1.37-.58,1.48,1.48,0,0,1,0-2.06c4.66-4.8,9.08-9.9,14.14-14.24a213.133,213.133,0,0,1,29-21.55c1.77-1.06,3.52-2.14,5.31-3.15a3.46,3.46,0,0,0,1.8-3.17Z" transform="translate(8365.291 3729.758)" fill="#e6be8b"/>
    <path id="Path_249" data-name="Path 249" d="M-1453.51,325.5c2.21,1.38,5,2.24,5.36,5.42-.55,2.08-2.41,2.69-4.08,3.15a152.4,152.4,0,0,0-31.38,12.8c-2.06,1.1-4.21,2.35-6.59,1.54-1.86-.63-4.64-.57-5.28-2.54-.86-2.61,2.16-3.06,3.72-4.13a93.7,93.7,0,0,1,20-10.05C-1465.76,329.44-1459.61,327.55-1453.51,325.5Z" transform="translate(8365.291 3729.758)" fill="#e6be8b"/>
    <path id="Path_250" data-name="Path 250" d="M-1440,347.28l5.67,10.62c-3.44-.5-6.7.61-9.8,1.66-5.67,1.93-11.12,1.29-16.62-.3a2.91,2.91,0,0,1-1.67-1.4c-.31-.77.45-1.3,1.13-1.64,4.37-2.18,8.6-4.65,13.31-6.09C-1445.3,349.3-1442.68,348.24-1440,347.28Z" transform="translate(8365.291 3729.758)" fill="#e6be8b"/>
    <path id="Path_251" data-name="Path 251" d="M-1471.86,387.35c-4.57-3.39-10.2-4.63-15.05-7.46,1.56-3.7,3.78-5.18,6.66-4.23a42.3,42.3,0,0,1,4.16,1.94c2.78,1.27,5.52,2.63,8.35,3.76,5.91,2.36,5.93,2.31,2.25,7.68C-1467.73,388.88-1469.49,387-1471.86,387.35Z" transform="translate(8365.291 3729.758)" fill="#b5713e"/>
    <path id="Path_252" data-name="Path 252" d="M-1490.36,378.25-1513.3,369a21.009,21.009,0,0,1,1.63-2.56c1.71-2,3.69-2.35,6.19-1.24,4.44,2,9,3.65,13.5,5.49,2.85,1.17,3.08,1.8,2.16,5.31Q-1490.09,377.14-1490.36,378.25Z" transform="translate(8365.291 3729.758)" fill="#b5713e"/>
    <path id="Path_253" data-name="Path 253" d="M-1442.71,400.28l-19.35-9.49c1.37-4.7,2.52-5.52,6.17-3.81,5.36,2.51,10.6,5.26,15.88,7.94.89.45,1.93.89,1.92,2.14,0,1.55-1.18,2.18-2.37,2.68A15.067,15.067,0,0,1-1442.71,400.28Z" transform="translate(8365.291 3729.758)" fill="#b5713e"/>
    <path id="Path_254" data-name="Path 254" d="M-1581.76,277.22c-.44.91-.63,2.12-1.33,2.67a284.68,284.68,0,0,0-28.51,26.16,11.207,11.207,0,0,1-2.51,1.67.68.68,0,0,1-.67-.11c-.23-.42-.6-1.08-.44-1.31a25.524,25.524,0,0,1,2.87-3.59c7.46-7.5,14.72-15.22,23.17-21.68,2.27-1.74,4.47-3.53,7.48-3.73Z" transform="translate(8365.291 3729.758)" fill="#e6be8b"/>
    <path id="Path_255" data-name="Path 255" d="M-1611.49,340.91l-22.92-1.52c.54-5.1,1.11-6,4.94-6.08,5.66-.19,11.33-.34,16.83,1.49,2.43.8,2.49.73,1.71,3.86C-1611.11,339.41-1611.3,340.16-1611.49,340.91Z" transform="translate(8365.291 3729.758)" fill="#b5713e"/>
    <path id="Path_256" data-name="Path 256" d="M-1540.34,359l-19.84-6.49c1.64-5,2.87-5.93,6.9-4.74,4.21,1.24,8.34,2.74,12.47,4.23,2.28.82,2.6,1.67,1.77,4.19a25.456,25.456,0,0,1-1.3,2.81Z" transform="translate(8365.291 3729.758)" fill="#b5713e"/>
    <path id="Path_257" data-name="Path 257" d="M-1586.67,345.39l-18.57-3.65c1.57-4.9,2.08-5.53,6-5.3a32.519,32.519,0,0,1,13.27,3.43Z" transform="translate(8365.291 3729.758)" fill="#b5713e"/>
    <path id="Path_258" data-name="Path 258" d="M-1625.28,319.23c.81-4.1,4.15-6.19,7-8.66.21-.19,1,0,1.3.29a1.322,1.322,0,0,1,.22,1.32c-2.51,2.72-4.17,6.49-8.48,7.06Z" transform="translate(8365.291 3729.758)" fill="#e6be8b"/>
    <path id="Path_259" data-name="Path 259" d="M-1625.27,319.24a14.447,14.447,0,0,1-.36,3,3.13,3.13,0,0,1-2.68,2.41.78.78,0,0,1-.63-.34c-.73-1.51.45-2.33,1.29-3.2a23.355,23.355,0,0,1,2.37-1.92Z" transform="translate(8365.291 3729.758)" fill="#e6be8b"/>
  </g>
</svg>
