<svg xmlns="http://www.w3.org/2000/svg" width="211.529" height="200.612" viewBox="0 0 211.529 200.612">
  <g id="s2" transform="translate(-7563.787 -3159)">
    <path id="Path_318" data-name="Path 318" d="M-799.56-418.71c-.09-3.36-.25-6.72-.25-10.07,0-34.63.2-69.25-.15-103.87-.09-8.76,3.26-14.79,10.11-19.55,7.31-5.08,15.47-8.2,23.89-10.73,14.68-4.42,29.78-6.45,45-7.35,23.33-1.38,46.47.14,69.26,5.68a106,106,0,0,1,22.58,8c5.32,2.66,10.37,5.74,14.1,10.62a13.279,13.279,0,0,1,3.17,8.51v97.67c0,2.83.27,5.65.42,8.48a40.861,40.861,0,0,0-.41,5.38c.4,7.76-3,14-7.68,19.75a55.079,55.079,0,0,1-15,12.2,114.291,114.291,0,0,1-33.2,12.64,176.53,176.53,0,0,1-60.19,2.82c-14.95-1.81-29.46-5.47-43.1-12.12C-783.58-396.86-793.91-405.39-799.56-418.71ZM-706-567.43c-19.48.54-39.28,2-58.57,7.52a91,91,0,0,0-18.63,7.45,31.918,31.918,0,0,0-9.09,7.14,11.83,11.83,0,0,0,0,16.2,29,29,0,0,0,6.45,5.52,69,69,0,0,0,15.38,7.18c13.53,4.58,27.49,6.83,41.68,8.15a244,244,0,0,0,71-3.59A105.152,105.152,0,0,0-630-521.09a35.84,35.84,0,0,0,10.55-7.74c4.57-5.11,4.55-11.65,0-16.8A35.548,35.548,0,0,0-630-553.39a91.686,91.686,0,0,0-16.56-6.42C-665.81-565.39-685.61-566.9-706-567.43Zm-83.63,74.82c0-3.73,0-9.41-.06-15.09a2.14,2.14,0,0,0-1.4-1.53,2.08,2.08,0,0,0-1.77,1c-.8,3.77-2.21,7.6-1.52,11.42,1.41,7.9.53,16,2.15,23.87A87,87,0,0,1-790.49-456c0,8,1.28,15.93,2,23.88.33,3.81.9,7.69,2.72,11.2.52,1,1.32,1.76,2.4,1.49a2.36,2.36,0,0,0,1.61-2.39c.08-1.55.13-3.09.14-4.64.1-10.66-2-21.08-4.54-31.29-2.75-10.91-4.42-21.73-3.45-34.86Z" transform="translate(8365.291 3729.758)" fill="#060a02"/>
    <path id="Path_319" data-name="Path 319" d="M-799.56-418.71c5.65,13.32,16,21.85,28.64,28,13.64,6.65,28.15,10.31,43.1,12.12a176.53,176.53,0,0,0,60.19-2.82A114.291,114.291,0,0,0-634.43-394a55.08,55.08,0,0,0,15-12.2c4.72-5.71,8.08-12,7.68-19.75a40.852,40.852,0,0,1,.41-5.38c8.46,2.86,14.47,8.87,19.17,16,3.83,5.82,2.38,14.8-2.28,20.2a46.419,46.419,0,0,1-17.45,12.56A158.057,158.057,0,0,1-643-373.5c-21,4.09-42.19,3.78-63.26,2.51-21.65-1.31-42.91-5.64-63.1-14a84.2,84.2,0,0,1-22.55-13.37,28.35,28.35,0,0,1-8.84-13.34C-801.52-414.13-802.38-416.81-799.56-418.71Z" transform="translate(8365.291 3729.758)" fill="#b8b5aa"/>
    <path id="Path_320" data-name="Path 320" d="M-706-567.43c20.37.53,40.17,2,59.44,7.62A91.689,91.689,0,0,1-630-553.39a35.55,35.55,0,0,1,10.55,7.76c4.57,5.15,4.59,11.69,0,16.8A35.841,35.841,0,0,1-630-521.09a105.153,105.153,0,0,1-27.83,9.23,244,244,0,0,1-71,3.59c-14.19-1.32-28.15-3.57-41.68-8.15a69,69,0,0,1-15.38-7.18,29,29,0,0,1-6.45-5.52,11.83,11.83,0,0,1,0-16.2,31.919,31.919,0,0,1,9.09-7.14,91,91,0,0,1,18.63-7.45C-745.26-565.44-725.46-566.89-706-567.43Zm13.55,43.57c1.93.33,4.47-.86,6.83-2.55,4.81-3.47,9.63-6.93,14.36-10.51,2.2-1.66,5.45-3.1,4.61-6.46-.77-3.07-4.18-3.57-6.82-4.41-10.3-3.3-20.54-6.65-31.34-8.3-7.31-1.12-13.75-.3-20,3.41-4.43,2.63-9,5-13.51,7.49a23.75,23.75,0,0,0-7.73,6.32c-1.91,2.52-1.59,4.66,1,6.58a18.539,18.539,0,0,0,8.5,3.51c5.1.69,10.13,1.9,15.35,1.87a76.192,76.192,0,0,1,13.88,1.08c4.56.83,9.19,1.24,14.89,1.97Zm23.44-.4a9.554,9.554,0,0,0-1.52.18c-.76.21-1.5.59-1.37,1.52a2.37,2.37,0,0,0,.81,1.2,5.281,5.281,0,0,0,1.32.78,2.87,2.87,0,0,0,3.55-.37c.57-.55,1-1.22.58-2-.72-1.38-2.09-1.22-3.36-1.31Zm-113-10.64c-.14-1.06-1.3-1.72-3-1.56-1,.1-2,.4-2.06,1.66s1.84,2.46,3.33,2a2.17,2.17,0,0,0,1.8-2.1Zm121.18-17.31a2.48,2.48,0,0,0-2.39-2.42,1.9,1.9,0,0,0-1.49.222,1.9,1.9,0,0,0-.86,1.238c-.25,1.62,1,2.12,2.36,2.3,1.1.13,2.13.03,2.45-1.34Zm18.25,16.32a3.07,3.07,0,0,0-3.8-1.93,1.41,1.41,0,0,0-.889.633,1.41,1.41,0,0,0-.171,1.077,2.64,2.64,0,0,0,1.406,1.659,2.64,2.64,0,0,0,2.174.041c.65-.27.99-1.04,1.35-1.48Zm-105.43-14.44c-.19-.41-.27-1-.59-1.21a3.08,3.08,0,0,0-4,.38,1.36,1.36,0,0,0,.24,1.27,3.12,3.12,0,0,0,4,.14.864.864,0,0,0,.42-.58Zm-9.71,27.53c1.12-.24,2.35-.19,2-1.59a2,2,0,0,0-1.54-1.1c-.9-.08-2.13.07-1.83,1.46.23.52,1.09.88,1.44,1.23Z" transform="translate(8365.291 3729.758)" fill="#fff"/>
    <path id="Path_321" data-name="Path 321" d="M-789.61-492.61c-1,13.13.7,23.95,3.42,34.83,2.55,10.21,4.64,20.63,4.54,31.29,0,1.55-.06,3.09-.14,4.64a2.36,2.36,0,0,1-1.61,2.39c-1.08.27-1.88-.48-2.4-1.49-1.82-3.51-2.39-7.39-2.72-11.2-.69-8-1.92-15.85-2-23.88a87,87,0,0,0-1.72-16.89c-1.62-7.91-.74-16-2.15-23.87-.69-3.82.72-7.65,1.52-11.42a2.08,2.08,0,0,1,1.77-1,2.14,2.14,0,0,1,1.4,1.53C-789.57-502-789.61-496.34-789.61-492.61Z" transform="translate(8365.291 3729.758)" fill="#b5713e"/>
    <path id="Path_322" data-name="Path 322" d="M-692.43-523.86c-5.7-.73-10.33-1.16-14.88-2a76.191,76.191,0,0,0-13.88-1.08c-5.22,0-10.25-1.18-15.35-1.87a18.54,18.54,0,0,1-8.5-3.51c-2.61-1.92-2.93-4.06-1-6.58a23.75,23.75,0,0,1,7.73-6.32c4.51-2.49,9.08-4.86,13.51-7.49,6.28-3.71,12.72-4.53,20-3.41,10.8,1.65,21,5,31.34,8.3,2.64.84,6.05,1.34,6.82,4.41.84,3.36-2.41,4.8-4.61,6.46-4.73,3.58-9.55,7-14.36,10.51C-688-524.72-690.5-523.53-692.43-523.86Z" transform="translate(8365.291 3729.758)" fill="#fe7649"/>
    <path id="Path_323" data-name="Path 323" d="M-669-524.26c1.26.09,2.63-.07,3.37,1.29a1.579,1.579,0,0,1-.58,2,2.87,2.87,0,0,1-3.55.37,5.283,5.283,0,0,1-1.32-.78,2.371,2.371,0,0,1-.81-1.2c-.13-.93.61-1.31,1.37-1.52a9.554,9.554,0,0,1,1.52-.16Z" transform="translate(8365.291 3729.758)" fill="#e6be8b"/>
    <path id="Path_324" data-name="Path 324" d="M-781.94-534.9a2.17,2.17,0,0,1-1.7,2.14c-1.49.42-3.36-.71-3.33-2s1.05-1.56,2.06-1.66C-783.24-536.62-782.08-536-781.94-534.9Z" transform="translate(8365.291 3729.758)" fill="#e6be8b"/>
    <path id="Path_325" data-name="Path 325" d="M-660.76-552.21c-.32,1.37-1.35,1.47-2.38,1.34-1.31-.18-2.61-.68-2.36-2.3a1.9,1.9,0,0,1,.86-1.238,1.9,1.9,0,0,1,1.49-.222A2.48,2.48,0,0,1-660.76-552.21Z" transform="translate(8365.291 3729.758)" fill="#e6be8b"/>
    <path id="Path_326" data-name="Path 326" d="M-642.51-535.89c-.36.44-.7,1.21-1.28,1.48a2.64,2.64,0,0,1-2.174-.041,2.64,2.64,0,0,1-1.406-1.659,1.41,1.41,0,0,1,.171-1.077,1.41,1.41,0,0,1,.889-.633,3.07,3.07,0,0,1,3.8,1.93Z" transform="translate(8365.291 3729.758)" fill="#e6be8b"/>
    <path id="Path_327" data-name="Path 327" d="M-747.94-550.33c-.11.2-.17.47-.33.58a3.12,3.12,0,0,1-4-.14,1.36,1.36,0,0,1-.24-1.27,3.08,3.08,0,0,1,4-.38C-748.21-551.35-748.13-550.74-747.94-550.33Z" transform="translate(8365.291 3729.758)" fill="#e6be8b"/>
    <path id="Path_328" data-name="Path 328" d="M-757.65-522.8c-.4-.35-1.21-.71-1.33-1.23-.3-1.39.93-1.54,1.83-1.46a2,2,0,0,1,1.54,1.1C-755.3-523-756.53-523-757.65-522.8Z" transform="translate(8365.291 3729.758)" fill="#e6be8b"/>
  </g>
</svg>
