<svg xmlns="http://www.w3.org/2000/svg" width="308.235" height="190.406" viewBox="0 0 308.235 190.406">
  <g id="s3" transform="translate(-5594 -3933.101)">
    <path id="Path_183" data-name="Path 183" d="M-2753.07,279l-5.07-1.79c-10-3.56-14.89-12.27-12.59-22.64,1.27-5.75,3.83-10.78,9.27-13.66,3.43-1.82,5.07-4.11,3.87-8.11s1.15-6.37,4.22-8.2c6.65-4,13.5-7.73,20.93-9.93,9.13-2.7,18-6.3,27.52-7.72,4.58-.68,9-2.25,13.75-1.91.65.05,1.68.26,1.53,1.34a4,4,0,0,1-.76,2c-1.11,1.26-2.77,1.19-4.28,1.48-5.07,1-10.18,1.78-15,3.77-1.17.49-2.52.85-3.06,2.18a1.43,1.43,0,0,0,.27,1.28,2.231,2.231,0,0,0,1.42.47,15,15,0,0,0,3.08-.18c10.22-1.94,20.55-1.5,30.86-1.57,2.32,0,4.57,0,6.76-1.16,2.6-1.41,5.58-.68,8.4-.82,2.56-.13,5.19.31,7.64-.79a1.6,1.6,0,0,0,.89-1.09,1.621,1.621,0,0,0-.75-1.24c-3.3-1.61-6.92-1.89-10.49-2.44-1.15-.17-2.69-.05-2.87-1.86a2.86,2.86,0,0,1,.879-2.087,2.861,2.861,0,0,1,2.121-.793,89.81,89.81,0,0,1,11.6,0c17.82,1.54,35.34,4.95,52,11.27A174.16,174.16,0,0,1-2535,258.43c10.36,11,19.36,22.81,26.05,36.34,1.08,2.17,2.48,2.87,4.77,3.1,11.09,1.13,21.75,4.14,32.32,7.51a22.466,22.466,0,0,1,4.91,2.24c3.8,2.38,4.81,5.87,3.07,10a16.046,16.046,0,0,1-4.17,5.53c-5.27,4.84-14.15,8.61-23.54,3.12-2.89-1.68-5.67-3.58-8.43-5.48-1.31-.9-2.41-.82-3.37.32s-2.36,2.18-1,4c2.42,3.35,4.56,6.91,7.2,10.07,8.6,10.34,5,26-10,32.1a10.86,10.86,0,0,1-12.21-2.23c-2.29-4.32-4.64-8.61-5.73-13.46a34.572,34.572,0,0,0-1.58-4.33,4,4,0,0,0,0-.77c-1.29-6.76-2.56-13.52-3.89-20.27-.29-1.45-1.61-1.77-2.79-2.31-3.34-1.55-7-1.14-10.52-2-6.18-1.52-12.48-2.57-18.73-3.81-1.22-.41-2.41-.93-3.66-1.23-10-2.41-20.08-4.75-30.11-7.18-28.35-6.88-56.81-13.17-85.59-18.06-22.9-3.89-45.9-7.23-68.62-12.14Zm137.16-30a32.625,32.625,0,0,0-4.42,0c-2.75.5-5.73.4-7.91,2.61a2.482,2.482,0,0,0-.5,1.34.87.87,0,0,0,.179.746.87.87,0,0,0,.7.314c1.79.16,3.58.35,5.38.45,8.93.46,17.27,2.67,24.6,8.07,2.91,2.13,5.94,4.1,8.94,6.09,3.87,2.57,7.73,5.16,12.3,6.36a32.882,32.882,0,0,0,3.73.95c2.65.35,4.87-1,6.23-3.59.93-1.76.48-3-1.75-5.35-3.24-3.42-7.2-5.76-11.31-8-5.67-3.06-11.64-5.44-17.53-8-3.5-1.52-6.8-3.5-10.78-1.33-.77.42-2,0-3-.09-2.09-.1-4.13-.4-4.86-.5Zm-28.41,42.36c1.44-.09,2.45-1.75,1.91-3.54a36,36,0,0,0-9.05-15,12.211,12.211,0,0,0-3.29-1.94c-1.82-.94-3.45-.48-5,.76-4.05,3.26-5.5,7.92-6.68,12.67-.47,1.91,1.12,2.87,2.6,3.23a109.225,109.225,0,0,0,12,2.37c2.56.43,4.83,2.09,7.51,1.52Zm-41.58-7.4c2.29-.11,3.31-.12,4.33-.23a2.23,2.23,0,0,0,1.513-1.05,2.231,2.231,0,0,0,.207-1.83c-2.19-5.8-4.82-11.35-9.83-15.35-2.58-2.06-5.09-1.94-7.62.19-4,3.36-5.32,8-6.38,12.82a2,2,0,0,0,1.75,2.16c5.74,1.26,11.48,2.43,16.03,3.33Zm54.5,9.64c7.63,3.13,14.85,3.59,21.67,5.56a2.21,2.21,0,0,0,2.174-.468,2.21,2.21,0,0,0,.666-2.122q-.92-4.12-2.11-8.18a15.008,15.008,0,0,0-2.54-5.55c-3.6-4.39-7.21-4-10.48-.83s-5.56,7.4-9.38,11.66Zm67,9.95c.38-2.31-.84-5.45-1.9-8.59-.75-2.23-2.51-3.08-4.78-3.08a9.27,9.27,0,0,0-4.44.95c-4.21,2.17-7.3,5.53-10,9.29a2.14,2.14,0,0,0-.188,1.841,2.14,2.14,0,0,0,1.318,1.3c5.94,1.49,11.88,3,17.85,4.31,1.08.24,1.84-.65,1.93-1.83.04-.95.07-1.98.18-4.12Zm-156-27c-.75-5.5-3.72-9.91-7.68-13.68-4.38-4.16-6.24-4-10.27.35a14.152,14.152,0,0,0-3.18,5.2c-1.51,4.43-2,5.82,3.76,6.34,4.05.36,8,1.78,12,2.57,1.77.38,3.59.81,5.39-.74Z" transform="translate(8365.291 3729.758)" fill="#fe7649"/>
    <path id="Path_184" data-name="Path 184" d="M-2562.67,318.13c6.25,1.24,12.55,2.29,18.73,3.81,3.49.85,7.18.44,10.52,2,1.18.54,2.5.86,2.79,2.31,1.33,6.75,2.6,13.51,3.89,20.27a4.017,4.017,0,0,1,0,.77c-1.8.14-3.6.39-5.4.4-2.3,0-3.83.59-4.6,3.12a25,25,0,0,1-3.36,6.95c-2.66,3.8-6.22,6.39-11.17,4.92-2.18-.64-3.32-.16-4.47,1.62-2.62,4-6.33,5.93-11.21,5.19a7.76,7.76,0,0,0-7.51,3.07,7.94,7.94,0,0,1-7.5,3.13c-3.36-.44-5.8.94-8.35,3.07-3.37,2.82-7.32,2.07-10.22-1.34-1-1.17-1.71-2.57-2.72-3.73a2.94,2.94,0,0,0-3.55-.7c-1.17.51-2.11,1.55-3.29,2-3.35,1.31-6.84,3.26-10.42,1.83a10.65,10.65,0,0,0-10.27.93,4.52,4.52,0,0,1-5.74-.42c-1.55-1.34-3.09-1.2-5-.62-4.52,1.37-8.84.54-12.2-2.84-2.29-2.31-4.28-2.11-6.8-.69-3.19,1.79-5.94.82-8.33-1.73-1.59-1.69-3.37-3.21-4.43-5.34-1.22-2.44-3.49-3.58-5.79-2.53-3.81,1.74-7.26.61-10.4-.94-4-2-7.32-3.7-12.06-1.33-3.57,1.78-7.45-.8-8.63-4.36-.62-1.88.51-4.61-1.79-5.55-1.81-.74-4.06-.36-6.1-.58a20.16,20.16,0,0,1-4.53-.77c-2.84-1-5-2.65-4.9-6.13.11-2.46-1-3.78-3.56-4.06a36.688,36.688,0,0,1-5.18-1.51,5.45,5.45,0,0,1-3.84-3.52c-.72-1.92-.93-4.07-1.89-5.84-1.24-2.28-4.4-1-6.16-2.77s-3.29-3.35-5.83-3.55c-2.54-3.53-1.1-6.76,1.08-9.82-.84-.66-1.46-1.11-2-1.61-4.07-3.57-4.63-5.34-2.3-9.88.89-1.72,1.36-3.06.78-5a27.357,27.357,0,0,1-.52-5.33c-.44-4.55.57-8.65,3.85-12l2.42.48c-.35,2.41,1.31,3.79,2.72,5.28,1.1,1.15,2,2.37,1.86,4.07-.61,5.43,1.86,9.55,5.75,12.88,2.59,2.21,3.83,4.73,3.38,8.12-.66,4.89,1.35,8.5,5.43,11.11a7.929,7.929,0,0,1,2.33,2,10.391,10.391,0,0,0,8.53,4.62c2.41.07,3.62,1.29,4.92,3.08,2.68,3.72,6.27,6.1,11,6.32a6.53,6.53,0,0,1,4.33,1.36c3.32,3,7.29,3.66,11.56,3.44,2.11-.11,4.11.1,5.72,1.76,4.24,4.39,9.35,5,14.93,3.14a14.6,14.6,0,0,1,1.6,1.87c2.58,4.42,6.6,4.51,10.85,3.49a10,10,0,0,0,4.12-2.07c2-1.78,3.87-1.79,6.36-.87,3.07,1.14,6.24,2.45,9.75.95,3.69-1.58,6.69-.47,9.84,2.2,4.7,4,9.81,2.43,12.56-3.11.54-1.1.28-2.57,1.54-3.32a51.247,51.247,0,0,0,6.19,3.12c2.2.78,5,1.22,6.56-.69,2.12-2.69,4.78-3.52,7.78-4.38a10.13,10.13,0,0,0,6.73-6,9.279,9.279,0,0,1,6.87-5.65,12.35,12.35,0,0,0,6.61-3.84C-2568,325-2565.37,321.55-2562.67,318.13Z" transform="translate(8365.291 3729.758)" fill="#e6be8b"/>
    <path id="Path_185" data-name="Path 185" d="M-2753.93,322.67c2.54.2,4.19,1.94,5.83,3.55s4.92.49,6.16,2.77c1,1.77,1.17,3.92,1.89,5.84a5.451,5.451,0,0,0,3.84,3.52,36.694,36.694,0,0,0,5.18,1.51c2.61.28,3.67,1.6,3.56,4.06-.15,3.48,2.06,5.14,4.9,6.13a20.164,20.164,0,0,0,4.53.77c2,.22,4.29-.16,6.1.58,2.3.94,1.17,3.67,1.79,5.55,1.18,3.56,5.06,6.14,8.63,4.36,4.74-2.37,8.08-.64,12.06,1.33,3.14,1.55,6.59,2.68,10.4.94,2.3-1.05,4.57.09,5.79,2.53,1.06,2.13,2.84,3.65,4.43,5.34,2.39,2.55,5.14,3.52,8.33,1.73,2.52-1.42,4.51-1.62,6.8.69,3.36,3.38,7.68,4.21,12.2,2.84,1.91-.58,3.45-.72,5,.62a4.52,4.52,0,0,0,5.74.42,10.65,10.65,0,0,1,10.27-.93c3.58,1.43,7.07-.52,10.42-1.83,1.18-.46,2.12-1.5,3.29-2a2.94,2.94,0,0,1,3.55.7c1,1.16,1.73,2.56,2.72,3.73,2.9,3.41,6.85,4.16,10.22,1.34,2.55-2.13,5-3.51,8.35-3.07a7.94,7.94,0,0,0,7.5-3.13,7.76,7.76,0,0,1,7.51-3.07c4.88.74,8.59-1.15,11.21-5.19,1.15-1.78,2.29-2.26,4.47-1.62,5,1.47,8.51-1.12,11.17-4.92a24.991,24.991,0,0,0,3.36-6.95c.77-2.53,2.3-3.11,4.6-3.12,1.8,0,3.6-.26,5.4-.4a34.616,34.616,0,0,1,1.58,4.33c1.09,4.85,3.44,9.14,5.73,13.46,0,2.84,0,5.68.08,8.52.09,2.54-1.45,3.68-3.48,4.52-2.94,1.2-6.13.46-9.09,1.08a4.014,4.014,0,0,0-.19.92c.14,1.65,2.39,3,.67,4.92-1.37,1.53-3.22,1.43-5,1.43a6.06,6.06,0,0,1-2.31-.16c-3.4-1.55-5.48-.27-7.94,2.37-3.28,3.53-8.11,3.13-12.44,2.35-2.64-.47-4.76-.73-7.27.7-3,1.73-6.57,1.55-9.8.43a8.41,8.41,0,0,0-6.69.2c-3.4,1.55-7,2-10.48.32-2.05-1-3.9-.65-5.94.06-4.9,1.7-9.27.68-12.41-3.54-1.5-2-2.89-2.17-5.23-1.72-5.1,1-10.3,1.33-15.11-1.39a6,6,0,0,0-5.19-.53c-1.2.4-2.83,1.06-3.73.59-7.05-3.65-16.21-.91-22.28-7.41a2.76,2.76,0,0,0-2.87-.55c-5.91,1.38-10.72-.52-14.39-5.18-1.28-1.62-2.76-2-4.62-2.29-5.12-.74-10.21-1.73-14.7-4.52a10.6,10.6,0,0,0-6-1.29,27,27,0,0,1-5.41-.28c-2.32-.44-4.61-1.29-5.19-4-.54-2.54-2.32-3.31-4.52-3.42a18.62,18.62,0,0,1-8.75-2.85c-1.15-.68-2.12-1.47-2-3,.13-1.2-.39-1.79-1.6-2.14a48.365,48.365,0,0,1-6.54-2.32c-1.12-.5-2.63-1.38-2.87-2.36-.79-3.27-3.07-4.32-5.89-5.35-3.13-1.14-6.57-2.49-4.77-7.22.4-1.06-1-1.55-1.77-2.2C-2759.53,326-2759.44,325.4-2753.93,322.67Z" transform="translate(8365.291 3729.758)" fill="#b8b5aa"/>
    <path id="Path_186" data-name="Path 186" d="M-2562.67,318.13c-2.7,3.42-5.34,6.89-8.13,10.23a12.35,12.35,0,0,1-6.61,3.84,9.28,9.28,0,0,0-6.87,5.65,10.13,10.13,0,0,1-6.73,6c-3,.86-5.66,1.69-7.78,4.38-1.51,1.91-4.36,1.47-6.56.69a51.243,51.243,0,0,1-6.19-3.12c-1.26.75-1,2.22-1.54,3.32-2.75,5.54-7.86,7.1-12.56,3.11-3.15-2.67-6.15-3.78-9.84-2.2-3.51,1.5-6.68.19-9.75-.95-2.49-.92-4.32-.91-6.36.87a10,10,0,0,1-4.12,2.07c-4.25,1-8.27.93-10.85-3.49a14.6,14.6,0,0,0-1.6-1.87c-5.58,1.89-10.69,1.25-14.93-3.14-1.61-1.66-3.61-1.87-5.72-1.76-4.27.22-8.24-.46-11.56-3.44a6.53,6.53,0,0,0-4.33-1.36,13.9,13.9,0,0,1-11-6.32c-1.3-1.79-2.51-3-4.92-3.08a10.39,10.39,0,0,1-8.53-4.62,7.923,7.923,0,0,0-2.33-2c-4.08-2.61-6.09-6.22-5.43-11.11.45-3.39-.79-5.91-3.38-8.12-3.89-3.33-6.36-7.45-5.75-12.88.19-1.7-.76-2.92-1.86-4.07-1.41-1.49-3.07-2.87-2.72-5.28,22.72,4.91,45.72,8.25,68.62,12.14,28.78,4.89,57.24,11.18,85.59,18.06,10,2.43,20.08,4.77,30.11,7.18C-2565.08,317.2-2563.89,317.72-2562.67,318.13Z" transform="translate(8365.291 3729.758)" fill="#fff"/>
    <path id="Path_187" data-name="Path 187" d="M-2615.91,249.07c.73.1,2.77.4,4.81.63,1,.12,2.28.51,3,.09,4-2.17,7.28-.19,10.78,1.33,5.89,2.56,11.86,4.94,17.53,8,4.11,2.21,8.07,4.55,11.31,8,2.23,2.36,2.68,3.59,1.75,5.35-1.36,2.61-3.58,3.94-6.23,3.59a32.9,32.9,0,0,1-3.73-.95c-4.57-1.2-8.43-3.79-12.3-6.36-3-2-6-4-8.94-6.09-7.33-5.4-15.67-7.61-24.6-8.07-1.8-.1-3.59-.29-5.38-.45a.87.87,0,0,1-.7-.314.87.87,0,0,1-.179-.746,2.478,2.478,0,0,1,.5-1.34c2.18-2.21,5.16-2.11,7.91-2.61a32.628,32.628,0,0,1,4.47-.06Z" transform="translate(8365.291 3729.758)" fill="#fff"/>
    <path id="Path_188" data-name="Path 188" d="M-2644.32,291.43c-2.67.52-4.95-1.09-7.49-1.41a109.221,109.221,0,0,1-12-2.37c-1.48-.36-3.07-1.32-2.6-3.23,1.18-4.75,2.63-9.41,6.68-12.67a4.285,4.285,0,0,1,5-.76,12.21,12.21,0,0,1,3.29,1.94,36,36,0,0,1,9.05,15C-2641.87,289.68-2642.88,291.34-2644.32,291.43Z" transform="translate(8365.291 3729.758)" fill="#e6be8b"/>
    <path id="Path_189" data-name="Path 189" d="M-2685.9,284c-4.55-.93-10.29-2.1-16-3.29a2,2,0,0,1-1.75-2.16c1.06-4.78,2.4-9.46,6.38-12.82,2.53-2.13,5-2.25,7.62-.19,5,4,7.64,9.55,9.83,15.35a2.23,2.23,0,0,1-.207,1.83,2.23,2.23,0,0,1-1.513,1.05C-2682.59,283.91-2683.61,283.92-2685.9,284Z" transform="translate(8365.291 3729.758)" fill="#e6be8b"/>
    <path id="Path_190" data-name="Path 190" d="M-2631.4,293.67c3.82-4.26,6-8.34,9.38-11.59s6.88-3.56,10.48.83a15,15,0,0,1,2.54,5.55q1.2,4.05,2.11,8.18a2.21,2.21,0,0,1-.666,2.122,2.21,2.21,0,0,1-2.174.468C-2616.55,297.26-2623.77,296.8-2631.4,293.67Z" transform="translate(8365.291 3729.758)" fill="#e6be8b"/>
    <path id="Path_191" data-name="Path 191" d="M-2564.43,303.62c-.11,2.14-.14,3.17-.21,4.19-.09,1.18-.85,2.07-1.93,1.83-6-1.35-11.91-2.82-17.85-4.31a2.141,2.141,0,0,1-1.318-1.3,2.141,2.141,0,0,1,.188-1.841c2.7-3.76,5.79-7.12,10-9.29a9.269,9.269,0,0,1,4.44-.95c2.27,0,4,.85,4.78,3.08C-2565.27,298.17-2564,301.31-2564.43,303.62Z" transform="translate(8365.291 3729.758)" fill="#e6be8b"/>
    <path id="Path_192" data-name="Path 192" d="M-2720.38,276.59c-1.8,1.55-3.64,1.12-5.35.78-4-.79-8-2.21-12-2.57-5.73-.52-5.27-1.91-3.76-6.34a14.152,14.152,0,0,1,3.18-5.2c4-4.35,5.89-4.51,10.27-.35C-2724.1,266.68-2721.13,271.09-2720.38,276.59Z" transform="translate(8365.291 3729.758)" fill="#e6be8b"/>
  </g>
</svg>
