<svg xmlns="http://www.w3.org/2000/svg" width="276.928" height="188.876" viewBox="0 0 276.928 188.876">
  <g id="s4" transform="translate(-6264.541 -3969.467)">
    <path id="Path_287" data-name="Path 287" d="M-1835,314v1.52a3.3,3.3,0,0,0,2.44,1.62s.17,0,.16.05c-.39,1.5-.48,2.84,1.68,2.82v.32c-1.06,2.43.18,4.46,1,6.64,2.84,7.68,2.63,15.29-2,22.19a31.762,31.762,0,0,1-11.1,10.6,140.3,140.3,0,0,1-13.17,6.55c-6.2,2.56-12.56,5-19.47,4a56.542,56.542,0,0,1-17-4.81c-7-3.36-13.45-7.62-20-11.75-5.67-3.57-11.19-7.42-17.09-10.55a301.861,301.861,0,0,0-49-21.05c-6.62-2.14-13.22-4.35-19.81-6.57-2.72-.92-4.29-2.64-4.1-5.75.15-2.58.08-5.17,0-7.75a12.639,12.639,0,0,0-.57-3.78,2,2,0,0,0-2.34-1.51,1.56,1.56,0,0,0-1.25,1.68c-.11,2.84-.07,5.68-.19,8.52-.15,3.55-1.5,5-4.75,4.27-5.77-1.25-11.45-2.94-17.19-4.35-2.5-.61-3.15-2.27-3.18-4.57,0-3.08-.2-6.17-.36-9.25a.77.77,0,0,0-.364-.674.77.77,0,0,0-.766-.026c-.4.17-1,.54-1,.86-.17,2.57-.17,5.15-.31,7.73-.19,3.41-1.55,4.59-5,4.07-5.83-.89-11.64-1.92-17.45-2.95-3.71-.65-3.87-.87-4.2-4.23-.17-1.77.32-3.62-.6-5.3a1.66,1.66,0,0,0-2-.79,1.92,1.92,0,0,0-1.2.8c-1.07,1.91-.45,4-.67,6.07-.18,1.69-.79,2.91-2.61,3.33-3.51.81-7,1.74-10.51,2.52a1.82,1.82,0,0,1-1.5-.148,1.82,1.82,0,0,1-.875-1.222,16.344,16.344,0,0,0-.57-2.24,1.611,1.611,0,0,0-1.06-.87,1.49,1.49,0,0,0-1.26.53c-1,2.07-1.75,4.3-2.93,6.26a6,6,0,0,1-6.71,2.71c-2.14-.53-2.89-2.13-3.27-5.48-.32-2.74,1.08-5.44,0-8.13,8.05-16.15,18.53-30.47,32.92-41.48,13.32-10.18,28.46-15.76,45.46-14.56,7.44.53,14.83,1.93,22.2,3.16,14.26,2.36,28.52,4.68,42.67,7.69,12.9,2.75,25.47,6.54,38,10.4,12.41,3.81,24.08,9.3,35.56,15.14a161.679,161.679,0,0,1,32.53,22.25c3.86,3.34,7,7.55,10.39,11.37-1.65.68-1.57,2.23-1.81,3.62a17.9,17.9,0,0,1-1.72-1.53,89.569,89.569,0,0,0-31.92-22.67c-3.32-1.41-6.73-2.68-10.42-2.75a6.17,6.17,0,0,0-4.38,1.13c-.78.65-1,2.12-.17,2.65a21.484,21.484,0,0,0,3.35,1.86c2.39,1,4.92,1.59,7.25,2.68,6.86,3.21,13.11,7.06,16.6,14.36,1.53,3.21,4,6,6.26,8.82a32.357,32.357,0,0,0,7.92,7.33,9.819,9.819,0,0,0,5.84,1.67c3.56-.1,5.85-2.87,4.87-6.23a58.07,58.07,0,0,0-2.67-6.4Zm-182.5-68.34c-3.1.15-9,.37-15,.76a14.29,14.29,0,0,0-4.43,1.23,2.34,2.34,0,0,0-1.14,1.77,2.22,2.22,0,0,0,1.14,1.73c3.45,1,6.95,2.48,10.44,2.48,7.28,0,14.36,1.48,21.56,2.05,8.21.64,16.41,1.69,24.56,2.92,8.65,1.31,17.27,2.89,25.85,4.64,7.82,1.61,15.55,3.6,23.32,5.43a24.381,24.381,0,0,0,10,.55,2.36,2.36,0,0,0,1.57-1.38,2.52,2.52,0,0,0-.66-2,18.631,18.631,0,0,0-3.74-2.68,62.068,62.068,0,0,0-15.2-5.62c-11-2.54-22-5.35-33.19-7.21a376.9,376.9,0,0,0-45.04-4.7Z" transform="translate(8365.291 3729.758)" fill="#fe7649"/>
    <path id="Path_288" data-name="Path 288" d="M-2081.14,348.66c-.75-1.86-2.8-2.14-4.07-3.37-2.52-2.42-3.31-4.71-1.31-7.47s2-4.77,1.07-7.76a17.417,17.417,0,0,1,.25-10.61c.56-1.72,1.27-3.37.67-5.21l-.07.14a1.3,1.3,0,0,0,1.095-.326,1.3,1.3,0,0,0,.415-1.064,5.34,5.34,0,0,1,3.49-1.54c-.65,2.95-.39,5.63,2,7.8,1.36,1.22,2.6,2.59,2.4,4.62-.52,5.39,1.82,9.51,5.75,12.86,2.53,2.16,3.94,4.63,3.46,8.08-.68,4.85,1.24,8.5,5.33,11.15a13.417,13.417,0,0,1,2.79,2.59,10.679,10.679,0,0,0,8.06,4c2.36.07,3.68,1.14,5,3,2.62,3.77,6.22,6.18,11,6.38a8,8,0,0,1,5,1.8,13.68,13.68,0,0,0,10.13,3c2.74-.21,4.78.81,7,2.52,3.75,3,8.09,4.58,13,2.7,1.78-.68,3,.17,3.82,1.67,1,1.85,2.15,3.58,4.54,3.75,2.05.14,4.15.39,6.1-.49a16.569,16.569,0,0,0,4-2.23c1.86-1.56,3.58-1.54,5.69-.59a15,15,0,0,0,12.71.17c.47-.21,1-.31,1.46-.51a2.44,2.44,0,0,1,1.863-.188,2.44,2.44,0,0,1,1.447,1.188,10.136,10.136,0,0,0,1.48,1.78c5.44,5.08,11.76,3.26,14-4,.22-.7.2-1.49,1.16-1.59a48.287,48.287,0,0,0,6.18,3.11c3.73,1.28,6,.29,8.19-3.4.55-.92,1-2.08,2.09-1.81,5.35,1.29,8.49-1.76,10.5-5.83,2.16-4.38,5.44-5.91,10-5.78,3.43.39,6,2.69,9,4.06,11.88,5.44,24,7.19,36.48,2.37,1.66-.64,3.4-1.09,5.1-1.63l-.13,9c-3,.47-5.82,2.14-9.07,1.74-2.16-.26-3.07,1.12-3.76,3.08a28.427,28.427,0,0,1-3.38,6.94c-2.67,3.8-6.25,6.37-11.2,4.87-2.2-.67-3.31,0-4.46,1.68-2.48,3.68-5.78,5.89-10.46,5.14-3.7-.59-6.51.89-8.82,3.65a6.73,6.73,0,0,1-7.7,2.29c-3.06-1.11-4.47,0-6.38,2.19-3.5,4-7.66,3.76-11.37-.07a19.375,19.375,0,0,1-2.37-3c-2-3.18-2.1-3.29-5.26-.85A17.328,17.328,0,0,1-1942,411c-3,1.11-6.14,2.17-8.88.11s-4.46-1.39-6.77.39c-2.57,2-5.46,2.9-8.6.83a5.22,5.22,0,0,0-4.43-.57,12.61,12.61,0,0,1-12.8-3.49c-1.52-1.54-2.75-1.61-4.67-.39-3.5,2.24-6.87,1.53-9.76-1.48-1.6-1.67-3.37-3.19-4.45-5.32-1.23-2.44-3.17-3.35-5.77-2.2s-4.95.63-7.5-.25-5-1.54-7-3.16a3.52,3.52,0,0,0-4.26-.42,12.512,12.512,0,0,1-2.12,1c-6,1.82-9.09-.08-10.44-6.42-.75-3.51-.82-3.59-4.56-3.76-1.55-.07-3.11,0-4.66-.08a10.56,10.56,0,0,1-6.3-2.67c-1.57-1.3-1.51-3.19-1.6-5a3,3,0,0,0-2.78-3.13c-1.51-.27-2.94-1-4.46-1.2a6.78,6.78,0,0,1-6.14-6.11c-.4-3.88-2.72-5-5.69-6.26-4.18-1.82-7.52-4.62-7.34-9.85l-.07.08C-2082,350.94-2079.76,350.94-2081.14,348.66Z" transform="translate(8365.291 3729.758)" fill="#e6be8b"/>
    <path id="Path_289" data-name="Path 289" d="M-2083,351.57c-.18,5.23,3.16,8,7.34,9.85,3,1.3,5.29,2.38,5.69,6.26a6.78,6.78,0,0,0,6.14,6.11c1.52.22,3,.93,4.46,1.2a3,3,0,0,1,2.78,3.13c.09,1.8,0,3.69,1.6,5a10.561,10.561,0,0,0,6.3,2.67c1.55.08,3.11,0,4.66.08,3.74.17,3.81.25,4.56,3.76,1.35,6.34,4.41,8.24,10.44,6.42a12.513,12.513,0,0,0,2.12-1,3.52,3.52,0,0,1,4.26.42c2.05,1.62,4.55,2.32,7,3.16s4.93,1.38,7.5.25,4.54-.24,5.77,2.2c1.08,2.13,2.85,3.65,4.45,5.32,2.89,3,6.26,3.72,9.76,1.48,1.92-1.22,3.15-1.15,4.67.39a12.61,12.61,0,0,0,12.8,3.49,5.22,5.22,0,0,1,4.43.57c3.14,2.07,6,1.14,8.6-.83,2.31-1.78,4.12-2.38,6.77-.39s5.88,1,8.88-.11a17.332,17.332,0,0,0,4.79-2.39c3.16-2.44,3.21-2.33,5.26.85a19.373,19.373,0,0,0,2.37,3c3.71,3.83,7.87,4,11.37.07,1.91-2.17,3.32-3.3,6.38-2.19a6.73,6.73,0,0,0,7.7-2.29c2.31-2.76,5.12-4.24,8.82-3.65,4.68.75,8-1.46,10.46-5.14,1.15-1.7,2.26-2.35,4.46-1.68,5,1.5,8.53-1.07,11.2-4.87a28.426,28.426,0,0,0,3.38-6.94c.69-2,1.6-3.34,3.76-3.08,3.25.4,6-1.27,9.07-1.74,2.07,1.31,1.31,3,.74,4.77s1.23,2.66,1.8,4a8.13,8.13,0,0,1,.13,5.31,2.673,2.673,0,0,1-.32.71c-1.19,1.91-.53,3.53,1,4.79,3.66,3.07,1.34,6.69.89,10-.22,1.62-2.14,2.28-3.6,2.56-2.76.53-5.6.69-8.41,1-.79,1,0,1.79.3,2.72.74,2.19,0,3.75-1.76,4.18a12.65,12.65,0,0,1-6.88-.12c-2.21-.74-4-.69-5.49,1.28-3.28,4.27-8,4.64-12.65,3.85a15.42,15.42,0,0,0-9,.71,12.3,12.3,0,0,1-9.08.3,8.06,8.06,0,0,0-6.66.18c-3.39,1.57-7,2-10.45.32-2-1-3.86-.72-5.9,0-4.92,1.87-9.22.57-12.44-3.45-1.53-1.9-2.85-2.27-5.24-1.79-5.36,1.08-10.78,1.21-15.8-1.67a5,5,0,0,0-4.47-.24c-1.47.56-3.14,1.18-4.52.52-4.75-2.24-9.87-2.49-14.91-3.34-2.83-.48-4.78-3-7.26-4.28s-5.5,1-8.29-.12c-2.63-1.07-5.6-1.87-7.28-4.21-1.88-2.61-4.21-3.2-7.17-3.66-3.52-.55-7.24-.92-10.38-2.85a18.361,18.361,0,0,0-11-2.76c-3.53.21-6.67-.46-7.61-4.82-.44-2-2.55-2.54-4.34-2.68a21.66,21.66,0,0,1-8.86-2.49c-.88-.49-2.32-1.29-2.29-1.89.21-4.08-3-4.2-5.53-4.92-3.39-1-6.24-2.28-7.19-6.14-.19-.75-1.45-1.35-2.33-1.8-1.83-.93-3.78-1.63-5.59-2.58-1.16-.61-2.46-1.84-2-3,1.33-3.31-.91-4.44-2.92-6s-2-2.2-.31-4.45a6.11,6.11,0,0,0,1.63-4.15,3.22,3.22,0,0,1,1.44-3.17Z" transform="translate(8365.291 3729.758)" fill="#b8b5aa"/>
    <path id="Path_290" data-name="Path 290" d="M-1852.92,372c-1.7.54-3.44,1-5.1,1.63-12.53,4.82-24.6,3.07-36.48-2.37-3-1.37-5.57-3.67-9-4.06-4.6-4.25-10.31-6.83-15.42-10.32a181.523,181.523,0,0,0-27.1-14.91c-12.93-5.92-26.1-11.17-39.49-15.89-22.69-8-45.76-14.54-69.76-17.1-8.21-.87-16.53-1.32-24.32,2.5a5.34,5.34,0,0,0-3.49,1.54c-.76.19-1.55.34-1.51,1.39l.07-.14c-2,.43-3.95.87-5.93,1.28-6.71,1.38-10.31-1.43-10.3-8.33,0-4.1.63-8.12,3.67-11.29,1.12,2.7-.28,5.4,0,8.14.38,3.35,1.13,4.95,3.27,5.48a6,6,0,0,0,6.71-2.71c1.18-2,1.9-4.19,2.93-6.26a1.49,1.49,0,0,1,1.26-.53,1.61,1.61,0,0,1,1.06.87,16.308,16.308,0,0,1,.57,2.24,1.82,1.82,0,0,0,.875,1.222,1.82,1.82,0,0,0,1.5.148c3.52-.78,7-1.71,10.51-2.52,1.82-.42,2.43-1.64,2.61-3.33.22-2-.4-4.16.67-6.07a1.919,1.919,0,0,1,1.2-.8,1.66,1.66,0,0,1,2,.79c.92,1.68.43,3.53.6,5.3.33,3.36.49,3.58,4.2,4.23,5.81,1,11.62,2.06,17.45,2.95,3.45.52,4.81-.66,5-4.07.14-2.58.14-5.16.31-7.73,0-.32.63-.69,1-.86a.77.77,0,0,1,.766.026.77.77,0,0,1,.364.674c.16,3.08.32,6.17.36,9.25,0,2.3.68,4,3.18,4.57,5.74,1.41,11.42,3.1,17.19,4.35,3.25.7,4.6-.72,4.75-4.27.12-2.84.08-5.68.19-8.52a1.56,1.56,0,0,1,1.25-1.68,2,2,0,0,1,2.34,1.51,12.643,12.643,0,0,1,.57,3.78c.09,2.58.16,5.17,0,7.75-.19,3.11,1.38,4.83,4.1,5.75,6.59,2.22,13.19,4.43,19.81,6.57a301.864,301.864,0,0,1,49,21.05c5.9,3.13,11.42,7,17.09,10.55,6.53,4.13,13,8.39,20,11.75a56.544,56.544,0,0,0,17,4.81c6.91.92,13.27-1.47,19.47-4a140.311,140.311,0,0,0,13.17-6.55,31.76,31.76,0,0,0,11.1-10.6c4.58-6.9,4.79-14.51,2-22.19-.81-2.18-2-4.21-1-6.64,11.5,14.77,7.42,32.25-4.26,41.15C-1840.54,365.71-1846.69,368.88-1852.92,372Z" transform="translate(8365.291 3729.758)" fill="#b5713e"/>
    <path id="Path_291" data-name="Path 291" d="M-1839.12,313.5c.24-1.39.16-2.94,1.81-3.62,1.13,1.17,2.39,2.27,2.34,4.1l-3.34.44A1,1,0,0,1-1839.12,313.5Z" transform="translate(8365.291 3729.758)" fill="#b5713e"/>
    <path id="Path_292" data-name="Path 292" d="M-2081.14,348.66c1.38,2.28-.83,2.28-1.92,3a2.81,2.81,0,0,1,1.92-3Z" transform="translate(8365.291 3729.758)" fill="#b8b5aa"/>
    <path id="Path_293" data-name="Path 293" d="M-1830.65,320c-2.16,0-2.07-1.32-1.68-2.82a3.15,3.15,0,0,1,1.68,2.82Z" transform="translate(8365.291 3729.758)" fill="#b5713e"/>
    <path id="Path_294" data-name="Path 294" d="M-1832.49,317.11a3.3,3.3,0,0,1-2.44-1.62C-1833.13,314.54-1832.84,315.87-1832.49,317.11Z" transform="translate(8365.291 3729.758)" fill="#b5713e"/>
    <path id="Path_295" data-name="Path 295" d="M-2017.46,245.63a376.916,376.916,0,0,1,45.11,4.63c11.22,1.86,22.17,4.67,33.19,7.21a62.07,62.07,0,0,1,15.2,5.62,18.643,18.643,0,0,1,3.74,2.68,2.52,2.52,0,0,1,.66,2,2.36,2.36,0,0,1-1.57,1.38,24.381,24.381,0,0,1-10-.55c-7.77-1.83-15.5-3.82-23.32-5.43-8.58-1.75-17.2-3.33-25.85-4.64-8.15-1.23-16.35-2.28-24.56-2.92-7.2-.57-14.28-2-21.56-2.05-3.49,0-7-1.5-10.44-2.48a2.22,2.22,0,0,1-1.14-1.73,2.34,2.34,0,0,1,1.14-1.77,14.293,14.293,0,0,1,4.43-1.23C-2026.49,246-2020.56,245.78-2017.46,245.63Z" transform="translate(8365.291 3729.758)" fill="#fff"/>
    <path id="Path_296" data-name="Path 296" d="M-1839.12,313.5a1,1,0,0,0,.81.92,58.07,58.07,0,0,1,2.67,6.4c1,3.36-1.31,6.13-4.87,6.23a9.821,9.821,0,0,1-5.84-1.67,32.351,32.351,0,0,1-7.92-7.33c-2.21-2.85-4.73-5.61-6.26-8.82-3.49-7.3-9.74-11.15-16.6-14.36-2.33-1.09-4.86-1.72-7.25-2.68a21.481,21.481,0,0,1-3.35-1.86c-.83-.53-.61-2,.17-2.65a6.17,6.17,0,0,1,4.38-1.13c3.69.07,7.1,1.34,10.42,2.75a89.572,89.572,0,0,1,31.92,22.7A17.887,17.887,0,0,0-1839.12,313.5Z" transform="translate(8365.291 3729.758)" fill="#fff"/>
    <path id="Path_297" data-name="Path 297" d="M-2079.6,311.45c7.79-3.82,16.11-3.37,24.32-2.5,24,2.56,47.07,9.11,69.76,17.1q20.085,7.08,39.49,15.89a181.536,181.536,0,0,1,27.1,14.91c5.11,3.49,10.82,6.07,15.42,10.32-4.5-.13-7.78,1.4-9.94,5.78-2,4.07-5.15,7.12-10.5,5.83-1.12-.27-1.54.89-2.09,1.81-2.23,3.69-4.46,4.68-8.19,3.4a48.284,48.284,0,0,1-6.18-3.11c-1,.1-.94.89-1.16,1.59-2.27,7.31-8.59,9.13-14,4a10.143,10.143,0,0,1-1.48-1.78,2.441,2.441,0,0,0-1.447-1.188,2.44,2.44,0,0,0-1.863.188c-.47.2-1,.3-1.46.51a15,15,0,0,1-12.71-.17c-2.11-.95-3.83-1-5.69.59a16.57,16.57,0,0,1-4,2.23c-2,.88-4,.63-6.1.49-2.39-.17-3.51-1.9-4.54-3.75-.84-1.5-2-2.35-3.82-1.67-4.92,1.88-9.26.26-13-2.7-2.19-1.71-4.23-2.73-7-2.52a13.68,13.68,0,0,1-10.13-3,8,8,0,0,0-5-1.8c-4.74-.2-8.34-2.61-11-6.38-1.28-1.85-2.6-2.92-5-3a10.68,10.68,0,0,1-8.06-4,13.42,13.42,0,0,0-2.79-2.59c-4.09-2.65-6-6.3-5.33-11.15.48-3.45-.93-5.92-3.46-8.08-3.93-3.35-6.27-7.47-5.75-12.86.2-2-1-3.4-2.4-4.62C-2080,317.08-2080.25,314.4-2079.6,311.45Z" transform="translate(8365.291 3729.758)" fill="#fff"/>
    <path id="Path_298" data-name="Path 298" d="M-2084.6,314.38c0-1.05.75-1.2,1.51-1.39a1.3,1.3,0,0,1-.415,1.064,1.3,1.3,0,0,1-1.095.326Z" transform="translate(8365.291 3729.758)" fill="#fff"/>
  </g>
</svg>
