<svg xmlns="http://www.w3.org/2000/svg" width="382.236" height="220.748" viewBox="0 0 382.236 220.748">
  <g id="s5" transform="translate(-7121.375 -5674.309)">
    <path id="Path_72" data-name="Path 72" d="M-1225.14,2042.52a72.8,72.8,0,0,1-15.06-18.46c-5.82-10.4-4.79-20.32,3-30.35a57.628,57.628,0,0,1,13-12.11,143.353,143.353,0,0,1,29.57-15.16c17.16-6.63,34.95-10.78,53-14.25a393.355,393.355,0,0,1,39-5.55c13.86-1.24,27.78-2.43,41.77-2,11.11.33,22.24-.07,33.35.3,10.3.34,20.57,1.38,30.82,2.53,8.46.94,16.88,2.06,25.28,3.41,25.33,4.06,50.06,10.27,73.39,21.09,10.81,5,21,11.28,28.81,20.56,5.2,6.15,8.09,13.15,7.44,21.35-.49,6.21-3.83,11.22-7.32,16-2.86,3.92-6.46,7.3-9.74,10.92-1.71-1.52-2.95.15-4,.89-10.63,7.57-22.55,12.38-34.77,16.64-22.71,7.9-46.1,12.63-69.94,15.48-11,1.31-21.94,2.95-33,3a11.268,11.268,0,0,0-3.08.26c-5.29,1.64-10.73,1.24-16.13,1.26h-31.76c-2.06,0-4.23.2-6.15-.37a31.845,31.845,0,0,0-10.74-1c-8.56.41-16.92-1.46-25.39-2-10-.68-19.8-2.88-29.69-4.43a3.08,3.08,0,0,1-2.63-2.47c3.55-1.17,7.18-.16,10.77-.37,2.3-.13,4.67.32,6.86-.69a1.739,1.739,0,0,0,.82-1.14,1.9,1.9,0,0,0-.36-1.38c-1.09-1.26-2.62-1.47-4.18-1.69l-20.61-3a137.2,137.2,0,0,1-26.91-6.75,225.548,225.548,0,0,1-24.09-10.51,53.5,53.5,0,0,0-6.36-2.78c-2.43-.83-4.62-.29-4.77.93-.24,1.89,1.27,2.64,2.47,3.55,5.2,3.93,11.14,6.46,17,9,1.44.63,2.91,1,3.59,2.63a4.16,4.16,0,0,1-3.66.06,96.284,96.284,0,0,1-17.91-8.28c-3.23-2-6.54-3.91-9.86-5.77C-1224,2041.38-1224.71,2041.79-1225.14,2042.52Zm127.45,6.23c-1.24-2-2.86-1.64-4.5-.65a1.561,1.561,0,0,0-.68,1.23c0,.31.67.69,1.09.77,1.64.31,2.82-.83,4.16-1.45.73,1.32,1.93,2.14,3,.81,4.14-5.15,9.74-7.41,16-8.55.42-.08.76-.56,1.49-1.12a18.5,18.5,0,0,0-10.61.75c-4.41,1.56-7.26,4.66-9.95,8.21Zm-77.35-18.92c2.52.29,4.26-.92,4.18-3.33-.14-4.4,2.35-7.14,5.19-9.86a31.168,31.168,0,0,1,5.51-4.19,53.851,53.851,0,0,1,17.75-7.18c3.08-.59,6-1.55,7.55-4.69,1.13-.43,2.47-.63,2.46-2.28,1.81-1.13,4.91,0,5.6-3.33-3.53-.65-7-1.33-10.54-1.93a8.5,8.5,0,0,0-2.3.11,61.8,61.8,0,0,0-24.68,8.14,71.542,71.542,0,0,0-18.83,15.79c-5.32,6.44-5.45,14.3-.68,20.5,2.26,2.94,5.5,4.58,8.69,6.25a2.259,2.259,0,0,0,1.45-.13c.61-.19.69-.66.36-1.25-.88-1.55-2.19-2.91-2-4.89Zm12,7.68c-.19-2.47-1.53-4.77.08-7.44s3.31-4.44,6.19-5.36c1.71-.55,3.24-1.7,5-2.1,2.77-.65,2.79-2.62,2.81-4.73a5.82,5.82,0,0,1,1-3.58c.56-.89,2.17-1.62.83-3.23a37.723,37.723,0,0,0-16.69,10,6.94,6.94,0,0,0-2.1,5.47c.13,2.69-1.72,3.91-3.54,5.47-2.92,2.5-3.14,5-.89,8.14a34.511,34.511,0,0,0,10.14,9.23c7.2,4.46,15.25,5.78,23.34,6.86,3,.41,5.46.93,7,3.72a1.48,1.48,0,0,0,1.31.51c.86-.22.87-1,.88-1.8.06-3.28.08-3.29,2.91-3.66.76-.1,1.53-.09,2.3-.14,1,1.47,2.63,1.42,4.18,1.45,6.46.1,12.91.18,19.36.31,2.44.06,8,3.66,8.29,5.66.11.87-1.19,1.91-2.09,3.24,2.72,0,5.2.08,7.67,0,3.89-.15,7.81-.32,11.55.73,4.33,1.22,8.62.8,13,.73-.42-1.08-1.25-1-2-1.2-7.19-2-14.71-2.62-21.63-5.56-1.55-.66-4.67-.48-4.28-2.38.49-2.36,3.29-.91,5.12-.94,2,3,4.7,1.9,7.32,1.23,2.24,2.82,4.69,1.62,6.78,0,5-3.79,10.37-3.81,16.17-2.58a93.013,93.013,0,0,0,21.51,2.19c3.87-.09,7.74.2,11.61.32,3.41,2.38,7,1.73,10.52.41,1.52-.56,1.44-1.66-.16-4.1.76-2.38,2.58-2.85,4.84-2.91,8.73-.22,17.51,1,26.19-.88.32-.07.94.42,1.12.8a1.76,1.76,0,0,1,0,1.44,14.6,14.6,0,0,1-4.82,4.91c-1.88,1.28-3.78,2.55-6.21,4.19,4.08,1.35,6.59-.48,9-2.27a51.676,51.676,0,0,0,5.05-4.78,4.2,4.2,0,0,1,4.2-1.34c6.59,1.75,13.34.83,20,1.25,6.09.37,11.69-1.12,17.66-3.91l-21.12-5.57c.52-.65.75-1.22,1.14-1.38,4.44-1.8,8.28-4.18,9.73-9.18a2.38,2.38,0,0,1,2.26-1.82c4.12,0,8-2.11,12.23-1.21-2.05,1.62-3.8,3.32-3.34,6.36.31,2,.16,4.1.31,6.15s1.19,2.59,3.13,1.8a26.215,26.215,0,0,0,2.81-1.26c3-1.66,4.09-3.87,3-7a43.857,43.857,0,0,0-2.85-5.42c.41-1.48,1.44-2.34,2.75-1.36,4.5,3.35,5.59,7.49,3.62,12.66-.34.89-1.27,1.67-.67,2.82,2.55.78,3.15-2.23,5.09-2.65a11.41,11.41,0,0,0,7.48-1.24,125.5,125.5,0,0,0,20-11.75,35.069,35.069,0,0,0,9.87-10.8c4.32-7.35,4.3-14.64-.06-22a29.67,29.67,0,0,0-7-8.23,96.869,96.869,0,0,0-23.05-14.1,252.542,252.542,0,0,0-32.88-11.39c-11.48-3-23.11-5.28-34.79-7.24-9.4-1.57-19-2.19-28.35-3.6-10.27-1.54-20.69-.08-30.82-2.48-20.68-.82-41.31.62-62,1.55a14.117,14.117,0,0,0-1.54.16c-7.41.92-14.83,1.73-22.22,2.78-8.15,1.17-16.34,2.25-24.39,3.94-9.58,2-19.08,4.44-28.52,7a157.428,157.428,0,0,0-33.14,12.88c-7.08,3.79-13.8,8.13-19.25,14.18-4.12,4.58-6.56,9.66-6.47,16.07a21.65,21.65,0,0,0,6.12,14.64,66.41,66.41,0,0,0,17.58,13.82c10.49,5.71,21.63,9.78,32.89,13.61q4.39,1.49,8.88,2.72a16.281,16.281,0,0,0,3.82.41,1.371,1.371,0,0,0,1.1-.75c.06-.41-.25-1.19-.58-1.3a75.312,75.312,0,0,0-7.34-2.19,40.179,40.179,0,0,1-14.61-6.89,21.542,21.542,0,0,1-6.68-8.42c-2.84-5.81-1.83-11.57,1.17-17,2.9-5.31,7.23-9.43,11.89-13.15,15.46-12.32,32.55-18.79,52.61-14.22a15.54,15.54,0,0,0,10.5-1.22,83.509,83.509,0,0,1,22.09-7c11.15-1.82,21.74-1,29.69,8.57a2.9,2.9,0,0,0,.64.44c.23,2.35,1.81,3.22,3.74,2.54,5.63-2,11.63-1.1,17.37-2.49,3.63-.87,7.63-.19,11.47-.15a2.91,2.91,0,0,1,2.11.752,2.91,2.91,0,0,1,.95,2.028l-15.46.57c7.93,3.85,16.18,2.72,25.41,2.5-2.64-2-5.52-.52-7-2.63,1.43-2.88,4-2,6.14-1.58a116.772,116.772,0,0,1,21.53,6.06,33.51,33.51,0,0,1,13.81,9.66c3.52,4.16,2.82,9.89-1.65,12.79-5.17,3.35-10.64,4.85-16.91,2.89-5.13-1.61-10.48-2.58-15.76-3.69a13.894,13.894,0,0,0-3.79.17c-.22,0-.63.33-.61.42.12.47.23,1.14.56,1.32a7.284,7.284,0,0,0,2.84,1c3.77.25,7.18,1.75,10.73,3.19h-26c-.06,1,.23,1.4.84,1.46,2.8.29,4.92,1.28,5.4,4.49a5.09,5.09,0,0,0,3.33,4c3.89,1.25,7.81,3.08,12,2.09,6.22-1.47,12.7-2.22,18.32-5.64,1.52-.92,1.6.34,2,1.14s.94,1.22,1.79.94a1.63,1.63,0,0,0,1.13-1.79c-.15-1.26-.51-2.49-.76-3.74-.36-1.78.24-2.61,1.72-2.33a33.536,33.536,0,0,0,3.74.85c3.07.19,6.18-.26,9.22.74,5.95,2,12.14,2.33,18.36,2.41a48.879,48.879,0,0,1,5.41.29,3.08,3.08,0,0,1,2.373,1.722,3.08,3.08,0,0,1-.143,2.928,6.07,6.07,0,0,1-2,2.28,42.418,42.418,0,0,1-6.94,3.39c-11,3.8-22.48,5.39-34,6.29a109.049,109.049,0,0,1-30-1.79c-7.76-1.56-15.41-1-23.12-1.17a10.047,10.047,0,0,0-3,.41c-.71.21-1.46.73-1.3,1.64.06.32.66.64,1.07.77a4.574,4.574,0,0,0,1.53.09,130,130,0,0,1,33,2.36c-.14.26-.25.91-.6,1.1a24.121,24.121,0,0,1-10.31,2.87c-10.1.55-20.08-.86-30.08-1.75a29,29,0,0,1-5.18-1.5c-.68-.19-.9-.52-.47-1.49.41-1.16,1.8-1.11,3-1.44a4.33,4.33,0,0,0,3.54-4.46l1.91-.61c-.2-.29-.39-.8-.62-.82-.79-.08-1.26.45-1.54,1.15a8.616,8.616,0,0,0-1.51.3c-1.91.7-3.64,3.45-5.9.38-.33-.44-1.57.08-1.66,1-.32,3.13-2.36,4.36-5.13,4.93-1.75.37-3.51.78-5.24,1.26-4.75,1.32-9.72,1.14-14.51,2a67.211,67.211,0,0,1-23,.05c-4.27-.75-8.75-1.2-12.85,1.18-.47-4.59-.44-4.74,2.63-5.93,1.91-.74,3.9-1.3,5.85-2,2.23-.77,4-.82,4.56,2.16.14.74,1.41.78,1.86.14a12,12,0,0,0,1.1-2.84c.52-1.42,1.71-3,.58-4.33-1.66-1.9-2.44.68-3.67,1.13a22.6,22.6,0,0,1-3,.66c-6.13,1.24-11.92,3.24-16.67,7.52a6.28,6.28,0,0,1-4.15,1.79c-3.86.09-7.68.25-11.51-.84a69.209,69.209,0,0,1-16.12-7.38c-.82-.48-1.3-1.53-1.94-2.32-.03-1.711-.03-3.451-.03-5.2Zm17.39-18.09c5.89-.29,5.85-.18,12.61,2.38a28.273,28.273,0,0,0,10.54,2.2c10.08-.13,20.18.3,30.25-.11,10.37-.42,20.54,2.11,30.89,1.66a21.519,21.519,0,0,1,3.82.39c.12,0,.24.36.26.57s0,.65-.12.69c-3.81,1.38-7.57,3.67-11.76,2.29-3.06-1-6.11-.86-9.19-1-3.35-.14-6.84.28-10-.5a51.157,51.157,0,0,0-12.31-1c-5.17-.08-10.34-.08-15.51-.09-6.46,0-12.93-.16-19.39.09-6,.23-11.73,1.82-16.08,6.44-1.38,1.47-3.59,2.88-2.81,5.14a8.19,8.19,0,0,0,6.16,5.38c1.49.33,3.1,0,4.63.23,3.34.45,6.4-2,9.86-.78,1.16.4,1.65-.91,1.92-1.93a4.42,4.42,0,0,1,4.5-3.52,52.143,52.143,0,0,0,7.65-1.05,20.732,20.732,0,0,1,7.69-.14c11.89,2.27,23.54.94,35.27-1.34,8.37-1.63,16.43-4.37,24.72-6.16,6.8-1.47,13.6-2.85,20.18-5.19a19.251,19.251,0,0,0,7.37-4.09c3.52-3.46,3.43-5.22.62-9.49a11.648,11.648,0,0,0-2.95-2.44c-9.35-7-19.71-11.11-31.58-10.52-3.13.16-5.27-.66-6.94-3.66a16.35,16.35,0,0,0-13.06-8.6,44.552,44.552,0,0,0-14.64.57,106.224,106.224,0,0,0-33.45,13.77c-5.42,3.47-11,6.82-15.28,11.79-2.03,2.31-4.01,4.6-3.84,8.02Zm100.77,20h0c3.86,0,7.72.11,11.56,0,1.9-.08,4.09.88,5.64-.9.83-.94-1.73-2.2-5.62-2.61a7.553,7.553,0,0,0-2.25-.17c-7.39,1.59-14.86.77-22.26.57-4.09-.11-8,1.75-12.08.67-.13,0-.53.31-.53.49,0,.46,0,1.14.22,1.36,1.81,1.5,3.87,3,6.25,1.75s5-1.07,7.51-1.11c3.88-.1,7.74-.05,11.59-.05Zm30.28-23.19c7.58-1.79,16-3.76,24.42-5.82.87-.21,2.31-.55,2-1.86-.5-2-2-.81-3.07-.61s-2,.37-3,.58c-7.49,1.61-15,3-22.29,5.53a1.489,1.489,0,0,0-.67,1.2c0,.3.6.61,1,.83.21.12.48.06,1.64.15Zm28.33-1.58c-6.92.19-13.1,1.86-19.35,3.19-.64.14-.89.52-.74,1.08.21.82.79,1.47,1.58,1.35,6.55-1,13.08-2,19.62-3.12a1,1,0,0,0,.6-.45,6.626,6.626,0,0,0,.6-1.33,1.05,1.05,0,0,0-.55-.41c-.7-.16-1.49-.26-1.73-.31Zm-43.42,17.84c-8.34-1.57-15.41-1.41-20.78.67,7.41-.34,13.55.96,20.81-.67Zm51.07,1.89a2.56,2.56,0,0,0-1.84-2.09,1.35,1.35,0,0,0-1.064-.018,1.35,1.35,0,0,0-.746.758,1.52,1.52,0,0,0,.3,1.33,5.1,5.1,0,0,0,1.87,1.15c.88.28,1.41-.19,1.51-1.13Z" transform="translate(8365.291 3729.758)" fill="#e6be8b"/>
    <path id="Path_74" data-name="Path 74" d="M-1225.14,2042.52c.43-.73,1.16-1.14,1.86-.74,3.32,1.86,6.63,3.75,9.86,5.77a96.293,96.293,0,0,0,17.91,8.28,4.17,4.17,0,0,0,3.65,0l3.7,1.29c2.06,3.36,5.2,3.91,8.76,3.31l6.74,1.43c.76,2.07,2.05,2.83,4.11,1.69l8.3,1.47c1.28,2.48,1.53,2.57,3.62,1.26l2.61.23c1.85,2.87,2.24,3,5.14,1.38l2.75.12a3.08,3.08,0,0,0,2.63,2.47c9.89,1.55,19.74,3.75,29.69,4.43,8.47.58,16.83,2.45,25.39,2a31.838,31.838,0,0,1,10.74,1c1.92.57,4.09.36,6.15.37q15.88.06,31.76,0c5.4,0,10.84.38,16.13-1.26a11.258,11.258,0,0,1,3.08-.26c11.1,0,22-1.67,33-3,23.84-2.85,47.23-7.58,69.94-15.48,12.22-4.26,24.14-9.07,34.77-16.64,1-.74,2.28-2.41,4-.89-22,24.53-48.35,43.3-77.79,57.92-4.81,2.39-10.12,3.84-14.4,7.3a4,4,0,0,0-1.52.09c-2.72,1.31-6.87.77-8,4-.7,2.08.55,5,1.39,7.35,1.52,4.24.08,7.53-2.62,10.65-3.84,4.41-8.73,7.15-14.09,9.3-15.31,6.16-31.45,8.14-47.69,9a179.336,179.336,0,0,1-30.18-.93,191.463,191.463,0,0,1-28.1-5.27,51.35,51.35,0,0,1-18.75-9c-4.89-3.85-7.64-8.32-5.65-14.73a3.911,3.911,0,0,0-.17-1.52c.74-1.62,1.49-3.24,2.47-5.37-12.85-5.37-25.45-10.58-37.34-17.32a280.33,280.33,0,0,1-33.66-22.1A216.932,216.932,0,0,1-1225.14,2042.52Zm109.27,80.2c-1.39.27-2.5.54-2.76,1.66a3,3,0,0,0,.47,2.13,16.29,16.29,0,0,0,11.46,7,3,3,0,0,0,2.07-.75,2.16,2.16,0,0,0,.38-2.8,14.43,14.43,0,0,0-11.62-7.24Z" transform="translate(8365.291 3729.758)" fill="#b5713e"/>
    <path id="Path_82" data-name="Path 82" d="M-1126.34,2115a3.911,3.911,0,0,1,.17,1.52c-2,6.41.76,10.88,5.65,14.73a51.347,51.347,0,0,0,18.75,9,191.431,191.431,0,0,0,28.1,5.27,179.365,179.365,0,0,0,30.18.93c16.24-.89,32.38-2.87,47.69-9,5.36-2.15,10.25-4.89,14.09-9.3,2.7-3.12,4.14-6.41,2.62-10.65-.84-2.36-2.09-5.27-1.39-7.35,1.08-3.21,5.23-2.67,8-4A4,4,0,0,1-971,2106c7.39,3.16,14.58,6.64,20.4,12.4,3.16,3.12,5.81,6.51,6.93,10.95a13.62,13.62,0,0,1-2.57,12.34,40.807,40.807,0,0,1-15.88,12.09c-9,4-18.49,6.41-28.15,8.3-16.86,3.28-33.93,3.8-50.93,2.69-18.54-1.2-36.94-4-54.56-10.34-9.5-3.45-18.69-7.57-26.53-14.16-5.63-4.73-9.16-10.47-8.06-18.21C-1129.95,2119.19-1129.21,2116.48-1126.34,2115Z" transform="translate(8365.291 3729.758)" fill="#b8b5aa"/>
    <path id="Path_210" data-name="Path 210" d="M-1061.74,1991.66a2.9,2.9,0,0,1-.64-.44c-7.95-9.57-18.54-10.39-29.69-8.57a83.5,83.5,0,0,0-22.09,7,15.54,15.54,0,0,1-10.5,1.22c-20.06-4.57-37.15,1.9-52.61,14.22-4.66,3.72-9,7.84-11.89,13.15-3,5.47-4,11.23-1.17,17a21.54,21.54,0,0,0,6.68,8.42,40.18,40.18,0,0,0,14.61,6.89,75.445,75.445,0,0,1,7.34,2.19c.33.11.64.89.58,1.3a1.37,1.37,0,0,1-1.1.75,16.269,16.269,0,0,1-3.82-.41q-4.49-1.23-8.88-2.72c-11.26-3.83-22.4-7.9-32.89-13.61a66.405,66.405,0,0,1-17.58-13.82,21.65,21.65,0,0,1-6.12-14.64c-.09-6.41,2.35-11.49,6.47-16.07,5.45-6,12.17-10.39,19.25-14.18a157.441,157.441,0,0,1,33.14-12.88c9.44-2.58,18.94-5,28.52-7,8.05-1.69,16.24-2.77,24.39-3.94,7.39-1,14.81-1.86,22.22-2.78.52-.06,1-.14,1.54-.16,20.64-.93,41.27-2.37,62-1.55,10.13,2.4,20.55.94,30.82,2.48,9.39,1.41,19,2,28.35,3.6,11.68,2,23.31,4.2,34.79,7.24a252.515,252.515,0,0,1,32.88,11.39,96.869,96.869,0,0,1,23.05,14.1,29.674,29.674,0,0,1,7,8.23c4.36,7.34,4.38,14.63.06,22a35.07,35.07,0,0,1-9.87,10.8,125.5,125.5,0,0,1-20,11.75,11.411,11.411,0,0,1-7.48,1.24c1.9-4.37.15-8.06-2.25-11.57-1.22-1.78-1-3,.52-4.67,4.47-4.89,4.28-7.74-.26-12.58a32.081,32.081,0,0,0-13-8.08c-10.66-3.78-21.68-4.6-32.86-3.77-4.63.35-9.26.86-13.87,1.47a8.17,8.17,0,0,1-6.49-1.63,44.6,44.6,0,0,0-7.78-5c-16.27-7.61-33.48-10.34-51.3-9C-1048.48,1989.43-1055.09,1990.73-1061.74,1991.66Z" transform="translate(8365.291 3729.758)" fill="#b5713e"/>
    <path id="Path_211" data-name="Path 211" d="M-1061.74,1991.66c6.65-.93,13.26-2.23,19.94-2.71,17.82-1.3,35,1.43,51.3,9a44.611,44.611,0,0,1,7.78,5,8.171,8.171,0,0,0,6.49,1.63c4.61-.61,9.24-1.12,13.87-1.47,11.18-.83,22.2,0,32.86,3.77a32.08,32.08,0,0,1,13,8.08c4.54,4.84,4.73,7.69.26,12.58-1.52,1.66-1.74,2.89-.52,4.67,2.4,3.51,4.15,7.2,2.25,11.57-1.94.42-2.54,3.43-5.09,2.65-.6-1.15.33-1.93.67-2.82,2-5.17.88-9.31-3.62-12.66-1.31-1-2.34-.12-2.75,1.36l-3-.65c-4.2-.9-8.11,1.24-12.23,1.21a2.38,2.38,0,0,0-2.26,1.82c-1.45,5-5.29,7.38-9.73,9.18-.39.16-.62.73-1.14,1.38l21.12,5.57c-6,2.79-11.57,4.28-17.66,3.91-6.67-.42-13.42.5-20-1.25a4.2,4.2,0,0,0-4.2,1.34,51.712,51.712,0,0,1-5.05,4.78c-2.37,1.79-4.88,3.62-9,2.27,2.43-1.64,4.33-2.91,6.21-4.19a14.6,14.6,0,0,0,4.82-4.91,1.76,1.76,0,0,0,0-1.44c-.18-.38-.8-.87-1.12-.8-8.68,1.84-17.46.66-26.19.88-2.26.06-4.08.53-4.84,2.91l-10.36,3.69c-3.87-.12-7.74-.41-11.61-.32a93,93,0,0,1-21.51-2.19c-5.8-1.23-11.18-1.21-16.17,2.58-2.09,1.59-4.54,2.79-6.78,0a5.873,5.873,0,0,0,1.09-.55c1.08,0,2.33-.42,2.41-1.35.16-2-1.59-1.38-2.67-1.41a5.54,5.54,0,0,0-4.17,1.39l-4,.69c-1.83,0-4.63-1.42-5.12.94-.39,1.9,2.73,1.72,4.28,2.38,6.92,2.94,14.44,3.61,21.63,5.56.72.2,1.55.12,2,1.2-4.41.07-8.7.49-13-.73-3.74-1.05-7.66-.88-11.55-.73-2.47.1-5,0-7.67,0,.9-1.33,2.2-2.37,2.09-3.24-.24-2-5.85-5.6-8.29-5.66-6.45-.13-12.9-.21-19.36-.31-1.55,0-3.13,0-4.18-1.45l-.09.1c4.1-2.38,8.58-1.93,12.85-1.18a67.211,67.211,0,0,0,23-.05c4.79-.82,9.76-.64,14.51-2,1.73-.48,3.49-.89,5.24-1.26,2.77-.57,4.81-1.8,5.13-4.93.09-.89,1.33-1.41,1.66-1,2.26,3.07,4,.32,5.9-.38a8.593,8.593,0,0,1,1.51-.3l.25.29a4.33,4.33,0,0,1-3.54,4.45c-1.21.33-2.6.28-3,1.44-.43,1-.21,1.3.47,1.49,1.73.49,3.42,1.34,5.18,1.5,10,.89,20,2.3,30.08,1.75A24.116,24.116,0,0,0-1013,2052c.35-.19.46-.84.6-1.1a130,130,0,0,0-33-2.36,4.575,4.575,0,0,1-1.53-.09c-.41-.13-1-.45-1.07-.77-.16-.91.59-1.43,1.3-1.64a10.051,10.051,0,0,1,3-.41c7.71.19,15.36-.39,23.12,1.17a109.059,109.059,0,0,0,30,1.79c11.56-.9,23-2.49,34-6.29a42.407,42.407,0,0,0,6.94-3.39,6.072,6.072,0,0,0,2-2.28,3.081,3.081,0,0,0,.143-2.928,3.08,3.08,0,0,0-2.373-1.722c-1.79-.2-3.61-.26-5.41-.29-6.22-.08-12.41-.44-18.36-2.41-3-1-6.15-.55-9.22-.74a33.533,33.533,0,0,1-3.74-.85c-1.48-.28-2.08.55-1.72,2.33.25,1.25.61,2.48.76,3.74a1.63,1.63,0,0,1-1.13,1.79c-.85.28-1.41-.13-1.79-.94s-.45-2.06-2-1.14c-5.62,3.42-12.1,4.17-18.32,5.64-4.22,1-8.14-.84-12-2.09a5.09,5.09,0,0,1-3.33-4c-.48-3.21-2.6-4.2-5.4-4.49-.61-.06-.9-.41-.84-1.46h26c-3.55-1.44-7-2.94-10.73-3.19a7.28,7.28,0,0,1-2.84-1c-.33-.18-.44-.85-.56-1.32a1.018,1.018,0,0,1,.61-.42,13.891,13.891,0,0,1,3.79-.17c5.28,1.11,10.63,2.08,15.76,3.69,6.27,2,11.74.46,16.91-2.89,4.47-2.9,5.17-8.63,1.65-12.79a33.509,33.509,0,0,0-13.81-9.66,116.772,116.772,0,0,0-21.53-6.06c-2.12-.37-4.71-1.3-6.14,1.58l-3-.44a2.91,2.91,0,0,0-.95-2.028,2.91,2.91,0,0,0-2.11-.752c-3.84,0-7.84-.72-11.47.15-5.74,1.39-11.74.52-17.37,2.49C-1059.93,1994.88-1061.51,1994-1061.74,1991.66Zm134.89,32.26c-2.19,2.72-4.59,1.43-6.94.33-10.4-4.91-21.61-6.45-32.84-7.9a41.335,41.335,0,0,0-7-.06c-1.84.07-4,3.18-3.64,5.07a1.46,1.46,0,0,0,1.06.88,10,10,0,0,0,3-.26c9.68-2.71,18.39-.91,25.93,5.75a8,8,0,0,0,7.88,1.91,37.472,37.472,0,0,1,10.72-1.11c3.25,0,6-1.29,8.74-2.76,1.83-1,2.36-2.52,2.35-4.49,0-2.62-1.5-4.29-3.36-5.78-6.66-5.37-14.55-7.89-22.82-8.49-8.47-.61-17-.12-25.54-.11a8.78,8.78,0,0,0-6.41,2.17,2.63,2.63,0,0,0-.59,2A3.541,3.541,0,0,0-975,2013a2.71,2.71,0,0,0,1.46.39l25.29,2.35C-941,2018.1-933.49,2019.9-926.85,2023.92Zm-85.65,6.35c-2.06,0-4.13-.07-6.19,0-1.36.06-2.56.6-2.65,2.2s1.05,2.3,2.31,2.69a32.382,32.382,0,0,0,4.49,1c4,.62,7.61-1,11.36-1.83a1.5,1.5,0,0,0,.84-1.08,1.64,1.64,0,0,0-.51-1.28C-1005.72,2029.6-1009.18,2030.25-1012.5,2030.27Zm59.22-.72c.92.33,1.95-.08,1.74-.51a4.28,4.28,0,0,0-1.32-1.7c-5.87-4.08-12.46-3.87-19.11-3a2.289,2.289,0,0,0-1.55,1.4c-.2.86.71,1,1.44,1.12Q-962.67,2028.19-953.28,2029.55Zm9.16,21.45c-5.12-1.24-10.22-2.57-15.37-3.67a11.272,11.272,0,0,0-4.55.14c-2.22.47-4.36,1.26-6.56,1.92a3.47,3.47,0,0,0,3.09,1.94A110.915,110.915,0,0,0-944.12,2051Z" transform="translate(8365.291 3729.758)" fill="#fff"/>
    <path id="Path_212" data-name="Path 212" d="M-1145.62,2019.42c-.17-3.42,1.81-5.71,3.84-8.05,4.31-5,9.86-8.32,15.28-11.79a106.234,106.234,0,0,1,33.45-13.77,44.551,44.551,0,0,1,14.64-.57,16.35,16.35,0,0,1,13.06,8.6c1.67,3,3.81,3.82,6.94,3.66,11.87-.59,22.23,3.48,31.58,10.52a11.648,11.648,0,0,1,2.95,2.44c2.81,4.27,2.9,6-.62,9.49a19.252,19.252,0,0,1-7.37,4.09c-6.58,2.34-13.38,3.72-20.18,5.19-8.29,1.79-16.35,4.53-24.72,6.16-11.73,2.28-23.38,3.61-35.27,1.34a20.733,20.733,0,0,0-7.69.14,52.121,52.121,0,0,1-7.65,1.05,4.42,4.42,0,0,0-4.5,3.52c-.27,1-.76,2.33-1.92,1.93-3.46-1.2-6.52,1.23-9.86.78-1.53-.2-3.14.1-4.63-.23a8.19,8.19,0,0,1-6.16-5.38c-.78-2.26,1.43-3.67,2.81-5.14,4.35-4.62,10-6.21,16.08-6.44,6.46-.25,12.93-.09,19.39-.09,5.17,0,10.34,0,15.51.09,4.12.07,8.2,0,12.31,1,3.19.78,6.68.36,10,.5,3.08.13,6.13,0,9.19,1,4.19,1.38,8-.91,11.76-2.29.11,0,.14-.46.12-.69s-.14-.56-.26-.57a21.508,21.508,0,0,0-3.82-.39c-10.35.45-20.52-2.08-30.89-1.66-10.07.41-20.17,0-30.25.11a28.273,28.273,0,0,1-10.54-2.2C-1139.77,2019.24-1139.73,2019.13-1145.62,2019.42Zm72.82-15.68c-5.78-.49-11.07.68-15.51,4.66-1.8-.15-3.66-.38-5.24.67a2.48,2.48,0,0,0-.7,2c.08.84.9,1.1,1.71.85,1.9-.59,4.27-.66,4.16-3.6,5.79.51,11.1-.57,15.51-4.67a12.5,12.5,0,0,0,1.37-.16c.22,0,.59-.25.57-.33-.1-.59-.53-.81-1-.46A4.841,4.841,0,0,0-1072.8,2003.74Zm25-1.82c-1.27-1.88-3.06-1.66-4.9-1.22l-7.14.63c-2.44-1.09-4.47-.45-6.28,1.4a20.9,20.9,0,0,1-6.09,4.65,156.224,156.224,0,0,1-28.25,10,6.38,6.38,0,0,1-6.85-2.41,2.68,2.68,0,0,1-.684-2.1,2.68,2.68,0,0,1,1.124-1.9,28,28,0,0,1,9-4.27c7.39-2.08,14.81-4.08,22.21-6.17,2.2-.62,4.37-1.4,6.52-2.21.2-.08.2-.87.18-1.33a.83.83,0,0,0-.5-.55,5,5,0,0,0-3.7.51c-1.51.64-3,.76-4.18-.67,1.95-.66,3.91-1.27,5.84-2a1.41,1.41,0,0,0,.9-1.139,1.41,1.41,0,0,0-.583-1.331,14.75,14.75,0,0,0-9.14-3.68c-9.5-.63-18.38,1.82-27,5.62a1.35,1.35,0,0,0-.62.44c-.25.41-.62.92-.53,1.28s.62.79,1,1.09a4.66,4.66,0,0,0,4.42.57,30.865,30.865,0,0,1,9.89-1.56c1.73,0,3.69-.13,4.69,1.89-14,1.67-26.87,7-39.45,13.08-1.78.86-3.19,2.6-4.58,4.11a2.87,2.87,0,0,0-.754,2.494,2.87,2.87,0,0,0,1.574,2.076,12.692,12.692,0,0,0,6.71,1.569c6.46,0,12.94.31,19.4,0,14.23-.68,28.32,2.09,42.54,1.64,1.51-.05,3,.62,4.55.78,5.79.6,11.52,2.93,17.39.57,2.21-.88,5.27-.22,6.26-3.37-2.07-1.77-4.79-1.56-7.19-2.24-1-.3-2.44.49-3.65.89-1.69.56-3.17,1.8-5.1,1.63-.24,0-.67-.19-.68-.3a3,3,0,0,1,.16-1.34c.38-.9,1.83-1.08,1.66-2.4-3.72-1.2-6.89-.89-9.16,2.84-.38.63-1.43-.19-1.22-1,.58-2.44-.73-3.36-2.79-3.61-1.54-.18-3.1-.14-4.65-.18l-9.3-.26a1.17,1.17,0,0,1-.73-.21c-.1-.11,0-.45,0-.79a6.834,6.834,0,0,1,6.33-1.59,34.023,34.023,0,0,0,6.08,1c10.91-.06,21.45,2.42,32.06,4.45,2,.37,4,1.21,5.86-.47.91-.84-1.4-2.59-5.17-3.37-8.32-1.71-16.66-3.34-25.21-3.41-2.84,0-5.68-.18-8.52-.27-.65,0-1-.41-.76-1a2.161,2.161,0,0,1,.84-1.16,27.7,27.7,0,0,1,2.88-1.11l10.2.74c.2.15.4.4.62.43,6.49.83,13,1.65,19.48,2.41a1.353,1.353,0,0,0,.92-.84,1.62,1.62,0,0,0-.55-1.27c-4.72-3-9.63-5.6-15.4-5.92Zm-93.43,29.72a9.06,9.06,0,0,0-6.22,2.88c-2,.59-3.17,1.82-2.73,4,.35,1.74,1.83,2.48,3.43,2.59,4.42.31,8.8.4,12.18-3.28,2.28-2.49,5.32-2.9,8.49-3,6.19-.1,11.88-2.4,18.33-3.67-.92-.69-1.25-1.14-1.59-1.16-9.27-.48-18.55-.53-27.82-.09-1.6.09-3.15.23-4.11,1.73Zm12.18-25.23a10.079,10.079,0,0,0,5.2-1.35,51.885,51.885,0,0,0,4.72-2.36,1.44,1.44,0,0,0,.48-1.32,1.53,1.53,0,0,0-1.21-.7c-3.88,0-6.14,2.42-9.23,5.73Zm27.36,7.89a2.86,2.86,0,0,0,3.12-1.67,2,2,0,0,0,.13-1.41c-.17-.34-.89-.75-1.17-.63a18.3,18.3,0,0,0-3.26,1.76,1.34,1.34,0,0,0-.09,1.3c.2.35.8.45,1.23.65Z" transform="translate(8365.291 3729.758)" fill="#fff"/>
    <path id="Path_213" data-name="Path 213" d="M-1154,2066.46l-2.61-.23c-.74-1.77-2.06-1.87-3.62-1.26l-8.3-1.47c-.86-1.79-2.17-2.49-4.11-1.69l-6.74-1.42c-2.16-3.13-5.29-3.67-8.76-3.32l-3.7-1.29c-.67-1.6-2.14-2-3.58-2.64-5.91-2.58-11.85-5.11-17-9-1.2-.91-2.71-1.66-2.47-3.55.15-1.22,2.34-1.76,4.77-.93a53.472,53.472,0,0,1,6.36,2.78,225.6,225.6,0,0,0,24.09,10.51,137.172,137.172,0,0,0,26.91,6.75c6.87,1,13.74,2.05,20.61,3,1.56.22,3.09.43,4.18,1.69a1.9,1.9,0,0,1,.36,1.38,1.739,1.739,0,0,1-.82,1.14c-2.19,1-4.56.56-6.86.69-3.59.21-7.22-.8-10.77.37l-2.75-.12C-1150.08,2065.47-1152,2065.78-1154,2066.46Z" transform="translate(8365.291 3729.758)" fill="#fff"/>
    <path id="Path_214" data-name="Path 214" d="M-1175.37,2037.56c-.15,2,1.16,3.34,2,4.89.33.59.25,1.06-.36,1.25a2.26,2.26,0,0,1-1.45.13c-3.19-1.67-6.43-3.31-8.69-6.25-4.77-6.2-4.64-14.06.68-20.5a71.537,71.537,0,0,1,18.83-15.79,61.8,61.8,0,0,1,24.68-8.14,8.5,8.5,0,0,1,2.3-.11c3.51.6,7,1.28,10.54,1.93-.69,3.31-3.79,2.2-5.6,3.32a27.38,27.38,0,0,0-12.28.11c-13.38,2.85-24.24,9.91-33.52,19.71a16.322,16.322,0,0,0-3.55,5.94C-1183.86,2030.12-1181.84,2034.39-1175.37,2037.56Z" transform="translate(8365.291 3729.758)" fill="#fff"/>
    <path id="Path_215" data-name="Path 215" d="M-1149,2017.88c0,2.11,0,4.08-2.81,4.73-1.73.4-3.26,1.55-5,2.1-2.88.92-4.64,2.78-6.19,5.36s-.27,5-.08,7.44l-2.65-.21c-1-1-1.76-1.25-1.9.57a7,7,0,0,0,4.54,4.89c.64.79,1.12,1.84,1.94,2.32a69.2,69.2,0,0,0,16.12,7.38c3.83,1.09,7.65.93,11.51.84a6.279,6.279,0,0,0,4.15-1.79c4.75-4.28,10.54-6.28,16.67-7.52a22.557,22.557,0,0,0,3-.66c1.23-.45,2-3,3.67-1.13,1.13,1.3-.06,2.91-.58,4.33a12,12,0,0,1-1.1,2.84c-.45.64-1.72.6-1.86-.14-.57-3-2.33-2.93-4.56-2.16-2,.68-3.94,1.24-5.85,2-3.07,1.19-3.1,1.34-2.63,5.93l.09-.1a12.647,12.647,0,0,0-2.3.14c-2.83.37-2.85.38-2.91,3.66,0,.78,0,1.58-.88,1.8a1.48,1.48,0,0,1-1.31-.51c-1.56-2.79-4-3.31-7-3.72-8.09-1.08-16.14-2.4-23.34-6.86a34.514,34.514,0,0,1-10.14-9.23c-2.25-3.14-2-5.64.89-8.14,1.82-1.56,3.67-2.78,3.54-5.47a113.077,113.077,0,0,1,16.97-8.689Z" transform="translate(8365.291 3729.758)" fill="#fff"/>
    <path id="Path_216" data-name="Path 216" d="M-1175.37,2037.56c-6.47-3.17-8.49-7.44-6.38-13.51a16.322,16.322,0,0,1,3.55-5.94c9.28-9.8,20.14-16.86,33.52-19.71a27.378,27.378,0,0,1,12.28-.11c0,1.66-1.33,1.86-2.46,2.29a33.559,33.559,0,0,0-13.71,1.78c-7.63,2.58-14.86,6-20.71,11.67-4.41,4.28-7.65,9.15-5.76,15.8Z" transform="translate(8365.291 3729.758)" fill="#b5713e"/>
    <path id="Path_217" data-name="Path 217" d="M-1175,2029.83c-1.89-6.65,1.35-11.52,5.76-15.8,5.85-5.68,13.08-9.09,20.71-11.67a33.56,33.56,0,0,1,13.71-1.78c-1.54,3.14-4.47,4.1-7.55,4.69a53.849,53.849,0,0,0-17.75,7.18,31.178,31.178,0,0,0-5.51,4.19c-2.84,2.72-5.33,5.46-5.19,9.86C-1170.78,2028.91-1172.52,2030.12-1175,2029.83Z" transform="translate(8365.291 3729.758)" fill="#fff"/>
    <path id="Path_218" data-name="Path 218" d="M-1044.85,2039.42c-3.85,0-7.71-.05-11.56,0-2.54,0-5-.18-7.51,1.11s-4.44-.25-6.25-1.75c-.27-.22-.24-.9-.22-1.36,0-.18.4-.53.53-.49,4.08,1.08,8-.78,12.08-.67,7.4.2,14.87,1,22.26-.57a7.56,7.56,0,0,1,2.25.17c3.89.41,6.45,1.67,5.62,2.61-1.55,1.78-3.74.82-5.64.9-3.84.16-7.7,0-11.56,0Z" transform="translate(8365.291 3729.758)" fill="#fff"/>
    <path id="Path_219" data-name="Path 219" d="M-928.29,2031.74l3,.65a43.843,43.843,0,0,1,2.85,5.42c1.12,3.11.07,5.32-3,7a26.22,26.22,0,0,1-2.81,1.26c-1.94.79-3,.21-3.13-1.8s0-4.13-.31-6.15C-932.09,2035.06-930.34,2033.36-928.29,2031.74Z" transform="translate(8365.291 3729.758)" fill="#b5713e"/>
    <path id="Path_220" data-name="Path 220" d="M-1149,2017.88a113.089,113.089,0,0,0-17,8.67,6.941,6.941,0,0,1,2.1-5.47,37.72,37.72,0,0,1,16.69-10c1.34,1.61-.27,2.34-.83,3.23a5.82,5.82,0,0,0-.96,3.57Z" transform="translate(8365.291 3729.758)" fill="#b5713e"/>
    <path id="Path_221" data-name="Path 221" d="M-1014.57,2016.23c-1.16-.09-1.46,0-1.66-.15-.38-.22-1-.53-1-.83a1.49,1.49,0,0,1,.67-1.2c7.25-2.57,14.8-3.92,22.29-5.53,1-.21,2-.39,3-.58s2.57-1.35,3.07.61c.33,1.31-1.11,1.65-2,1.86C-998.55,2012.47-1007,2014.44-1014.57,2016.23Z" transform="translate(8365.291 3729.758)" fill="#fff"/>
    <path id="Path_222" data-name="Path 222" d="M-986.24,2014.65a13.706,13.706,0,0,1,1.76.31c.21,0,.57.33.55.41a6.63,6.63,0,0,1-.6,1.33,1,1,0,0,1-.6.45c-6.54,1.07-13.07,2.13-19.62,3.12-.79.12-1.37-.53-1.58-1.35-.15-.56.1-.94.74-1.08C-999.34,2016.51-993.16,2014.84-986.24,2014.65Z" transform="translate(8365.291 3729.758)" fill="#fff"/>
    <path id="Path_223" data-name="Path 223" d="M-1097.69,2048.75c2.64-3.55,5.54-6.65,9.93-8.21a18.5,18.5,0,0,1,10.61-.75c-.73.56-1.07,1-1.49,1.12-6.24,1.14-11.84,3.4-16,8.55-1.07,1.33-2.27.51-3-.81Z" transform="translate(8365.291 3729.758)" fill="#fff"/>
    <path id="Path_224" data-name="Path 224" d="M-1026.1,1994.34l3,.44c1.46,2.11,4.34.59,7,2.63-9.23.22-17.48,1.35-25.41-2.5Z" transform="translate(8365.291 3729.758)" fill="#b5713e"/>
    <path id="Path_225" data-name="Path 225" d="M-1019.85,2058.09l10.36-3.69c1.6,2.44,1.68,3.54.16,4.1C-1012.87,2059.82-1016.44,2060.47-1019.85,2058.09Z" transform="translate(8365.291 3729.758)" fill="#b5713e"/>
    <path id="Path_226" data-name="Path 226" d="M-1029.66,2032.49c-7.26,1.63-13.4.33-20.78.67C-1045.07,2031.08-1038,2030.92-1029.66,2032.49Z" transform="translate(8365.291 3729.758)" fill="#fff"/>
    <path id="Path_227" data-name="Path 227" d="M-1083.24,2056.9l4-.69c1.47.5,3.25-.05,4.43,1.37a5.858,5.858,0,0,1-1.09.55C-1078.54,2058.8-1081.23,2059.86-1083.24,2056.9Z" transform="translate(8365.291 3729.758)" fill="#b5713e"/>
    <path id="Path_228" data-name="Path 228" d="M-978.59,2034.38c-.1.94-.63,1.41-1.48,1.13a5.1,5.1,0,0,1-1.87-1.15,1.521,1.521,0,0,1-.3-1.33,1.35,1.35,0,0,1,.746-.758,1.35,1.35,0,0,1,1.064.018A2.56,2.56,0,0,1-978.59,2034.38Z" transform="translate(8365.291 3729.758)" fill="#b5713e"/>
    <path id="Path_229" data-name="Path 229" d="M-1165.66,2037.3l2.65.21v5.25a7,7,0,0,1-4.54-4.89Z" transform="translate(8365.291 3729.758)" fill="#b5713e"/>
    <path id="Path_230" data-name="Path 230" d="M-1097.62,2048.65c-1.34.62-2.52,1.76-4.16,1.45a1.632,1.632,0,0,1-1.09-.77,1.56,1.56,0,0,1,.68-1.23c1.64-1,3.26-1.36,4.5.65Z" transform="translate(8365.291 3729.758)" fill="#fff"/>
    <path id="Path_231" data-name="Path 231" d="M-1052.73,2044c.28-.7.75-1.23,1.54-1.15.23,0,.42.53.62.82l-1.91.61Z" transform="translate(8365.291 3729.758)" fill="#fff"/>
    <path id="Path_267" data-name="Path 267" d="M-1115.87,2122.72a14.43,14.43,0,0,1,11.62,7.22,2.16,2.16,0,0,1-.38,2.8,3,3,0,0,1-2.07.75,16.29,16.29,0,0,1-11.46-7,3,3,0,0,1-.47-2.13C-1118.37,2123.26-1117.26,2123-1115.87,2122.72Z" transform="translate(8365.291 3729.758)" fill="#fff"/>
    <path id="Path_268" data-name="Path 268" d="M-1188.16,2057.07c3.47-.35,6.6.19,8.76,3.32C-1183,2061-1186.1,2060.43-1188.16,2057.07Z" transform="translate(8365.291 3729.758)" fill="#e6be8b"/>
    <path id="Path_269" data-name="Path 269" d="M-1154,2066.46c2-.68,3.94-1,5.14,1.38C-1151.78,2069.44-1152.17,2069.33-1154,2066.46Z" transform="translate(8365.291 3729.758)" fill="#e6be8b"/>
    <path id="Path_270" data-name="Path 270" d="M-1172.66,2061.81c1.94-.8,3.25-.1,4.11,1.69C-1170.61,2064.64-1171.9,2063.88-1172.66,2061.81Z" transform="translate(8365.291 3729.758)" fill="#e6be8b"/>
    <path id="Path_271" data-name="Path 271" d="M-1160.25,2065c1.56-.61,2.88-.51,3.62,1.26C-1158.72,2067.54-1159,2067.45-1160.25,2065Z" transform="translate(8365.291 3729.758)" fill="#e6be8b"/>
    <path id="Path_358" data-name="Path 358" d="M-948.25,2015.69l-25.29-2.35A2.708,2.708,0,0,1-975,2013a3.54,3.54,0,0,1-1.22-1.83,2.63,2.63,0,0,1,.59-2,8.781,8.781,0,0,1,6.41-2.17c8.52,0,17.07-.5,25.54.11,8.27.6,16.16,3.12,22.82,8.49,1.86,1.49,3.35,3.16,3.36,5.78,0,2-.52,3.51-2.35,4.49-2.74,1.47-5.49,2.77-8.74,2.76a37.473,37.473,0,0,0-10.72,1.11,8,8,0,0,1-7.88-1.91c-7.54-6.66-16.25-8.46-25.93-5.75a10,10,0,0,1-3,.26,1.46,1.46,0,0,1-1.06-.88c-.41-1.89,1.8-5,3.64-5.07a41.31,41.31,0,0,1,7,.06c11.23,1.45,22.44,3,32.84,7.9,2.35,1.1,4.75,2.39,6.94-.33a14,14,0,0,0,3.77,0,2.49,2.49,0,0,0,1.974-1.677,2.49,2.49,0,0,0-.584-2.523,6.755,6.755,0,0,0-1-1.19,38,38,0,0,0-23.55-8.37c-1.56,0-2.27,1-2.24,2.49A23.305,23.305,0,0,0-948.25,2015.69Z" transform="translate(8365.291 3729.758)" fill="#e6be8b"/>
    <path id="Path_359" data-name="Path 359" d="M-948.25,2015.69c-.08-1-.19-2-.21-3.08,0-1.5.68-2.51,2.24-2.49a38,38,0,0,1,23.55,8.37,6.767,6.767,0,0,1,1,1.19,2.49,2.49,0,0,1,.584,2.523,2.49,2.49,0,0,1-1.974,1.677,13.99,13.99,0,0,1-3.77,0C-933.49,2019.9-941,2018.1-948.25,2015.69Z" transform="translate(8365.291 3729.758)" fill="#b5713e"/>
    <path id="Path_360" data-name="Path 360" d="M-1012.5,2030.27c3.32,0,6.78-.67,9.65,1.72a1.64,1.64,0,0,1,.51,1.28,1.5,1.5,0,0,1-.84,1.08c-3.75.84-7.39,2.45-11.36,1.83a32.379,32.379,0,0,1-4.49-1c-1.26-.39-2.4-1.13-2.31-2.69s1.29-2.14,2.65-2.2C-1016.63,2030.2-1014.56,2030.27-1012.5,2030.27Z" transform="translate(8365.291 3729.758)" fill="#e6be8b"/>
    <path id="Path_361" data-name="Path 361" d="M-953.28,2029.55l-18.8-2.7c-.73-.1-1.64-.26-1.44-1.12a2.29,2.29,0,0,1,1.55-1.4c6.65-.86,13.24-1.07,19.11,3a4.28,4.28,0,0,1,1.32,1.7C-951.33,2029.47-952.36,2029.88-953.28,2029.55Z" transform="translate(8365.291 3729.758)" fill="#e6be8b"/>
    <path id="Path_362" data-name="Path 362" d="M-944.12,2051a110.932,110.932,0,0,1-23.39.33,3.471,3.471,0,0,1-3.09-1.94c2.2-.66,4.34-1.45,6.56-1.92a11.272,11.272,0,0,1,4.55-.14C-954.34,2048.43-949.24,2049.76-944.12,2051Z" transform="translate(8365.291 3729.758)" fill="#e6be8b"/>
    <path id="Path_363" data-name="Path 363" d="M-1074.83,2057.58c-1.18-1.42-3-.87-4.43-1.37a5.541,5.541,0,0,1,4.17-1.39c1.08,0,2.83-.55,2.67,1.41C-1072.5,2057.16-1073.75,2057.59-1074.83,2057.58Z" transform="translate(8365.291 3729.758)" fill="#e6be8b"/>
    <path id="Path_364" data-name="Path 364" d="M-1063,2006.39a27.644,27.644,0,0,0-2.88,1.11,2.16,2.16,0,0,0-.84,1.16c-.23.64.11,1,.76,1,2.84.09,5.68.25,8.52.27,8.55.07,16.89,1.7,25.21,3.41,3.77.78,6.08,2.53,5.17,3.37-1.81,1.68-3.91.84-5.86.47-10.61-2-21.15-4.51-32.06-4.45a34.009,34.009,0,0,1-6.08-1c-2.38-.42-4.56-.14-6.33,1.59,0,.34-.15.68,0,.79a1.17,1.17,0,0,0,.73.21l9.3.26a40.068,40.068,0,0,1,4.65.18c2.06.25,3.37,1.17,2.79,3.61-.21.86.84,1.68,1.22,1,2.27-3.73,5.44-4,9.16-2.84.17,1.32-1.28,1.5-1.66,2.4a3,3,0,0,0-.16,1.34c0,.11.44.27.68.3,1.93.17,3.41-1.07,5.1-1.63,1.21-.4,2.6-1.19,3.65-.89,2.4.68,5.12.47,7.19,2.24-1,3.15-4,2.49-6.26,3.37-5.87,2.36-11.6,0-17.39-.57-1.53-.16-3-.83-4.55-.78-14.22.45-28.31-2.32-42.54-1.64-6.46.31-12.94,0-19.4,0a12.692,12.692,0,0,1-6.71-1.57,2.87,2.87,0,0,1-1.574-2.076,2.87,2.87,0,0,1,.754-2.494c1.39-1.51,2.8-3.25,4.58-4.11,12.58-6,25.41-11.41,39.45-13.08-.16,2.29.28,2.88,1.71,2.23,3-1.39,6-3,9.36-3.43,1.19,1.43,2.67,1.31,4.18.67a5,5,0,0,1,3.7-.51.83.83,0,0,1,.5.55c0,.46,0,1.25-.18,1.33-2.15.81-4.32,1.59-6.52,2.21-7.4,2.09-14.82,4.09-22.21,6.17a28,28,0,0,0-9,4.27,2.679,2.679,0,0,0-1.124,1.9,2.68,2.68,0,0,0,.684,2.1,6.38,6.38,0,0,0,6.85,2.41,156.2,156.2,0,0,0,28.25-10,20.9,20.9,0,0,0,6.09-4.65c1.81-1.85,3.84-2.49,6.27-1.4C-1060.06,2003.55-1061.81,2004.8-1063,2006.39Zm-64.57,9.21a7.731,7.731,0,0,0,6.7.12c2.73-1.32,6.23.19,8.38-2.6-2.73-3.17-5.49.68-8.3,0a9,9,0,0,0-3.79.34c-1.24.27-2.5.69-3,2.14Z" transform="translate(8365.291 3729.758)" fill="#e6be8b"/>
    <path id="Path_365" data-name="Path 365" d="M-1077.37,1996.24c-3.39.41-6.33,2-9.36,3.43-1.43.65-1.87.06-1.71-2.23-1-2-3-1.9-4.69-1.89a30.862,30.862,0,0,0-9.89,1.56,4.66,4.66,0,0,1-4.42-.57c-.41-.3-.92-.66-1-1.09s.28-.87.53-1.28a1.35,1.35,0,0,1,.62-.44c8.59-3.8,17.47-6.25,27-5.62a14.752,14.752,0,0,1,9.14,3.68,1.41,1.41,0,0,1,.583,1.331,1.41,1.41,0,0,1-.9,1.139C-1073.46,1995-1075.42,1995.58-1077.37,1996.24Z" transform="translate(8365.291 3729.758)" fill="#b5713e"/>
    <path id="Path_366" data-name="Path 366" d="M-1141.27,2031.64c1-1.5,2.51-1.66,4.07-1.73,9.27-.44,18.55-.39,27.82.09.34,0,.67.47,1.59,1.16-6.45,1.27-12.14,3.57-18.33,3.67-3.17.05-6.21.46-8.49,3-3.38,3.68-7.76,3.59-12.18,3.28-1.6-.11-3.08-.85-3.43-2.59-.44-2.13.77-3.36,2.73-4,.41,1.12.29,2.59,1.72,3,1.68.53,2.84-.42,3.8-1.63S-1141.23,2033.11-1141.27,2031.64Z" transform="translate(8365.291 3729.758)" fill="#e6be8b"/>
    <path id="Path_367" data-name="Path 367" d="M-1047.74,2001.94c5.77.32,10.68,2.87,15.4,5.92a1.62,1.62,0,0,1,.55,1.27,1.224,1.224,0,0,1-.92.84c-6.5-.76-13-1.58-19.48-2.41-.22,0-.42-.28-.62-.44C-1048.39,2006.31-1048.39,2006.31-1047.74,2001.94Z" transform="translate(8365.291 3729.758)" fill="#e6be8b"/>
    <path id="Path_368" data-name="Path 368" d="M-1047.74,2001.94c-.65,4.37-.65,4.37-5.07,5.18l-10.2-.73c1.2-1.59,3-2.84,3.12-5.06l7.15-.63c1.4,1.32,3.12,1.37,4.9,1.22Z" transform="translate(8365.291 3729.758)" fill="#b5713e"/>
    <path id="Path_369" data-name="Path 369" d="M-1088.31,2008.4c4.44-4,9.73-5.15,15.51-4.66l-.07-.09c-4.41,4.1-9.72,5.18-15.51,4.67Z" transform="translate(8365.291 3729.758)" fill="#e6be8b"/>
    <path id="Path_370" data-name="Path 370" d="M-1129.09,2006.41c3-3.31,5.35-5.73,9.19-5.73a1.53,1.53,0,0,1,1.21.7,1.44,1.44,0,0,1-.48,1.32,51.938,51.938,0,0,1-4.72,2.36A10.078,10.078,0,0,1-1129.09,2006.41Z" transform="translate(8365.291 3729.758)" fill="#b5713e"/>
    <path id="Path_371" data-name="Path 371" d="M-1141.27,2031.64c0,1.47.32,3-.7,4.29s-2.12,2.16-3.8,1.63c-1.43-.45-1.31-1.92-1.72-3a9.06,9.06,0,0,1,6.22-2.92Z" transform="translate(8365.291 3729.758)" fill="#b5713e"/>
    <path id="Path_372" data-name="Path 372" d="M-1088.38,2008.32c.11,2.94-2.26,3-4.16,3.6-.81.25-1.63,0-1.71-.85a2.48,2.48,0,0,1,.7-2c1.58-1,3.44-.82,5.24-.67Z" transform="translate(8365.291 3729.758)" fill="#e6be8b"/>
    <path id="Path_373" data-name="Path 373" d="M-1101.73,2014.3c-.43-.2-1-.3-1.27-.65a1.34,1.34,0,0,1,.09-1.3,18.3,18.3,0,0,1,3.26-1.76c.28-.12,1,.29,1.17.63a2,2,0,0,1-.13,1.41,2.86,2.86,0,0,1-3.12,1.67Z" transform="translate(8365.291 3729.758)" fill="#e6be8b"/>
    <path id="Path_374" data-name="Path 374" d="M-1047.84,2001.92c-1.78.15-3.5.1-4.9-1.22C-1050.9,2000.26-1049.11,2000-1047.84,2001.92Z" transform="translate(8365.291 3729.758)" fill="#e6be8b"/>
    <path id="Path_375" data-name="Path 375" d="M-1072.8,2003.74a4.844,4.844,0,0,1,.84-1c.5-.35.93-.13,1,.46,0,.08-.35.29-.57.33a12.5,12.5,0,0,1-1.37.16Z" transform="translate(8365.291 3729.758)" fill="#e6be8b"/>
    <path id="Path_376" data-name="Path 376" d="M-1165.66,2037.3l-1.9.57C-1167.42,2036.05-1166.64,2036.33-1165.66,2037.3Z" transform="translate(8365.291 3729.758)" fill="#e6be8b"/>
    <path id="Path_528" data-name="Path 528" d="M-1127.58,2015.6c.5-1.45,1.76-1.87,3-2.15a9,9,0,0,1,3.79-.34c2.81.69,5.57-3.16,8.3,0-2.15,2.79-5.65,1.28-8.38,2.6a7.73,7.73,0,0,1-6.71-.11Z" transform="translate(8365.291 3729.758)" fill="#fff"/>
  </g>
</svg>
