<svg xmlns="http://www.w3.org/2000/svg" width="212.047" height="211.161" viewBox="0 0 212.047 211.161">
  <g id="s6" transform="translate(-6823.807 -3559.651)">
    <path id="Path_447" data-name="Path 447" d="M-1539.13-6.65c0-38.79.1-77.58-.25-116.37-.07-8.19,3.09-13.85,9.46-18.27,1.06-.73,2.18-1.37,3.27-2.06,3.36.14,3.76.43,2.78,2.3-1.26,2.4-2,5.15-4.31,6.88a6.39,6.39,0,0,0-5.1,4.35c-2.8,2.66-3.06,5.5-.85,8.72,2,2.91,3.77,6,7.35,7.2,2.3,2.27,5.25,3.47,8.08,4.86,3.89,1.93,7.75,4,12.16,4.5,2,.61,3.9,1.29,5.88,1.81,1.42.38,2.4-.33,3.18-1.55.58-.9.12-2.65,2-2.63,1.8,1.57,1.51,4.49,3.72,5.74,4.07,2.18,8.49,2.61,13,2.57,2.84,1.15,5.82-.36,8.67.43.61.38,1.22,1.09,1.84,1.11,4.36.13,8.72.11,13.08.15a17.84,17.84,0,0,0,8.22,0,51.79,51.79,0,0,0,15-.17c1.78.05,3.55.13,5.32.16,2.2,0,3.82-.53,4.58-3,.45-1.48,2-1.36,2.94-.08a3.83,3.83,0,0,0,3.93,1.66,94.509,94.509,0,0,0,18-3.13c6-.1,11.52-2.47,17.15-4.2,2.43-.74,5-1.17,6.87-3.21,2.57-.5,4.62-2.07,6.84-3.29a5.46,5.46,0,0,0,3-5.69c-.11-1.27-.3-2.53-.34-3.8a2.25,2.25,0,0,1,1.45-2.43c4.18-1.16,6.22-5.06,9.54-7.3,1.84,3.09,1.38,6.51,1.38,9.85v92.35c0,2.83.23,5.67.35,8.5a35.546,35.546,0,0,0-.34,3.84c.11,8.43-3,15.59-8.48,21.85a58.111,58.111,0,0,1-13.74,11.25,102.9,102.9,0,0,1-26.3,11.17,172.47,172.47,0,0,1-80.6,2.71c-14-2.78-27.46-7.3-39.49-15.28-7.87-5.21-14.65-11.46-18.17-20.56C-1538.14-6.11-1538.73-6.34-1539.13-6.65Zm13.25-88.17a2.912,2.912,0,0,0-.14-.74c-.35-1.2-.5-2.76-2-3s-2.2,1.27-2.41,2.51a31.411,31.411,0,0,0-.35,5.4,213.284,213.284,0,0,0,1.56,27.05c1.7,12.77,2.32,25.7,3.29,38.57a55.3,55.3,0,0,0,3.75,15.75c.16.42.8,1,1.13.92a3.07,3.07,0,0,0,1.92-.95c2-2.77,1.5-6,1.12-9-.74-5.88-1.62-11.75-2.81-17.55-1.51-7.33-2.12-14.84-4.49-22a34.346,34.346,0,0,1-1.69-11.4c.09-5.95.09-11.9.28-17.85C-1526.64-89.68-1526.18-92.23-1525.88-94.82Z" transform="translate(8365.291 3729.758)" fill="#060a02"/>
    <path id="Path_448" data-name="Path 448" d="M-1446.91-96.87a17.84,17.84,0,0,1-8.22,0c1.41-3.29,1.41-3.29-.93-4.46l-6-2.94c.11-.68.21-1.35.32-2,1.76.35,3.52.75,5.29,1,.71.11,1.82.2,2.14-.19,3-3.61,7.51-5.47,10.28-9.3,1.67-2.32,1.61-4-.43-6.15a5.15,5.15,0,0,0-6.31-1.38l.1-.21c-1.85-2.54-1.85-2.54-4.32-.3-2,1.34-4.15,2.61-5.61,4.67-2.72,2-2.73,2.16-.08,4h.2l-2.37,5.7c-1.86-.49-2.9.61-3.54,2a22.621,22.621,0,0,0-1,3.62c-2.14.78-1.32,3.34-2.73,4.55-2.86-.79-5.84.72-8.67-.43-4.75-2.9-4.73-2.88-.56-6.21a26.5,26.5,0,0,0,3.32-3.12c3.82-4.34,3.79-4.36,0-9.09a9,9,0,0,1-.72-1.33,7.7,7.7,0,0,1,4.51.64c1.74.9,3.52,1,5-.39,2.16-2.13,5-3.78,5.7-7a3,3,0,0,0-.52-2.16,11.789,11.789,0,0,0-2.7-2.67c-1.41-1-2.34,0-3.07,1.19-1.77-1.1-3.51-2.24-5.76-1.48a9,9,0,0,0-5.53,5.08c-.84,2,0,3.51,2.12,4.17,0,.83.07,1.67.11,2.5-1.43.17-2.67.62-3.26,2.09-3.22-2.19-6.11-1.37-8.82,1-2.52,2.2-2.15,4.8-1,7.5-2.16,1-2.36,2.36-.87,4.09,1.24,1.43.44,2.14-.92,2.67-2.21-1.25-1.92-4.17-3.72-5.74-1.91,0-1.45,1.73-2,2.63-.78,1.22-1.76,1.93-3.18,1.55-2-.52-3.92-1.2-5.88-1.81.57-4.26,4.28-7,5.41-11a2.22,2.22,0,0,1,2.55-1.31c3.53.31,5.57-1.71,7.71-4.19s3.63-4.88,3.29-8.2c1.9.8,3.71,1.82,5.61-.24,2-2.2,4.34-4.18,6.56-6.29a31.8,31.8,0,0,1-2-2.89,25.4,25.4,0,0,1-1.1-2.87l.22-.29c2.29-.25,3.56,1.9,5.11,2.26,5.32-1.51,8-6,12.07-8.68a1.91,1.91,0,0,0,.85-1.239,1.91,1.91,0,0,0-.31-1.471c-.77-1.32-1.36-3.07-2.53-3.75-2.55-1.49-1-3.59-1.36-5.4q1.17-2.08,2.33-4.17l1.85,1.55c-.6,1.93-.7,3.79.79,5.41,2.61,8.19,4.11,8.71,10.47,3.91,2.33-1.76,3.45-4.34,5.09-6.56,1.38-1.86,1-3-.61-4.61a4.94,4.94,0,0,0-5.54-1.31,9.12,9.12,0,0,0-7.31.19l-1.61-1.81c8.65-4.41,14.35-3.22,20.06,4.2,2.82,3.65,7.08,4.33,10.37,1,4.47-4.49,9.54-5.74,15.47-4.23.66.16,1.18.87,1.76,1.32-1.83.43-4,0-5.08,2.2-4.73-1.44-8.43-.33-10.71,4.31l-3.25.08a31.368,31.368,0,0,0-3.6-.46c-3.68,0-3.81.21-2.76,4.44-2,.55-4.44.08-5.63,2.48-1.26,1.13-2.78,2.07-3.71,3.42-1.35,1.94-1.68,4.12.58,5.86,2.58,6.12,3.45,6.52,9.16,3.62a5.19,5.19,0,0,1,5-.13c.34,1.94-.84,4.71,2.7,4.89.06,1.86.52,3.52,2.29,4.49a5.39,5.39,0,0,0,5.1,0,11.44,11.44,0,0,0,4.79-3.56c3.8-5.15,3.68-6.53-1.36-10.35a2.061,2.061,0,0,0-.66-.37,2,2,0,0,0-2.44,1.21c-4.48-1.65-7.69.35-10.43,3.65-.33-1.78-.75-3.69.83-5,2.12-1.8,1.73-4.11,1.69-6.4l.28-.33c2.65.83,3.64,5.14,6.88,4.05,2.55-.87,4.69-3,6.94-4.69a11.16,11.16,0,0,0,2.11-2.23c1.22-1.6,3-3.14,3.33-4.92.25-1.39-1.37-3.1-2.07-4.71a4.28,4.28,0,0,1,0-1.52,6.74,6.74,0,0,1,5.74,4.59c.94,2.49,3,3.38,4.8,4.73-.86.64-2.68-.18-2.71,1.75-.3.95-.59,1.91-.89,2.86-3.21-.42-6,.21-8.08,3-.74,1-1.65,2-.78,3.36a2.58,2.58,0,0,0,3.27,1.11,15,15,0,0,0,2.37,8.41c6.2-3.61,12.37-7.21,11.51-15.89,3.44.92,3.6.76,3-2.94l2.69-2.05,1.75,1.44a9.291,9.291,0,0,0-.69,5.43,3.807,3.807,0,0,0-1.13.71c-.13.17.11.64.18,1,.18-.06.46-.06.53-.18a11.719,11.719,0,0,0,.55-1.26l2.44.55c5.81,4.87,8.1,4.78,12.43-.47a10.328,10.328,0,0,1,1.47-1.74c1.72-1.33,1.83-2.89,1-4.73-.44-.91-.74-1.9-1.1-2.85.19-.19.37-.39.56-.59,3.23,1.13,4.68,3.94,5.81,6.76.73,1.81,1.48,3.2,3.42,3.7,7.73,2,10.74,7.25,10.47,14.86a17.649,17.649,0,0,0,.19,2.29c-3.32,2.24-5.36,6.14-9.54,7.3a2.25,2.25,0,0,0-1.45,2.43c0,1.27.23,2.53.34,3.8a5.46,5.46,0,0,1-3,5.69c-2.22,1.22-4.27,2.79-6.83,3.29-4.08-.8-4.08-.8-4.22-4.86a6.43,6.43,0,0,0,4.12-1.84c1.82-1.8,3.72-3.51,5.72-5.37a8.42,8.42,0,0,0-3.5-5.6c-1.67-1.28-2.81-.54-3.73,1-1.94-1.32-3.85-2.33-6.34-1.18a8,8,0,0,0-4.65,4.72,3.74,3.74,0,0,0,1.11,4.13c-2.16,1.06-5.13.47-6.47,3.19-3.37,1.9-5.57,4.43-4.53,8.65-2.12,1-2,2.72-1.54,4.57a94.51,94.51,0,0,1-18,3.13A3.83,3.83,0,0,1-1419-100c-.91-1.28-2.49-1.4-2.94.08-.76,2.51-2.38,3.07-4.58,3-1.77,0-3.54-.11-5.32-.16.37-2.09,1.81-3.46,3.11-5,1.79-2.11,1.57-3.27-.25-5.1a5.27,5.27,0,0,0-6.13-1.34l.14-.2c-2.5-2.5-3.1-2.51-6-.1-2.65,1.85-4.79,4-4.54,7.57C-1447.52-100.22-1447.21-98.54-1446.91-96.87Zm45.81-31.93-.16-1.14-.87.67c-3.09-.33-6.1-.42-8.3,2.39a2.65,2.65,0,0,0-.32,3.44,2.289,2.289,0,0,0,1.5,1.042,2.29,2.29,0,0,0,1.783-.382c.19,1.26.41,2.5.55,3.76.6,5,2.05,5.78,5.94,2.93,2-1.51,3.41-3.78,5.22-5.45,2.17-2,1.45-4,1.37-6.18,6,.62,10.08-2.72,13.68-6.9,2.3-2.68,2-4.83-.72-7.14a5.19,5.19,0,0,0-5-.91l-.13-.14c-.33-.76-.55-1.88-1.55-.48a8.59,8.59,0,0,0-8.64,5c-1,.3-1.82.67-2,1.82a4.49,4.49,0,0,0,2.07,5.1c1.33.84,2.35,1.78,2.23,3.49-2.11-1-4.23-1.89-6.61-.87Zm-35.77-2.92c-1.51-2.7-1.63-2.72-4.14-.4-1.84,1.21-4.12,1.79-5.3,4-.83,1.53-.39,2.83,1.55,3.29a6.23,6.23,0,0,0,2.18-.28c4,7.21,5.43,10,12,.84a3.541,3.541,0,0,1,.58-.5c1.16-1.07.93-2.23.3-3.47-1.84-3.68-2.56-4-7.33-3.08Zm7.35,17.48h.3c-.37,1-.84,2.07,0,2.84,1.88,1.67,3.92,3.16,5.79,4.65a21.431,21.431,0,0,0,10.63-9.72c1.13-2,.92-3-.75-4.66a5.18,5.18,0,0,0-5.6-1.29v-.12c-.35-.68-.46-2-1.58-.58-4-.35-6.69,1.71-9,4.64-2.36,2.11-2.33,2.92.21,4.24Zm-30.06-27.12c-2,1.7-4.68,2.8-4.93,6-.14,1.68.62,2.32,3.23,2.37a7.56,7.56,0,0,0,2.57,3.77c2,1.69,3.77,1.94,5.49.26,2.34-2.27,5.92-3.8,6.76-6.94.78-2.87-3.5-4.15-4-7a1.9,1.9,0,0,0-.23-.72c-1.69-2.38-4.12-2.59-6.28-.51a34.207,34.207,0,0,0-2.61,2.77Zm85.63,4.21c0,1.8-.16,3.61,0,5.4s1.69,2.57,3.4,2a23.52,23.52,0,0,0,12.12-9.1,2.42,2.42,0,0,0,.6-1.763,2.42,2.42,0,0,0-.83-1.667,24.552,24.552,0,0,0-3.36-3.17c-1.35-1-2.36-.19-3.09,1.07-2.94-1.84-5.78-1.39-8.42.57-1.51,1.13-2.42,2.58-1.22,4.55a13.735,13.735,0,0,1,.8,2.11Zm-30.75,27.88c-.33-.34-.61-.92-1-1-4.38-.93-8,1.09-8.86,5-.25,1.16-.41,2.67,1,3.29,1.2.52,1.84-.6,2.35-1.44,1.4-2.34,3.81-3.29,6-4.6.3-.18.34-.82.51-1.25Z" transform="translate(8365.291 3729.758)" fill="#fe7649"/>
    <path id="Path_449" data-name="Path 449" d="M-1539.13-6.65c.4.31,1,.54,1.15.94,3.52,9.1,10.3,15.35,18.17,20.56,12,8,25.49,12.5,39.49,15.28a172.47,172.47,0,0,0,80.6-2.71,102.9,102.9,0,0,0,26.3-11.17A58.111,58.111,0,0,0-1359.68,5c5.47-6.26,8.59-13.42,8.48-21.85a35.547,35.547,0,0,1,.34-3.84,41.461,41.461,0,0,1,18.54,15.81c4.32,6.75,3.62,13.26-1,19.49a35.148,35.148,0,0,1-10.34,9.21c-8.94,5.45-18.72,8.74-28.75,11.22a154.34,154.34,0,0,1-38.28,5c-3.87,0-7.77-.23-11.58.81a5.13,5.13,0,0,1-2.3.13c-7.16-1.51-14.46-.53-21.65-1.2-25-2.36-49.58-6.86-72.29-18.47a59.769,59.769,0,0,1-17.17-13.07,22.721,22.721,0,0,1-5.75-12.46,2,2,0,0,1,.494-1.837,2,2,0,0,1,1.807-.593Z" transform="translate(8365.291 3729.758)" fill="#b8b5aa"/>
    <path id="Path_450" data-name="Path 450" d="M-1464.44-160.08c.32,1.81-1.19,3.91,1.36,5.4,1.17.68,1.76,2.43,2.53,3.75a1.91,1.91,0,0,1,.31,1.471,1.91,1.91,0,0,1-.85,1.239c-4.06,2.69-6.75,7.17-12.07,8.68-1.55-.36-2.82-2.51-5.11-2.26-1.83-1.73-2.63-4-3.69-6.21s-5-2-6.34-4.76l-1-2a11.552,11.552,0,0,1,3.92-4.47c1.15-.75,3.51-.85,3.12-2.61-.49-2.23-2.8-1.45-4.46-1.42a10.7,10.7,0,0,0-2.2.48c0-.77-.1-1.53-.14-2.29,6.31-3.12,12.22-2,16.6,3.11C-1469.81-158.91-1467.5-159-1464.44-160.08Zm-3.41,6.74c-2.85-2.9-5.23-2.54-7.54-1.07s-4,3.18-3.85,6.06c0,.6.74,1.26,1.29,1.69a1.33,1.33,0,0,0,1.31-.12C-1474.53-149.76-1471.49-151.55-1467.85-153.34Z" transform="translate(8365.291 3729.758)" fill="#b5713e"/>
    <path id="Path_451" data-name="Path 451" d="M-1528.18-134.17c2.32-1.73,3-4.48,4.31-6.88,1-1.87.58-2.16-2.78-2.3,5.36-4.38,11.71-6.54,18.3-8.18l1.48,1.31a.75.75,0,0,1-.43.7l-5.4,5.13a8.41,8.41,0,0,0-5.66,1.17c-2.62,1.55-4,3.6-3.12,6.73-.17.94-.35,1.89-.52,2.83l-.5.62-4.59.17Z" transform="translate(8365.291 3729.758)" fill="#b5713e"/>
    <path id="Path_452" data-name="Path 452" d="M-1489-165.11c0,.76.09,1.52.14,2.29-2.4,2.18-4.35,4.53-2.81,8.08-.26.26-.51.53-.77.8-1.8-.14-3.62-.33-4.62,1.7l-4.71-1.07-3.66-1c2.35-2.34,6-1.44,8.41-3.21s3.28-5.11,5.92-6.83a10.142,10.142,0,0,1,2.1-.76Z" transform="translate(8365.291 3729.758)" fill="#fe7649"/>
    <path id="Path_453" data-name="Path 453" d="M-1388.92-158c5.23-4.1,10.66-5,16.41-1l-.55.59c-2.12-.16-4.42-1.06-5.92,1.41-3-2.09-5.69-.7-8.36.8Z" transform="translate(8365.291 3729.758)" fill="#fe7649"/>
    <path id="Path_454" data-name="Path 454" d="M-1403.52-154.1c0-1.93,1.85-1.11,2.71-1.75l7.68,1.62c.61,3.7.45,3.86-3,2.94a8.32,8.32,0,0,0-7.39-2.81Z" transform="translate(8365.291 3729.758)" fill="#060a02"/>
    <path id="Path_455" data-name="Path 455" d="M-1462.11-164.25a6.24,6.24,0,0,1,3.13-3.23l1.61,1.81-2.89,3Z" transform="translate(8365.291 3729.758)" fill="#fe7649"/>
    <path id="Path_456" data-name="Path 456" d="M-1505.45-154.27l3.66,1-3.72,1.6c-.4-.48-.81-.95-1.22-1.42Z" transform="translate(8365.291 3729.758)" fill="#b5713e"/>
    <path id="Path_457" data-name="Path 457" d="M-1508.35-151.53l1.62-1.6,1.22,1.41-1.36,1.5Z" transform="translate(8365.291 3729.758)" fill="#b5713e"/>
    <path id="Path_458" data-name="Path 458" d="M-1390.45-156.28l1.53-1.69,1.58,1.77-1.36,1.36Z" transform="translate(8365.291 3729.758)" fill="#fe7649"/>
    <path id="Path_459" data-name="Path 459" d="M-1525.88-94.82c-.3,2.59-.76,5.14-.84,7.71-.19,6-.19,11.9-.28,17.85a34.336,34.336,0,0,0,1.68,11.45c2.37,7.14,3,14.65,4.49,22,1.19,5.8,2.07,11.67,2.81,17.55.38,3,.85,6.25-1.12,9a3.07,3.07,0,0,1-1.92.95c-.33.06-1-.5-1.13-.92A55.3,55.3,0,0,1-1525.94-25c-1-12.87-1.59-25.8-3.29-38.57a213.246,213.246,0,0,1-1.56-27,31.411,31.411,0,0,1,.35-5.4c.21-1.24.81-2.71,2.41-2.51s1.66,1.75,2,3A4.854,4.854,0,0,1-1525.88-94.82Z" transform="translate(8365.291 3729.758)" fill="#b5713e"/>
    <path id="Path_460" data-name="Path 460" d="M-1512.7-144.39l5.4-5.13c-.1,1.61-.19,3.21-.28,4.81-2.21,1.13-2,2.92-.77,4.42,1.55,1.88,2.81,4.4,5.9,4.21a1.18,1.18,0,0,0,.68-.31c3.49-3.28,7.92-5.41,10.76-9.56,1.29-1.89,1.36-2.91.1-4.58a16.009,16.009,0,0,1-1.55-3.41c.26-.27.51-.54.77-.8l2.43-.06,1,2c1.31,2.77,5.26,2.45,6.34,4.76s1.86,4.48,3.69,6.21l-.21.29-5.91.51.31-.11c-2.43-2.45-2.83-2.47-5.11-.25A42.274,42.274,0,0,0-1493-138c-1.18,1.28-1.89,2.86-1.07,4.69-1.87,1-4.46.5-5.83,2.64-1.49.92-3,1.76-4.45,2.78a4.44,4.44,0,0,0-1.73,4c.06,2,1.28,2.49,3,2.08a2.89,2.89,0,0,1-3,1.94,3.49,3.49,0,0,0-3.27,1.53c-1.71-.26-3.37-.65-5.14-.08a7.62,7.62,0,0,0-4.3,3.82c-1,1.76-.58,3.29.19,4.89l-.16.73c-2.83-1.39-5.78-2.59-8.07-4.86a30.437,30.437,0,0,1,3.24-4.26c3-2.79,6.15-5.4,9.3-8,.89-.74,1.56-1.58.9-2.56-2.05-3-4.29-5.92-8.67-4.92.17-.94.35-1.89.52-2.83.73,0,1.65.33,2.14,0,2.38-1.64,4.72-3.37,6.93-5.24C-1511.53-142.48-1512.33-143.53-1512.7-144.39Z" transform="translate(8365.291 3729.758)" fill="#fe7649"/>
    <path id="Path_461" data-name="Path 461" d="M-1509.29-118.4a3.49,3.49,0,0,1,3.27-1.53,2.89,2.89,0,0,0,3-1.94,10,10,0,0,1,5.79-5.2,1.93,1.93,0,0,0,1.286-1.177,1.93,1.93,0,0,0-.187-1.733l.9-.94h4.5l.15.12c.55,1.35,1.65,1.58,2.94,1.44l.11.13c.34,3.32-1.16,5.75-3.29,8.2s-4.18,4.5-7.71,4.19a2.22,2.22,0,0,0-2.55,1.31c-1.13,4-4.84,6.72-5.41,11-4.41-.54-8.27-2.57-12.16-4.5l.16-.73c3.75-1.8,6.1-5.46,9.76-7.4a11.082,11.082,0,0,0-.56-1.24Z" transform="translate(8365.291 3729.758)" fill="#b5713e"/>
    <path id="Path_462" data-name="Path 462" d="M-1522-133.66c4.38-1,6.62,1.88,8.67,4.92.66,1,0,1.82-.9,2.56-3.15,2.62-6.31,5.23-9.3,8a30.44,30.44,0,0,0-3.24,4.26c-3.59-1.24-5.37-4.29-7.36-7.2-2.21-3.22-1.95-6.06.85-8.72l1.44,1.17c-.08,1.25-.43,2.53.32,3.71.58.91,1.55,1.78,2.3.7a21.43,21.43,0,0,1,7.36-6.35c1.17-.66,0-1.7-.64-2.45Z" transform="translate(8365.291 3729.758)" fill="#b5713e"/>
    <path id="Path_463" data-name="Path 463" d="M-1476.67-118.35a9,9,0,0,0,.72,1.33c3.79,4.73,3.82,4.75,0,9.09a26.478,26.478,0,0,1-3.32,3.12c-4.17,3.33-4.19,3.31.56,6.21-4.53,0-9-.39-13-2.57,1.36-.53,2.16-1.24.92-2.67-1.49-1.73-1.29-3.12.87-4.09l9.87-8.48c.59-1.47,1.83-1.92,3.26-2.09Z" transform="translate(8365.291 3729.758)" fill="#b5713e"/>
    <path id="Path_464" data-name="Path 464" d="M-1391.06-114.69c1.34-2.72,4.31-2.13,6.46-3.19h.52c1.34,2.8,3.73,3.86,6.65,4.06l.11.08c.14,4.06.14,4.06,4.22,4.86-1.84,2-4.45,2.47-6.88,3.21-5.63,1.73-11.12,4.1-17.15,4.2-.43-1.85-.58-3.59,1.54-4.58.73,0,1.8.27,2.14-.1a24.07,24.07,0,0,1,7.45-6c.82-.39.33-1.82-.67-2.3C-1388.12-115.2-1389.58-114.91-1391.06-114.69Z" transform="translate(8365.291 3729.758)" fill="#b5713e"/>
    <path id="Path_465" data-name="Path 465" d="M-1446.91-96.87c-.3-1.67-.61-3.35,1.33-4.33.84,1.13,2.14,2,3,.62,1.78-2.73,4.43-4.15,7-5.8.4-.26.25-1.37.36-2.09a5.27,5.27,0,0,1,6.13,1.34c1.82,1.83,2,3,.25,5.1-1.3,1.53-2.74,2.9-3.11,5a51.79,51.79,0,0,1-14.96.16Z" transform="translate(8365.291 3729.758)" fill="#b5713e"/>
    <path id="Path_466" data-name="Path 466" d="M-1462-104.31l6,2.94c2.34,1.17,2.34,1.17.93,4.46-4.36,0-8.72,0-13.08-.15-.62,0-1.23-.73-1.84-1.11,1.42-1.21.6-3.77,2.74-4.55.84,1.6,1.87,2.34,3.37.68C-1463.28-102.78-1462.67-103.55-1462-104.31Z" transform="translate(8365.291 3729.758)" fill="#b5713e"/>
    <path id="Path_467" data-name="Path 467" d="M-1533.28-129.82a6.39,6.39,0,0,1,5.1-4.35l1.09,1.3a14.261,14.261,0,0,0-4.75,4.22Z" transform="translate(8365.291 3729.758)" fill="#b5713e"/>
    <path id="Path_468" data-name="Path 468" d="M-1428.8-150.82c0,2.29.43,4.6-1.69,6.4-1.58,1.35-1.16,3.26-.83,5h0a5.21,5.21,0,0,0-5,.13c-5.71,2.9-6.58,2.5-9.16-3.62,2.61-2.36,4.73-5.33,8.2-6.68.26-.1.48-.87.38-1.23a2,2,0,0,0-1-1.09c-1.43-.78-3-.41-4.49-.28,1.19-2.4,3.63-1.93,5.62-2.47,5.36.2,5.36.2,6.37-4l3.25-.08c.19,1.23-.25,2.77.91,3.56,1.49,1,2.21-.53,2.94-1.43a11.28,11.28,0,0,1,5.4-4.06c1.18-.37,1.35-1.36,1.46-2.38,1-2.23,3.25-1.77,5.08-2.2h0a4.28,4.28,0,0,0,0,1.52c.7,1.61,2.32,3.32,2.07,4.71-.33,1.78-2.11,3.32-3.33,4.92a11.164,11.164,0,0,1-2.11,2.23c-2.25,1.67-4.39,3.82-6.94,4.69-3.24,1.09-4.23-3.22-6.88-4.05a5.809,5.809,0,0,0-1-1.06.75.75,0,0,0-.745-.083.75.75,0,0,0-.445.6.948.948,0,0,0,.49.53A11.912,11.912,0,0,0-1428.8-150.82Z" transform="translate(8365.291 3729.758)" fill="#b5713e"/>
    <path id="Path_469" data-name="Path 469" d="M-1450.74-122.33a5.15,5.15,0,0,1,6.31,1.38c2,2.14,2.1,3.83.43,6.15-2.77,3.83-7.3,5.69-10.28,9.3-.32.39-1.43.3-2.14.19-1.77-.27-3.53-.67-5.29-1l-1.11-2.06q1.18-2.85,2.36-5.71c.45.26,1.15.84,1.3.72q4.62-3.72,9.1-7.63A6.848,6.848,0,0,0-1450.74-122.33Z" transform="translate(8365.291 3729.758)" fill="#b5713e"/>
    <path id="Path_470" data-name="Path 470" d="M-1394.51-127.86c.12-1.71-.9-2.65-2.23-3.49a4.49,4.49,0,0,1-2.07-5.1c.23-1.15,1.09-1.52,2-1.83-.09,1.5-.4,3.25,1.35,3.88,1.45.53,2.06-1.07,2.78-2,1.62-2.05,3.9-3.07,6.07-4.31.31-.18.09-1.3.12-2a5.19,5.19,0,0,1,5,.91c2.74,2.31,3,4.46.72,7.14-3.6,4.18-7.64,7.52-13.68,6.9Z" transform="translate(8365.291 3729.758)" fill="#b5713e"/>
    <path id="Path_471" data-name="Path 471" d="M-1365.15-144.37c.73-1.26,1.74-2.06,3.09-1.07a24.559,24.559,0,0,1,3.36,3.17,2.42,2.42,0,0,1,.83,1.667,2.42,2.42,0,0,1-.6,1.763,23.521,23.521,0,0,1-12.12,9.1c-1.71.56-3.27-.28-3.4-2s0-3.6,0-5.4c2.6-2.13,5-4.57,8.11-6C-1365.49-143.28-1365.37-143.94-1365.15-144.37Z" transform="translate(8365.291 3729.758)" fill="#b5713e"/>
    <path id="Path_472" data-name="Path 472" d="M-1459.58-141.36c.85-.94,1.66-1.93,2.57-2.81,2.16-2.08,4.59-1.87,6.28.51a1.9,1.9,0,0,1,.23.72c.54,2.89,4.82,4.17,4,7-.84,3.14-4.42,4.67-6.76,6.94-1.72,1.68-3.5,1.43-5.49-.26a7.57,7.57,0,0,1-2.57-3.76c1-2.84,3.61-3.91,6-5.24.6-.33,1.4-.79,1.07-1.53a2.72,2.72,0,0,0-1.68-1.32,23.269,23.269,0,0,0-3.65-.25Z" transform="translate(8365.291 3729.758)" fill="#b5713e"/>
    <path id="Path_473" data-name="Path 473" d="M-1419.12-122.43a5.18,5.18,0,0,1,5.6,1.29c1.67,1.61,1.88,2.69.75,4.66a21.43,21.43,0,0,1-10.63,9.72c-1.87-1.49-3.91-3-5.79-4.65-.87-.77-.4-1.88,0-2.84.49.15,1.25.57,1.42.4a36.852,36.852,0,0,1,8.81-7.1C-1418.82-121-1419.07-121.92-1419.12-122.43Z" transform="translate(8365.291 3729.758)" fill="#b5713e"/>
    <path id="Path_474" data-name="Path 474" d="M-1450.06-165.86a4.94,4.94,0,0,1,5.54,1.31c1.65,1.62,2,2.75.61,4.61-1.64,2.22-2.76,4.8-5.09,6.56-6.36,4.8-7.86,4.28-10.47-3.91,3.32-2.05,5.55-5.52,9.23-7.13C-1450-164.52-1450.11-165.36-1450.06-165.86Z" transform="translate(8365.291 3729.758)" fill="#b5713e"/>
    <path id="Path_475" data-name="Path 475" d="M-1403.52-154.1a8.32,8.32,0,0,1,7.4,2.81c.86,8.68-5.31,12.28-11.51,15.89a15.079,15.079,0,0,1-2.38-8.41c1.26-2.64,3.91-3.43,6.18-4.79,1.53-.92.61-2-.58-2.64C-1404.11-152.19-1403.82-153.15-1403.52-154.1Z" transform="translate(8365.291 3729.758)" fill="#b5713e"/>
    <path id="Path_476" data-name="Path 476" d="M-1420.89-143a2,2,0,0,1,2.44-1.21,2.06,2.06,0,0,1,.66.37c5,3.82,5.16,5.2,1.36,10.35a11.441,11.441,0,0,1-4.79,3.56,5.39,5.39,0,0,1-5.1,0c-1.77-1-2.23-2.63-2.29-4.48,1.57-2.69,3.43-5,6.57-6.07C-1420.89-140.89-1420.81-142-1420.89-143Z" transform="translate(8365.291 3729.758)" fill="#b5713e"/>
    <path id="Path_477" data-name="Path 477" d="M-1401.12-128.73c2.38-1,4.5-.08,6.61.87l.12.14c.08,2.16.8,4.18-1.37,6.18-1.81,1.67-3.17,3.94-5.22,5.45-3.89,2.85-5.34,2.1-5.94-2.93-.14-1.26-.36-2.5-.55-3.75a7.7,7.7,0,0,1,4.78-3.62,2.34,2.34,0,0,0,1.57-2.34Z" transform="translate(8365.291 3729.758)" fill="#b5713e"/>
    <path id="Path_478" data-name="Path 478" d="M-1379-157c1.5-2.47,3.8-1.57,5.92-1.41.35.95.65,1.94,1.09,2.85.88,1.84.77,3.4-1,4.73a10.335,10.335,0,0,0-1.47,1.74c-4.33,5.25-6.62,5.34-12.43.48,1.22-2.54,2.85-4.69,5.61-5.71A3,3,0,0,0-1379-157Z" transform="translate(8365.291 3729.758)" fill="#b5713e"/>
    <path id="Path_479" data-name="Path 479" d="M-1467.75-128.77c.73-1.16,1.66-2.15,3.07-1.19a11.792,11.792,0,0,1,2.7,2.67,3,3,0,0,1,.52,2.16c-.73,3.25-3.54,4.9-5.7,7-1.48,1.44-3.26,1.29-5,.39a7.7,7.7,0,0,0-4.51-.64l-.14-.15c0-.83-.07-1.67-.11-2.5C-1475-125-1470.86-126.23-1467.75-128.77Z" transform="translate(8365.291 3729.758)" fill="#b5713e"/>
    <path id="Path_480" data-name="Path 480" d="M-1484.39-141l5.91-.51a23.585,23.585,0,0,0,1.09,2.87,31.8,31.8,0,0,0,2,2.89c-2.22,2.11-4.51,4.09-6.56,6.29-1.9,2.06-3.71,1-5.61.24l-.11-.13c-.57-1.32-1.68-1.54-2.94-1.44l-.15-.12c0-.8-.08-1.61-.11-2.41.93-2,2.66-3.06,4.47-4.09a10.471,10.471,0,0,0,2.55-1.69C-1483.64-139.35-1484.2-140.34-1484.39-141Z" transform="translate(8365.291 3729.758)" fill="#b5713e"/>
    <path id="Path_481" data-name="Path 481" d="M-1437-131.35c4.77-.91,5.49-.6,7.33,3.08.63,1.24.86,2.4-.3,3.47a3.546,3.546,0,0,0-.58.5c-6.55,9.15-8,6.37-12-.84.93-1.87,2.71-2.58,4.49-3.35a1.83,1.83,0,0,0,1.3-1.146,1.83,1.83,0,0,0-.237-1.714Z" transform="translate(8365.291 3729.758)" fill="#b5713e"/>
    <path id="Path_482" data-name="Path 482" d="M-1374.71-125.55c.92-1.54,2.06-2.28,3.73-1a8.421,8.421,0,0,1,3.5,5.6c-2,1.86-3.9,3.57-5.72,5.37a6.43,6.43,0,0,1-4.12,1.84l-.11-.08c-.49-1.52-1.76-2.27-3-3.16a12.249,12.249,0,0,1-1.82-2.19,8.149,8.149,0,0,1,3.9-4.06A36.495,36.495,0,0,0-1374.71-125.55Z" transform="translate(8365.291 3729.758)" fill="#b5713e"/>
    <path id="Path_483" data-name="Path 483" d="M-1419.12-122.43c0,.51.3,1.39.13,1.48a36.851,36.851,0,0,0-8.81,7.1c-.17.17-.93-.25-1.42-.4h-.3c-.06-1.42-.11-2.84-.16-4.26,2.27-2.93,5-5,9-4.64l1.58.58Z" transform="translate(8365.291 3729.758)" fill="#fff"/>
    <path id="Path_484" data-name="Path 484" d="M-1450.74-122.33c.24.46.77,1.24.68,1.32q-4.49,3.9-9.1,7.63c-.15.12-.85-.46-1.3-.72h-.19c0-1.34.05-2.69.08-4,1.46-2.06,3.56-3.33,5.61-4.67l4.32.3Z" transform="translate(8365.291 3729.758)" fill="#fff"/>
    <path id="Path_485" data-name="Path 485" d="M-1374.71-125.55c-1.19.78-2.34,1.64-3.59,2.32a8.15,8.15,0,0,0-3.9,4.06l-1.88,1.29h-.52a3.75,3.75,0,0,1-1.1-4.13,8,8,0,0,1,4.65-4.72C-1378.56-127.88-1376.65-126.87-1374.71-125.55Z" transform="translate(8365.291 3729.758)" fill="#fff"/>
    <path id="Path_486" data-name="Path 486" d="M-1379-157a3,3,0,0,1-2.23,2.68c-2.76,1-4.39,3.17-5.61,5.71l-2.44-.56-.13-.24a9.289,9.289,0,0,1,.69-5.43l1.36-1.36C-1384.67-157.7-1382-159.09-1379-157Z" transform="translate(8365.291 3729.758)" fill="#fff"/>
    <path id="Path_487" data-name="Path 487" d="M-1386.44-142.67c0,.68.19,1.8-.12,2-2.17,1.24-4.45,2.26-6.07,4.31-.72.91-1.33,2.51-2.78,2-1.75-.63-1.44-2.38-1.35-3.88a8.59,8.59,0,0,1,8.64-5l1.55.48Z" transform="translate(8365.291 3729.758)" fill="#fff"/>
    <path id="Path_488" data-name="Path 488" d="M-1450.06-165.86c0,.5,0,1.34-.18,1.44-3.68,1.61-5.91,5.08-9.23,7.13-1.49-1.62-1.39-3.48-.79-5.41l2.89-3a9.12,9.12,0,0,1,7.31-.16Z" transform="translate(8365.291 3729.758)" fill="#fff"/>
    <path id="Path_489" data-name="Path 489" d="M-1467.75-128.77c-3.11,2.54-7.29,3.8-9.17,7.77-2.16-.66-3-2.22-2.12-4.17a9,9,0,0,1,5.53-5.08C-1471.26-131-1469.52-129.87-1467.75-128.77Z" transform="translate(8365.291 3729.758)" fill="#fff"/>
    <path id="Path_490" data-name="Path 490" d="M-1480.07-116.41l-9.87,8.48c-1.1-2.7-1.47-5.3,1-7.5C-1486.18-117.78-1483.29-118.6-1480.07-116.41Z" transform="translate(8365.291 3729.758)" fill="#fff"/>
    <path id="Path_491" data-name="Path 491" d="M-1404.41-151.24c1.19.67,2.11,1.72.58,2.64-2.27,1.36-4.92,2.15-6.18,4.79a2.57,2.57,0,0,1-3.26-1.11c-.87-1.33,0-2.36.78-3.36C-1410.45-151-1407.62-151.66-1404.41-151.24Z" transform="translate(8365.291 3729.758)" fill="#fff"/>
    <path id="Path_492" data-name="Path 492" d="M-1435.16-108.47c-.11.72,0,1.83-.36,2.09-2.58,1.65-5.23,3.07-7,5.8-.91,1.42-2.21.51-3-.62-.25-3.58,1.89-5.72,4.53-7.57l6,.1Z" transform="translate(8365.291 3729.758)" fill="#fff"/>
    <path id="Path_493" data-name="Path 493" d="M-1420.89-143c.08,1.05,0,2.14-1.15,2.52-3.14,1-5,3.38-6.57,6.07-3.54-.19-2.36-3-2.7-4.9h0C-1428.58-142.68-1425.37-144.68-1420.89-143Z" transform="translate(8365.291 3729.758)" fill="#fff"/>
    <path id="Path_494" data-name="Path 494" d="M-1391.06-114.69c1.48-.22,2.94-.51,4.39.2,1,.48,1.49,1.91.67,2.3a24.069,24.069,0,0,0-7.45,6c-.34.37-1.41.08-2.14.1C-1396.63-110.26-1394.43-112.79-1391.06-114.69Z" transform="translate(8365.291 3729.758)" fill="#fff"/>
    <path id="Path_495" data-name="Path 495" d="M-1416.4-163c-.11,1-.28,2-1.46,2.38a11.281,11.281,0,0,0-5.4,4.06c-.73.9-1.45,2.43-2.94,1.43-1.16-.79-.72-2.33-.91-3.56C-1424.83-163.29-1421.13-164.4-1416.4-163Z" transform="translate(8365.291 3729.758)" fill="#fff"/>
    <path id="Path_496" data-name="Path 496" d="M-1459.58-141.36a23.263,23.263,0,0,1,3.658.29,2.72,2.72,0,0,1,1.682,1.32c.33.74-.47,1.2-1.07,1.53-2.36,1.33-4.94,2.4-6,5.24-2.61-.06-3.37-.7-3.23-2.38C-1464.26-138.56-1461.59-139.66-1459.58-141.36Z" transform="translate(8365.291 3729.758)" fill="#fff"/>
    <path id="Path_497" data-name="Path 497" d="M-1442.35-152.11c1.51-.13,3.06-.5,4.49.28a2,2,0,0,1,1,1.09c.1.36-.12,1.13-.38,1.23-3.47,1.35-5.59,4.32-8.2,6.68-2.26-1.74-1.93-3.92-.58-5.86A21.109,21.109,0,0,1-1442.35-152.11Z" transform="translate(8365.291 3729.758)" fill="#fff"/>
    <path id="Path_498" data-name="Path 498" d="M-1365.15-144.37c-.22.43-.34,1.09-.69,1.24-3.14,1.41-5.51,3.85-8.11,6a13.747,13.747,0,0,0-.84-2.1c-1.2-2-.29-3.42,1.22-4.55C-1370.93-145.76-1368.09-146.21-1365.15-144.37Z" transform="translate(8365.291 3729.758)" fill="#fff"/>
    <path id="Path_499" data-name="Path 499" d="M-1437-131.35a1.83,1.83,0,0,1,.258,1.7A1.83,1.83,0,0,1-1438-128.49c-1.78.77-3.56,1.48-4.49,3.35a6.23,6.23,0,0,1-2.18.28c-1.94-.46-2.38-1.76-1.55-3.29,1.18-2.18,3.46-2.76,5.3-4l4.14.4Z" transform="translate(8365.291 3729.758)" fill="#fff"/>
    <path id="Path_500" data-name="Path 500" d="M-1404.7-109.27c-.17.43-.21,1.07-.52,1.25-2.17,1.31-4.58,2.26-6,4.6-.51.84-1.15,2-2.35,1.44-1.42-.62-1.26-2.13-1-3.29.85-3.92,4.48-5.94,8.86-5C-1405.31-110.19-1405-109.61-1404.7-109.27Z" transform="translate(8365.291 3729.758)" fill="#fff"/>
    <path id="Path_501" data-name="Path 501" d="M-1401.12-128.73a2.34,2.34,0,0,1-1.57,2.34,7.7,7.7,0,0,0-4.78,3.62,2.3,2.3,0,0,1-1.785.373,2.3,2.3,0,0,1-1.5-1.043,2.65,2.65,0,0,1,.32-3.44c2.2-2.81,5.21-2.72,8.3-2.39a1.75,1.75,0,0,0,1,.47Z" transform="translate(8365.291 3729.758)" fill="#fff"/>
    <path id="Path_502" data-name="Path 502" d="M-1462.82-108.39l1.11,2.06c-.11.67-.21,1.34-.32,2-.64.76-1.25,1.53-1.91,2.27-1.5,1.66-2.53.92-3.37-.68a22.608,22.608,0,0,1,1-3.62C-1465.72-107.78-1464.68-108.88-1462.82-108.39Z" transform="translate(8365.291 3729.758)" fill="#fff"/>
    <path id="Path_503" data-name="Path 503" d="M-1430.36-158.57c-1,4.19-1,4.19-6.37,4-1-4.24-.91-4.49,2.77-4.45a31.363,31.363,0,0,1,3.6.45Z" transform="translate(8365.291 3729.758)" fill="#060a02"/>
    <path id="Path_504" data-name="Path 504" d="M-1435-108.67l-6-.1C-1438.12-111.18-1437.52-111.17-1435-108.67Z" transform="translate(8365.291 3729.758)" fill="#b5713e"/>
    <path id="Path_505" data-name="Path 505" d="M-1436.87-131.72l-4.14-.4C-1438.5-134.44-1438.38-134.42-1436.87-131.72Z" transform="translate(8365.291 3729.758)" fill="#b5713e"/>
    <path id="Path_506" data-name="Path 506" d="M-1429.68-118.49c0,1.42.1,2.84.16,4.26C-1432.06-115.56-1432.09-116.37-1429.68-118.49Z" transform="translate(8365.291 3729.758)" fill="#b5713e"/>
    <path id="Path_507" data-name="Path 507" d="M-1460.57-118.17c0,1.34-.06,2.69-.08,4C-1463.3-116-1463.29-116.18-1460.57-118.17Z" transform="translate(8365.291 3729.758)" fill="#b5713e"/>
    <path id="Path_508" data-name="Path 508" d="M-1450.64-122.54l-4.32-.3C-1452.49-125.08-1452.49-125.08-1450.64-122.54Z" transform="translate(8365.291 3729.758)" fill="#b5713e"/>
    <path id="Path_509" data-name="Path 509" d="M-1389.39-149.41l.13.24a11.7,11.7,0,0,1-.55,1.26c-.07.12-.35.12-.53.18-.07-.33-.31-.8-.18-1a3.808,3.808,0,0,1,1.13-.68Z" transform="translate(8365.291 3729.758)" fill="#b5713e"/>
    <path id="Path_510" data-name="Path 510" d="M-1386.57-142.81l-1.55-.48C-1387.12-144.69-1386.9-143.57-1386.57-142.81Z" transform="translate(8365.291 3729.758)" fill="#b5713e"/>
    <path id="Path_511" data-name="Path 511" d="M-1419.14-122.55l-1.58-.58C-1419.6-124.52-1419.49-123.23-1419.14-122.55Z" transform="translate(8365.291 3729.758)" fill="#b5713e"/>
    <path id="Path_512" data-name="Path 512" d="M-1401.1-128.8a1.75,1.75,0,0,1-1-.47l.87-.67Z" transform="translate(8365.291 3729.758)" fill="#b5713e"/>
    <path id="Path_513" data-name="Path 513" d="M-1489.26-154.8l-2.43.06c-1.54-3.55.41-5.9,2.81-8.08a10.7,10.7,0,0,1,2.2-.48c1.66,0,4-.81,4.46,1.42.39,1.76-2,1.86-3.12,2.61A11.55,11.55,0,0,0-1489.26-154.8Z" transform="translate(8365.291 3729.758)" fill="#fff"/>
    <path id="Path_514" data-name="Path 514" d="M-1467.85-153.34c-3.64,1.79-6.68,3.58-8.79,6.56a1.33,1.33,0,0,1-1.31.12c-.55-.43-1.26-1.09-1.29-1.69-.17-2.88,1.66-4.67,3.85-6.06S-1470.7-156.24-1467.85-153.34Z" transform="translate(8365.291 3729.758)" fill="#fff"/>
    <path id="Path_515" data-name="Path 515" d="M-1531.84-128.65a14.261,14.261,0,0,1,4.75-4.22l4.59-.17c.6.75,1.81,1.79.64,2.45a21.43,21.43,0,0,0-7.36,6.35c-.75,1.08-1.72.21-2.3-.7C-1532.27-126.12-1531.92-127.4-1531.84-128.65Z" transform="translate(8365.291 3729.758)" fill="#fff"/>
    <path id="Path_516" data-name="Path 516" d="M-1507.58-144.71c.09-1.6.18-3.2.28-4.81a.75.75,0,0,0,.43-.7l1.36-1.5,3.72-1.59,4.71,1.07c-.14.48-.13,1.26-.44,1.41-3.23,1.59-5.65,4.11-8.07,6.69C-1506.07-143.63-1507-144.06-1507.58-144.71Z" transform="translate(8365.291 3729.758)" fill="#fff"/>
    <path id="Path_517" data-name="Path 517" d="M-1512.7-144.39c.37.86,1.17,1.91.29,2.66-2.21,1.87-4.55,3.6-6.93,5.24-.49.33-1.41,0-2.14,0-.87-3.13.5-5.18,3.12-6.73a8.41,8.41,0,0,1,5.66-1.17Z" transform="translate(8365.291 3729.758)" fill="#fff"/>
    <path id="Path_518" data-name="Path 518" d="M-1507.58-144.71c.55.65,1.51,1.08,2,.57,2.42-2.58,4.84-5.1,8.07-6.69.31-.15.3-.93.44-1.41,1-2,2.82-1.84,4.62-1.7a16.009,16.009,0,0,0,1.55,3.41c1.26,1.67,1.19,2.69-.1,4.58-2.84,4.15-7.27,6.28-10.76,9.56a1.179,1.179,0,0,1-.68.31c-3.09.19-4.35-2.33-5.9-4.21C-1509.58-141.79-1509.79-143.58-1507.58-144.71Z" transform="translate(8365.291 3729.758)" fill="#b5713e"/>
    <path id="Path_519" data-name="Path 519" d="M-1484.39-141c.19.66.75,1.65.52,1.9a10.471,10.471,0,0,1-2.55,1.69c-1.81,1-3.54,2.11-4.47,4.09h-3.21v-.06c-.82-1.83-.11-3.41,1.07-4.69a42.3,42.3,0,0,1,3.85-3.32l5.11.25Z" transform="translate(8365.291 3729.758)" fill="#fff"/>
    <path id="Path_520" data-name="Path 520" d="M-1509.29-118.4a11.1,11.1,0,0,1,.51,1.23c-3.66,1.94-6,5.6-9.76,7.4-.77-1.6-1.23-3.13-.19-4.89a7.619,7.619,0,0,1,4.3-3.82A11.427,11.427,0,0,1-1509.29-118.4Z" transform="translate(8365.291 3729.758)" fill="#fff"/>
    <path id="Path_521" data-name="Path 521" d="M-1496.18-130a1.93,1.93,0,0,1,.187,1.733,1.93,1.93,0,0,1-1.286,1.177,10,10,0,0,0-5.79,5.2c-1.77.41-3,0-3-2.08a4.44,4.44,0,0,1,1.73-4c1.42-1,3-1.86,4.45-2.78Z" transform="translate(8365.291 3729.758)" fill="#fff"/>
    <path id="Path_522" data-name="Path 522" d="M-1484.08-141.11l-5.11-.25C-1486.91-143.58-1486.51-143.56-1484.08-141.11Z" transform="translate(8365.291 3729.758)" fill="#b5713e"/>
    <path id="Path_523" data-name="Path 523" d="M-1496.18-130l-3.76-.73c1.37-2.14,4-1.59,5.83-2.64v.07l-1.17,2.36Z" transform="translate(8365.291 3729.758)" fill="#b5713e"/>
    <path id="Path_524" data-name="Path 524" d="M-1495.28-130.92l1.17-2.36h3.22c0,.8.07,1.61.11,2.41Z" transform="translate(8365.291 3729.758)" fill="#fe7649"/>
    <path id="Path_525" data-name="Path 525" d="M-1490.63-130.79c1.26-.1,2.37.12,2.94,1.44C-1489-129.21-1490.08-129.44-1490.63-130.79Z" transform="translate(8365.291 3729.758)" fill="#fe7649"/>
    <path id="Path_526" data-name="Path 526" d="M-1384.08-117.88l1.88-1.29a12.254,12.254,0,0,0,1.82,2.19c1.19.89,2.46,1.64,3,3.16C-1380.35-114-1382.74-115.08-1384.08-117.88Z" transform="translate(8365.291 3729.758)" fill="#fe7649"/>
    <path id="Path_527" data-name="Path 527" d="M-1428.8-150.82a11.913,11.913,0,0,1-1.46-.34c-.21-.08-.52-.4-.49-.53a.75.75,0,0,1,.445-.6.75.75,0,0,1,.745.083,5.81,5.81,0,0,1,1,1.06Z" transform="translate(8365.291 3729.758)" fill="#fe7649"/>
  </g>
</svg>
