<svg xmlns="http://www.w3.org/2000/svg" width="334.38" height="218.583" viewBox="0 0 334.38 218.583">
  <g id="s7" transform="translate(-7793.264 -3974.731)">
    <path id="Path_410" data-name="Path 410" d="M-372.75,266.69c3.61-2,7.19-4.05,10.83-6,3.21-1.72,6.58-3.31,10.22-3.4,3.9-.09,6.64-1.71,9.54-4.22,12.07-10.47,30.35-10.73,43-1.11,3,2.26,4.9,5.27,7.07,8.14,2.87,9,1.25,6.5,9.4,9.31,2.42.84,5.05,1,7.49,1.79,7.66,2.42,14.83,5.62,20.59,11.62a10.2,10.2,0,0,1-.13,13.87c-4.65,4.81-10.3,7.71-16.37,9.91-14.38,5.22-29.2,8.29-44.57,8-9-.16-18.06.55-26.93-1.66-3-.74-6.05-1.15-9.07-1.72-6.28-1.19-12.62-2.26-18.51-5.15-2.67-1.32-5.47-3-8.76-2.57l-.07-.09c0-2.21-1.94-2.77-3.28-3.83-6.84-5.38-9.53-13.16,1.08-20.33a2.77,2.77,0,0,1,.72-.24c-.08,3-.21,6.05-.21,9.08a6.57,6.57,0,0,0,2.21,5.46,1.76,1.76,0,0,0,1.38.37,1.39,1.39,0,0,0,.65-1.19,20.2,20.2,0,0,1,1.18-14.8c.85-1.81-.93-1.86-2.16-2a5.8,5.8,0,0,1,1.48-5.36C-374.85,269.32-373.82,268-372.75,266.69Zm37.11-8.73c-4.49.34-8.68,1.44-11.89,4.83a2.46,2.46,0,0,0-.67,2c.39,1,1.3.51,1.9,0a19.64,19.64,0,0,1,11.4-4.34,4.1,4.1,0,0,0,1.43-.48.65.65,0,0,0,.25-.53c0-.25-.08-.64-.24-.71-.69-.26-1.43-.49-2.18-.73ZM-308,285.33a4.22,4.22,0,0,0,1.38-.53,14,14,0,0,0,4.27-7c.37-1.48.88-3.69-.53-4.14-2.41-.76-1.51,1.81-1.82,2.94a15.67,15.67,0,0,1-3.06,6,10.872,10.872,0,0,0-1.15,1.88c-.06.11.14.43.29.58A2,2,0,0,0-308,285.33Z" transform="translate(8365.291 3729.758)" fill="#b5713e"/>
    <path id="Path_411" data-name="Path 411" d="M-284.28,392.28c-7,8.9-15.5,16.13-24.63,22.7-1.41,1-3.21,1.65-3.61,3.67a15.127,15.127,0,0,0,.1,3.09c1.87,8-2.53,12.7-8.54,16.54a38.439,38.439,0,0,1-4.9,2.3c-10.26,4.68-21.29,6.45-32.32,7.31-16,1.25-32,.27-47.58-4.34a57,57,0,0,1-12.82-5.34c-5.44-3.19-9.33-7.28-9.67-13.93.43-1.19.86-2.39,1.3-3.58a3.14,3.14,0,0,0-1.37-3.94c-1.24-.89-2.52-1.72-3.75-2.63-9.25-6.82-17.85-14.33-24.9-23.47a7.21,7.21,0,0,1,4.17,1.84c3.35,2.92,7.38,4.57,11.4,6.37a127.807,127.807,0,0,0,29.56,8.65,180.666,180.666,0,0,0,26,3.29c17.76.63,35.5.45,53.15-2.81,16.33-3,32.23-6.86,46.4-16a1.5,1.5,0,0,1,2.01.28Zm-129.19,37.36c-1.3,0-2.51-.1-2.95,1-.62,1.54.58,2.47,1.72,3a22.142,22.142,0,0,0,5.09,1.66c1.2.24,2.73.2,3.14-1.42.28-1.12-.63-1.87-1.48-2.4a10.25,10.25,0,0,0-5.52-1.84Z" transform="translate(8365.291 3729.758)" fill="#b5713e"/>
    <path id="Path_412" data-name="Path 412" d="M-439.69,289.85c10.39,2.32,19.88,6.32,27.41,14.19,5.28,5.52,6.68,12.37,1.64,19.4-2.08,2.89-3.64,6.19-6.74,8.25-2.19-.23-4,.84-5.82,1.8-11.07,5.85-23,8.76-35.28,10.85-5.11.87-10.32.72-15.3,1.79a69.37,69.37,0,0,1-13.82,1.17,208.336,208.336,0,0,1-34.54-2.93c-13.32-2.07-26.19-5.34-37.68-12.78-.86-.56-1.82-1-2.69.06-3.51-2.74-5.83-6.49-7.86-10.28-3.53-6.6-1.28-14.71,5.42-19.93a62.069,62.069,0,0,1,16.06-9.13,119.937,119.937,0,0,1,24.49-6.82c3.85-.59,6.81-1.75,9.13-4.87,1.72-2.31,3-.41,4.31.77-.52.87-1,1.77-1.57,2.62-3.11,4.74-6.44,9.34-9.3,14.23s-2.56,10.24-.17,15.56c4.75,10.55,18.39,16.63,30.68,14.67a1.64,1.64,0,0,0,1.273-.8,1.64,1.64,0,0,0,.087-1.5c-.7-1.92-2.23-3.37-2.72-5.49a9.41,9.41,0,0,0-6.32-7.24,3.82,3.82,0,0,1-2.84-3.33l1.7-1.69c6.64-.28,11.64,3.63,17.17,6.74-.85.58-1.9,1-2.32,1.69-.64,1.11.57,1.76,1.22,2.48a6.578,6.578,0,0,0,1.17,1c9,6.29,18.79,7.45,29.33,4.6,6.09-1.64,10.52-5.35,14.36-10a10.65,10.65,0,0,0,2.68-6.32c.17-5.39,1-10.89-2.24-15.84a11,11,0,0,1-.92-2.92Zm12.45,32.64c6.74-5.75,7.37-9.35,2.69-15.64-.44-.6-1.16-1.16-2-.58a1.78,1.78,0,0,0-.75,1.18c-.13,4.91-.2,9.82-.27,14.73l-.63.93Zm-120.93-6A25.178,25.178,0,0,0-547,319.3a1.82,1.82,0,0,0,1.2.8,1.28,1.28,0,0,0,1.068-.27,1.28,1.28,0,0,0,.462-1c-.14-5,2.06-8.9,5.45-12.35,1.17-1.19.79-1.68-1.85-2.78-.44-3.94,4.1-4.17,5.36-6.79a2.43,2.43,0,0,0-3-.49c-3.94,1.88-7.91,3.73-11.72,5.85a18.378,18.378,0,0,0-4.69,3.93c-4.9,5.64-4.19,12.08,1.7,16.8,1.06.85,2.44.23,2.85-1.17.59-1.83-.65-4.3,2-5.35Zm18.23,18.42a17.78,17.78,0,0,1-10.43-2.07c-4.38-2.14-8.76-4.29-13.16-6.39a1.29,1.29,0,0,0-1.073-.177,1.29,1.29,0,0,0-.827.707,1.74,1.74,0,0,0,.37,1.38,6.55,6.55,0,0,0,1.7,1.54c9.86,5.92,20.68,9,32,10.58a4,4,0,0,0,2.17-.59c.81-.42.85-1.16.19-1.79a20.212,20.212,0,0,0-1.77-1.46,21.36,21.36,0,0,1,7.68.39,35.618,35.618,0,0,0,6.87.89c9.56.09,19.12,0,28.68,0,3.08,0,6.11-.3,8.84-2.39-3.83-1.12-7.51-2.11-11.12-3.3a5.83,5.83,0,0,0-4.46.44c-5.9,2.61-12.2,2.42-18.3,1.76-12.62-1.37-24.58-10.17-25.48-24.71a17.552,17.552,0,0,0-.2-2.3c-.15-.75-.41-1.62-1.35-1.61a4.251,4.251,0,0,0-2.1.58c-2.64,1.68-2.8,4.81-4.1,7.27a14.89,14.89,0,0,0-1.15,12c1.66,5.34,1.57,5.34,7.02,9.24Zm2.47-32.21-.25.37.38.05Z" transform="translate(8365.291 3729.758)" fill="#e6be8b"/>
    <path id="Path_413" data-name="Path 413" d="M-284.28,392.28a1.5,1.5,0,0,0-2.05-.25c-14.17,9.11-30.07,13-46.4,16-17.65,3.26-35.39,3.44-53.15,2.81a180.664,180.664,0,0,1-26-3.29,127.81,127.81,0,0,1-29.56-8.65c-4-1.8-8.05-3.45-11.4-6.37a7.21,7.21,0,0,0-4.17-1.84h-.67l-.64-.17c-2.44-4.77-6.68-8.52-7.94-14-.39-9.45,4.61-16,11.79-21.13a64,64,0,0,1,16.3-8.47c3.61-1.27,7.08-2.91,10.61-4.38,6.39-.35,12.4-2.67,18.72-3.58,9.6-1.4,19.14-2.95,28.87-2.74a25.2,25.2,0,0,0,9.74-1.54c2.06,2.21,4.78,1.52,7.3,1.66,7.45.42,14.86,0,22.37,1a175.81,175.81,0,0,1,44.63,12,42.756,42.756,0,0,0,5.18,1.49l14.85,13.21a37.384,37.384,0,0,0,1.08,3.65,14.55,14.55,0,0,1-1.66,14.46C-278.83,385.75-280.34,390-284.28,392.28Zm-124.27,6.11c4.73-.68,9.18,1.07,13.77,1.6a205.789,205.789,0,0,0,49.48,0c11.3-1.44,22.44-3.64,33.09-7.79,5.76-2.25,11.5-4.65,15.95-9.21,3-2.48,5.6-5.09,5.8-9.5.28-5.84-2.52-9.86-6.82-13.11a54.63,54.63,0,0,0-14.93-8.09A143,143,0,0,0-354.5,344c-4.12-.14-8.23,0-12.33-1-2.19-.49-4.61-.08-6.91.08-2.05.15-4.09.78-6.12.73-10.39-.3-20.56,1.39-30.65,3.48a97.128,97.128,0,0,0-27.57,9.87,28.781,28.781,0,0,0-8.79,7.46c-2.57,3.26-2.86,7.16-2.11,11.06a7.33,7.33,0,0,0,5.35,6c.52,3.3,3.4,4.31,5.77,5.64a97.361,97.361,0,0,0,25.75,9.45c1.22.28,2.55.26,3.36,1.48-3.08.84-6.11.28-9.1-.41a72.171,72.171,0,0,1-21.43-8.23,45.449,45.449,0,0,0-6.27-2.85,1.43,1.43,0,0,0-1.26.55,1.68,1.68,0,0,0,.15,1.42c1.3,2,3.4,3.07,5.44,4.14a98.47,98.47,0,0,0,23,8.51c4,.94,8,2,12.14,1.59.94-.1,2.22.16,2.51-1.15s-.9-1.58-1.87-1.78c-1.21-.19-2.56-.16-3.11-1.65Z" transform="translate(8365.291 3729.758)" fill="#e6be8b"/>
    <path id="Path_414" data-name="Path 414" d="M-501.84,310.11a3.82,3.82,0,0,0,2.84,3.33,9.41,9.41,0,0,1,6.32,7.24c.49,2.12,2,3.57,2.72,5.49a1.64,1.64,0,0,1-.087,1.5,1.64,1.64,0,0,1-1.273.8c-12.29,2-25.93-4.12-30.68-14.67-2.39-5.32-2.77-10.53.17-15.56s6.19-9.49,9.3-14.23c.56-.85,1-1.75,1.57-2.62l1.58-.9c2.45.11,4.49-1.1,6.56-2.12A27.25,27.25,0,0,1-487,275.74c4.14.56,8.58.79,12.18,3.95-.8.41-1.24.82-1.68.84-5.77.17-10.22,3.22-14.53,6.57a1.57,1.57,0,0,0-.56,1.3c.31.88,1.15.8,1.84.49a34.921,34.921,0,0,0,3.45-1.76c7.49-4.44,18.22-2.16,24.23,4,2.47,2.54,4.28,5.1,3.91,8.82-.07.76-.54,2.1,1.23,2.25.37-.59,1-1.18,1.11-1.84.89-6.09-1-11.23-5.82-15-1.71-1.34-3.27-2.52-3-4.94a48.74,48.74,0,0,1,25,9.48,11,11,0,0,0,.92,2.92c3.2,5,2.41,10.45,2.24,15.84a10.65,10.65,0,0,1-2.68,6.32c-3.84,4.65-8.27,8.36-14.36,10-10.54,2.85-20.3,1.69-29.33-4.6a6.579,6.579,0,0,1-1.17-1c-.65-.72-1.86-1.37-1.22-2.48.42-.73,1.47-1.11,2.32-1.69-5.53-3.11-10.53-7-17.17-6.74-2.46-3.2-5-6.34-5.32-10.65,0-.25-.74-.68-1.09-.64a1.612,1.612,0,0,0-1.08.83C-508.33,303.24-506.18,307.2-501.84,310.11Z" transform="translate(8365.291 3729.758)" fill="#fe7649"/>
    <path id="Path_415" data-name="Path 415" d="M-427.52,342.58c-3.53,1.47-7,3.11-10.61,4.38a64,64,0,0,0-16.3,8.47c-7.18,5.17-12.18,11.68-11.79,21.13-4.86.6-9.7,1.48-14.57,1.71-6.18.3-12.4.28-18.59,0a83.24,83.24,0,0,1-28.53-6.34c-5.79-2.41-11-5.83-12.13-12.89.1-.24.19-.48.29-.71,1.91-4.31,2.16-5.14-2.28-8.21a99.388,99.388,0,0,1-20.48-18.48c.87-1.1,1.83-.62,2.69-.06,11.49,7.44,24.36,10.71,37.68,12.78a208.339,208.339,0,0,0,34.54,2.93,69.366,69.366,0,0,0,13.82-1.17c5-1.07,10.19-.92,15.3-1.79,12.27-2.09,24.21-5,35.28-10.85,1.82-1,3.63-2,5.82-1.8Zm-96.18,24.81c1-.13,2.27.19,2.58-1.05s-.88-1.71-1.74-2.24c-2.08-1.28-4.23-1.86-6.51-.5-.11.07-.1.53,0,.75,1.08,2.55,3.37,2.86,5.67,3.04Z" transform="translate(8365.291 3729.758)" fill="#b5713e"/>
    <path id="Path_416" data-name="Path 416" d="M-428.25,424.28c.34,6.65,4.23,10.74,9.67,13.93a57,57,0,0,0,12.82,5.34c15.56,4.61,31.56,5.59,47.58,4.34,11-.86,22.06-2.63,32.32-7.31a38.446,38.446,0,0,0,4.9-2.3c6-3.84,10.41-8.57,8.54-16.54a15.127,15.127,0,0,1-.1-3.09c6.24,1.47,10.94,5.62,15.92,9.24,2.12,1.54,3.19,4,4.43,6.28,1.93,3.58,1.47,7-.59,10.28a25.61,25.61,0,0,1-9.65,8.71,71,71,0,0,1-21.14,7.26A150.678,150.678,0,0,1-362,463.35c-16.25-1-32.28-3.49-47.64-9.24A59.519,59.519,0,0,1-425.78,445a22.6,22.6,0,0,1-5.4-6.51C-434.26,433.27-433.2,428.82-428.25,424.28Z" transform="translate(8365.291 3729.758)" fill="#b8b5aa"/>
    <path id="Path_417" data-name="Path 417" d="M-290.71,351a42.767,42.767,0,0,1-5.18-1.49,175.808,175.808,0,0,0-44.63-12c-7.51-1-14.92-.61-22.37-1-2.52-.14-5.24.55-7.3-1.66a20.516,20.516,0,0,0,1-2c1.3-3.49,1.34-3.62-1.53-5.66-7.67-5.48-15-11.36-21.06-18.63a1.82,1.82,0,0,1,1.151-.941,1.82,1.82,0,0,1,1.469.231c2.94,1.61,5.69,3.67,8.78,4.84,16,6.09,32.54,9.75,49.7,10,11.59.14,23.14.25,34.75-1.37,16.48-2.3,32.48-5.55,46.84-14.45a1.56,1.56,0,0,1,2.07.27,103.449,103.449,0,0,1-21.51,19.47c-1.33.92-2.48,1.84-2,3.69,0,1.54-.05,3.1.07,4.63a8.4,8.4,0,0,1-2.68,7,23.921,23.921,0,0,1-6.11,4.69A55.109,55.109,0,0,1-290.71,351Z" transform="translate(8365.291 3729.758)" fill="#b5713e"/>
    <path id="Path_418" data-name="Path 418" d="M-247,306.92a1.56,1.56,0,0,0-2.07-.27c-14.36,8.9-30.36,12.15-46.84,14.45-11.61,1.62-23.16,1.51-34.75,1.37-17.16-.2-33.7-3.86-49.7-10-3.09-1.17-5.84-3.23-8.78-4.84a1.82,1.82,0,0,0-1.469-.231,1.82,1.82,0,0,0-1.151.941c-4.72-3.53-7.2-8.67-9.75-13.71a9.69,9.69,0,0,1-.06-8.27,21.14,21.14,0,0,1,6.11-8.85,65.82,65.82,0,0,1,20.39-10.91,7.21,7.21,0,0,1,2.31,0c-1.07,1.3-2.1,2.63-3.22,3.88a5.8,5.8,0,0,0-1.48,5.36l-.17-.06c-2.07,0-2.92,1.22-3.08,3.11h.2a2.769,2.769,0,0,0-.72.24c-10.61,7.17-7.92,15-1.08,20.33,1.34,1.06,3.27,1.62,3.28,3.84-1.64.66-3-.54-4.43-.77a1.56,1.56,0,0,0-1.29.49,1.49,1.49,0,0,0,.07,1.36,5.4,5.4,0,0,0,1.66,1.57,82.69,82.69,0,0,0,29.82,9.9,10.23,10.23,0,0,0,3.07-.19c.38-.07.76-.57,1-1a.78.78,0,0,0,.052-.774.78.78,0,0,0-.642-.436q-1.5-.36-3-.63c-7.59-1.38-15.2-2.76-22.18-6.27-1.54-.77-3.53-1.1-4-3.21,3.29-.46,6.09,1.25,8.76,2.57,5.89,2.89,12.23,4,18.51,5.15,3,.57,6.08,1,9.07,1.72,8.87,2.21,17.94,1.5,26.93,1.66,15.37.27,30.19-2.8,44.57-8,6.07-2.2,11.72-5.1,16.37-9.91a10.2,10.2,0,0,0,.13-13.87c-5.76-6-12.93-9.2-20.59-11.62-2.44-.77-5.07-.95-7.49-1.79-8.15-2.81-6.53-.26-9.4-9.31,12,1.83,23.72,4.66,34.89,9.55A43.37,43.37,0,0,1-242.03,280c5.24,5.78,5.92,12.84,1.29,19C-242.74,301.82-243.91,305.17-247,306.92Z" transform="translate(8365.291 3729.758)" fill="#e6be8b"/>
    <path id="Path_419" data-name="Path 419" d="M-540,359.05c1.1,7.06,6.34,10.48,12.13,12.89a83.24,83.24,0,0,0,28.53,6.34c6.19.27,12.41.29,18.59,0,4.87-.23,9.71-1.11,14.57-1.71,1.26,5.45,5.5,9.2,7.94,14-4.36.26-8.76.07-13.07,1.19a13,13,0,0,1-3.85.18c-16.73-.95-33.42-2.09-49.18-8.6-5.26-2.18-10.32-4.67-14.48-8.67a17.61,17.61,0,0,1-4.07-5.59,9.45,9.45,0,0,1-.52-6.06,5.41,5.41,0,0,1,3.41-3.97Z" transform="translate(8365.291 3729.758)" fill="#b8b5aa"/>
    <path id="Path_420" data-name="Path 420" d="M-290.71,351a55.109,55.109,0,0,0,11.46-4.59,23.92,23.92,0,0,0,6.11-4.69,8.4,8.4,0,0,0,2.68-7c-.12-1.53-.05-3.09-.07-4.63,6.84,1,11.75,5,15.61,10.34,3,4.17,2.28,9.65-1.28,13.48-4.19,4.51-9.69,6.75-15.35,8.65-1.45.49-3,.62-4.3,1.62Z" transform="translate(8365.291 3729.758)" fill="#b8b5aa"/>
    <path id="Path_421" data-name="Path 421" d="M-464.68,280.37c-.23,2.42,1.33,3.6,3,4.94,4.86,3.81,6.71,8.95,5.82,15-.09.66-.74,1.25-1.11,1.84-1.77-.15-1.3-1.49-1.23-2.25.37-3.72-1.44-6.28-3.91-8.82-6-6.15-16.74-8.43-24.23-4a34.921,34.921,0,0,1-3.45,1.76c-.69.31-1.53.39-1.84-.49a1.57,1.57,0,0,1,.56-1.3c4.31-3.35,8.76-6.4,14.53-6.57.44,0,.88-.43,1.68-.84-3.6-3.16-8-3.39-12.18-3.95a27.25,27.25,0,0,0-15.82,2.63c-2.07,1-4.11,2.23-6.56,2.12,1.25-3.54,4.34-4.92,7.45-6.13,2.13-.84,4.42-1.31,6.83-2-.71-.81-1.31-1.47-2.31-2.6C-484.66,268.63-473,269.29-464.68,280.37Z" transform="translate(8365.291 3729.758)" fill="#e6be8b"/>
    <path id="Path_422" data-name="Path 422" d="M-377.45,275.93c1.23.16,3,.21,2.16,2a20.2,20.2,0,0,0-1.18,14.8,1.39,1.39,0,0,1-.65,1.19,1.76,1.76,0,0,1-1.38-.37,6.57,6.57,0,0,1-2.21-5.46c0-3,.13-6.05.21-9.08h-.2c2.15.07,2.48-1.66,3.08-3.11Z" transform="translate(8365.291 3729.758)" fill="#fff"/>
    <path id="Path_423" data-name="Path 423" d="M-335.64,258c.75.28,1.49.51,2.18.83.16.07.23.46.24.71a.65.65,0,0,1-.25.53,4.1,4.1,0,0,1-1.43.48,19.64,19.64,0,0,0-11.4,4.34c-.6.47-1.51,1-1.9,0a2.46,2.46,0,0,1,.67-2C-344.32,259.4-340.13,258.3-335.64,258Z" transform="translate(8365.291 3729.758)" fill="#fff"/>
    <path id="Path_424" data-name="Path 424" d="M-308,285.33a2.1,2.1,0,0,1-.61-.27c-.15-.15-.35-.47-.29-.58a10.869,10.869,0,0,1,1.15-1.88,15.67,15.67,0,0,0,3.06-6c.31-1.13-.59-3.7,1.82-2.94,1.41.45.9,2.66.53,4.14a14,14,0,0,1-4.27,7A4.189,4.189,0,0,1-308,285.33Z" transform="translate(8365.291 3729.758)" fill="#fff"/>
    <path id="Path_425" data-name="Path 425" d="M-413.47,429.64a10.249,10.249,0,0,1,5.52,1.82c.85.53,1.76,1.28,1.48,2.4-.41,1.62-1.94,1.66-3.14,1.42a22.14,22.14,0,0,1-5.09-1.66c-1.14-.52-2.34-1.45-1.72-3C-416,429.54-414.77,429.65-413.47,429.64Z" transform="translate(8365.291 3729.758)" fill="#fff"/>
    <path id="Path_426" data-name="Path 426" d="M-529.94,334.9c-5.45-3.87-5.36-3.9-7-9.3a14.89,14.89,0,0,1,1.15-12c1.3-2.46,1.46-5.59,4.1-7.27a4.25,4.25,0,0,1,2.1-.58c.94,0,1.2.86,1.35,1.61a17.551,17.551,0,0,1,.2,2.3c.9,14.54,12.86,23.34,25.48,24.71,6.1.66,12.4.85,18.3-1.76a5.83,5.83,0,0,1,4.46-.44c3.61,1.19,7.29,2.18,11.12,3.3-2.73,2.09-5.76,2.38-8.84,2.39-9.56,0-19.12.09-28.68,0a35.618,35.618,0,0,1-6.87-.89,21.36,21.36,0,0,0-7.68-.39l-2.69-.49c-1.84-2-4.15-1.49-6.42-1.27Z" transform="translate(8365.291 3729.758)" fill="#fe7649"/>
    <path id="Path_427" data-name="Path 427" d="M-548.17,316.48c-2.65,1-1.41,3.53-1.94,5.35a1.8,1.8,0,0,1-2.85,1.17c-5.89-4.72-6.6-11.16-1.7-16.8a18.378,18.378,0,0,1,4.69-3.93c3.81-2.12,7.78-4,11.72-5.85a2.43,2.43,0,0,1,3,.49c-1.26,2.62-5.8,2.85-5.36,6.79l-.16.12a1.25,1.25,0,0,0-1.048.272,1.25,1.25,0,0,0-.442.988l-.22.18a1.25,1.25,0,0,0-.993.411,1.25,1.25,0,0,0-.307,1.029l-.14.18a1.21,1.21,0,0,0-.962.506,1.21,1.21,0,0,0-.168,1.074l-.15.22c-1.57.41-1.83,1.44-1.37,2.83l-.17.29c-2.24.88-2,2.57-1.4,4.34Z" transform="translate(8365.291 3729.758)" fill="#b5713e"/>
    <path id="Path_428" data-name="Path 428" d="M-523.49,336.14l2.69.49c.59.48,1.22.93,1.77,1.46a1.047,1.047,0,0,1-.19,1.79,4,4,0,0,1-2.17.59c-11.29-1.6-22.11-4.66-32-10.58a6.55,6.55,0,0,1-1.7-1.54,1.74,1.74,0,0,1-.37-1.38,1.29,1.29,0,0,1,.827-.707,1.29,1.29,0,0,1,1.073.177c4.4,2.1,8.78,4.25,13.16,6.39a17.78,17.78,0,0,0,10.43,2.07h0C-528.13,337.13-525.77,336.4-523.49,336.14Z" transform="translate(8365.291 3729.758)" fill="#fff"/>
    <path id="Path_429" data-name="Path 429" d="M-427.55,322.17c.07-4.9.14-9.81.27-14.72a1.78,1.78,0,0,1,.75-1.18c.82-.58,1.54,0,2,.58,4.68,6.29,4.05,9.89-2.69,15.64Z" transform="translate(8365.291 3729.758)" fill="#b5713e"/>
    <path id="Path_430" data-name="Path 430" d="M-540.63,303.7c2.64,1.1,3,1.59,1.85,2.78-3.39,3.45-5.59,7.35-5.45,12.35a1.28,1.28,0,0,1-.462,1,1.28,1.28,0,0,1-1.068.27,1.82,1.82,0,0,1-1.2-.8,25.179,25.179,0,0,1-1.21-2.82v-.34c1.62-1.07,1.59-2.68,1.4-4.34l.16-.29c1.33-.52,1.51-1.6,1.38-2.83l.15-.22c.91-.14,1.22-.71,1.13-1.58l.14-.18a1.21,1.21,0,0,0,1.011-.394,1.21,1.21,0,0,0,.289-1.046l.22-.18c.93.09,1.46-.29,1.49-1.26Z" transform="translate(8365.291 3729.758)" fill="#fff"/>
    <path id="Path_431" data-name="Path 431" d="M-501.84,310.11c-4.34-2.91-6.49-6.87-5.79-12.15.05-.34.68-.78,1.08-.83s1.08.39,1.09.64c.28,4.31,2.86,7.45,5.32,10.65Z" transform="translate(8365.291 3729.758)" fill="#fff"/>
    <path id="Path_432" data-name="Path 432" d="M2243.83,873.45l.13.42-.38-.05Z" transform="translate(5594.001 3158.998)" fill="#fe7649"/>
    <path id="Path_433" data-name="Path 433" d="M-427.24,322.49l-.94.62.63-.93Z" transform="translate(8365.291 3729.758)" fill="#b5713e"/>
    <path id="Path_434" data-name="Path 434" d="M-296.26,383c-4.45,4.56-10.19,7-15.95,9.21-10.65,4.15-21.79,6.35-33.09,7.79a205.789,205.789,0,0,1-49.48,0c-4.59-.53-9-2.28-13.77-1.6l-.21-.06c-.8-1.22-2.13-1.2-3.35-1.48a97.361,97.361,0,0,1-25.75-9.45c-2.37-1.33-5.25-2.34-5.77-5.64,8-7.29,17.56-11.54,27.88-14.37,14-3.84,28.31-5.42,42.76-5.85a179.848,179.848,0,0,1,36.91,3.09,101.17,101.17,0,0,1,27.88,8.8C-303.55,375.77-299.23,378.51-296.26,383Zm-50.11-16.21c-.85.05-2.66.11-4.45.31-1,.11-2,.5-1.86,1.86a1.65,1.65,0,0,0,1.6,1.4c1.8.21,3.61.32,5.42.37A78.28,78.28,0,0,1-317,377c1.89.81,3.77,1.67,5.69,2.44a7,7,0,0,0,2.24.49,1.68,1.68,0,0,0,1.32-.56,1.62,1.62,0,0,0-.24-1.43,14.06,14.06,0,0,0-5.81-3.72,96.859,96.859,0,0,0-32.57-7.48Z" transform="translate(8365.291 3729.758)" fill="#060a02"/>
    <path id="Path_435" data-name="Path 435" d="M-296.26,383c-3-4.44-7.29-7.18-11.94-9.52a101.169,101.169,0,0,0-27.88-8.8A179.855,179.855,0,0,0-373,361.54c-14.45.43-28.76,2-42.76,5.85-10.32,2.83-19.88,7.08-27.88,14.37a7.33,7.33,0,0,1-5.35-6c-.75-3.9-.46-7.8,2.11-11.06a28.779,28.779,0,0,1,8.79-7.46,97.129,97.129,0,0,1,27.57-9.87c10.09-2.09,20.26-3.78,30.65-3.48,2,.05,4.07-.58,6.12-.73,2.3-.16,4.72-.57,6.91-.08,4.1.93,8.21.82,12.33,1a143,143,0,0,1,42.29,8.23,54.63,54.63,0,0,1,14.93,8.09c4.3,3.25,7.1,7.27,6.82,13.11C-290.66,377.86-293.22,380.47-296.26,383Z" transform="translate(8365.291 3729.758)" fill="#b5713e"/>
    <path id="Path_436" data-name="Path 436" d="M-408.55,398.39c.54,1.49,1.9,1.46,3.13,1.73,1,.2,2.19.36,1.87,1.78s-1.57,1.05-2.51,1.15c-4.17.44-8.15-.65-12.14-1.59a98.472,98.472,0,0,1-23-8.51c-2-1.07-4.14-2.11-5.44-4.14a1.68,1.68,0,0,1-.15-1.42,1.43,1.43,0,0,1,1.26-.55,45.455,45.455,0,0,1,6.27,2.85,72.17,72.17,0,0,0,21.43,8.23c3,.69,6,1.25,9.1.41Z" transform="translate(8365.291 3729.758)" fill="#fff"/>
    <path id="Path_437" data-name="Path 437" d="M-523.7,367.39c-2.3-.18-4.59-.49-5.67-3-.1-.22-.11-.68,0-.75,2.28-1.36,4.43-.78,6.51.5.86.53,2.05,1,1.74,2.24S-522.69,367.26-523.7,367.39Z" transform="translate(8365.291 3729.758)" fill="#fff"/>
    <path id="Path_438" data-name="Path 438" d="M-378.95,303.52c.51,2.11,2.5,2.44,4,3.21,7,3.51,14.59,4.89,22.18,6.27q1.5.27,3,.63a.78.78,0,0,1,.642.436.78.78,0,0,1-.052.774,2.026,2.026,0,0,1-1,1,10.231,10.231,0,0,1-3.07.19,82.689,82.689,0,0,1-29.82-9.9,5.4,5.4,0,0,1-1.66-1.57,1.49,1.49,0,0,1-.07-1.36,1.56,1.56,0,0,1,1.29-.49c1.48.23,2.79,1.43,4.43.77Z" transform="translate(8365.291 3729.758)" fill="#fff"/>
    <path id="Path_439" data-name="Path 439" d="M-377.62,275.87c-.6,1.45-.93,3.18-3.08,3.11C-380.54,277.09-379.69,275.87-377.62,275.87Z" transform="translate(8365.291 3729.758)" fill="#b5713e"/>
    <path id="Path_440" data-name="Path 440" d="M-523.49,336.14c-2.28.26-4.64,1-6.42-1.27C-527.64,334.65-525.33,334.18-523.49,336.14Z" transform="translate(8365.291 3729.758)" fill="#e6be8b"/>
    <path id="Path_441" data-name="Path 441" d="M-546.76,311.8c.19,1.66.22,3.27-1.4,4.34C-548.71,314.37-549,312.68-546.76,311.8Z" transform="translate(8365.291 3729.758)" fill="#e6be8b"/>
    <path id="Path_442" data-name="Path 442" d="M-545.22,308.68c.13,1.23,0,2.31-1.38,2.83C-547,310.12-546.79,309.09-545.22,308.68Z" transform="translate(8365.291 3729.758)" fill="#e6be8b"/>
    <path id="Path_443" data-name="Path 443" d="M-542.5,305.26a1.21,1.21,0,0,1-.289,1.046,1.21,1.21,0,0,1-1.011.394,1.25,1.25,0,0,1,.307-1.029A1.25,1.25,0,0,1-542.5,305.26Z" transform="translate(8365.291 3729.758)" fill="#e6be8b"/>
    <path id="Path_444" data-name="Path 444" d="M-543.94,306.88c.09.87-.22,1.44-1.13,1.58a1.21,1.21,0,0,1,.168-1.074,1.21,1.21,0,0,1,.962-.506Z" transform="translate(8365.291 3729.758)" fill="#e6be8b"/>
    <path id="Path_445" data-name="Path 445" d="M-540.79,303.82c0,1-.56,1.35-1.49,1.26a1.25,1.25,0,0,1,.442-.988A1.25,1.25,0,0,1-540.79,303.82Z" transform="translate(8365.291 3729.758)" fill="#e6be8b"/>
    <path id="Path_446" data-name="Path 446" d="M-346.37,366.74a96.86,96.86,0,0,1,32.52,7.43,14.06,14.06,0,0,1,5.81,3.72,1.62,1.62,0,0,1,.24,1.43,1.68,1.68,0,0,1-1.32.56,7,7,0,0,1-2.24-.49c-1.92-.77-3.8-1.63-5.69-2.44a78.28,78.28,0,0,0-28.61-6.27c-1.81-.05-3.62-.16-5.42-.37a1.65,1.65,0,0,1-1.6-1.4c-.17-1.36.84-1.75,1.86-1.86C-349,366.85-347.22,366.79-346.37,366.74Z" transform="translate(8365.291 3729.758)" fill="#fff"/>
  </g>
</svg>
