<svg xmlns="http://www.w3.org/2000/svg" width="261.114" height="215.984" viewBox="0 0 261.114 215.984">
  <g id="s8" transform="translate(-6353.062 -5265.985)">
    <path id="Path_75" data-name="Path 75" d="M-2002.19,1681.67c-7-12.92-9.78-26.84-9.85-41.4,0-12.56,0-25.12-.07-37.67l2.83,5.22c1.64,10.82,7,19.84,14,27.91a92.807,92.807,0,0,0,16.77,14.81c19.23,13.49,40.74,22,63,28.66a41.4,41.4,0,0,0,16,2c2.37,2,4.78,2.09,7.25.18,10.53,1.05,21,.22,31.55-.27.09,2.81.25,5.62.26,8.43v37.59c0,2.49-.71,5.14,1,7.42-3.09.1-6.2,0-9.26.33-11.58,1.29-23.14.5-34.7-.17a70.819,70.819,0,0,1-17.46-2.94c-17.69-5.64-34.78-12.73-50.61-22.57-10.55-6.56-20.28-14.09-27.59-24.36C-1999.81,1683.61-2000.58,1682.17-2002.19,1681.67Zm4.76-31.75c.1.84.28,3.16.71,5.44a2.48,2.48,0,0,0,1.54,1.46c.75.25,1.38-.35,1.62-1.16a17.479,17.479,0,0,0,.9-7.63c-.41-2.63.58-5.79-2.35-7.67-3.49,1.55-1.79,4.81-2.41,7.31a19.008,19.008,0,0,0-.01,2.25Zm-1.73,21.12a9.435,9.435,0,0,0,.08,1.5c.16,1.91,1.24,3.43,2.41,3.32,1.8-.17,2.34-1.66,3-3a3.824,3.824,0,0,0,.25-1.47c.07-2.63-1.89-5.2-3.65-4.68-2.22.65-1.93,2.63-2.09,4.29Z" transform="translate(8365.291 3729.758)" fill="#060a02"/>
    <path id="Path_77" data-name="Path 77" d="M-2002.19,1681.67c1.61.5,2.38,1.94,3.25,3.15,7.31,10.27,17,17.8,27.59,24.36,15.83,9.84,32.92,16.93,50.61,22.57a70.813,70.813,0,0,0,17.46,2.94c11.56.67,23.12,1.46,34.7.17,3.06-.34,6.17-.23,9.25-.33a17.708,17.708,0,0,0,9.17-.14,27.681,27.681,0,0,1,7.66-.94c4.22.1,8.18-1.07,12.11-2.34,4.23-1.36,4.4-1.55,4.42-6q.08-21.72,0-43.44a32.524,32.524,0,0,0-.68-4.57c3.43-.9,6.86-1.81,10.29-2.69,5.22-1.35,10.28-3,14.22-7l1.83-.5a2.75,2.75,0,0,0,2.23,1.23h9.46l2.23-1.19c4-1.38,4.14-1.38,4.14-5,0-16.9-.1-33.8-.16-50.7a27.8,27.8,0,0,0-5.78-17.88c-5.77-7.89-11.86-15.43-19.27-21.83,1.8-.81,3.3-1.85,3.14-4.15,7.47,4.48,13,11,18,17.9a42.85,42.85,0,0,1,8.34,25.29c0,4.65-.14,9.31.13,14,.24,4.1.93,8.17,1.44,12.25.25,2,1.82,3,3.08,4.32,3.81,3.85,7.63,7.71,11.52,11.49a51.938,51.938,0,0,1,7,9.24,26.413,26.413,0,0,1,3,6.29c2.12,6.6-.67,10.57-7.55,11.07-8.57.61-17-.92-25.37-2.25-5.34-.85-10.61-2.1-15.93-3.11-2.43-.46-3.21.17-3.32,2.81-.19,4.12-.28,8.26-.28,12.39,0,6.46.12,12.92.12,19.38a5.4,5.4,0,0,0,3.49,5.44c3.76,1.7,7.47,3.53,11.12,5.46a93.635,93.635,0,0,1,9.34,5.49,28.658,28.658,0,0,1,5.62,5.27,7.21,7.21,0,0,1-.39,9.26,16.3,16.3,0,0,1-4.83,3.81,43.262,43.262,0,0,1-11.59,4.28,204.491,204.491,0,0,1-24.45,3.54c-10.32,1-20.6,1.17-30.92,1.2a259.079,259.079,0,0,1-66.53-8.5,221.351,221.351,0,0,1-47-17.62,109.239,109.239,0,0,1-29.05-21.64,94.988,94.988,0,0,1-11.54-15.49C-2002.26,1686.76-2003.87,1684.42-2002.19,1681.67Z" transform="translate(8365.291 3729.758)" fill="#b8b5aa"/>
    <path id="Path_97" data-name="Path 97" d="M-1993.29,1557.26c6.69-6.36,15.06-9.8,23.52-12.79a142.214,142.214,0,0,1,43-8.1c9.25-.3,18.53-.06,27.79.11,3,.06,6.21-.13,9,1.6-4.34.81-8.68-.21-13-.1-2.23.06-4.67-.73-6.55,1.24-2.83.16-5.66.51-8.49.45a152.932,152.932,0,0,0-35.36,3.26c-10.56,2.26-21.18,4.78-30.4,11-2.56,1.72-5.28,3.22-7.93,4.83Z" transform="translate(8365.291 3729.758)" fill="#b5713e"/>
    <path id="Path_98" data-name="Path 98" d="M-1909.51,1539.22c1.88-2,4.32-1.18,6.55-1.24,4.33-.11,8.67.91,13,.1a208.511,208.511,0,0,1,41.2,8.63c1.23.38,2.46.73,3.68,1.1l.06,3.63c-4-1.22-7.88-2.51-11.85-3.64a218.988,218.988,0,0,0-52.64-8.58Z" transform="translate(8365.291 3729.758)" fill="#060a02"/>
    <path id="Path_99" data-name="Path 99" d="M-1845,1551.44l-.06-3.63a120.057,120.057,0,0,1,40.73,19.53c.16,2.3-1.34,3.34-3.14,4.15a54.293,54.293,0,0,1-6.54-3.94,70.677,70.677,0,0,0-22.76-12.2,25.157,25.157,0,0,1-8.23-3.91Z" transform="translate(8365.291 3729.758)" fill="#b5713e"/>
    <path id="Path_100" data-name="Path 100" d="M-2009.28,1607.82l-2.83-5.22c-.93-16.34,3.53-30.77,15.14-42.63a26.827,26.827,0,0,1,3.68-2.71l1.6,1.47c-12.25,12.61-18.68,27.45-17.45,45.25a35.277,35.277,0,0,1-.14,3.84Z" transform="translate(8365.291 3729.758)" fill="#b5713e"/>
    <path id="Path_272" data-name="Path 272" d="M-2009.28,1607.82a35.309,35.309,0,0,0,.14-3.84c-1.23-17.8,5.2-32.64,17.45-45.25,2.65-1.6,5.37-3.1,7.93-4.82,9.22-6.2,19.84-8.72,30.4-11a152.926,152.926,0,0,1,35.36-3.26c2.83.06,5.66-.29,8.49-.45a218.993,218.993,0,0,1,52.65,8.58c4,1.13,7.9,2.42,11.85,3.64a25.159,25.159,0,0,0,8.23,3.91,70.686,70.686,0,0,1,22.76,12.2,54.275,54.275,0,0,0,6.54,3.94c7.41,6.4,13.5,13.94,19.27,21.83a27.8,27.8,0,0,1,5.78,17.88c-8.07,2.58-16.3,1.75-24.43.73s-16.16-2.7-24.24-4.06a5.41,5.41,0,0,1-3.31-1.77,50.784,50.784,0,0,0-16.32-6.1c-11.27-2.46-22.59-4.67-34-6.48-9.26-1.47-18.3-2-27.48.15-2,.46-4.1.1-6.16.12-3.47-7.31-10-9-17.24-9.23a9.66,9.66,0,0,0-6.89,3,5.32,5.32,0,0,0-1.22,6.33,11.521,11.521,0,0,0,4,4.62,20.048,20.048,0,0,0,10.83,3.43,12.82,12.82,0,0,0,9.74-3.71c-1.14,9.07,4.32,14.76,11,18.88,7.64,4.73,15.14,9.87,23.81,12.81a134.024,134.024,0,0,1,14.37,5.73c6.61,3.13,13.86,4,20.69,6.25a1.76,1.76,0,0,0,1.5-.029,1.76,1.76,0,0,0,.933-1.171c4.5.32,8.06,3.08,12,4.79,8.19,3.54,16.62,6.67,24.06,11.79,3.84,2.65,7.58,5.29,8.69,10.22-3.94,4-9,5.62-14.22,7-3.43.88-6.86,1.79-10.29,2.69-5.53.64-11.06,1.62-16.61,1.82a111.942,111.942,0,0,0-17.35,2.16c-10.51.49-21,1.32-31.55.26a12.2,12.2,0,0,0-7.25-.17,41.4,41.4,0,0,1-16-2c-22.3-6.68-43.81-15.17-63-28.66a92.806,92.806,0,0,1-16.77-14.81C-2002.3,1627.66-2007.64,1618.64-2009.28,1607.82Zm55.54-25c-.87.09-1.38.1-1.86.2a2.38,2.38,0,0,0-2.11,1.84,3,3,0,0,0,.84,2.74c1.29,1.45,3,1.66,4.83,1.59s3.33-1,3.31-2.36a3.52,3.52,0,0,0-2.44-3.44,15.1,15.1,0,0,0-2.57-.57Zm-15.31-5.42c-1.29.3-2.37.91-2.46,2.37s1.8,3,3.7,2.86a2.08,2.08,0,0,0,2-1.89,3.229,3.229,0,0,0-.892-2.341,3.23,3.23,0,0,0-2.3-1Zm-25.23-8.21c-1.18-.08-1.86.34-2,1.11-.22,1.4.92,1.58,1.91,1.67a1.42,1.42,0,0,0,1.63-1.15C-1992.49,1569.39-1993.67,1569.34-1994.28,1569.19Zm14,6.06c-.28-1.26-1.19-1.47-2.25-1.33-.79.1-1.46.5-1.32,1.41.19,1.28,1.19,1.43,2.23,1.31.77-.1,1.37-.47,1.32-1.39Z" transform="translate(8365.291 3729.758)" fill="#fe7649"/>
    <path id="Path_273" data-name="Path 273" d="M-1860.63,1681.09a111.96,111.96,0,0,1,17.35-2.16c5.55-.2,11.08-1.18,16.61-1.82a32.524,32.524,0,0,1,.68,4.57q.08,21.72,0,43.44c0,4.44-.19,4.63-4.42,6-3.93,1.27-7.89,2.44-12.11,2.34a27.687,27.687,0,0,0-7.66.94,17.71,17.71,0,0,1-9.17.14c-1.7-2.28-1-4.93-1-7.42-.08-12.53,0-25.06,0-37.59C-1860.38,1686.71-1860.54,1683.9-1860.63,1681.09Z" transform="translate(8365.291 3729.758)" fill="#b5713e"/>
    <path id="Path_274" data-name="Path 274" d="M-1997.43,1649.92a19.006,19.006,0,0,1,0-2.25c.62-2.5-1.08-5.76,2.41-7.31,2.93,1.88,1.94,5,2.35,7.67a17.48,17.48,0,0,1-.9,7.63c-.24.81-.87,1.41-1.62,1.16a2.48,2.48,0,0,1-1.54-1.46C-1997.15,1653.08-1997.33,1650.76-1997.43,1649.92Z" transform="translate(8365.291 3729.758)" fill="#fff"/>
    <path id="Path_275" data-name="Path 275" d="M-1999.16,1671c.16-1.7-.13-3.68,2.06-4.33,1.76-.52,3.72,2,3.65,4.68a3.825,3.825,0,0,1-.25,1.47c-.63,1.34-1.17,2.83-3,3-1.17.11-2.25-1.41-2.41-3.32C-1999.12,1672-1999.13,1671.54-1999.16,1671Z" transform="translate(8365.291 3729.758)" fill="#b8b5aa"/>
    <path id="Path_276" data-name="Path 276" d="M-1899.43,1681.18a12.2,12.2,0,0,1,7.25.17C-1894.65,1683.27-1897.06,1683.13-1899.43,1681.18Z" transform="translate(8365.291 3729.758)" fill="#b5713e"/>
    <path id="Path_280" data-name="Path 280" d="M-1802.16,1667.45c-1.11-4.93-4.85-7.57-8.69-10.22-7.44-5.12-15.87-8.25-24.06-11.79-3.93-1.71-7.49-4.47-12-4.79-11.95-4.8-24-9.41-35.83-14.48-7.81-3.35-15.59-6.87-22.63-11.77a26.343,26.343,0,0,1-6.34-5.62c-3.48-4.67-2-10.14,3.45-11.67,4.2-1.18,8.53-2.1,13-1.62a335,335,0,0,1,34.36,5.32c8.81,1.87,17.52,4.21,26.49,5.29a5.409,5.409,0,0,0,3.31,1.77c8.08,1.36,16.12,3.05,24.24,4.06s16.36,1.85,24.43-.73c.06,16.9.15,33.8.16,50.7,0,3.67-.15,3.67-4.14,5l-2.23,1.19h-9.46l-2.23-1.24Z" transform="translate(8365.291 3729.758)" fill="#b5713e"/>
    <path id="Path_281" data-name="Path 281" d="M-1800.33,1667l2.23,1.24A2.79,2.79,0,0,1-1800.33,1667Z" transform="translate(8365.291 3729.758)" fill="#fe7649"/>
    <path id="Path_282" data-name="Path 282" d="M-1788.64,1668.14l2.23-1.19Z" transform="translate(8365.291 3729.758)" fill="#fe7649"/>
    <path id="Path_377" data-name="Path 377" d="M-1834.41,1606.1c-9-1.08-17.68-3.42-26.49-5.29a334.982,334.982,0,0,0-34.36-5.32c-4.46-.48-8.79.44-13,1.62-5.48,1.53-6.93,7-3.45,11.67a26.348,26.348,0,0,0,6.34,5.62c7,4.9,14.82,8.42,22.63,11.77,11.84,5.07,23.88,9.68,35.83,14.48a1.76,1.76,0,0,1-.933,1.171,1.76,1.76,0,0,1-1.5.029c-6.83-2.29-14.08-3.12-20.69-6.25a134.012,134.012,0,0,0-14.37-5.73c-8.67-2.94-16.17-8.08-23.81-12.81-6.64-4.12-12.1-9.81-11-18.88.26-1.46.53-2.92.79-4.39,2.06,0,4.21.34,6.16-.12,9.18-2.16,18.22-1.62,27.48-.15,11.41,1.81,22.73,4,34,6.48a50.782,50.782,0,0,1,16.37,6.1Z" transform="translate(8365.291 3729.758)" fill="#e6be8b"/>
    <path id="Path_378" data-name="Path 378" d="M-1918.37,1593.79c-.26,1.47-.53,2.93-.79,4.39a12.82,12.82,0,0,1-9.74,3.71,20.049,20.049,0,0,1-10.83-3.43,11.52,11.52,0,0,1-4-4.62,5.32,5.32,0,0,1,1.22-6.33,9.661,9.661,0,0,1,6.89-3C-1928.34,1584.77-1921.84,1586.48-1918.37,1593.79Z" transform="translate(8365.291 3729.758)" fill="#fff"/>
    <path id="Path_379" data-name="Path 379" d="M-1953.74,1582.82a15.1,15.1,0,0,1,2.57.57,3.52,3.52,0,0,1,2.44,3.44c0,1.32-1.43,2.29-3.31,2.36s-3.54-.14-4.83-1.59a3,3,0,0,1-.84-2.74,2.38,2.38,0,0,1,2.11-1.84C-1955.12,1582.92-1954.61,1582.91-1953.74,1582.82Z" transform="translate(8365.291 3729.758)" fill="#e6be8b"/>
    <path id="Path_380" data-name="Path 380" d="M-1969,1577.4a3.23,3.23,0,0,1,2.33.981,3.23,3.23,0,0,1,.91,2.359,2.08,2.08,0,0,1-2,1.89c-1.9.14-3.79-1.3-3.7-2.86S-1970.34,1577.7-1969,1577.4Z" transform="translate(8365.291 3729.758)" fill="#e6be8b"/>
    <path id="Path_381" data-name="Path 381" d="M-1994.28,1569.19c.61.15,1.79.2,1.57,1.63a1.42,1.42,0,0,1-1.63,1.15c-1-.09-2.13-.27-1.91-1.67C-1996.14,1569.53-1995.46,1569.11-1994.28,1569.19Z" transform="translate(8365.291 3729.758)" fill="#e6be8b"/>
    <path id="Path_382" data-name="Path 382" d="M-1980.3,1575.25c0,.92-.55,1.29-1.34,1.39-1,.12-2,0-2.23-1.31-.14-.91.53-1.31,1.32-1.41C-1981.49,1573.78-1980.58,1574-1980.3,1575.25Z" transform="translate(8365.291 3729.758)" fill="#e6be8b"/>
  </g>
</svg>
