<svg xmlns="http://www.w3.org/2000/svg" width="254.958" height="173.618" viewBox="0 0 254.958 173.618">
  <g id="s9" transform="translate(-6690.573 -4462.619)">
    <path id="Path_330" data-name="Path 330" d="M-1432.14,736.36c1.49.35,3,.66,4.47,1.06a5,5,0,0,1,3.94,5.08c-1.76,4.41-5.06,7.72-8.16,11.13-18.24,20-36.47,40.1-54.89,60q-24,25.83-48.87,50.75a102.24,102.24,0,0,1-39.82,24.53,171.57,171.57,0,0,1-47.76,8.93c-9.78.47-19.59.17-29.38.22-1-.08-2.06-.17-3.09-.23-6.9-.45-6.09.23-7.81-7-2.39-10-4.79-20.08-6.87-30.19-4.25-20.65-6-41.48-2.38-62.38,2.55-14.85,8.65-28.07,20.34-38.19,6.75-5.83,14.66-9.62,22.94-12.63a145.247,145.247,0,0,1,23.09-6.41,11.29,11.29,0,0,0,8-1.54h0c3.79.58,7.35-.35,10.85-1.66h0a20.371,20.371,0,0,0,11-1.45h0a41.907,41.907,0,0,0,4.61.19c8.5-.54,17-1.24,25.49-1.74,32.79-1.94,65.54-.73,98.28,1.36C-1443,736.53-1437.55,737.27-1432.14,736.36ZM-1637.66,856a4.25,4.25,0,0,0-3.65,2.51L-1644,861l-.6.15-.13.6-.51.47c-2.29.78-3.53,2.8-5.1,4.41-1.41,1.34-3.32,2.32-3.32,4.66-.38.61-1,1.2-1.09,1.85-.08,1,.89,1,1.64,1.07a11.589,11.589,0,0,0,5.93-1.43c3.93-1.9,7.88-3.77,11.81-5.66,1.84-.88,3.56-2.11,5.75-2a3.51,3.51,0,0,1-.05,3.37,8.33,8.33,0,0,0-4.12,4.35c-4.86,4.07-8,9.67-12.46,14.08-.78.76-.61,1.85-.34,2.84a1.71,1.71,0,0,0-.76,2,1.3,1.3,0,0,0,.718.836,1.3,1.3,0,0,0,1.1-.016,53.006,53.006,0,0,0,7.55-3.63c5.36-3.45,10.59-7.1,15.79-10.79,2.29-1.62,4.41-3.48,7.16-4.33a14.641,14.641,0,0,0,1.38.67c2.78,1.06,6,1.07,7.59,4.53.77,1.69,3,1.84,4.82,1,2.11-1,4-2,5.93.61.56.75,2.39.83,3.61.75a8.62,8.62,0,0,0,5.48-2.52c1-.93,2.06-1.54,3.41-.66,2.65,1.72,5,.74,7-1.08s3.55-3.29,6.58-1.83c2,1,4-.49,5.47-2a49.009,49.009,0,0,0,3.67-4.85,39,39,0,0,0,4.46,1.37,4.06,4.06,0,0,0,3.48-1.25c1.89-1.7,1.06-4.69,2.69-6.18s4.14-2,5.15-4.38c.51-1.18,1.25-2.27,1.64-3.48,2.43-7.6,4.37-15.29,3.55-23.39a56.48,56.48,0,0,0-3-23.1c-1.87-4.82-3.36-9.8-6.19-14.2-3.08-7.19-7.82-13.2-13.22-18.73a78.2,78.2,0,0,0-42.91-22.62c-2.2-.4-4.59-1.18-6.47,1a16,16,0,0,0-8.61,4.44,78.168,78.168,0,0,0-28.11,21.7l-2.17,2.47a62.381,62.381,0,0,0-13.82,26.41c-3.4,6-3.5,12.72-4.3,19.23a59.754,59.754,0,0,0,0,13c.48,4.88,3.65,6.74,8.15,5,2.86-1.08,5.53-2.67,8.29-4,1.57-.76,3-2.09,5-1.36l-1.89,3.28c-.21.13-.51.22-.61.42-.44.85-1.23,1.8-1.12,2.61.16,1.17,1.53,1.14,2.46,1,2.69-.44,5.36-1,8-1.57a4.53,4.53,0,0,0,3.52,2.1c1.14.13,2.41,0,3.33.93-.87,2.59-3.06,4.27-4.47,6.49Z" transform="translate(8365.291 3729.758)" fill="#060a02"/>
    <path id="Path_331" data-name="Path 331" d="M-1652.61,898c9.79,0,19.6.25,29.38-.22a171.57,171.57,0,0,0,47.76-8.93,102.241,102.241,0,0,0,39.82-24.53q24.95-24.9,48.87-50.75c18.42-19.87,36.65-39.93,54.89-60,3.1-3.41,6.4-6.72,8.16-11.13a18.667,18.667,0,0,0,1.09,2c3.69,5.21,3.85,5.69.38,10.73-9,13.15-18.06,26.35-27.41,39.29-12.07,16.71-24.27,33.33-36.77,49.72-8.43,11-17,22-26.37,32.34-11.31,12.56-25.66,19.79-41.61,24-11.95,3.19-24.15,5.3-36.63,5.08-2.56,0-5.13.37-7.7.58a14.292,14.292,0,0,1-3.82.27c-6.9-1.44-13.91-.54-20.84-1.11-6.16-.51-12.3-1.23-18.44-1.9C-1646.13,903.1-1649.35,900.52-1652.61,898Z" transform="translate(8365.291 3729.758)" fill="#b8b5aa"/>
    <path id="Path_332" data-name="Path 332" d="M-1432.14,736.36c-5.41.91-10.83.17-16.21-.18-32.74-2.09-65.49-3.3-98.28-1.36-8.51.5-17,1.2-25.49,1.74a41.907,41.907,0,0,1-4.61-.19,31.778,31.778,0,0,1,9.11-1.61c14.19-1,28.37-1.88,42.6-1.89,18.1,0,36.2-.14,54.28.69,11.88.54,23.74,1.42,35.6,2.19a21,21,0,0,1,3,.61Z" transform="translate(8365.291 3729.758)" fill="#b5713e"/>
    <path id="Path_333" data-name="Path 333" d="M-1587.62,737.82c-3.5,1.31-7.06,2.24-10.85,1.66a18.3,18.3,0,0,1,10.85-1.66Z" transform="translate(8365.291 3729.758)" fill="#b5713e"/>
    <path id="Path_334" data-name="Path 334" d="M-1576.69,736.37a20.37,20.37,0,0,1-11,1.45C-1584.18,736-1580.46,736-1576.69,736.37Z" transform="translate(8365.291 3729.758)" fill="#b5713e"/>
    <path id="Path_335" data-name="Path 335" d="M-1598.43,739.48a11.29,11.29,0,0,1-8,1.54,11.09,11.09,0,0,1,8-1.54Z" transform="translate(8365.291 3729.758)" fill="#b5713e"/>
    <path id="Path_336" data-name="Path 336" d="M-1633.79,872.84a8.33,8.33,0,0,1,4.12-4.35c2.47,1.11,4.32.59,4.42-1.4a24.186,24.186,0,0,0-.54-4.31c-2-.08-3,1-3.83,2.34-2.19-.12-3.91,1.11-5.75,2-3.93,1.89-7.88,3.76-11.81,5.66a11.59,11.59,0,0,1-5.93,1.43c-.75-.06-1.72-.08-1.64-1.07.06-.65.71-1.24,1.09-1.85a6.79,6.79,0,0,0,5.7-2.74c.89-1.07.22-1.69-.92-1.89a10.173,10.173,0,0,0-1.46,0c1.57-1.61,2.81-3.63,5.1-4.41.31,1,.84,2,2.09,1.71a15.17,15.17,0,0,0,7.72-4.77c1.3-1.42.89-2.23-1.81-3.52,1.41-2.22,3.6-3.9,4.48-6.48,2.21.16,3.84-1,5.49-2.28,4.85-3.68,9.75-7.3,15.47-11.55l-27.82,10.79c-2.67.53-5.34,1.13-8,1.57-.93.15-2.3.18-2.46-1-.11-.81.68-1.76,1.12-2.61.1-.2.4-.29.61-.42,3.65.88,4.83.24,6.22-3.36a8.14,8.14,0,0,1,4.12-1.79,17.26,17.26,0,0,0,9.39-4.8,1.62,1.62,0,0,0,.27-1.38c-.12-.39-.76-1-1-.91-3.53,1-7.81.6-9.68,5a4.43,4.43,0,0,1-3.68,2.42c-1.58-.12-3.37-.76-3.89,1.63l.13-.1c-2-.73-3.41.6-5,1.36-2.76,1.34-5.43,2.93-8.29,4-4.5,1.69-7.67-.17-8.15-5a59.755,59.755,0,0,1,0-13c.8-6.51.9-13.27,4.3-19.23-.18,3.07.38,6.43-.68,9.15-2.58,6.59-.94,13.16-.89,19.73,0,2.09,1.42,3,3.6,3.12a11.14,11.14,0,0,0,5.87-1.65c4-2.17,8-4.5,12.1-6.6,8.47-4.35,16.76-9.15,25.56-12.7,6.88-2.77,13.48-6.2,20.5-8.61a5.191,5.191,0,0,0,3-2.32c1.7.63,3.13,0,4.5-.93,5.77-1.89,11.68-3.44,17.29-5.73,8-3.27,16.43-5.14,24.51-8.11,2.83,4.4,4.32,9.38,6.19,14.2a25.491,25.491,0,0,0-3,2.34,581.338,581.338,0,0,1-46.07,43.27c-5.67,4.82-11.28,9.71-16.92,14.57-3.19.79-5.06,3.19-6.91,5.62-2.75.85-4.87,2.71-7.16,4.33-5.2,3.69-10.43,7.34-15.79,10.79a52.993,52.993,0,0,1-7.55,3.63,1.3,1.3,0,0,1-1.1.016,1.3,1.3,0,0,1-.718-.836,1.69,1.69,0,0,1,.76-2c2.49-.9,4.82-2.21,5.52-4.86.61-2.34,2.08-3.21,4.07-4a13.42,13.42,0,0,0,6.73-6c.6-1.06,0-1.95-1.24-2.1A17.374,17.374,0,0,0-1633.79,872.84Zm9.11-43.49a3.528,3.528,0,0,0,1.33-.49c.33-.31,1-1.3.84-1.64-.38-.8-1.26-.49-1.9-.13a4.69,4.69,0,0,0-1.1.94,1.189,1.189,0,0,0-.31.63,9.322,9.322,0,0,0,1.14.69Z" transform="translate(8365.291 3729.758)" fill="#b5713e"/>
    <path id="Path_337" data-name="Path 337" d="M-1548.31,793.79c-8.08,3-16.51,4.84-24.51,8.11-5.61,2.29-11.52,3.84-17.28,5.72.16-1.19-.68-1.87-1.38-2.59a77.589,77.589,0,0,0-28.65-19.12c-3.29-1.25-6.94-1.95-9.63-4.53l7.73-7a116.608,116.608,0,0,1,18.24,8.11c4.66,2.65,9.17,5.58,13.77,8.34,1,.63,2.4,1.54,3.29,0,.57-.94-.38-2-1.14-2.61a44.824,44.824,0,0,0-4.81-3.8A154.274,154.274,0,0,0-1620,770.55a2.66,2.66,0,0,0-2.42-1.58c-3-.12-5.47,1.23-7.72,3-3.4,2.74-6.75,5.54-10.12,8.31l-7.37-.77a78.089,78.089,0,0,1,28.11-21.69c1.15.56,2.26,1.22,3.45,1.69,12.51,4.86,24.74,10.29,35.64,18.28q5.28,3.87,10.46,7.9a5.891,5.891,0,0,0,4.18,1.66,3,3,0,0,0,2-.79c.32-.45.08-1.41-.12-2.09a3.551,3.551,0,0,0-1-1.2,100.309,100.309,0,0,0-36.52-25.3c-3.26-1.32-6.9-2-9.58-4.59,1.88-2.16,4.27-1.38,6.47-1A78.2,78.2,0,0,1-1561.63,775C-1556.13,780.59-1551.39,786.6-1548.31,793.79Z" transform="translate(8365.291 3729.758)" fill="#fe7649"/>
    <path id="Path_338" data-name="Path 338" d="M-1594.61,808.56a5.19,5.19,0,0,1-3,2.32c-7,2.41-13.62,5.84-20.5,8.61-8.8,3.55-17.09,8.35-25.56,12.7-4.08,2.1-8.05,4.43-12.1,6.6a11.14,11.14,0,0,1-5.87,1.65c-2.18-.09-3.58-1-3.6-3.12,0-6.57-1.69-13.14.89-19.73,1.06-2.72.5-6.08.68-9.15A62.377,62.377,0,0,1-1649.8,782a6,6,0,0,0,5.61,2.34c-3.48,4.4-6.94,8.81-10.44,13.19-3.25,4.08-4.32,9.13-6.19,13.82-.18.45.43,1.52,1,1.88a2.55,2.55,0,0,0,2.12.2,6.878,6.878,0,0,0,2.34-1.89c1.94-2.36,3.78-4.8,5.65-7.21,3.53.32,7,.3,10.58,1.24,3.11.84,6.56.42,9.87.5a1.72,1.72,0,0,0,1.82-1,1.36,1.36,0,0,0-.032-1.094,1.36,1.36,0,0,0-.828-.716c-2.28-1.1-4.57-2.23-6.92-3.17-2.83-1.13-5.73-2.08-8.61-3.11,1.87-3.93,4.9-6.89,8.13-9.67,8.72,2.22,16.75,6.12,24.8,10.05a57.489,57.489,0,0,1,16.29,11.2Z" transform="translate(8365.291 3729.758)" fill="#fe7649"/>
    <path id="Path_339" data-name="Path 339" d="M-1608.12,868.17c5.64-4.86,11.25-9.75,16.92-14.57a581.35,581.35,0,0,0,46.07-43.27,25.479,25.479,0,0,1,3-2.34,56.482,56.482,0,0,1,3,23.1c-3.12,1-3.2,3.64-3.26,6.3,0,2.28-1,4.2-3.45,4.45-2.66.28-4.13,1.39-4.92,4a6.51,6.51,0,0,1-3.71,3.76,11.17,11.17,0,0,0-4.25,3.27c-3.07,3.92-7.91,5.71-11.23,9.35a5.161,5.161,0,0,1-3.45,1.43c-2.54,0-4.11,1.54-6.1,2.73-4.64,2.8-9.8,5.26-15.29,2.78-2.5-1.14-4.5-1.73-7.2-1C-1603.88,868.7-1606.06,868.21-1608.12,868.17Z" transform="translate(8365.291 3729.758)" fill="#fff"/>
    <path id="Path_340" data-name="Path 340" d="M-1608.12,868.17c2.06,0,4.24.53,6.14,0,2.7-.76,4.7-.17,7.2,1,5.49,2.48,10.65,0,15.29-2.78,2-1.19,3.56-2.69,6.1-2.73a5.16,5.16,0,0,0,3.45-1.43c3.32-3.64,8.16-5.43,11.23-9.35a11.168,11.168,0,0,1,4.25-3.27,6.51,6.51,0,0,0,3.71-3.76c.79-2.59,2.26-3.7,4.92-4,2.41-.25,3.4-2.17,3.45-4.45.06-2.66.14-5.25,3.26-6.3.82,8.1-1.12,15.79-3.55,23.39-.39,1.21-1.13,2.3-1.64,3.48-1,2.35-3.51,2.88-5.15,4.38s-.8,4.48-2.69,6.18a4.06,4.06,0,0,1-3.48,1.25,39.006,39.006,0,0,1-4.46-1.37,49.027,49.027,0,0,1-3.67,4.85c-1.44,1.51-3.5,3-5.47,2-3-1.46-4.62,0-6.58,1.83s-4.35,2.8-7,1.08c-1.35-.88-2.44-.27-3.41.66a8.619,8.619,0,0,1-5.48,2.52c-1.22.08-3,0-3.61-.75-1.91-2.57-3.82-1.58-5.93-.61-1.84.85-4,.7-4.82-1-1.59-3.46-4.81-3.47-7.59-4.53a14.6,14.6,0,0,1-1.38-.67C-1613.18,871.36-1611.31,869-1608.12,868.17Z" transform="translate(8365.291 3729.758)" fill="#e6be8b"/>
    <path id="Path_341" data-name="Path 341" d="M-1610.91,753.42c2.68,2.6,6.32,3.27,9.58,4.59a100.309,100.309,0,0,1,36.52,25.3,3.549,3.549,0,0,1,1,1.2c.2.68.44,1.64.12,2.09a3,3,0,0,1-2,.79,5.891,5.891,0,0,1-4.18-1.66q-5.18-4-10.46-7.9c-10.9-8-23.13-13.42-35.64-18.28-1.19-.47-2.3-1.13-3.45-1.69a15.891,15.891,0,0,1,8.51-4.44Z" transform="translate(8365.291 3729.758)" fill="#e6be8b"/>
    <path id="Path_342" data-name="Path 342" d="M-1639.62,846.11l27.82-10.79c-5.72,4.25-10.62,7.87-15.47,11.55-1.65,1.26-3.28,2.44-5.49,2.28-.93-1-2.2-.81-3.34-.94A4.53,4.53,0,0,1-1639.62,846.11Z" transform="translate(8365.291 3729.758)" fill="#fff"/>
    <path id="Path_343" data-name="Path 343" d="M-1633.79,872.84a17.374,17.374,0,0,1,2.28,0c1.26.15,1.84,1,1.24,2.1a13.42,13.42,0,0,1-6.73,6c-2,.8-3.46,1.67-4.07,4-.7,2.65-3,4-5.52,4.86-.27-1-.44-2.09.34-2.85C-1641.77,882.51-1638.65,876.91-1633.79,872.84Z" transform="translate(8365.291 3729.758)" fill="#b8b5aa"/>
    <path id="Path_344" data-name="Path 344" d="M-1637.24,855.63c2.7,1.29,3.11,2.1,1.81,3.52a15.17,15.17,0,0,1-7.72,4.77c-1.25.29-1.78-.67-2.09-1.71l.51-.46.6-.14.13-.62,2.68-2.43a4.09,4.09,0,0,0,3.66-2.52Z" transform="translate(8365.291 3729.758)" fill="#b8b5aa"/>
    <path id="Path_345" data-name="Path 345" d="M-1644.18,784.37a6,6,0,0,1-5.62-2.34l2.17-2.48,7.38.77a11.551,11.551,0,0,1-3.93,4.05Z" transform="translate(8365.291 3729.758)" fill="#e6be8b"/>
    <path id="Path_346" data-name="Path 346" d="M-1629.62,865.12c.85-1.33,1.85-2.42,3.83-2.34a24.185,24.185,0,0,1,.54,4.31c-.1,2-2,2.51-4.42,1.4a3.51,3.51,0,0,0,.05-3.37Z" transform="translate(8365.291 3729.758)" fill="#e6be8b"/>
    <path id="Path_347" data-name="Path 347" d="M-1642.16,840.3c-1.39,3.6-2.57,4.24-6.22,3.36l1.89-3.28-.13.1,2.95-.47C-1643.17,840.13-1642.67,840.22-1642.16,840.3Z" transform="translate(8365.291 3729.758)" fill="#b8b5aa"/>
    <path id="Path_348" data-name="Path 348" d="M-1650.34,866.62a10.162,10.162,0,0,1,1.46,0c1.14.2,1.81.82.92,1.89a6.79,6.79,0,0,1-5.7,2.74C-1653.66,868.94-1651.75,868-1650.34,866.62Z" transform="translate(8365.291 3729.758)" fill="#b8b5aa"/>
    <path id="Path_349" data-name="Path 349" d="M-1637.66,856a4.091,4.091,0,0,1-3.66,2.52A4.27,4.27,0,0,1-1637.66,856Z" transform="translate(8365.291 3729.758)" fill="#b5713e"/>
    <path id="Path_350" data-name="Path 350" d="M1127.3,1431.75l-.14.62-.6.14.13-.61Z" transform="translate(5594.001 3158.998)" fill="#b5713e"/>
    <path id="Path_351" data-name="Path 351" d="M-1594.61,808.56a57.487,57.487,0,0,0-16.33-11.21c-8-3.93-16.08-7.83-24.81-10.05a21.108,21.108,0,0,1,6-5.92c2.69,2.58,6.34,3.28,9.63,4.53A77.588,77.588,0,0,1-1591.48,805c.7.72,1.54,1.4,1.38,2.59C-1591.48,808.58-1592.91,809.19-1594.61,808.56Z" transform="translate(8365.291 3729.758)" fill="#e6be8b"/>
    <path id="Path_352" data-name="Path 352" d="M-1642.16,840.3c-.51-.08-1-.17-1.51-.28a3.05,3.05,0,0,1,.94-1.17,4.43,4.43,0,0,0,3.68-2.42c1.87-4.41,6.15-4,9.68-5,.23-.07.87.52,1,.91a1.621,1.621,0,0,1-.27,1.38,17.26,17.26,0,0,1-9.39,4.8,8.141,8.141,0,0,0-4.13,1.78Z" transform="translate(8365.291 3729.758)" fill="#e6be8b"/>
    <path id="Path_353" data-name="Path 353" d="M-1624.68,829.35a9.312,9.312,0,0,1-1.14-.69,1.191,1.191,0,0,1,.31-.63,4.7,4.7,0,0,1,1.1-.94c.64-.36,1.52-.67,1.9.13.17.34-.42,1.19-.84,1.64S-1624.23,829.2-1624.68,829.35Z" transform="translate(8365.291 3729.758)" fill="#e6be8b"/>
    <path id="Path_354" data-name="Path 354" d="M-1642.73,838.85a3.05,3.05,0,0,0-.94,1.17l-2.95.46C-1646.1,838.09-1644.31,838.73-1642.73,838.85Z" transform="translate(8365.291 3729.758)" fill="#060a02"/>
    <path id="Path_355" data-name="Path 355" d="M-1629.76,781.38a21.109,21.109,0,0,0-6,5.92c-3.22,2.78-6.25,5.74-8.11,9.67-3,1.67-3.91,4.94-5.89,7.39s-3.71,4.85-5.65,7.21a6.879,6.879,0,0,1-2.34,1.89,2.55,2.55,0,0,1-2.12-.2c-.53-.36-1.14-1.43-1-1.88,1.87-4.69,2.94-9.74,6.19-13.82,3.5-4.38,7-8.79,10.44-13.19a11.491,11.491,0,0,0,3.94-4c3.37-2.77,6.72-5.57,10.12-8.31,2.25-1.81,4.7-3.16,7.72-3a2.64,2.64,0,0,1,2.41,1.58l-2,3.83Z" transform="translate(8365.291 3729.758)" fill="#fff"/>
    <path id="Path_356" data-name="Path 356" d="M-1622,774.38l2-3.83a154,154,0,0,1,27.32,13.92,44.846,44.846,0,0,1,4.81,3.8c.76.65,1.71,1.67,1.14,2.61-.89,1.49-2.24.58-3.29,0-4.6-2.76-9.11-5.69-13.77-8.34a116.613,116.613,0,0,0-18.21-8.16Z" transform="translate(8365.291 3729.758)" fill="#e6be8b"/>
    <path id="Path_357" data-name="Path 357" d="M-1649.75,804.36c2-2.45,2.93-5.72,5.89-7.39,2.87,1,5.77,2,8.6,3.11,2.35.94,4.64,2.07,6.92,3.17a1.36,1.36,0,0,1,.828.716,1.36,1.36,0,0,1,.032,1.094,1.72,1.72,0,0,1-1.82,1c-3.31-.08-6.76.34-9.87-.5C-1642.71,804.66-1646.22,804.68-1649.75,804.36Z" transform="translate(8365.291 3729.758)" fill="#e6be8b"/>
  </g>
</svg>
