<svg xmlns="http://www.w3.org/2000/svg" width="676.442" height="484.481" viewBox="0 0 676.442 484.481">
  <g id="sushi-large" transform="translate(-5562.306 -2438.533)">
    <path id="Path_56" data-name="Path 56" d="M1023,1273.28c1,.43,8.82,3.78,11.12,12,2.09,7.53-1.22,16-8.35,20.86l-605,183.69c-6,2.06-11.63.94-13.13-1.79-1.74-3.13,1.05-10.08,8.94-13.73Z" transform="translate(5155.726 1300.11)" fill="#8c6239" stroke="#000" stroke-miterlimit="10" stroke-width="1"/>
    <path id="Path_57" data-name="Path 57" d="M1073.51,1290.63q-60.23,18.3-120.47,36.57a18.92,18.92,0,0,0,5.14-18.17,18.68,18.68,0,0,0-9-11l121.56-40.31c1,.42,8.82,3.78,11.12,12C1084,1277.3,1080.65,1285.78,1073.51,1290.63Z" transform="translate(5155.726 1300.11)" fill="#fff" stroke="#000" stroke-miterlimit="10" stroke-width="1"/>
    <path id="Path_58" data-name="Path 58" d="M630.17,1589.05c-11,8.16-48.35,32.63-112.4,33.83-60.65,1.15-99-37.81-108.77-47.13l3.63-97.89a204.621,204.621,0,0,1,108.77-31.43c56.8,0,92.37,21.79,107.56,31.43Z" transform="translate(5155.726 1300.11)"/>
    <ellipse id="Ellipse_11" data-name="Ellipse 11" cx="94.96" cy="38.77" rx="94.96" ry="38.77" transform="translate(5580.355 2754.81)" fill="#fff"/>
    <ellipse id="Ellipse_12" data-name="Ellipse 12" cx="72.51" cy="29.61" rx="72.51" ry="29.61" transform="translate(5602.806 2763.46)" fill="red"/>
    <path id="Path_59" data-name="Path 59" d="M844.38,1290.15" transform="translate(5155.726 1300.11)" fill="none" stroke="#28ff17" stroke-miterlimit="10" stroke-width="3"/>
    <path id="Path_60" data-name="Path 60" d="M1028.89,1139a24.72,24.72,0,0,1,21.57,25.88l-461.55,438.5c-5.32,6.6-14,6.51-17.26,2.87-3-3.32-2.67-10.8,2.88-15.81Z" transform="translate(5155.726 1300.11)" fill="#8c6239" stroke="#000" stroke-miterlimit="10" stroke-width="1"/>
    <path id="Path_61" data-name="Path 61" d="M1050.45,1164.84q-34.51,32.78-69,65.56a24.7,24.7,0,0,0-20.71-23.74l68.14-67.71a24.72,24.72,0,0,1,21.57,25.89Z" transform="translate(5155.726 1300.11)" fill="#fff" stroke="#000" stroke-miterlimit="10" stroke-width="1"/>
  </g>
</svg>
