<svg xmlns="http://www.w3.org/2000/svg" width="481.479" height="327.759" viewBox="0 0 481.479 327.759">
  <g id="sushi-mini" transform="translate(-4530.464 -3403.583)">
    <path id="Path_35" data-name="Path 35" d="M836.5,1349.89c.69.35,5.89,3.13,7,9,1,5.33-1.77,11-7,14l-430,92c-4.28,1.08-8.11,0-9-2-1-2.28,1.32-6.93,7-9Z" transform="translate(4134.726 2122.11)"/>
    <path id="Path_36" data-name="Path 36" d="M835.5,1350.89c.69.35,5.89,3.13,7,9,1,5.33-1.77,11-7,14l-430,92c-4.28,1.08-8.11,0-9-2-1-2.28,1.32-6.93,7-9Z" transform="translate(4134.726 2122.11)" fill="#8c6239" stroke="#000" stroke-miterlimit="10" stroke-width="1"/>
    <path id="Path_37" data-name="Path 37" d="M869.5,1365.86l-85.62,18.32a13.15,13.15,0,0,0,4.62-12.29,13,13,0,0,0-5.6-8.15l86.6-20.85c.69.35,5.89,3.13,7,9C877.51,1357.23,874.73,1362.91,869.5,1365.86Z" transform="translate(4134.726 2122.11)" fill="#fff" stroke="#000" stroke-miterlimit="10" stroke-width="1"/>
    <path id="Path_38" data-name="Path 38" d="M640.17,1524.89c-9.07,6.76-40,27-93,28-50.18.95-81.9-31.29-90-39l3-81a169.289,169.289,0,0,1,90-26c47,0,76.43,18,89,26Z" transform="translate(4134.726 2122.11)"/>
    <ellipse id="Ellipse_7" data-name="Ellipse 7" cx="78.57" cy="32.08" rx="78.57" ry="32.08" transform="translate(4604.826 3535.84)" fill="#fff"/>
    <path id="Path_39" data-name="Path 39" d="M836.5,1281.89a17.19,17.19,0,0,1,15,18l-321,305c-3.7,4.59-9.7,4.53-12,2-2.1-2.31-1.86-7.52,2-11Z" transform="translate(4134.726 2122.11)"/>
    <ellipse id="Ellipse_8" data-name="Ellipse 8" cx="60" cy="24.5" rx="60" ry="24.5" transform="translate(4623.396 3543)" fill="red"/>
    <path id="Path_40" data-name="Path 40" d="M844.38,1290.15" transform="translate(4134.726 2122.11)" fill="none" stroke="#28ff17" stroke-miterlimit="10" stroke-width="3"/>
    <path id="Path_41" data-name="Path 41" d="M836.48,1282a17.19,17.19,0,0,1,15,18l-321,305c-3.69,4.59-9.7,4.53-12,2-2.09-2.31-1.85-7.52,2-11Z" transform="translate(4134.726 2122.11)" fill="#8c6239" stroke="#000" stroke-miterlimit="10" stroke-width="1"/>
    <path id="Path_42" data-name="Path 42" d="M851.48,1300l-48,45.6a17.17,17.17,0,0,0-14.4-16.51l47.4-47.09A17.19,17.19,0,0,1,851.48,1300Z" transform="translate(4134.726 2122.11)" fill="#fff" stroke="#000" stroke-miterlimit="10" stroke-width="1"/>
  </g>
</svg>
